%TF.GenerationSoftware,KiCad,Pcbnew,(5.1.7)-1*%
%TF.CreationDate,2021-04-26T16:45:44-05:00*%
%TF.ProjectId,Op_Amp_demo_PCB,4f705f41-6d70-45f6-9465-6d6f5f504342,1.0*%
%TF.SameCoordinates,Original*%
%TF.FileFunction,Legend,Top*%
%TF.FilePolarity,Positive*%
%FSLAX46Y46*%
G04 Gerber Fmt 4.6, Leading zero omitted, Abs format (unit mm)*
G04 Created by KiCad (PCBNEW (5.1.7)-1) date 2021-04-26 16:45:44*
%MOMM*%
%LPD*%
G01*
G04 APERTURE LIST*
%ADD10C,0.150000*%
%ADD11C,0.120000*%
%ADD12C,0.300000*%
%ADD13C,0.539750*%
%ADD14C,0.635000*%
%ADD15C,0.010000*%
%ADD16C,0.200000*%
%ADD17C,0.127000*%
%ADD18C,0.015000*%
G04 APERTURE END LIST*
D10*
X89773285Y-104211428D02*
X90535190Y-104211428D01*
X90154238Y-104592380D02*
X90154238Y-103830476D01*
X91487571Y-103592380D02*
X91011380Y-103592380D01*
X90963761Y-104068571D01*
X91011380Y-104020952D01*
X91106619Y-103973333D01*
X91344714Y-103973333D01*
X91439952Y-104020952D01*
X91487571Y-104068571D01*
X91535190Y-104163809D01*
X91535190Y-104401904D01*
X91487571Y-104497142D01*
X91439952Y-104544761D01*
X91344714Y-104592380D01*
X91106619Y-104592380D01*
X91011380Y-104544761D01*
X90963761Y-104497142D01*
X91820904Y-103592380D02*
X92154238Y-104592380D01*
X92487571Y-103592380D01*
X90424095Y-101100000D02*
X90328857Y-101052380D01*
X90186000Y-101052380D01*
X90043142Y-101100000D01*
X89947904Y-101195238D01*
X89900285Y-101290476D01*
X89852666Y-101480952D01*
X89852666Y-101623809D01*
X89900285Y-101814285D01*
X89947904Y-101909523D01*
X90043142Y-102004761D01*
X90186000Y-102052380D01*
X90281238Y-102052380D01*
X90424095Y-102004761D01*
X90471714Y-101957142D01*
X90471714Y-101623809D01*
X90281238Y-101623809D01*
X90900285Y-102052380D02*
X90900285Y-101052380D01*
X91471714Y-102052380D01*
X91471714Y-101052380D01*
X91947904Y-102052380D02*
X91947904Y-101052380D01*
X92186000Y-101052380D01*
X92328857Y-101100000D01*
X92424095Y-101195238D01*
X92471714Y-101290476D01*
X92519333Y-101480952D01*
X92519333Y-101623809D01*
X92471714Y-101814285D01*
X92424095Y-101909523D01*
X92328857Y-102004761D01*
X92186000Y-102052380D01*
X91947904Y-102052380D01*
X90424095Y-98560000D02*
X90328857Y-98512380D01*
X90186000Y-98512380D01*
X90043142Y-98560000D01*
X89947904Y-98655238D01*
X89900285Y-98750476D01*
X89852666Y-98940952D01*
X89852666Y-99083809D01*
X89900285Y-99274285D01*
X89947904Y-99369523D01*
X90043142Y-99464761D01*
X90186000Y-99512380D01*
X90281238Y-99512380D01*
X90424095Y-99464761D01*
X90471714Y-99417142D01*
X90471714Y-99083809D01*
X90281238Y-99083809D01*
X90900285Y-99512380D02*
X90900285Y-98512380D01*
X91471714Y-99512380D01*
X91471714Y-98512380D01*
X91947904Y-99512380D02*
X91947904Y-98512380D01*
X92186000Y-98512380D01*
X92328857Y-98560000D01*
X92424095Y-98655238D01*
X92471714Y-98750476D01*
X92519333Y-98940952D01*
X92519333Y-99083809D01*
X92471714Y-99274285D01*
X92424095Y-99369523D01*
X92328857Y-99464761D01*
X92186000Y-99512380D01*
X91947904Y-99512380D01*
X89773285Y-96464428D02*
X90535190Y-96464428D01*
X91487571Y-95845380D02*
X91011380Y-95845380D01*
X90963761Y-96321571D01*
X91011380Y-96273952D01*
X91106619Y-96226333D01*
X91344714Y-96226333D01*
X91439952Y-96273952D01*
X91487571Y-96321571D01*
X91535190Y-96416809D01*
X91535190Y-96654904D01*
X91487571Y-96750142D01*
X91439952Y-96797761D01*
X91344714Y-96845380D01*
X91106619Y-96845380D01*
X91011380Y-96797761D01*
X90963761Y-96750142D01*
X91820904Y-95845380D02*
X92154238Y-96845380D01*
X92487571Y-95845380D01*
D11*
X130429000Y-110998000D02*
X121031000Y-110998000D01*
D10*
X134112000Y-88265000D02*
X118491000Y-88265000D01*
X135509000Y-67183000D02*
X116967000Y-67183000D01*
D12*
X121230000Y-110660571D02*
X121230000Y-109160571D01*
X121944285Y-109660571D02*
X121944285Y-110660571D01*
X121944285Y-109803428D02*
X122015714Y-109732000D01*
X122158571Y-109660571D01*
X122372857Y-109660571D01*
X122515714Y-109732000D01*
X122587142Y-109874857D01*
X122587142Y-110660571D01*
X123158571Y-109660571D02*
X123515714Y-110660571D01*
X123872857Y-109660571D01*
X125015714Y-110589142D02*
X124872857Y-110660571D01*
X124587142Y-110660571D01*
X124444285Y-110589142D01*
X124372857Y-110446285D01*
X124372857Y-109874857D01*
X124444285Y-109732000D01*
X124587142Y-109660571D01*
X124872857Y-109660571D01*
X125015714Y-109732000D01*
X125087142Y-109874857D01*
X125087142Y-110017714D01*
X124372857Y-110160571D01*
X125730000Y-110660571D02*
X125730000Y-109660571D01*
X125730000Y-109946285D02*
X125801428Y-109803428D01*
X125872857Y-109732000D01*
X126015714Y-109660571D01*
X126158571Y-109660571D01*
X126444285Y-109660571D02*
X127015714Y-109660571D01*
X126658571Y-109160571D02*
X126658571Y-110446285D01*
X126730000Y-110589142D01*
X126872857Y-110660571D01*
X127015714Y-110660571D01*
X127515714Y-110660571D02*
X127515714Y-109660571D01*
X127515714Y-109160571D02*
X127444285Y-109232000D01*
X127515714Y-109303428D01*
X127587142Y-109232000D01*
X127515714Y-109160571D01*
X127515714Y-109303428D01*
X128230000Y-109660571D02*
X128230000Y-110660571D01*
X128230000Y-109803428D02*
X128301428Y-109732000D01*
X128444285Y-109660571D01*
X128658571Y-109660571D01*
X128801428Y-109732000D01*
X128872857Y-109874857D01*
X128872857Y-110660571D01*
X130230000Y-109660571D02*
X130230000Y-110874857D01*
X130158571Y-111017714D01*
X130087142Y-111089142D01*
X129944285Y-111160571D01*
X129730000Y-111160571D01*
X129587142Y-111089142D01*
X130230000Y-110589142D02*
X130087142Y-110660571D01*
X129801428Y-110660571D01*
X129658571Y-110589142D01*
X129587142Y-110517714D01*
X129515714Y-110374857D01*
X129515714Y-109946285D01*
X129587142Y-109803428D01*
X129658571Y-109732000D01*
X129801428Y-109660571D01*
X130087142Y-109660571D01*
X130230000Y-109732000D01*
X118730142Y-87927571D02*
X118730142Y-86427571D01*
X119587285Y-87927571D01*
X119587285Y-86427571D01*
X120515857Y-87927571D02*
X120373000Y-87856142D01*
X120301571Y-87784714D01*
X120230142Y-87641857D01*
X120230142Y-87213285D01*
X120301571Y-87070428D01*
X120373000Y-86999000D01*
X120515857Y-86927571D01*
X120730142Y-86927571D01*
X120873000Y-86999000D01*
X120944428Y-87070428D01*
X121015857Y-87213285D01*
X121015857Y-87641857D01*
X120944428Y-87784714D01*
X120873000Y-87856142D01*
X120730142Y-87927571D01*
X120515857Y-87927571D01*
X121658714Y-86927571D02*
X121658714Y-87927571D01*
X121658714Y-87070428D02*
X121730142Y-86999000D01*
X121873000Y-86927571D01*
X122087285Y-86927571D01*
X122230142Y-86999000D01*
X122301571Y-87141857D01*
X122301571Y-87927571D01*
X123015857Y-87356142D02*
X124158714Y-87356142D01*
X124873000Y-87927571D02*
X124873000Y-86427571D01*
X125587285Y-86927571D02*
X125587285Y-87927571D01*
X125587285Y-87070428D02*
X125658714Y-86999000D01*
X125801571Y-86927571D01*
X126015857Y-86927571D01*
X126158714Y-86999000D01*
X126230142Y-87141857D01*
X126230142Y-87927571D01*
X126801571Y-86927571D02*
X127158714Y-87927571D01*
X127515857Y-86927571D01*
X128658714Y-87856142D02*
X128515857Y-87927571D01*
X128230142Y-87927571D01*
X128087285Y-87856142D01*
X128015857Y-87713285D01*
X128015857Y-87141857D01*
X128087285Y-86999000D01*
X128230142Y-86927571D01*
X128515857Y-86927571D01*
X128658714Y-86999000D01*
X128730142Y-87141857D01*
X128730142Y-87284714D01*
X128015857Y-87427571D01*
X129373000Y-87927571D02*
X129373000Y-86927571D01*
X129373000Y-87213285D02*
X129444428Y-87070428D01*
X129515857Y-86999000D01*
X129658714Y-86927571D01*
X129801571Y-86927571D01*
X130087285Y-86927571D02*
X130658714Y-86927571D01*
X130301571Y-86427571D02*
X130301571Y-87713285D01*
X130373000Y-87856142D01*
X130515857Y-87927571D01*
X130658714Y-87927571D01*
X131158714Y-87927571D02*
X131158714Y-86927571D01*
X131158714Y-86427571D02*
X131087285Y-86499000D01*
X131158714Y-86570428D01*
X131230142Y-86499000D01*
X131158714Y-86427571D01*
X131158714Y-86570428D01*
X131873000Y-86927571D02*
X131873000Y-87927571D01*
X131873000Y-87070428D02*
X131944428Y-86999000D01*
X132087285Y-86927571D01*
X132301571Y-86927571D01*
X132444428Y-86999000D01*
X132515857Y-87141857D01*
X132515857Y-87927571D01*
X133873000Y-86927571D02*
X133873000Y-88141857D01*
X133801571Y-88284714D01*
X133730142Y-88356142D01*
X133587285Y-88427571D01*
X133373000Y-88427571D01*
X133230142Y-88356142D01*
X133873000Y-87856142D02*
X133730142Y-87927571D01*
X133444428Y-87927571D01*
X133301571Y-87856142D01*
X133230142Y-87784714D01*
X133158714Y-87641857D01*
X133158714Y-87213285D01*
X133230142Y-87070428D01*
X133301571Y-86999000D01*
X133444428Y-86927571D01*
X133730142Y-86927571D01*
X133873000Y-86999000D01*
X117115000Y-65345571D02*
X117615000Y-66845571D01*
X118115000Y-65345571D01*
X118829285Y-66845571D02*
X118686428Y-66774142D01*
X118615000Y-66702714D01*
X118543571Y-66559857D01*
X118543571Y-66131285D01*
X118615000Y-65988428D01*
X118686428Y-65917000D01*
X118829285Y-65845571D01*
X119043571Y-65845571D01*
X119186428Y-65917000D01*
X119257857Y-65988428D01*
X119329285Y-66131285D01*
X119329285Y-66559857D01*
X119257857Y-66702714D01*
X119186428Y-66774142D01*
X119043571Y-66845571D01*
X118829285Y-66845571D01*
X120186428Y-66845571D02*
X120043571Y-66774142D01*
X119972142Y-66631285D01*
X119972142Y-65345571D01*
X120543571Y-65845571D02*
X121115000Y-65845571D01*
X120757857Y-65345571D02*
X120757857Y-66631285D01*
X120829285Y-66774142D01*
X120972142Y-66845571D01*
X121115000Y-66845571D01*
X122257857Y-66845571D02*
X122257857Y-66059857D01*
X122186428Y-65917000D01*
X122043571Y-65845571D01*
X121757857Y-65845571D01*
X121615000Y-65917000D01*
X122257857Y-66774142D02*
X122115000Y-66845571D01*
X121757857Y-66845571D01*
X121615000Y-66774142D01*
X121543571Y-66631285D01*
X121543571Y-66488428D01*
X121615000Y-66345571D01*
X121757857Y-66274142D01*
X122115000Y-66274142D01*
X122257857Y-66202714D01*
X123615000Y-65845571D02*
X123615000Y-67059857D01*
X123543571Y-67202714D01*
X123472142Y-67274142D01*
X123329285Y-67345571D01*
X123115000Y-67345571D01*
X122972142Y-67274142D01*
X123615000Y-66774142D02*
X123472142Y-66845571D01*
X123186428Y-66845571D01*
X123043571Y-66774142D01*
X122972142Y-66702714D01*
X122900714Y-66559857D01*
X122900714Y-66131285D01*
X122972142Y-65988428D01*
X123043571Y-65917000D01*
X123186428Y-65845571D01*
X123472142Y-65845571D01*
X123615000Y-65917000D01*
X124900714Y-66774142D02*
X124757857Y-66845571D01*
X124472142Y-66845571D01*
X124329285Y-66774142D01*
X124257857Y-66631285D01*
X124257857Y-66059857D01*
X124329285Y-65917000D01*
X124472142Y-65845571D01*
X124757857Y-65845571D01*
X124900714Y-65917000D01*
X124972142Y-66059857D01*
X124972142Y-66202714D01*
X124257857Y-66345571D01*
X127257857Y-66059857D02*
X126757857Y-66059857D01*
X126757857Y-66845571D02*
X126757857Y-65345571D01*
X127472142Y-65345571D01*
X128257857Y-66845571D02*
X128115000Y-66774142D01*
X128043571Y-66702714D01*
X127972142Y-66559857D01*
X127972142Y-66131285D01*
X128043571Y-65988428D01*
X128115000Y-65917000D01*
X128257857Y-65845571D01*
X128472142Y-65845571D01*
X128615000Y-65917000D01*
X128686428Y-65988428D01*
X128757857Y-66131285D01*
X128757857Y-66559857D01*
X128686428Y-66702714D01*
X128615000Y-66774142D01*
X128472142Y-66845571D01*
X128257857Y-66845571D01*
X129615000Y-66845571D02*
X129472142Y-66774142D01*
X129400714Y-66631285D01*
X129400714Y-65345571D01*
X130400714Y-66845571D02*
X130257857Y-66774142D01*
X130186428Y-66631285D01*
X130186428Y-65345571D01*
X131186428Y-66845571D02*
X131043571Y-66774142D01*
X130972142Y-66702714D01*
X130900714Y-66559857D01*
X130900714Y-66131285D01*
X130972142Y-65988428D01*
X131043571Y-65917000D01*
X131186428Y-65845571D01*
X131400714Y-65845571D01*
X131543571Y-65917000D01*
X131615000Y-65988428D01*
X131686428Y-66131285D01*
X131686428Y-66559857D01*
X131615000Y-66702714D01*
X131543571Y-66774142D01*
X131400714Y-66845571D01*
X131186428Y-66845571D01*
X132186428Y-65845571D02*
X132472142Y-66845571D01*
X132757857Y-66131285D01*
X133043571Y-66845571D01*
X133329285Y-65845571D01*
X134472142Y-66774142D02*
X134329285Y-66845571D01*
X134043571Y-66845571D01*
X133900714Y-66774142D01*
X133829285Y-66631285D01*
X133829285Y-66059857D01*
X133900714Y-65917000D01*
X134043571Y-65845571D01*
X134329285Y-65845571D01*
X134472142Y-65917000D01*
X134543571Y-66059857D01*
X134543571Y-66202714D01*
X133829285Y-66345571D01*
X135186428Y-66845571D02*
X135186428Y-65845571D01*
X135186428Y-66131285D02*
X135257857Y-65988428D01*
X135329285Y-65917000D01*
X135472142Y-65845571D01*
X135615000Y-65845571D01*
X147713285Y-119828571D02*
X147999000Y-119828571D01*
X148141857Y-119900000D01*
X148284714Y-120042857D01*
X148356142Y-120328571D01*
X148356142Y-120828571D01*
X148284714Y-121114285D01*
X148141857Y-121257142D01*
X147999000Y-121328571D01*
X147713285Y-121328571D01*
X147570428Y-121257142D01*
X147427571Y-121114285D01*
X147356142Y-120828571D01*
X147356142Y-120328571D01*
X147427571Y-120042857D01*
X147570428Y-119900000D01*
X147713285Y-119828571D01*
X149641857Y-120328571D02*
X149641857Y-121328571D01*
X148999000Y-120328571D02*
X148999000Y-121114285D01*
X149070428Y-121257142D01*
X149213285Y-121328571D01*
X149427571Y-121328571D01*
X149570428Y-121257142D01*
X149641857Y-121185714D01*
X150141857Y-120328571D02*
X150713285Y-120328571D01*
X150356142Y-119828571D02*
X150356142Y-121114285D01*
X150427571Y-121257142D01*
X150570428Y-121328571D01*
X150713285Y-121328571D01*
X151213285Y-120328571D02*
X151213285Y-121828571D01*
X151213285Y-120400000D02*
X151356142Y-120328571D01*
X151641857Y-120328571D01*
X151784714Y-120400000D01*
X151856142Y-120471428D01*
X151927571Y-120614285D01*
X151927571Y-121042857D01*
X151856142Y-121185714D01*
X151784714Y-121257142D01*
X151641857Y-121328571D01*
X151356142Y-121328571D01*
X151213285Y-121257142D01*
X153213285Y-120328571D02*
X153213285Y-121328571D01*
X152570428Y-120328571D02*
X152570428Y-121114285D01*
X152641857Y-121257142D01*
X152784714Y-121328571D01*
X152999000Y-121328571D01*
X153141857Y-121257142D01*
X153213285Y-121185714D01*
X153713285Y-120328571D02*
X154284714Y-120328571D01*
X153927571Y-119828571D02*
X153927571Y-121114285D01*
X153999000Y-121257142D01*
X154141857Y-121328571D01*
X154284714Y-121328571D01*
X148209142Y-122567000D02*
X148066285Y-122495571D01*
X147852000Y-122495571D01*
X147637714Y-122567000D01*
X147494857Y-122709857D01*
X147423428Y-122852714D01*
X147352000Y-123138428D01*
X147352000Y-123352714D01*
X147423428Y-123638428D01*
X147494857Y-123781285D01*
X147637714Y-123924142D01*
X147852000Y-123995571D01*
X147994857Y-123995571D01*
X148209142Y-123924142D01*
X148280571Y-123852714D01*
X148280571Y-123352714D01*
X147994857Y-123352714D01*
X148923428Y-123995571D02*
X148923428Y-122495571D01*
X149780571Y-123995571D01*
X149780571Y-122495571D01*
X150494857Y-123995571D02*
X150494857Y-122495571D01*
X150852000Y-122495571D01*
X151066285Y-122567000D01*
X151209142Y-122709857D01*
X151280571Y-122852714D01*
X151352000Y-123138428D01*
X151352000Y-123352714D01*
X151280571Y-123638428D01*
X151209142Y-123781285D01*
X151066285Y-123924142D01*
X150852000Y-123995571D01*
X150494857Y-123995571D01*
X147713285Y-98238571D02*
X147999000Y-98238571D01*
X148141857Y-98310000D01*
X148284714Y-98452857D01*
X148356142Y-98738571D01*
X148356142Y-99238571D01*
X148284714Y-99524285D01*
X148141857Y-99667142D01*
X147999000Y-99738571D01*
X147713285Y-99738571D01*
X147570428Y-99667142D01*
X147427571Y-99524285D01*
X147356142Y-99238571D01*
X147356142Y-98738571D01*
X147427571Y-98452857D01*
X147570428Y-98310000D01*
X147713285Y-98238571D01*
X149641857Y-98738571D02*
X149641857Y-99738571D01*
X148999000Y-98738571D02*
X148999000Y-99524285D01*
X149070428Y-99667142D01*
X149213285Y-99738571D01*
X149427571Y-99738571D01*
X149570428Y-99667142D01*
X149641857Y-99595714D01*
X150141857Y-98738571D02*
X150713285Y-98738571D01*
X150356142Y-98238571D02*
X150356142Y-99524285D01*
X150427571Y-99667142D01*
X150570428Y-99738571D01*
X150713285Y-99738571D01*
X151213285Y-98738571D02*
X151213285Y-100238571D01*
X151213285Y-98810000D02*
X151356142Y-98738571D01*
X151641857Y-98738571D01*
X151784714Y-98810000D01*
X151856142Y-98881428D01*
X151927571Y-99024285D01*
X151927571Y-99452857D01*
X151856142Y-99595714D01*
X151784714Y-99667142D01*
X151641857Y-99738571D01*
X151356142Y-99738571D01*
X151213285Y-99667142D01*
X153213285Y-98738571D02*
X153213285Y-99738571D01*
X152570428Y-98738571D02*
X152570428Y-99524285D01*
X152641857Y-99667142D01*
X152784714Y-99738571D01*
X152999000Y-99738571D01*
X153141857Y-99667142D01*
X153213285Y-99595714D01*
X153713285Y-98738571D02*
X154284714Y-98738571D01*
X153927571Y-98238571D02*
X153927571Y-99524285D01*
X153999000Y-99667142D01*
X154141857Y-99738571D01*
X154284714Y-99738571D01*
X148209142Y-100977000D02*
X148066285Y-100905571D01*
X147852000Y-100905571D01*
X147637714Y-100977000D01*
X147494857Y-101119857D01*
X147423428Y-101262714D01*
X147352000Y-101548428D01*
X147352000Y-101762714D01*
X147423428Y-102048428D01*
X147494857Y-102191285D01*
X147637714Y-102334142D01*
X147852000Y-102405571D01*
X147994857Y-102405571D01*
X148209142Y-102334142D01*
X148280571Y-102262714D01*
X148280571Y-101762714D01*
X147994857Y-101762714D01*
X148923428Y-102405571D02*
X148923428Y-100905571D01*
X149780571Y-102405571D01*
X149780571Y-100905571D01*
X150494857Y-102405571D02*
X150494857Y-100905571D01*
X150852000Y-100905571D01*
X151066285Y-100977000D01*
X151209142Y-101119857D01*
X151280571Y-101262714D01*
X151352000Y-101548428D01*
X151352000Y-101762714D01*
X151280571Y-102048428D01*
X151209142Y-102191285D01*
X151066285Y-102334142D01*
X150852000Y-102405571D01*
X150494857Y-102405571D01*
X148209142Y-79387000D02*
X148066285Y-79315571D01*
X147852000Y-79315571D01*
X147637714Y-79387000D01*
X147494857Y-79529857D01*
X147423428Y-79672714D01*
X147352000Y-79958428D01*
X147352000Y-80172714D01*
X147423428Y-80458428D01*
X147494857Y-80601285D01*
X147637714Y-80744142D01*
X147852000Y-80815571D01*
X147994857Y-80815571D01*
X148209142Y-80744142D01*
X148280571Y-80672714D01*
X148280571Y-80172714D01*
X147994857Y-80172714D01*
X148923428Y-80815571D02*
X148923428Y-79315571D01*
X149780571Y-80815571D01*
X149780571Y-79315571D01*
X150494857Y-80815571D02*
X150494857Y-79315571D01*
X150852000Y-79315571D01*
X151066285Y-79387000D01*
X151209142Y-79529857D01*
X151280571Y-79672714D01*
X151352000Y-79958428D01*
X151352000Y-80172714D01*
X151280571Y-80458428D01*
X151209142Y-80601285D01*
X151066285Y-80744142D01*
X150852000Y-80815571D01*
X150494857Y-80815571D01*
X147713285Y-76648571D02*
X147999000Y-76648571D01*
X148141857Y-76720000D01*
X148284714Y-76862857D01*
X148356142Y-77148571D01*
X148356142Y-77648571D01*
X148284714Y-77934285D01*
X148141857Y-78077142D01*
X147999000Y-78148571D01*
X147713285Y-78148571D01*
X147570428Y-78077142D01*
X147427571Y-77934285D01*
X147356142Y-77648571D01*
X147356142Y-77148571D01*
X147427571Y-76862857D01*
X147570428Y-76720000D01*
X147713285Y-76648571D01*
X149641857Y-77148571D02*
X149641857Y-78148571D01*
X148999000Y-77148571D02*
X148999000Y-77934285D01*
X149070428Y-78077142D01*
X149213285Y-78148571D01*
X149427571Y-78148571D01*
X149570428Y-78077142D01*
X149641857Y-78005714D01*
X150141857Y-77148571D02*
X150713285Y-77148571D01*
X150356142Y-76648571D02*
X150356142Y-77934285D01*
X150427571Y-78077142D01*
X150570428Y-78148571D01*
X150713285Y-78148571D01*
X151213285Y-77148571D02*
X151213285Y-78648571D01*
X151213285Y-77220000D02*
X151356142Y-77148571D01*
X151641857Y-77148571D01*
X151784714Y-77220000D01*
X151856142Y-77291428D01*
X151927571Y-77434285D01*
X151927571Y-77862857D01*
X151856142Y-78005714D01*
X151784714Y-78077142D01*
X151641857Y-78148571D01*
X151356142Y-78148571D01*
X151213285Y-78077142D01*
X153213285Y-77148571D02*
X153213285Y-78148571D01*
X152570428Y-77148571D02*
X152570428Y-77934285D01*
X152641857Y-78077142D01*
X152784714Y-78148571D01*
X152999000Y-78148571D01*
X153141857Y-78077142D01*
X153213285Y-78005714D01*
X153713285Y-77148571D02*
X154284714Y-77148571D01*
X153927571Y-76648571D02*
X153927571Y-77934285D01*
X153999000Y-78077142D01*
X154141857Y-78148571D01*
X154284714Y-78148571D01*
X100838142Y-122567000D02*
X100695285Y-122495571D01*
X100481000Y-122495571D01*
X100266714Y-122567000D01*
X100123857Y-122709857D01*
X100052428Y-122852714D01*
X99981000Y-123138428D01*
X99981000Y-123352714D01*
X100052428Y-123638428D01*
X100123857Y-123781285D01*
X100266714Y-123924142D01*
X100481000Y-123995571D01*
X100623857Y-123995571D01*
X100838142Y-123924142D01*
X100909571Y-123852714D01*
X100909571Y-123352714D01*
X100623857Y-123352714D01*
X101552428Y-123995571D02*
X101552428Y-122495571D01*
X102409571Y-123995571D01*
X102409571Y-122495571D01*
X103123857Y-123995571D02*
X103123857Y-122495571D01*
X103481000Y-122495571D01*
X103695285Y-122567000D01*
X103838142Y-122709857D01*
X103909571Y-122852714D01*
X103981000Y-123138428D01*
X103981000Y-123352714D01*
X103909571Y-123638428D01*
X103838142Y-123781285D01*
X103695285Y-123924142D01*
X103481000Y-123995571D01*
X103123857Y-123995571D01*
X98881714Y-121328571D02*
X98881714Y-119828571D01*
X99596000Y-120328571D02*
X99596000Y-121328571D01*
X99596000Y-120471428D02*
X99667428Y-120400000D01*
X99810285Y-120328571D01*
X100024571Y-120328571D01*
X100167428Y-120400000D01*
X100238857Y-120542857D01*
X100238857Y-121328571D01*
X100953142Y-120328571D02*
X100953142Y-121828571D01*
X100953142Y-120400000D02*
X101096000Y-120328571D01*
X101381714Y-120328571D01*
X101524571Y-120400000D01*
X101596000Y-120471428D01*
X101667428Y-120614285D01*
X101667428Y-121042857D01*
X101596000Y-121185714D01*
X101524571Y-121257142D01*
X101381714Y-121328571D01*
X101096000Y-121328571D01*
X100953142Y-121257142D01*
X102953142Y-120328571D02*
X102953142Y-121328571D01*
X102310285Y-120328571D02*
X102310285Y-121114285D01*
X102381714Y-121257142D01*
X102524571Y-121328571D01*
X102738857Y-121328571D01*
X102881714Y-121257142D01*
X102953142Y-121185714D01*
X103453142Y-120328571D02*
X104024571Y-120328571D01*
X103667428Y-119828571D02*
X103667428Y-121114285D01*
X103738857Y-121257142D01*
X103881714Y-121328571D01*
X104024571Y-121328571D01*
X99008714Y-99738571D02*
X99008714Y-98238571D01*
X99723000Y-98738571D02*
X99723000Y-99738571D01*
X99723000Y-98881428D02*
X99794428Y-98810000D01*
X99937285Y-98738571D01*
X100151571Y-98738571D01*
X100294428Y-98810000D01*
X100365857Y-98952857D01*
X100365857Y-99738571D01*
X101080142Y-98738571D02*
X101080142Y-100238571D01*
X101080142Y-98810000D02*
X101223000Y-98738571D01*
X101508714Y-98738571D01*
X101651571Y-98810000D01*
X101723000Y-98881428D01*
X101794428Y-99024285D01*
X101794428Y-99452857D01*
X101723000Y-99595714D01*
X101651571Y-99667142D01*
X101508714Y-99738571D01*
X101223000Y-99738571D01*
X101080142Y-99667142D01*
X103080142Y-98738571D02*
X103080142Y-99738571D01*
X102437285Y-98738571D02*
X102437285Y-99524285D01*
X102508714Y-99667142D01*
X102651571Y-99738571D01*
X102865857Y-99738571D01*
X103008714Y-99667142D01*
X103080142Y-99595714D01*
X103580142Y-98738571D02*
X104151571Y-98738571D01*
X103794428Y-98238571D02*
X103794428Y-99524285D01*
X103865857Y-99667142D01*
X104008714Y-99738571D01*
X104151571Y-99738571D01*
X100965142Y-100977000D02*
X100822285Y-100905571D01*
X100608000Y-100905571D01*
X100393714Y-100977000D01*
X100250857Y-101119857D01*
X100179428Y-101262714D01*
X100108000Y-101548428D01*
X100108000Y-101762714D01*
X100179428Y-102048428D01*
X100250857Y-102191285D01*
X100393714Y-102334142D01*
X100608000Y-102405571D01*
X100750857Y-102405571D01*
X100965142Y-102334142D01*
X101036571Y-102262714D01*
X101036571Y-101762714D01*
X100750857Y-101762714D01*
X101679428Y-102405571D02*
X101679428Y-100905571D01*
X102536571Y-102405571D01*
X102536571Y-100905571D01*
X103250857Y-102405571D02*
X103250857Y-100905571D01*
X103608000Y-100905571D01*
X103822285Y-100977000D01*
X103965142Y-101119857D01*
X104036571Y-101262714D01*
X104108000Y-101548428D01*
X104108000Y-101762714D01*
X104036571Y-102048428D01*
X103965142Y-102191285D01*
X103822285Y-102334142D01*
X103608000Y-102405571D01*
X103250857Y-102405571D01*
X100965142Y-79514000D02*
X100822285Y-79442571D01*
X100608000Y-79442571D01*
X100393714Y-79514000D01*
X100250857Y-79656857D01*
X100179428Y-79799714D01*
X100108000Y-80085428D01*
X100108000Y-80299714D01*
X100179428Y-80585428D01*
X100250857Y-80728285D01*
X100393714Y-80871142D01*
X100608000Y-80942571D01*
X100750857Y-80942571D01*
X100965142Y-80871142D01*
X101036571Y-80799714D01*
X101036571Y-80299714D01*
X100750857Y-80299714D01*
X101679428Y-80942571D02*
X101679428Y-79442571D01*
X102536571Y-80942571D01*
X102536571Y-79442571D01*
X103250857Y-80942571D02*
X103250857Y-79442571D01*
X103608000Y-79442571D01*
X103822285Y-79514000D01*
X103965142Y-79656857D01*
X104036571Y-79799714D01*
X104108000Y-80085428D01*
X104108000Y-80299714D01*
X104036571Y-80585428D01*
X103965142Y-80728285D01*
X103822285Y-80871142D01*
X103608000Y-80942571D01*
X103250857Y-80942571D01*
X99008714Y-78148571D02*
X99008714Y-76648571D01*
X99723000Y-77148571D02*
X99723000Y-78148571D01*
X99723000Y-77291428D02*
X99794428Y-77220000D01*
X99937285Y-77148571D01*
X100151571Y-77148571D01*
X100294428Y-77220000D01*
X100365857Y-77362857D01*
X100365857Y-78148571D01*
X101080142Y-77148571D02*
X101080142Y-78648571D01*
X101080142Y-77220000D02*
X101223000Y-77148571D01*
X101508714Y-77148571D01*
X101651571Y-77220000D01*
X101723000Y-77291428D01*
X101794428Y-77434285D01*
X101794428Y-77862857D01*
X101723000Y-78005714D01*
X101651571Y-78077142D01*
X101508714Y-78148571D01*
X101223000Y-78148571D01*
X101080142Y-78077142D01*
X103080142Y-77148571D02*
X103080142Y-78148571D01*
X102437285Y-77148571D02*
X102437285Y-77934285D01*
X102508714Y-78077142D01*
X102651571Y-78148571D01*
X102865857Y-78148571D01*
X103008714Y-78077142D01*
X103080142Y-78005714D01*
X103580142Y-77148571D02*
X104151571Y-77148571D01*
X103794428Y-76648571D02*
X103794428Y-77934285D01*
X103865857Y-78077142D01*
X104008714Y-78148571D01*
X104151571Y-78148571D01*
D13*
X126120071Y-142708690D02*
X125091976Y-142708690D01*
X125091976Y-140549690D01*
X127662214Y-142605880D02*
X127456595Y-142708690D01*
X127045357Y-142708690D01*
X126839738Y-142605880D01*
X126736928Y-142400261D01*
X126736928Y-141577785D01*
X126839738Y-141372166D01*
X127045357Y-141269357D01*
X127456595Y-141269357D01*
X127662214Y-141372166D01*
X127765023Y-141577785D01*
X127765023Y-141783404D01*
X126736928Y-141989023D01*
X129512785Y-142605880D02*
X129307166Y-142708690D01*
X128895928Y-142708690D01*
X128690309Y-142605880D01*
X128587500Y-142400261D01*
X128587500Y-141577785D01*
X128690309Y-141372166D01*
X128895928Y-141269357D01*
X129307166Y-141269357D01*
X129512785Y-141372166D01*
X129615595Y-141577785D01*
X129615595Y-141783404D01*
X128587500Y-141989023D01*
X130540880Y-142708690D02*
X130540880Y-141269357D01*
X130540880Y-141474976D02*
X130643690Y-141372166D01*
X130849309Y-141269357D01*
X131157738Y-141269357D01*
X131363357Y-141372166D01*
X131466166Y-141577785D01*
X131466166Y-142708690D01*
X131466166Y-141577785D02*
X131568976Y-141372166D01*
X131774595Y-141269357D01*
X132083023Y-141269357D01*
X132288642Y-141372166D01*
X132391452Y-141577785D01*
X132391452Y-142708690D01*
X134344833Y-142708690D02*
X134344833Y-141577785D01*
X134242023Y-141372166D01*
X134036404Y-141269357D01*
X133625166Y-141269357D01*
X133419547Y-141372166D01*
X134344833Y-142605880D02*
X134139214Y-142708690D01*
X133625166Y-142708690D01*
X133419547Y-142605880D01*
X133316738Y-142400261D01*
X133316738Y-142194642D01*
X133419547Y-141989023D01*
X133625166Y-141886214D01*
X134139214Y-141886214D01*
X134344833Y-141783404D01*
X135372928Y-141269357D02*
X135372928Y-142708690D01*
X135372928Y-141474976D02*
X135475738Y-141372166D01*
X135681357Y-141269357D01*
X135989785Y-141269357D01*
X136195404Y-141372166D01*
X136298214Y-141577785D01*
X136298214Y-142708690D01*
X140102166Y-140652500D02*
X139896547Y-140549690D01*
X139588119Y-140549690D01*
X139279690Y-140652500D01*
X139074071Y-140858119D01*
X138971261Y-141063738D01*
X138868452Y-141474976D01*
X138868452Y-141783404D01*
X138971261Y-142194642D01*
X139074071Y-142400261D01*
X139279690Y-142605880D01*
X139588119Y-142708690D01*
X139793738Y-142708690D01*
X140102166Y-142605880D01*
X140204976Y-142503071D01*
X140204976Y-141783404D01*
X139793738Y-141783404D01*
X141952738Y-142605880D02*
X141747119Y-142708690D01*
X141335880Y-142708690D01*
X141130261Y-142605880D01*
X141027452Y-142400261D01*
X141027452Y-141577785D01*
X141130261Y-141372166D01*
X141335880Y-141269357D01*
X141747119Y-141269357D01*
X141952738Y-141372166D01*
X142055547Y-141577785D01*
X142055547Y-141783404D01*
X141027452Y-141989023D01*
X143289261Y-142708690D02*
X143083642Y-142605880D01*
X142980833Y-142503071D01*
X142878023Y-142297452D01*
X142878023Y-141680595D01*
X142980833Y-141474976D01*
X143083642Y-141372166D01*
X143289261Y-141269357D01*
X143597690Y-141269357D01*
X143803309Y-141372166D01*
X143906119Y-141474976D01*
X144008928Y-141680595D01*
X144008928Y-142297452D01*
X143906119Y-142503071D01*
X143803309Y-142605880D01*
X143597690Y-142708690D01*
X143289261Y-142708690D01*
X144934214Y-141269357D02*
X144934214Y-143428357D01*
X144934214Y-141372166D02*
X145139833Y-141269357D01*
X145551071Y-141269357D01*
X145756690Y-141372166D01*
X145859500Y-141474976D01*
X145962309Y-141680595D01*
X145962309Y-142297452D01*
X145859500Y-142503071D01*
X145756690Y-142605880D01*
X145551071Y-142708690D01*
X145139833Y-142708690D01*
X144934214Y-142605880D01*
X146887595Y-142708690D02*
X146887595Y-140549690D01*
X147812880Y-142708690D02*
X147812880Y-141577785D01*
X147710071Y-141372166D01*
X147504452Y-141269357D01*
X147196023Y-141269357D01*
X146990404Y-141372166D01*
X146887595Y-141474976D01*
X148635357Y-141269357D02*
X149149404Y-142708690D01*
X149663452Y-141269357D02*
X149149404Y-142708690D01*
X148943785Y-143222738D01*
X148840976Y-143325547D01*
X148635357Y-143428357D01*
X150383119Y-142605880D02*
X150588738Y-142708690D01*
X150999976Y-142708690D01*
X151205595Y-142605880D01*
X151308404Y-142400261D01*
X151308404Y-142297452D01*
X151205595Y-142091833D01*
X150999976Y-141989023D01*
X150691547Y-141989023D01*
X150485928Y-141886214D01*
X150383119Y-141680595D01*
X150383119Y-141577785D01*
X150485928Y-141372166D01*
X150691547Y-141269357D01*
X150999976Y-141269357D01*
X151205595Y-141372166D01*
X152233690Y-142708690D02*
X152233690Y-141269357D01*
X152233690Y-140549690D02*
X152130880Y-140652500D01*
X152233690Y-140755309D01*
X152336500Y-140652500D01*
X152233690Y-140549690D01*
X152233690Y-140755309D01*
X154187071Y-142605880D02*
X153981452Y-142708690D01*
X153570214Y-142708690D01*
X153364595Y-142605880D01*
X153261785Y-142503071D01*
X153158976Y-142297452D01*
X153158976Y-141680595D01*
X153261785Y-141474976D01*
X153364595Y-141372166D01*
X153570214Y-141269357D01*
X153981452Y-141269357D01*
X154187071Y-141372166D01*
X156037642Y-142708690D02*
X156037642Y-141577785D01*
X155934833Y-141372166D01*
X155729214Y-141269357D01*
X155317976Y-141269357D01*
X155112357Y-141372166D01*
X156037642Y-142605880D02*
X155832023Y-142708690D01*
X155317976Y-142708690D01*
X155112357Y-142605880D01*
X155009547Y-142400261D01*
X155009547Y-142194642D01*
X155112357Y-141989023D01*
X155317976Y-141886214D01*
X155832023Y-141886214D01*
X156037642Y-141783404D01*
X157374166Y-142708690D02*
X157168547Y-142605880D01*
X157065738Y-142400261D01*
X157065738Y-140549690D01*
X160869690Y-142708690D02*
X159841595Y-142708690D01*
X159841595Y-140549690D01*
X162617452Y-142708690D02*
X161589357Y-142708690D01*
X161589357Y-140549690D01*
X164570833Y-142503071D02*
X164468023Y-142605880D01*
X164159595Y-142708690D01*
X163953976Y-142708690D01*
X163645547Y-142605880D01*
X163439928Y-142400261D01*
X163337119Y-142194642D01*
X163234309Y-141783404D01*
X163234309Y-141474976D01*
X163337119Y-141063738D01*
X163439928Y-140858119D01*
X163645547Y-140652500D01*
X163953976Y-140549690D01*
X164159595Y-140549690D01*
X164468023Y-140652500D01*
X164570833Y-140755309D01*
D11*
X174244000Y-62484000D02*
X115316000Y-62484000D01*
D14*
X116416666Y-58377666D02*
X117093999Y-58377666D01*
X117432666Y-58547000D01*
X117771333Y-58885666D01*
X117940666Y-59563000D01*
X117940666Y-60748333D01*
X117771333Y-61425666D01*
X117432666Y-61764333D01*
X117093999Y-61933666D01*
X116416666Y-61933666D01*
X116077999Y-61764333D01*
X115739333Y-61425666D01*
X115569999Y-60748333D01*
X115569999Y-59563000D01*
X115739333Y-58885666D01*
X116077999Y-58547000D01*
X116416666Y-58377666D01*
X119464666Y-59563000D02*
X119464666Y-63119000D01*
X119464666Y-59732333D02*
X119803333Y-59563000D01*
X120480666Y-59563000D01*
X120819333Y-59732333D01*
X120988666Y-59901666D01*
X121157999Y-60240333D01*
X121157999Y-61256333D01*
X120988666Y-61595000D01*
X120819333Y-61764333D01*
X120480666Y-61933666D01*
X119803333Y-61933666D01*
X119464666Y-61764333D01*
X124036666Y-61764333D02*
X123697999Y-61933666D01*
X123020666Y-61933666D01*
X122681999Y-61764333D01*
X122512666Y-61425666D01*
X122512666Y-60071000D01*
X122681999Y-59732333D01*
X123020666Y-59563000D01*
X123697999Y-59563000D01*
X124036666Y-59732333D01*
X124205999Y-60071000D01*
X124205999Y-60409666D01*
X122512666Y-60748333D01*
X125729999Y-61933666D02*
X125729999Y-59563000D01*
X125729999Y-60240333D02*
X125899333Y-59901666D01*
X126068666Y-59732333D01*
X126407333Y-59563000D01*
X126745999Y-59563000D01*
X129455333Y-61933666D02*
X129455333Y-60071000D01*
X129285999Y-59732333D01*
X128947333Y-59563000D01*
X128269999Y-59563000D01*
X127931333Y-59732333D01*
X129455333Y-61764333D02*
X129116666Y-61933666D01*
X128269999Y-61933666D01*
X127931333Y-61764333D01*
X127761999Y-61425666D01*
X127761999Y-61087000D01*
X127931333Y-60748333D01*
X128269999Y-60579000D01*
X129116666Y-60579000D01*
X129455333Y-60409666D01*
X130640666Y-59563000D02*
X131995333Y-59563000D01*
X131148666Y-58377666D02*
X131148666Y-61425666D01*
X131317999Y-61764333D01*
X131656666Y-61933666D01*
X131995333Y-61933666D01*
X133180666Y-61933666D02*
X133180666Y-59563000D01*
X133180666Y-58377666D02*
X133011333Y-58547000D01*
X133180666Y-58716333D01*
X133349999Y-58547000D01*
X133180666Y-58377666D01*
X133180666Y-58716333D01*
X135382000Y-61933666D02*
X135043333Y-61764333D01*
X134874000Y-61595000D01*
X134704666Y-61256333D01*
X134704666Y-60240333D01*
X134874000Y-59901666D01*
X135043333Y-59732333D01*
X135382000Y-59563000D01*
X135890000Y-59563000D01*
X136228666Y-59732333D01*
X136398000Y-59901666D01*
X136567333Y-60240333D01*
X136567333Y-61256333D01*
X136398000Y-61595000D01*
X136228666Y-61764333D01*
X135890000Y-61933666D01*
X135382000Y-61933666D01*
X138091333Y-59563000D02*
X138091333Y-61933666D01*
X138091333Y-59901666D02*
X138260666Y-59732333D01*
X138599333Y-59563000D01*
X139107333Y-59563000D01*
X139446000Y-59732333D01*
X139615333Y-60071000D01*
X139615333Y-61933666D01*
X142832666Y-61933666D02*
X142832666Y-60071000D01*
X142663333Y-59732333D01*
X142324666Y-59563000D01*
X141647333Y-59563000D01*
X141308666Y-59732333D01*
X142832666Y-61764333D02*
X142494000Y-61933666D01*
X141647333Y-61933666D01*
X141308666Y-61764333D01*
X141139333Y-61425666D01*
X141139333Y-61087000D01*
X141308666Y-60748333D01*
X141647333Y-60579000D01*
X142494000Y-60579000D01*
X142832666Y-60409666D01*
X145034000Y-61933666D02*
X144695333Y-61764333D01*
X144526000Y-61425666D01*
X144526000Y-58377666D01*
X148928666Y-60917666D02*
X150622000Y-60917666D01*
X148590000Y-61933666D02*
X149775333Y-58377666D01*
X150960666Y-61933666D01*
X152145999Y-61933666D02*
X152145999Y-59563000D01*
X152145999Y-59901666D02*
X152315333Y-59732333D01*
X152653999Y-59563000D01*
X153161999Y-59563000D01*
X153500666Y-59732333D01*
X153669999Y-60071000D01*
X153669999Y-61933666D01*
X153669999Y-60071000D02*
X153839333Y-59732333D01*
X154177999Y-59563000D01*
X154685999Y-59563000D01*
X155024666Y-59732333D01*
X155193999Y-60071000D01*
X155193999Y-61933666D01*
X156887333Y-59563000D02*
X156887333Y-63119000D01*
X156887333Y-59732333D02*
X157226000Y-59563000D01*
X157903333Y-59563000D01*
X158242000Y-59732333D01*
X158411333Y-59901666D01*
X158580666Y-60240333D01*
X158580666Y-61256333D01*
X158411333Y-61595000D01*
X158242000Y-61764333D01*
X157903333Y-61933666D01*
X157226000Y-61933666D01*
X156887333Y-61764333D01*
X160612666Y-61933666D02*
X160274000Y-61764333D01*
X160104666Y-61425666D01*
X160104666Y-58377666D01*
X161967333Y-61933666D02*
X161967333Y-59563000D01*
X161967333Y-58377666D02*
X161798000Y-58547000D01*
X161967333Y-58716333D01*
X162136666Y-58547000D01*
X161967333Y-58377666D01*
X161967333Y-58716333D01*
X163152666Y-59563000D02*
X164507333Y-59563000D01*
X163660666Y-61933666D02*
X163660666Y-58885666D01*
X163830000Y-58547000D01*
X164168666Y-58377666D01*
X164507333Y-58377666D01*
X165692666Y-61933666D02*
X165692666Y-59563000D01*
X165692666Y-58377666D02*
X165523333Y-58547000D01*
X165692666Y-58716333D01*
X165862000Y-58547000D01*
X165692666Y-58377666D01*
X165692666Y-58716333D01*
X168740666Y-61764333D02*
X168402000Y-61933666D01*
X167724666Y-61933666D01*
X167386000Y-61764333D01*
X167216666Y-61425666D01*
X167216666Y-60071000D01*
X167386000Y-59732333D01*
X167724666Y-59563000D01*
X168402000Y-59563000D01*
X168740666Y-59732333D01*
X168910000Y-60071000D01*
X168910000Y-60409666D01*
X167216666Y-60748333D01*
X170434000Y-61933666D02*
X170434000Y-59563000D01*
X170434000Y-60240333D02*
X170603333Y-59901666D01*
X170772666Y-59732333D01*
X171111333Y-59563000D01*
X171450000Y-59563000D01*
X172466000Y-61764333D02*
X172804666Y-61933666D01*
X173482000Y-61933666D01*
X173820666Y-61764333D01*
X173990000Y-61425666D01*
X173990000Y-61256333D01*
X173820666Y-60917666D01*
X173482000Y-60748333D01*
X172974000Y-60748333D01*
X172635333Y-60579000D01*
X172466000Y-60240333D01*
X172466000Y-60071000D01*
X172635333Y-59732333D01*
X172974000Y-59563000D01*
X173482000Y-59563000D01*
X173820666Y-59732333D01*
D15*
%TO.C,G\u002A\u002A\u002A*%
G36*
X194056000Y-122529600D02*
G01*
X199847200Y-122529600D01*
X199847200Y-131930215D01*
X200075800Y-132030507D01*
X200299829Y-132203543D01*
X200404692Y-132359400D01*
X200466221Y-132467040D01*
X200564444Y-132534321D01*
X200742169Y-132570640D01*
X201042206Y-132585393D01*
X201446092Y-132588000D01*
X201893293Y-132598375D01*
X202213470Y-132627184D01*
X202374430Y-132670951D01*
X202387200Y-132689600D01*
X202290929Y-132737523D01*
X202022918Y-132771945D01*
X201614372Y-132789580D01*
X201422000Y-132791200D01*
X200958463Y-132797115D01*
X200665073Y-132818185D01*
X200509030Y-132859392D01*
X200457534Y-132925718D01*
X200456800Y-132937838D01*
X200366260Y-133126257D01*
X200137950Y-133289308D01*
X199836833Y-133387875D01*
X199687940Y-133400800D01*
X199395283Y-133333306D01*
X199155417Y-133165376D01*
X199037384Y-132948838D01*
X199034400Y-132910199D01*
X198967701Y-132860970D01*
X198756587Y-132825800D01*
X198384531Y-132803444D01*
X197835007Y-132792655D01*
X197456355Y-132791200D01*
X195878311Y-132791200D01*
X189076091Y-136194800D01*
X187979865Y-136742750D01*
X186936084Y-137263391D01*
X185959036Y-137749663D01*
X185063006Y-138194507D01*
X184262280Y-138590866D01*
X183571144Y-138931680D01*
X183003885Y-139209891D01*
X182574787Y-139418440D01*
X182298138Y-139550269D01*
X182188222Y-139598320D01*
X182187469Y-139598400D01*
X182039111Y-139536161D01*
X182033333Y-139530666D01*
X182010586Y-139411080D01*
X181991092Y-139123814D01*
X181976243Y-138704377D01*
X181967432Y-138188280D01*
X181965600Y-137803466D01*
X181965600Y-136144000D01*
X178917600Y-136144000D01*
X178917600Y-137668000D01*
X179730400Y-137668000D01*
X180107857Y-137677029D01*
X180392095Y-137701026D01*
X180535038Y-137735349D01*
X180543200Y-137746443D01*
X180475151Y-137844562D01*
X180289846Y-138053829D01*
X180015547Y-138343565D01*
X179680515Y-138683089D01*
X179678819Y-138684776D01*
X178814439Y-139544666D01*
X177876106Y-138606333D01*
X177140973Y-137871200D01*
X177450270Y-137871200D01*
X178104800Y-138531600D01*
X178397913Y-138821501D01*
X178636550Y-139046628D01*
X178785824Y-139174584D01*
X178816000Y-139192000D01*
X178907731Y-139124546D01*
X179106207Y-138943781D01*
X179376541Y-138682101D01*
X179527200Y-138531600D01*
X180181729Y-137871200D01*
X177450270Y-137871200D01*
X177140973Y-137871200D01*
X176937772Y-137668000D01*
X178714400Y-137668000D01*
X178714400Y-135940800D01*
X181965600Y-135940800D01*
X181965600Y-132689600D01*
X182372000Y-132689600D01*
X182372792Y-133800216D01*
X182375078Y-134848401D01*
X182378718Y-135816882D01*
X182383573Y-136688382D01*
X182389506Y-137445628D01*
X182396376Y-138071343D01*
X182404046Y-138548253D01*
X182412376Y-138859084D01*
X182421228Y-138986560D01*
X182422582Y-138988800D01*
X182519624Y-138944528D01*
X182783530Y-138816614D01*
X183199478Y-138612409D01*
X183752644Y-138339264D01*
X184428205Y-138004529D01*
X185211337Y-137615556D01*
X186087217Y-137179696D01*
X187041022Y-136704299D01*
X188057928Y-136196716D01*
X188721782Y-135864984D01*
X189769643Y-135340406D01*
X190762396Y-134841998D01*
X191685353Y-134377223D01*
X192523824Y-133953548D01*
X193263122Y-133578435D01*
X193888557Y-133259349D01*
X194385440Y-133003755D01*
X194739084Y-132819118D01*
X194934799Y-132712901D01*
X194970400Y-132689600D01*
X194882432Y-132638356D01*
X194630451Y-132505510D01*
X194232337Y-132300038D01*
X193705971Y-132030917D01*
X193069233Y-131707124D01*
X192340006Y-131337634D01*
X191536169Y-130931425D01*
X190675604Y-130497473D01*
X189776192Y-130044754D01*
X188855813Y-129582245D01*
X187932349Y-129118923D01*
X187023680Y-128663763D01*
X186147688Y-128225743D01*
X185322253Y-127813839D01*
X184565257Y-127437027D01*
X183894580Y-127104285D01*
X183328103Y-126824588D01*
X182883707Y-126606913D01*
X182579273Y-126460236D01*
X182432682Y-126393535D01*
X182422582Y-126390400D01*
X182413663Y-126489120D01*
X182405247Y-126773766D01*
X182397470Y-127227061D01*
X182390472Y-127831731D01*
X182384391Y-128570502D01*
X182379367Y-129426097D01*
X182375537Y-130381243D01*
X182373041Y-131418665D01*
X182372017Y-132521086D01*
X182372000Y-132689600D01*
X181965600Y-132689600D01*
X181965600Y-129438400D01*
X179070000Y-129438400D01*
X178141159Y-129441921D01*
X177382714Y-129452315D01*
X176801898Y-129469329D01*
X176405945Y-129492708D01*
X176202088Y-129522199D01*
X176174400Y-129540000D01*
X176084835Y-129739194D01*
X175861267Y-129917792D01*
X175571385Y-130030484D01*
X175415441Y-130048000D01*
X175121876Y-129999954D01*
X174899028Y-129821485D01*
X174837534Y-129743200D01*
X174612186Y-129438400D01*
X170586400Y-129438400D01*
X170586400Y-130863433D01*
X167055800Y-130836716D01*
X163525200Y-130810000D01*
X163495157Y-130124200D01*
X163465115Y-129438400D01*
X161844157Y-129438400D01*
X161197582Y-129432204D01*
X160702189Y-129414286D01*
X160373982Y-129385650D01*
X160228966Y-129347298D01*
X160223200Y-129336800D01*
X160322044Y-129296273D01*
X160607906Y-129265222D01*
X161064782Y-129244650D01*
X161676666Y-129235561D01*
X161844157Y-129235200D01*
X163465115Y-129235200D01*
X163495157Y-128549400D01*
X163509622Y-128219200D01*
X163880800Y-128219200D01*
X163880800Y-130454400D01*
X170180000Y-130454400D01*
X170180000Y-128219200D01*
X163880800Y-128219200D01*
X163509622Y-128219200D01*
X163525200Y-127863600D01*
X170586400Y-127810166D01*
X170586400Y-129235200D01*
X174616063Y-129235200D01*
X174745993Y-128992422D01*
X174938188Y-128761858D01*
X175118762Y-128639000D01*
X175361599Y-128528356D01*
X175361600Y-125528978D01*
X175361600Y-122732800D01*
X175564800Y-122732800D01*
X175564800Y-125679200D01*
X175565849Y-126537815D01*
X175569744Y-127214269D01*
X175577608Y-127729592D01*
X175590560Y-128104817D01*
X175609724Y-128360973D01*
X175636220Y-128519093D01*
X175671170Y-128600206D01*
X175715696Y-128625345D01*
X175721925Y-128625600D01*
X175874639Y-128706721D01*
X176037244Y-128904552D01*
X176052125Y-128929757D01*
X176225200Y-129233915D01*
X179095400Y-129234557D01*
X181965600Y-129235200D01*
X181965600Y-127564796D01*
X181971223Y-126982867D01*
X181986889Y-126487255D01*
X182010795Y-126110344D01*
X182041137Y-125884519D01*
X182061972Y-125834831D01*
X182166140Y-125869651D01*
X182437413Y-125989070D01*
X182861487Y-126186144D01*
X183424054Y-126453928D01*
X184110810Y-126785479D01*
X184907448Y-127173852D01*
X185799662Y-127612103D01*
X186773148Y-128093289D01*
X187813597Y-128610464D01*
X188906706Y-129156685D01*
X188945372Y-129176057D01*
X195732400Y-132576845D01*
X197383400Y-132582422D01*
X198008763Y-132581973D01*
X198457976Y-132574176D01*
X198758028Y-132556682D01*
X198935908Y-132527141D01*
X199018604Y-132483201D01*
X199034400Y-132438641D01*
X199110162Y-132284347D01*
X199296715Y-132096801D01*
X199339200Y-132063934D01*
X199644000Y-131838586D01*
X199644000Y-122732800D01*
X194056000Y-122732800D01*
X194056000Y-124157833D01*
X190525400Y-124131116D01*
X186994800Y-124104400D01*
X186964757Y-123418600D01*
X186934715Y-122732800D01*
X175564800Y-122732800D01*
X175361600Y-122732800D01*
X175361600Y-122529600D01*
X186934715Y-122529600D01*
X186964757Y-121843800D01*
X186979222Y-121513600D01*
X187350400Y-121513600D01*
X187350400Y-123748800D01*
X193649600Y-123748800D01*
X193649600Y-121513600D01*
X187350400Y-121513600D01*
X186979222Y-121513600D01*
X186994800Y-121158000D01*
X194056000Y-121104566D01*
X194056000Y-122529600D01*
G37*
X194056000Y-122529600D02*
X199847200Y-122529600D01*
X199847200Y-131930215D01*
X200075800Y-132030507D01*
X200299829Y-132203543D01*
X200404692Y-132359400D01*
X200466221Y-132467040D01*
X200564444Y-132534321D01*
X200742169Y-132570640D01*
X201042206Y-132585393D01*
X201446092Y-132588000D01*
X201893293Y-132598375D01*
X202213470Y-132627184D01*
X202374430Y-132670951D01*
X202387200Y-132689600D01*
X202290929Y-132737523D01*
X202022918Y-132771945D01*
X201614372Y-132789580D01*
X201422000Y-132791200D01*
X200958463Y-132797115D01*
X200665073Y-132818185D01*
X200509030Y-132859392D01*
X200457534Y-132925718D01*
X200456800Y-132937838D01*
X200366260Y-133126257D01*
X200137950Y-133289308D01*
X199836833Y-133387875D01*
X199687940Y-133400800D01*
X199395283Y-133333306D01*
X199155417Y-133165376D01*
X199037384Y-132948838D01*
X199034400Y-132910199D01*
X198967701Y-132860970D01*
X198756587Y-132825800D01*
X198384531Y-132803444D01*
X197835007Y-132792655D01*
X197456355Y-132791200D01*
X195878311Y-132791200D01*
X189076091Y-136194800D01*
X187979865Y-136742750D01*
X186936084Y-137263391D01*
X185959036Y-137749663D01*
X185063006Y-138194507D01*
X184262280Y-138590866D01*
X183571144Y-138931680D01*
X183003885Y-139209891D01*
X182574787Y-139418440D01*
X182298138Y-139550269D01*
X182188222Y-139598320D01*
X182187469Y-139598400D01*
X182039111Y-139536161D01*
X182033333Y-139530666D01*
X182010586Y-139411080D01*
X181991092Y-139123814D01*
X181976243Y-138704377D01*
X181967432Y-138188280D01*
X181965600Y-137803466D01*
X181965600Y-136144000D01*
X178917600Y-136144000D01*
X178917600Y-137668000D01*
X179730400Y-137668000D01*
X180107857Y-137677029D01*
X180392095Y-137701026D01*
X180535038Y-137735349D01*
X180543200Y-137746443D01*
X180475151Y-137844562D01*
X180289846Y-138053829D01*
X180015547Y-138343565D01*
X179680515Y-138683089D01*
X179678819Y-138684776D01*
X178814439Y-139544666D01*
X177876106Y-138606333D01*
X177140973Y-137871200D01*
X177450270Y-137871200D01*
X178104800Y-138531600D01*
X178397913Y-138821501D01*
X178636550Y-139046628D01*
X178785824Y-139174584D01*
X178816000Y-139192000D01*
X178907731Y-139124546D01*
X179106207Y-138943781D01*
X179376541Y-138682101D01*
X179527200Y-138531600D01*
X180181729Y-137871200D01*
X177450270Y-137871200D01*
X177140973Y-137871200D01*
X176937772Y-137668000D01*
X178714400Y-137668000D01*
X178714400Y-135940800D01*
X181965600Y-135940800D01*
X181965600Y-132689600D01*
X182372000Y-132689600D01*
X182372792Y-133800216D01*
X182375078Y-134848401D01*
X182378718Y-135816882D01*
X182383573Y-136688382D01*
X182389506Y-137445628D01*
X182396376Y-138071343D01*
X182404046Y-138548253D01*
X182412376Y-138859084D01*
X182421228Y-138986560D01*
X182422582Y-138988800D01*
X182519624Y-138944528D01*
X182783530Y-138816614D01*
X183199478Y-138612409D01*
X183752644Y-138339264D01*
X184428205Y-138004529D01*
X185211337Y-137615556D01*
X186087217Y-137179696D01*
X187041022Y-136704299D01*
X188057928Y-136196716D01*
X188721782Y-135864984D01*
X189769643Y-135340406D01*
X190762396Y-134841998D01*
X191685353Y-134377223D01*
X192523824Y-133953548D01*
X193263122Y-133578435D01*
X193888557Y-133259349D01*
X194385440Y-133003755D01*
X194739084Y-132819118D01*
X194934799Y-132712901D01*
X194970400Y-132689600D01*
X194882432Y-132638356D01*
X194630451Y-132505510D01*
X194232337Y-132300038D01*
X193705971Y-132030917D01*
X193069233Y-131707124D01*
X192340006Y-131337634D01*
X191536169Y-130931425D01*
X190675604Y-130497473D01*
X189776192Y-130044754D01*
X188855813Y-129582245D01*
X187932349Y-129118923D01*
X187023680Y-128663763D01*
X186147688Y-128225743D01*
X185322253Y-127813839D01*
X184565257Y-127437027D01*
X183894580Y-127104285D01*
X183328103Y-126824588D01*
X182883707Y-126606913D01*
X182579273Y-126460236D01*
X182432682Y-126393535D01*
X182422582Y-126390400D01*
X182413663Y-126489120D01*
X182405247Y-126773766D01*
X182397470Y-127227061D01*
X182390472Y-127831731D01*
X182384391Y-128570502D01*
X182379367Y-129426097D01*
X182375537Y-130381243D01*
X182373041Y-131418665D01*
X182372017Y-132521086D01*
X182372000Y-132689600D01*
X181965600Y-132689600D01*
X181965600Y-129438400D01*
X179070000Y-129438400D01*
X178141159Y-129441921D01*
X177382714Y-129452315D01*
X176801898Y-129469329D01*
X176405945Y-129492708D01*
X176202088Y-129522199D01*
X176174400Y-129540000D01*
X176084835Y-129739194D01*
X175861267Y-129917792D01*
X175571385Y-130030484D01*
X175415441Y-130048000D01*
X175121876Y-129999954D01*
X174899028Y-129821485D01*
X174837534Y-129743200D01*
X174612186Y-129438400D01*
X170586400Y-129438400D01*
X170586400Y-130863433D01*
X167055800Y-130836716D01*
X163525200Y-130810000D01*
X163495157Y-130124200D01*
X163465115Y-129438400D01*
X161844157Y-129438400D01*
X161197582Y-129432204D01*
X160702189Y-129414286D01*
X160373982Y-129385650D01*
X160228966Y-129347298D01*
X160223200Y-129336800D01*
X160322044Y-129296273D01*
X160607906Y-129265222D01*
X161064782Y-129244650D01*
X161676666Y-129235561D01*
X161844157Y-129235200D01*
X163465115Y-129235200D01*
X163495157Y-128549400D01*
X163509622Y-128219200D01*
X163880800Y-128219200D01*
X163880800Y-130454400D01*
X170180000Y-130454400D01*
X170180000Y-128219200D01*
X163880800Y-128219200D01*
X163509622Y-128219200D01*
X163525200Y-127863600D01*
X170586400Y-127810166D01*
X170586400Y-129235200D01*
X174616063Y-129235200D01*
X174745993Y-128992422D01*
X174938188Y-128761858D01*
X175118762Y-128639000D01*
X175361599Y-128528356D01*
X175361600Y-125528978D01*
X175361600Y-122732800D01*
X175564800Y-122732800D01*
X175564800Y-125679200D01*
X175565849Y-126537815D01*
X175569744Y-127214269D01*
X175577608Y-127729592D01*
X175590560Y-128104817D01*
X175609724Y-128360973D01*
X175636220Y-128519093D01*
X175671170Y-128600206D01*
X175715696Y-128625345D01*
X175721925Y-128625600D01*
X175874639Y-128706721D01*
X176037244Y-128904552D01*
X176052125Y-128929757D01*
X176225200Y-129233915D01*
X179095400Y-129234557D01*
X181965600Y-129235200D01*
X181965600Y-127564796D01*
X181971223Y-126982867D01*
X181986889Y-126487255D01*
X182010795Y-126110344D01*
X182041137Y-125884519D01*
X182061972Y-125834831D01*
X182166140Y-125869651D01*
X182437413Y-125989070D01*
X182861487Y-126186144D01*
X183424054Y-126453928D01*
X184110810Y-126785479D01*
X184907448Y-127173852D01*
X185799662Y-127612103D01*
X186773148Y-128093289D01*
X187813597Y-128610464D01*
X188906706Y-129156685D01*
X188945372Y-129176057D01*
X195732400Y-132576845D01*
X197383400Y-132582422D01*
X198008763Y-132581973D01*
X198457976Y-132574176D01*
X198758028Y-132556682D01*
X198935908Y-132527141D01*
X199018604Y-132483201D01*
X199034400Y-132438641D01*
X199110162Y-132284347D01*
X199296715Y-132096801D01*
X199339200Y-132063934D01*
X199644000Y-131838586D01*
X199644000Y-122732800D01*
X194056000Y-122732800D01*
X194056000Y-124157833D01*
X190525400Y-124131116D01*
X186994800Y-124104400D01*
X186964757Y-123418600D01*
X186934715Y-122732800D01*
X175564800Y-122732800D01*
X175361600Y-122732800D01*
X175361600Y-122529600D01*
X186934715Y-122529600D01*
X186964757Y-121843800D01*
X186979222Y-121513600D01*
X187350400Y-121513600D01*
X187350400Y-123748800D01*
X193649600Y-123748800D01*
X193649600Y-121513600D01*
X187350400Y-121513600D01*
X186979222Y-121513600D01*
X186994800Y-121158000D01*
X194056000Y-121104566D01*
X194056000Y-122529600D01*
G36*
X180763111Y-133820508D02*
G01*
X180984001Y-133855100D01*
X181051200Y-133895098D01*
X180993785Y-134030193D01*
X180855946Y-134231221D01*
X180727837Y-134408716D01*
X180726962Y-134505612D01*
X180853322Y-134599745D01*
X180855946Y-134601384D01*
X181006291Y-134801074D01*
X181051411Y-135090780D01*
X180990480Y-135386191D01*
X180865399Y-135569453D01*
X180610080Y-135691829D01*
X180270826Y-135728532D01*
X179959000Y-135670312D01*
X179842394Y-135536199D01*
X179832000Y-135475133D01*
X179858261Y-135351560D01*
X179966395Y-135359892D01*
X180130650Y-135452538D01*
X180336216Y-135522916D01*
X180581054Y-135457128D01*
X180593409Y-135451555D01*
X180794323Y-135278532D01*
X180822633Y-135057738D01*
X180682137Y-134842260D01*
X180543200Y-134749717D01*
X180356954Y-134602076D01*
X180352785Y-134420798D01*
X180516148Y-134188200D01*
X180600312Y-134076629D01*
X180561099Y-134025228D01*
X180364502Y-134010917D01*
X180254146Y-134010400D01*
X179993899Y-133988653D01*
X179845332Y-133934097D01*
X179832000Y-133908800D01*
X179924543Y-133854682D01*
X180166299Y-133817991D01*
X180441600Y-133807200D01*
X180763111Y-133820508D01*
G37*
X180763111Y-133820508D02*
X180984001Y-133855100D01*
X181051200Y-133895098D01*
X180993785Y-134030193D01*
X180855946Y-134231221D01*
X180727837Y-134408716D01*
X180726962Y-134505612D01*
X180853322Y-134599745D01*
X180855946Y-134601384D01*
X181006291Y-134801074D01*
X181051411Y-135090780D01*
X180990480Y-135386191D01*
X180865399Y-135569453D01*
X180610080Y-135691829D01*
X180270826Y-135728532D01*
X179959000Y-135670312D01*
X179842394Y-135536199D01*
X179832000Y-135475133D01*
X179858261Y-135351560D01*
X179966395Y-135359892D01*
X180130650Y-135452538D01*
X180336216Y-135522916D01*
X180581054Y-135457128D01*
X180593409Y-135451555D01*
X180794323Y-135278532D01*
X180822633Y-135057738D01*
X180682137Y-134842260D01*
X180543200Y-134749717D01*
X180356954Y-134602076D01*
X180352785Y-134420798D01*
X180516148Y-134188200D01*
X180600312Y-134076629D01*
X180561099Y-134025228D01*
X180364502Y-134010917D01*
X180254146Y-134010400D01*
X179993899Y-133988653D01*
X179845332Y-133934097D01*
X179832000Y-133908800D01*
X179924543Y-133854682D01*
X180166299Y-133817991D01*
X180441600Y-133807200D01*
X180763111Y-133820508D01*
G36*
X203662234Y-130637890D02*
G01*
X203688842Y-130661557D01*
X203847539Y-130927984D01*
X203920899Y-131299488D01*
X203907913Y-131696272D01*
X203807578Y-132038540D01*
X203708000Y-132181600D01*
X203426536Y-132345364D01*
X203102338Y-132370555D01*
X202818388Y-132255330D01*
X202761817Y-132202614D01*
X202639420Y-131951871D01*
X202578094Y-131589895D01*
X202578452Y-131394005D01*
X202792219Y-131394005D01*
X202819189Y-131737790D01*
X202932983Y-131999610D01*
X202953257Y-132021942D01*
X203107824Y-132155122D01*
X203240041Y-132158999D01*
X203398192Y-132082679D01*
X203583967Y-131880176D01*
X203672775Y-131572009D01*
X203665254Y-131230737D01*
X203562042Y-130928922D01*
X203386489Y-130750257D01*
X203187069Y-130700142D01*
X202993782Y-130812758D01*
X202988348Y-130817648D01*
X202849473Y-131057532D01*
X202792219Y-131394005D01*
X202578452Y-131394005D01*
X202578815Y-131196176D01*
X202642559Y-130850203D01*
X202742868Y-130657524D01*
X203020347Y-130486523D01*
X203349263Y-130480074D01*
X203662234Y-130637890D01*
G37*
X203662234Y-130637890D02*
X203688842Y-130661557D01*
X203847539Y-130927984D01*
X203920899Y-131299488D01*
X203907913Y-131696272D01*
X203807578Y-132038540D01*
X203708000Y-132181600D01*
X203426536Y-132345364D01*
X203102338Y-132370555D01*
X202818388Y-132255330D01*
X202761817Y-132202614D01*
X202639420Y-131951871D01*
X202578094Y-131589895D01*
X202578452Y-131394005D01*
X202792219Y-131394005D01*
X202819189Y-131737790D01*
X202932983Y-131999610D01*
X202953257Y-132021942D01*
X203107824Y-132155122D01*
X203240041Y-132158999D01*
X203398192Y-132082679D01*
X203583967Y-131880176D01*
X203672775Y-131572009D01*
X203665254Y-131230737D01*
X203562042Y-130928922D01*
X203386489Y-130750257D01*
X203187069Y-130700142D01*
X202993782Y-130812758D01*
X202988348Y-130817648D01*
X202849473Y-131057532D01*
X202792219Y-131394005D01*
X202578452Y-131394005D01*
X202578815Y-131196176D01*
X202642559Y-130850203D01*
X202742868Y-130657524D01*
X203020347Y-130486523D01*
X203349263Y-130480074D01*
X203662234Y-130637890D01*
G36*
X204572215Y-130548815D02*
G01*
X204607978Y-130803809D01*
X204622343Y-131177000D01*
X204622400Y-131203959D01*
X204651909Y-131719118D01*
X204741252Y-132041982D01*
X204891653Y-132174819D01*
X205104337Y-132119897D01*
X205113516Y-132114230D01*
X205208460Y-132001004D01*
X205269032Y-131779395D01*
X205304234Y-131409443D01*
X205312473Y-131231121D01*
X205344860Y-130782269D01*
X205393099Y-130531807D01*
X205446741Y-130476634D01*
X205495335Y-130613650D01*
X205528431Y-130939753D01*
X205536800Y-131297679D01*
X205524013Y-131783948D01*
X205474045Y-132101863D01*
X205369477Y-132285304D01*
X205192896Y-132368154D01*
X204978000Y-132384800D01*
X204714923Y-132347625D01*
X204541120Y-132262880D01*
X204484806Y-132115686D01*
X204445223Y-131839731D01*
X204422988Y-131490041D01*
X204418720Y-131121640D01*
X204433037Y-130789553D01*
X204466556Y-130548805D01*
X204519897Y-130454420D01*
X204520800Y-130454400D01*
X204572215Y-130548815D01*
G37*
X204572215Y-130548815D02*
X204607978Y-130803809D01*
X204622343Y-131177000D01*
X204622400Y-131203959D01*
X204651909Y-131719118D01*
X204741252Y-132041982D01*
X204891653Y-132174819D01*
X205104337Y-132119897D01*
X205113516Y-132114230D01*
X205208460Y-132001004D01*
X205269032Y-131779395D01*
X205304234Y-131409443D01*
X205312473Y-131231121D01*
X205344860Y-130782269D01*
X205393099Y-130531807D01*
X205446741Y-130476634D01*
X205495335Y-130613650D01*
X205528431Y-130939753D01*
X205536800Y-131297679D01*
X205524013Y-131783948D01*
X205474045Y-132101863D01*
X205369477Y-132285304D01*
X205192896Y-132368154D01*
X204978000Y-132384800D01*
X204714923Y-132347625D01*
X204541120Y-132262880D01*
X204484806Y-132115686D01*
X204445223Y-131839731D01*
X204422988Y-131490041D01*
X204418720Y-131121640D01*
X204433037Y-130789553D01*
X204466556Y-130548805D01*
X204519897Y-130454420D01*
X204520800Y-130454400D01*
X204572215Y-130548815D01*
G36*
X206808017Y-130471102D02*
G01*
X207010987Y-130514187D01*
X207060800Y-130556000D01*
X206973974Y-130632811D01*
X206810755Y-130657600D01*
X206689835Y-130666855D01*
X206614150Y-130721270D01*
X206570902Y-130860819D01*
X206547290Y-131125474D01*
X206531355Y-131530151D01*
X206510219Y-131911131D01*
X206478624Y-132189191D01*
X206442021Y-132323211D01*
X206425800Y-132326018D01*
X206389729Y-132194284D01*
X206362881Y-131914420D01*
X206350061Y-131541448D01*
X206349600Y-131453466D01*
X206345183Y-131053568D01*
X206324910Y-130815525D01*
X206278240Y-130698062D01*
X206194637Y-130659905D01*
X206146400Y-130657600D01*
X205981303Y-130615052D01*
X205943200Y-130556000D01*
X206035062Y-130500360D01*
X206272029Y-130463456D01*
X206502000Y-130454400D01*
X206808017Y-130471102D01*
G37*
X206808017Y-130471102D02*
X207010987Y-130514187D01*
X207060800Y-130556000D01*
X206973974Y-130632811D01*
X206810755Y-130657600D01*
X206689835Y-130666855D01*
X206614150Y-130721270D01*
X206570902Y-130860819D01*
X206547290Y-131125474D01*
X206531355Y-131530151D01*
X206510219Y-131911131D01*
X206478624Y-132189191D01*
X206442021Y-132323211D01*
X206425800Y-132326018D01*
X206389729Y-132194284D01*
X206362881Y-131914420D01*
X206350061Y-131541448D01*
X206349600Y-131453466D01*
X206345183Y-131053568D01*
X206324910Y-130815525D01*
X206278240Y-130698062D01*
X206194637Y-130659905D01*
X206146400Y-130657600D01*
X205981303Y-130615052D01*
X205943200Y-130556000D01*
X206035062Y-130500360D01*
X206272029Y-130463456D01*
X206502000Y-130454400D01*
X206808017Y-130471102D01*
G36*
X158137523Y-127197870D02*
G01*
X158171945Y-127465881D01*
X158189580Y-127874427D01*
X158191200Y-128066800D01*
X158181066Y-128522070D01*
X158152854Y-128849078D01*
X158109849Y-129016619D01*
X158089600Y-129032000D01*
X158041676Y-128935729D01*
X158007254Y-128667718D01*
X157989619Y-128259172D01*
X157988000Y-128066800D01*
X157998133Y-127611529D01*
X158026345Y-127284521D01*
X158069350Y-127116980D01*
X158089600Y-127101600D01*
X158137523Y-127197870D01*
G37*
X158137523Y-127197870D02*
X158171945Y-127465881D01*
X158189580Y-127874427D01*
X158191200Y-128066800D01*
X158181066Y-128522070D01*
X158152854Y-128849078D01*
X158109849Y-129016619D01*
X158089600Y-129032000D01*
X158041676Y-128935729D01*
X158007254Y-128667718D01*
X157989619Y-128259172D01*
X157988000Y-128066800D01*
X157998133Y-127611529D01*
X158026345Y-127284521D01*
X158069350Y-127116980D01*
X158089600Y-127101600D01*
X158137523Y-127197870D01*
G36*
X158967028Y-127182692D02*
G01*
X159122036Y-127396503D01*
X159313530Y-127698827D01*
X159336059Y-127736600D01*
X159712441Y-128371600D01*
X159713820Y-127793396D01*
X159729193Y-127399412D01*
X159766440Y-127195995D01*
X159815775Y-127172993D01*
X159867415Y-127320252D01*
X159911575Y-127627622D01*
X159936550Y-128024499D01*
X159943184Y-128436509D01*
X159933625Y-128765168D01*
X159909980Y-128962475D01*
X159893869Y-128996674D01*
X159807798Y-128940037D01*
X159648970Y-128748061D01*
X159449000Y-128459749D01*
X159412234Y-128402458D01*
X159005930Y-127762000D01*
X159004965Y-128397000D01*
X158989593Y-128731385D01*
X158950169Y-128959764D01*
X158902400Y-129032000D01*
X158854476Y-128935729D01*
X158820054Y-128667718D01*
X158802419Y-128259172D01*
X158800800Y-128066800D01*
X158808555Y-127652059D01*
X158829400Y-127326586D01*
X158859704Y-127134503D01*
X158880238Y-127101600D01*
X158967028Y-127182692D01*
G37*
X158967028Y-127182692D02*
X159122036Y-127396503D01*
X159313530Y-127698827D01*
X159336059Y-127736600D01*
X159712441Y-128371600D01*
X159713820Y-127793396D01*
X159729193Y-127399412D01*
X159766440Y-127195995D01*
X159815775Y-127172993D01*
X159867415Y-127320252D01*
X159911575Y-127627622D01*
X159936550Y-128024499D01*
X159943184Y-128436509D01*
X159933625Y-128765168D01*
X159909980Y-128962475D01*
X159893869Y-128996674D01*
X159807798Y-128940037D01*
X159648970Y-128748061D01*
X159449000Y-128459749D01*
X159412234Y-128402458D01*
X159005930Y-127762000D01*
X159004965Y-128397000D01*
X158989593Y-128731385D01*
X158950169Y-128959764D01*
X158902400Y-129032000D01*
X158854476Y-128935729D01*
X158820054Y-128667718D01*
X158802419Y-128259172D01*
X158800800Y-128066800D01*
X158808555Y-127652059D01*
X158829400Y-127326586D01*
X158859704Y-127134503D01*
X158880238Y-127101600D01*
X158967028Y-127182692D01*
G36*
X182233442Y-88131667D02*
G01*
X182514220Y-88260352D01*
X182947605Y-88466177D01*
X183519132Y-88742064D01*
X184214337Y-89080936D01*
X185018753Y-89475715D01*
X185917917Y-89919326D01*
X186897364Y-90404689D01*
X187942628Y-90924727D01*
X189039245Y-91472364D01*
X189076091Y-91490800D01*
X195878311Y-94894400D01*
X197456355Y-94894400D01*
X198066916Y-94891599D01*
X198501696Y-94881480D01*
X198788061Y-94861469D01*
X198953374Y-94828993D01*
X199025000Y-94781476D01*
X199034400Y-94745957D01*
X199118826Y-94543267D01*
X199322269Y-94342576D01*
X199569975Y-94207066D01*
X199700256Y-94183200D01*
X199937974Y-94246313D01*
X200190882Y-94399930D01*
X200387374Y-94590463D01*
X200456800Y-94749374D01*
X200497125Y-94819192D01*
X200639680Y-94863382D01*
X200916832Y-94886808D01*
X201360949Y-94894334D01*
X201422000Y-94894400D01*
X201877270Y-94904533D01*
X202204278Y-94932745D01*
X202371819Y-94975750D01*
X202387200Y-94996000D01*
X202291040Y-95044163D01*
X202023806Y-95078682D01*
X201617367Y-95096144D01*
X201438308Y-95097600D01*
X200992646Y-95100626D01*
X200707037Y-95116351D01*
X200538351Y-95154746D01*
X200443461Y-95225781D01*
X200379235Y-95339427D01*
X200377701Y-95342787D01*
X200215856Y-95555450D01*
X200056593Y-95654434D01*
X200003043Y-95675993D01*
X199959501Y-95716201D01*
X199924931Y-95794436D01*
X199898300Y-95930078D01*
X199878571Y-96142503D01*
X199864710Y-96451090D01*
X199855682Y-96875218D01*
X199850452Y-97434265D01*
X199847985Y-98147608D01*
X199847245Y-99034627D01*
X199847200Y-99574846D01*
X199847200Y-103428800D01*
X193252102Y-103428800D01*
X193192400Y-104902000D01*
X186182000Y-104902000D01*
X186152148Y-104165400D01*
X186122297Y-103428800D01*
X182850148Y-103429442D01*
X179578000Y-103430084D01*
X179404925Y-103734242D01*
X179245649Y-103940505D01*
X179088339Y-104037357D01*
X179074725Y-104038400D01*
X179007156Y-104066183D01*
X178961762Y-104170673D01*
X178934439Y-104383583D01*
X178921086Y-104736623D01*
X178917600Y-105252957D01*
X178917600Y-106467515D01*
X179603400Y-106497557D01*
X180289200Y-106527600D01*
X180289200Y-113538000D01*
X178917600Y-113598084D01*
X178917600Y-116636800D01*
X179730400Y-116636800D01*
X180169564Y-116647193D01*
X180430576Y-116680927D01*
X180537544Y-116741837D01*
X180543200Y-116766043D01*
X180476096Y-116874310D01*
X180297748Y-117087559D01*
X180042596Y-117369960D01*
X179745081Y-117685687D01*
X179439644Y-117998910D01*
X179160727Y-118273802D01*
X178942772Y-118474535D01*
X178820219Y-118565281D01*
X178811759Y-118567200D01*
X178724854Y-118499338D01*
X178524578Y-118314164D01*
X178239990Y-118039296D01*
X177900147Y-117702349D01*
X177870860Y-117672954D01*
X177538004Y-117327821D01*
X177273481Y-117032785D01*
X177120325Y-116840000D01*
X177348249Y-116840000D01*
X178054000Y-117551200D01*
X178352790Y-117851779D01*
X178590067Y-118089494D01*
X178735047Y-118233559D01*
X178765200Y-118262400D01*
X178834037Y-118195351D01*
X179015097Y-118014729D01*
X179277592Y-117751319D01*
X179476400Y-117551200D01*
X180182150Y-116840000D01*
X177348249Y-116840000D01*
X177120325Y-116840000D01*
X177102346Y-116817369D01*
X177049654Y-116711094D01*
X177051712Y-116707754D01*
X177180563Y-116674191D01*
X177458043Y-116649198D01*
X177829623Y-116637238D01*
X177918533Y-116636800D01*
X178714400Y-116636800D01*
X178714400Y-113597702D01*
X177241200Y-113538000D01*
X177214413Y-110146480D01*
X177208785Y-109120159D01*
X177209871Y-108285918D01*
X177217947Y-107632742D01*
X177233291Y-107149614D01*
X177252106Y-106883200D01*
X177698400Y-106883200D01*
X177698400Y-113182400D01*
X179933600Y-113182400D01*
X179933600Y-106883200D01*
X177698400Y-106883200D01*
X177252106Y-106883200D01*
X177256180Y-106825516D01*
X177286888Y-106649431D01*
X177303054Y-106615880D01*
X177495221Y-106524384D01*
X177873650Y-106480528D01*
X178066440Y-106476800D01*
X178714400Y-106476800D01*
X178714400Y-105311974D01*
X178712095Y-104808608D01*
X178700630Y-104469998D01*
X178673176Y-104257717D01*
X178622905Y-104133334D01*
X178542990Y-104058421D01*
X178485800Y-104025379D01*
X178160160Y-103767961D01*
X178013136Y-103447759D01*
X178006431Y-103366301D01*
X178067311Y-103132753D01*
X178219898Y-102881893D01*
X178410053Y-102685880D01*
X178569374Y-102616000D01*
X178618142Y-102587162D01*
X178654968Y-102485114D01*
X178681400Y-102286552D01*
X178698984Y-101968173D01*
X178709268Y-101506674D01*
X178713798Y-100878751D01*
X178714400Y-100431600D01*
X178714400Y-98450400D01*
X178917600Y-98450400D01*
X178917600Y-100526353D01*
X178918400Y-101225590D01*
X178922545Y-101748409D01*
X178932654Y-102121591D01*
X178951342Y-102371916D01*
X178981229Y-102526165D01*
X179024930Y-102611118D01*
X179085065Y-102653557D01*
X179126993Y-102668765D01*
X179328538Y-102808785D01*
X179448101Y-102980412D01*
X179559816Y-103225600D01*
X186121915Y-103225600D01*
X186151957Y-102539800D01*
X186166422Y-102209600D01*
X186537600Y-102209600D01*
X186537600Y-104444800D01*
X192836800Y-104444800D01*
X192836800Y-102209600D01*
X186537600Y-102209600D01*
X186166422Y-102209600D01*
X186182000Y-101854000D01*
X193192400Y-101854000D01*
X193252484Y-103225600D01*
X199644000Y-103225600D01*
X199643357Y-99491800D01*
X199642715Y-95758000D01*
X199338557Y-95584925D01*
X199132294Y-95425649D01*
X199035442Y-95268339D01*
X199034400Y-95254725D01*
X199010122Y-95195158D01*
X198918723Y-95152533D01*
X198732352Y-95124158D01*
X198423157Y-95107343D01*
X197963287Y-95099395D01*
X197408501Y-95097600D01*
X195782602Y-95097600D01*
X188970471Y-98503964D01*
X187873513Y-99051088D01*
X186828724Y-99569469D01*
X185850392Y-100052184D01*
X184952805Y-100492312D01*
X184150250Y-100882932D01*
X183457015Y-101217122D01*
X182887386Y-101487959D01*
X182455652Y-101688524D01*
X182176100Y-101811894D01*
X182063017Y-101851148D01*
X182061970Y-101850768D01*
X182028598Y-101732678D01*
X182000564Y-101443807D01*
X181979671Y-101016540D01*
X181967724Y-100483265D01*
X181965600Y-100120803D01*
X181965600Y-98450400D01*
X178917600Y-98450400D01*
X178714400Y-98450400D01*
X178714400Y-98247200D01*
X181965600Y-98247200D01*
X181965600Y-94945038D01*
X182372000Y-94945038D01*
X182372794Y-96060252D01*
X182375087Y-97113105D01*
X182378738Y-98086392D01*
X182383609Y-98962907D01*
X182389562Y-99725444D01*
X182396459Y-100356799D01*
X182404160Y-100839766D01*
X182412528Y-101157140D01*
X182421423Y-101291714D01*
X182423122Y-101295200D01*
X182520221Y-101250913D01*
X182784249Y-101122930D01*
X183200455Y-100918568D01*
X183754090Y-100645143D01*
X184430403Y-100309972D01*
X185214645Y-99920370D01*
X186092065Y-99483655D01*
X187047915Y-99007142D01*
X188067443Y-98498149D01*
X188784303Y-98139847D01*
X189836226Y-97613101D01*
X190832227Y-97112937D01*
X191757805Y-96646729D01*
X192598454Y-96221849D01*
X193339673Y-95845670D01*
X193966959Y-95525564D01*
X194465808Y-95268906D01*
X194821717Y-95083067D01*
X195020183Y-94975421D01*
X195057780Y-94950619D01*
X194963097Y-94900697D01*
X194701314Y-94767397D01*
X194287133Y-94558104D01*
X193735258Y-94280200D01*
X193060391Y-93941071D01*
X192277235Y-93548101D01*
X191400493Y-93108674D01*
X190444868Y-92630175D01*
X189425062Y-92119987D01*
X188696600Y-91755810D01*
X182372000Y-88594877D01*
X182372000Y-94945038D01*
X181965600Y-94945038D01*
X181965600Y-91744800D01*
X171151196Y-91744800D01*
X169204758Y-91743843D01*
X167445067Y-91740983D01*
X165873864Y-91736237D01*
X164492891Y-91729620D01*
X163303889Y-91721149D01*
X162308598Y-91710841D01*
X161508760Y-91698711D01*
X160906116Y-91684775D01*
X160502407Y-91669051D01*
X160299374Y-91651554D01*
X160273999Y-91643199D01*
X160363510Y-91624680D01*
X160655802Y-91608011D01*
X161150466Y-91593197D01*
X161847091Y-91580242D01*
X162745267Y-91569150D01*
X163844585Y-91559924D01*
X165144635Y-91552568D01*
X166645005Y-91547086D01*
X168345287Y-91543483D01*
X170245071Y-91541761D01*
X171088403Y-91541600D01*
X181965600Y-91541600D01*
X181965600Y-89814400D01*
X181967856Y-89175278D01*
X181976224Y-88712466D01*
X181993099Y-88399109D01*
X182020878Y-88208350D01*
X182061958Y-88113334D01*
X182118735Y-88087204D01*
X182119736Y-88087199D01*
X182233442Y-88131667D01*
G37*
X182233442Y-88131667D02*
X182514220Y-88260352D01*
X182947605Y-88466177D01*
X183519132Y-88742064D01*
X184214337Y-89080936D01*
X185018753Y-89475715D01*
X185917917Y-89919326D01*
X186897364Y-90404689D01*
X187942628Y-90924727D01*
X189039245Y-91472364D01*
X189076091Y-91490800D01*
X195878311Y-94894400D01*
X197456355Y-94894400D01*
X198066916Y-94891599D01*
X198501696Y-94881480D01*
X198788061Y-94861469D01*
X198953374Y-94828993D01*
X199025000Y-94781476D01*
X199034400Y-94745957D01*
X199118826Y-94543267D01*
X199322269Y-94342576D01*
X199569975Y-94207066D01*
X199700256Y-94183200D01*
X199937974Y-94246313D01*
X200190882Y-94399930D01*
X200387374Y-94590463D01*
X200456800Y-94749374D01*
X200497125Y-94819192D01*
X200639680Y-94863382D01*
X200916832Y-94886808D01*
X201360949Y-94894334D01*
X201422000Y-94894400D01*
X201877270Y-94904533D01*
X202204278Y-94932745D01*
X202371819Y-94975750D01*
X202387200Y-94996000D01*
X202291040Y-95044163D01*
X202023806Y-95078682D01*
X201617367Y-95096144D01*
X201438308Y-95097600D01*
X200992646Y-95100626D01*
X200707037Y-95116351D01*
X200538351Y-95154746D01*
X200443461Y-95225781D01*
X200379235Y-95339427D01*
X200377701Y-95342787D01*
X200215856Y-95555450D01*
X200056593Y-95654434D01*
X200003043Y-95675993D01*
X199959501Y-95716201D01*
X199924931Y-95794436D01*
X199898300Y-95930078D01*
X199878571Y-96142503D01*
X199864710Y-96451090D01*
X199855682Y-96875218D01*
X199850452Y-97434265D01*
X199847985Y-98147608D01*
X199847245Y-99034627D01*
X199847200Y-99574846D01*
X199847200Y-103428800D01*
X193252102Y-103428800D01*
X193192400Y-104902000D01*
X186182000Y-104902000D01*
X186152148Y-104165400D01*
X186122297Y-103428800D01*
X182850148Y-103429442D01*
X179578000Y-103430084D01*
X179404925Y-103734242D01*
X179245649Y-103940505D01*
X179088339Y-104037357D01*
X179074725Y-104038400D01*
X179007156Y-104066183D01*
X178961762Y-104170673D01*
X178934439Y-104383583D01*
X178921086Y-104736623D01*
X178917600Y-105252957D01*
X178917600Y-106467515D01*
X179603400Y-106497557D01*
X180289200Y-106527600D01*
X180289200Y-113538000D01*
X178917600Y-113598084D01*
X178917600Y-116636800D01*
X179730400Y-116636800D01*
X180169564Y-116647193D01*
X180430576Y-116680927D01*
X180537544Y-116741837D01*
X180543200Y-116766043D01*
X180476096Y-116874310D01*
X180297748Y-117087559D01*
X180042596Y-117369960D01*
X179745081Y-117685687D01*
X179439644Y-117998910D01*
X179160727Y-118273802D01*
X178942772Y-118474535D01*
X178820219Y-118565281D01*
X178811759Y-118567200D01*
X178724854Y-118499338D01*
X178524578Y-118314164D01*
X178239990Y-118039296D01*
X177900147Y-117702349D01*
X177870860Y-117672954D01*
X177538004Y-117327821D01*
X177273481Y-117032785D01*
X177120325Y-116840000D01*
X177348249Y-116840000D01*
X178054000Y-117551200D01*
X178352790Y-117851779D01*
X178590067Y-118089494D01*
X178735047Y-118233559D01*
X178765200Y-118262400D01*
X178834037Y-118195351D01*
X179015097Y-118014729D01*
X179277592Y-117751319D01*
X179476400Y-117551200D01*
X180182150Y-116840000D01*
X177348249Y-116840000D01*
X177120325Y-116840000D01*
X177102346Y-116817369D01*
X177049654Y-116711094D01*
X177051712Y-116707754D01*
X177180563Y-116674191D01*
X177458043Y-116649198D01*
X177829623Y-116637238D01*
X177918533Y-116636800D01*
X178714400Y-116636800D01*
X178714400Y-113597702D01*
X177241200Y-113538000D01*
X177214413Y-110146480D01*
X177208785Y-109120159D01*
X177209871Y-108285918D01*
X177217947Y-107632742D01*
X177233291Y-107149614D01*
X177252106Y-106883200D01*
X177698400Y-106883200D01*
X177698400Y-113182400D01*
X179933600Y-113182400D01*
X179933600Y-106883200D01*
X177698400Y-106883200D01*
X177252106Y-106883200D01*
X177256180Y-106825516D01*
X177286888Y-106649431D01*
X177303054Y-106615880D01*
X177495221Y-106524384D01*
X177873650Y-106480528D01*
X178066440Y-106476800D01*
X178714400Y-106476800D01*
X178714400Y-105311974D01*
X178712095Y-104808608D01*
X178700630Y-104469998D01*
X178673176Y-104257717D01*
X178622905Y-104133334D01*
X178542990Y-104058421D01*
X178485800Y-104025379D01*
X178160160Y-103767961D01*
X178013136Y-103447759D01*
X178006431Y-103366301D01*
X178067311Y-103132753D01*
X178219898Y-102881893D01*
X178410053Y-102685880D01*
X178569374Y-102616000D01*
X178618142Y-102587162D01*
X178654968Y-102485114D01*
X178681400Y-102286552D01*
X178698984Y-101968173D01*
X178709268Y-101506674D01*
X178713798Y-100878751D01*
X178714400Y-100431600D01*
X178714400Y-98450400D01*
X178917600Y-98450400D01*
X178917600Y-100526353D01*
X178918400Y-101225590D01*
X178922545Y-101748409D01*
X178932654Y-102121591D01*
X178951342Y-102371916D01*
X178981229Y-102526165D01*
X179024930Y-102611118D01*
X179085065Y-102653557D01*
X179126993Y-102668765D01*
X179328538Y-102808785D01*
X179448101Y-102980412D01*
X179559816Y-103225600D01*
X186121915Y-103225600D01*
X186151957Y-102539800D01*
X186166422Y-102209600D01*
X186537600Y-102209600D01*
X186537600Y-104444800D01*
X192836800Y-104444800D01*
X192836800Y-102209600D01*
X186537600Y-102209600D01*
X186166422Y-102209600D01*
X186182000Y-101854000D01*
X193192400Y-101854000D01*
X193252484Y-103225600D01*
X199644000Y-103225600D01*
X199643357Y-99491800D01*
X199642715Y-95758000D01*
X199338557Y-95584925D01*
X199132294Y-95425649D01*
X199035442Y-95268339D01*
X199034400Y-95254725D01*
X199010122Y-95195158D01*
X198918723Y-95152533D01*
X198732352Y-95124158D01*
X198423157Y-95107343D01*
X197963287Y-95099395D01*
X197408501Y-95097600D01*
X195782602Y-95097600D01*
X188970471Y-98503964D01*
X187873513Y-99051088D01*
X186828724Y-99569469D01*
X185850392Y-100052184D01*
X184952805Y-100492312D01*
X184150250Y-100882932D01*
X183457015Y-101217122D01*
X182887386Y-101487959D01*
X182455652Y-101688524D01*
X182176100Y-101811894D01*
X182063017Y-101851148D01*
X182061970Y-101850768D01*
X182028598Y-101732678D01*
X182000564Y-101443807D01*
X181979671Y-101016540D01*
X181967724Y-100483265D01*
X181965600Y-100120803D01*
X181965600Y-98450400D01*
X178917600Y-98450400D01*
X178714400Y-98450400D01*
X178714400Y-98247200D01*
X181965600Y-98247200D01*
X181965600Y-94945038D01*
X182372000Y-94945038D01*
X182372794Y-96060252D01*
X182375087Y-97113105D01*
X182378738Y-98086392D01*
X182383609Y-98962907D01*
X182389562Y-99725444D01*
X182396459Y-100356799D01*
X182404160Y-100839766D01*
X182412528Y-101157140D01*
X182421423Y-101291714D01*
X182423122Y-101295200D01*
X182520221Y-101250913D01*
X182784249Y-101122930D01*
X183200455Y-100918568D01*
X183754090Y-100645143D01*
X184430403Y-100309972D01*
X185214645Y-99920370D01*
X186092065Y-99483655D01*
X187047915Y-99007142D01*
X188067443Y-98498149D01*
X188784303Y-98139847D01*
X189836226Y-97613101D01*
X190832227Y-97112937D01*
X191757805Y-96646729D01*
X192598454Y-96221849D01*
X193339673Y-95845670D01*
X193966959Y-95525564D01*
X194465808Y-95268906D01*
X194821717Y-95083067D01*
X195020183Y-94975421D01*
X195057780Y-94950619D01*
X194963097Y-94900697D01*
X194701314Y-94767397D01*
X194287133Y-94558104D01*
X193735258Y-94280200D01*
X193060391Y-93941071D01*
X192277235Y-93548101D01*
X191400493Y-93108674D01*
X190444868Y-92630175D01*
X189425062Y-92119987D01*
X188696600Y-91755810D01*
X182372000Y-88594877D01*
X182372000Y-94945038D01*
X181965600Y-94945038D01*
X181965600Y-91744800D01*
X171151196Y-91744800D01*
X169204758Y-91743843D01*
X167445067Y-91740983D01*
X165873864Y-91736237D01*
X164492891Y-91729620D01*
X163303889Y-91721149D01*
X162308598Y-91710841D01*
X161508760Y-91698711D01*
X160906116Y-91684775D01*
X160502407Y-91669051D01*
X160299374Y-91651554D01*
X160273999Y-91643199D01*
X160363510Y-91624680D01*
X160655802Y-91608011D01*
X161150466Y-91593197D01*
X161847091Y-91580242D01*
X162745267Y-91569150D01*
X163844585Y-91559924D01*
X165144635Y-91552568D01*
X166645005Y-91547086D01*
X168345287Y-91543483D01*
X170245071Y-91541761D01*
X171088403Y-91541600D01*
X181965600Y-91541600D01*
X181965600Y-89814400D01*
X181967856Y-89175278D01*
X181976224Y-88712466D01*
X181993099Y-88399109D01*
X182020878Y-88208350D01*
X182061958Y-88113334D01*
X182118735Y-88087204D01*
X182119736Y-88087199D01*
X182233442Y-88131667D01*
G36*
X180727359Y-96175752D02*
G01*
X180891542Y-96273257D01*
X181033430Y-96516328D01*
X180997605Y-96797529D01*
X180779896Y-97132899D01*
X180623646Y-97303554D01*
X180196092Y-97739200D01*
X180566849Y-97739200D01*
X180827301Y-97764638D01*
X180988680Y-97827215D01*
X181000400Y-97840800D01*
X180946328Y-97900132D01*
X180711221Y-97934836D01*
X180447596Y-97942400D01*
X180124274Y-97932439D01*
X179901331Y-97906530D01*
X179832000Y-97876016D01*
X179896930Y-97774989D01*
X180068114Y-97570354D01*
X180310142Y-97304182D01*
X180340000Y-97272498D01*
X180627946Y-96958392D01*
X180785599Y-96748325D01*
X180828204Y-96604531D01*
X180771003Y-96489240D01*
X180687454Y-96411640D01*
X180506252Y-96330854D01*
X180258771Y-96379778D01*
X180236141Y-96388152D01*
X179983788Y-96452228D01*
X179875853Y-96409955D01*
X179930777Y-96270143D01*
X179946921Y-96249948D01*
X180146716Y-96143693D01*
X180437963Y-96119729D01*
X180727359Y-96175752D01*
G37*
X180727359Y-96175752D02*
X180891542Y-96273257D01*
X181033430Y-96516328D01*
X180997605Y-96797529D01*
X180779896Y-97132899D01*
X180623646Y-97303554D01*
X180196092Y-97739200D01*
X180566849Y-97739200D01*
X180827301Y-97764638D01*
X180988680Y-97827215D01*
X181000400Y-97840800D01*
X180946328Y-97900132D01*
X180711221Y-97934836D01*
X180447596Y-97942400D01*
X180124274Y-97932439D01*
X179901331Y-97906530D01*
X179832000Y-97876016D01*
X179896930Y-97774989D01*
X180068114Y-97570354D01*
X180310142Y-97304182D01*
X180340000Y-97272498D01*
X180627946Y-96958392D01*
X180785599Y-96748325D01*
X180828204Y-96604531D01*
X180771003Y-96489240D01*
X180687454Y-96411640D01*
X180506252Y-96330854D01*
X180258771Y-96379778D01*
X180236141Y-96388152D01*
X179983788Y-96452228D01*
X179875853Y-96409955D01*
X179930777Y-96270143D01*
X179946921Y-96249948D01*
X180146716Y-96143693D01*
X180437963Y-96119729D01*
X180727359Y-96175752D01*
G36*
X203413541Y-92794747D02*
G01*
X203708000Y-92964000D01*
X203858078Y-93236817D01*
X203917376Y-93610657D01*
X203885386Y-94004491D01*
X203761602Y-94337295D01*
X203717000Y-94400544D01*
X203438556Y-94598843D01*
X203098907Y-94634981D01*
X202786818Y-94512454D01*
X202660299Y-94318298D01*
X202589986Y-93999167D01*
X202579541Y-93712937D01*
X202793600Y-93712937D01*
X202840223Y-94096637D01*
X202986943Y-94311282D01*
X203244033Y-94370084D01*
X203300886Y-94365366D01*
X203493326Y-94293610D01*
X203609201Y-94098342D01*
X203645540Y-93971702D01*
X203678125Y-93586265D01*
X203593967Y-93312544D01*
X203405563Y-93058265D01*
X203197826Y-92983387D01*
X203004321Y-93071120D01*
X202858614Y-93304673D01*
X202794270Y-93667253D01*
X202793600Y-93712937D01*
X202579541Y-93712937D01*
X202576350Y-93625493D01*
X202619864Y-93267707D01*
X202721000Y-92996243D01*
X202776200Y-92928946D01*
X203075347Y-92781728D01*
X203413541Y-92794747D01*
G37*
X203413541Y-92794747D02*
X203708000Y-92964000D01*
X203858078Y-93236817D01*
X203917376Y-93610657D01*
X203885386Y-94004491D01*
X203761602Y-94337295D01*
X203717000Y-94400544D01*
X203438556Y-94598843D01*
X203098907Y-94634981D01*
X202786818Y-94512454D01*
X202660299Y-94318298D01*
X202589986Y-93999167D01*
X202579541Y-93712937D01*
X202793600Y-93712937D01*
X202840223Y-94096637D01*
X202986943Y-94311282D01*
X203244033Y-94370084D01*
X203300886Y-94365366D01*
X203493326Y-94293610D01*
X203609201Y-94098342D01*
X203645540Y-93971702D01*
X203678125Y-93586265D01*
X203593967Y-93312544D01*
X203405563Y-93058265D01*
X203197826Y-92983387D01*
X203004321Y-93071120D01*
X202858614Y-93304673D01*
X202794270Y-93667253D01*
X202793600Y-93712937D01*
X202579541Y-93712937D01*
X202576350Y-93625493D01*
X202619864Y-93267707D01*
X202721000Y-92996243D01*
X202776200Y-92928946D01*
X203075347Y-92781728D01*
X203413541Y-92794747D01*
G36*
X205488324Y-92852744D02*
G01*
X205519973Y-93091477D01*
X205534788Y-93421349D01*
X205533138Y-93786710D01*
X205515391Y-94131909D01*
X205481914Y-94401296D01*
X205433076Y-94539221D01*
X205427684Y-94543444D01*
X205193269Y-94613688D01*
X204883718Y-94628425D01*
X204618724Y-94584662D01*
X204574436Y-94564777D01*
X204493879Y-94470424D01*
X204445401Y-94272821D01*
X204422857Y-93934538D01*
X204419200Y-93619351D01*
X204434005Y-93151871D01*
X204471647Y-92870522D01*
X204521965Y-92778526D01*
X204574799Y-92879107D01*
X204619988Y-93175486D01*
X204643526Y-93548200D01*
X204673200Y-94335600D01*
X205282800Y-94335600D01*
X205312473Y-93548200D01*
X205338003Y-93177267D01*
X205379066Y-92900344D01*
X205427783Y-92766289D01*
X205439473Y-92760800D01*
X205488324Y-92852744D01*
G37*
X205488324Y-92852744D02*
X205519973Y-93091477D01*
X205534788Y-93421349D01*
X205533138Y-93786710D01*
X205515391Y-94131909D01*
X205481914Y-94401296D01*
X205433076Y-94539221D01*
X205427684Y-94543444D01*
X205193269Y-94613688D01*
X204883718Y-94628425D01*
X204618724Y-94584662D01*
X204574436Y-94564777D01*
X204493879Y-94470424D01*
X204445401Y-94272821D01*
X204422857Y-93934538D01*
X204419200Y-93619351D01*
X204434005Y-93151871D01*
X204471647Y-92870522D01*
X204521965Y-92778526D01*
X204574799Y-92879107D01*
X204619988Y-93175486D01*
X204643526Y-93548200D01*
X204673200Y-94335600D01*
X205282800Y-94335600D01*
X205312473Y-93548200D01*
X205338003Y-93177267D01*
X205379066Y-92900344D01*
X205427783Y-92766289D01*
X205439473Y-92760800D01*
X205488324Y-92852744D01*
G36*
X197266210Y-92854365D02*
G01*
X197292972Y-93103010D01*
X197306431Y-93458659D01*
X197307200Y-93573600D01*
X197311677Y-93979126D01*
X197331693Y-94222220D01*
X197377117Y-94343569D01*
X197457822Y-94383861D01*
X197504403Y-94386400D01*
X197698901Y-94433053D01*
X197764400Y-94488000D01*
X197710134Y-94547154D01*
X197474585Y-94581869D01*
X197205600Y-94589600D01*
X196852863Y-94574754D01*
X196666442Y-94532746D01*
X196646800Y-94488000D01*
X196790103Y-94402649D01*
X196906796Y-94386400D01*
X197020726Y-94360541D01*
X197080237Y-94251217D01*
X197102029Y-94010804D01*
X197104000Y-93824025D01*
X197098118Y-93507057D01*
X197069677Y-93353889D01*
X197002485Y-93325219D01*
X196914158Y-93363250D01*
X196736846Y-93420366D01*
X196663950Y-93404483D01*
X196689449Y-93305455D01*
X196813548Y-93131641D01*
X196983103Y-92943401D01*
X197144972Y-92801095D01*
X197230670Y-92760800D01*
X197266210Y-92854365D01*
G37*
X197266210Y-92854365D02*
X197292972Y-93103010D01*
X197306431Y-93458659D01*
X197307200Y-93573600D01*
X197311677Y-93979126D01*
X197331693Y-94222220D01*
X197377117Y-94343569D01*
X197457822Y-94383861D01*
X197504403Y-94386400D01*
X197698901Y-94433053D01*
X197764400Y-94488000D01*
X197710134Y-94547154D01*
X197474585Y-94581869D01*
X197205600Y-94589600D01*
X196852863Y-94574754D01*
X196666442Y-94532746D01*
X196646800Y-94488000D01*
X196790103Y-94402649D01*
X196906796Y-94386400D01*
X197020726Y-94360541D01*
X197080237Y-94251217D01*
X197102029Y-94010804D01*
X197104000Y-93824025D01*
X197098118Y-93507057D01*
X197069677Y-93353889D01*
X197002485Y-93325219D01*
X196914158Y-93363250D01*
X196736846Y-93420366D01*
X196663950Y-93404483D01*
X196689449Y-93305455D01*
X196813548Y-93131641D01*
X196983103Y-92943401D01*
X197144972Y-92801095D01*
X197230670Y-92760800D01*
X197266210Y-92854365D01*
G36*
X206808017Y-92777502D02*
G01*
X207010987Y-92820587D01*
X207060800Y-92862400D01*
X206973852Y-92938775D01*
X206806800Y-92964000D01*
X206680826Y-92972661D01*
X206605396Y-93026285D01*
X206567552Y-93166330D01*
X206554341Y-93434254D01*
X206552800Y-93776800D01*
X206540917Y-94179318D01*
X206508477Y-94462176D01*
X206460288Y-94586890D01*
X206451200Y-94589600D01*
X206400885Y-94494540D01*
X206365527Y-94235016D01*
X206349938Y-93849511D01*
X206349600Y-93776800D01*
X206345357Y-93371828D01*
X206325818Y-93129118D01*
X206280763Y-93007797D01*
X206199975Y-92966990D01*
X206146400Y-92964000D01*
X205981303Y-92921452D01*
X205943200Y-92862400D01*
X206035062Y-92806760D01*
X206272029Y-92769856D01*
X206502000Y-92760800D01*
X206808017Y-92777502D01*
G37*
X206808017Y-92777502D02*
X207010987Y-92820587D01*
X207060800Y-92862400D01*
X206973852Y-92938775D01*
X206806800Y-92964000D01*
X206680826Y-92972661D01*
X206605396Y-93026285D01*
X206567552Y-93166330D01*
X206554341Y-93434254D01*
X206552800Y-93776800D01*
X206540917Y-94179318D01*
X206508477Y-94462176D01*
X206460288Y-94586890D01*
X206451200Y-94589600D01*
X206400885Y-94494540D01*
X206365527Y-94235016D01*
X206349938Y-93849511D01*
X206349600Y-93776800D01*
X206345357Y-93371828D01*
X206325818Y-93129118D01*
X206280763Y-93007797D01*
X206199975Y-92966990D01*
X206146400Y-92964000D01*
X205981303Y-92921452D01*
X205943200Y-92862400D01*
X206035062Y-92806760D01*
X206272029Y-92769856D01*
X206502000Y-92760800D01*
X206808017Y-92777502D01*
G36*
X159864723Y-89504270D02*
G01*
X159899145Y-89772281D01*
X159916780Y-90180827D01*
X159918400Y-90373200D01*
X159913195Y-90787958D01*
X159899208Y-91113437D01*
X159878873Y-91305511D01*
X159865098Y-91338400D01*
X159788031Y-91258645D01*
X159647002Y-91053691D01*
X159534898Y-90872000D01*
X159299219Y-90480503D01*
X159147325Y-90256800D01*
X159060623Y-90193161D01*
X159020520Y-90281854D01*
X159008423Y-90515149D01*
X159007231Y-90652600D01*
X158989478Y-90966468D01*
X158946825Y-91178526D01*
X158902400Y-91236800D01*
X158853717Y-91140888D01*
X158818990Y-90875390D01*
X158801925Y-90473659D01*
X158800800Y-90322400D01*
X158810294Y-89919735D01*
X158835724Y-89607539D01*
X158872515Y-89431135D01*
X158893134Y-89408000D01*
X158985055Y-89490021D01*
X159140919Y-89706084D01*
X159328576Y-90011189D01*
X159346792Y-90043000D01*
X159708116Y-90678000D01*
X159711658Y-90043000D01*
X159728359Y-89710228D01*
X159768568Y-89481502D01*
X159816800Y-89408000D01*
X159864723Y-89504270D01*
G37*
X159864723Y-89504270D02*
X159899145Y-89772281D01*
X159916780Y-90180827D01*
X159918400Y-90373200D01*
X159913195Y-90787958D01*
X159899208Y-91113437D01*
X159878873Y-91305511D01*
X159865098Y-91338400D01*
X159788031Y-91258645D01*
X159647002Y-91053691D01*
X159534898Y-90872000D01*
X159299219Y-90480503D01*
X159147325Y-90256800D01*
X159060623Y-90193161D01*
X159020520Y-90281854D01*
X159008423Y-90515149D01*
X159007231Y-90652600D01*
X158989478Y-90966468D01*
X158946825Y-91178526D01*
X158902400Y-91236800D01*
X158853717Y-91140888D01*
X158818990Y-90875390D01*
X158801925Y-90473659D01*
X158800800Y-90322400D01*
X158810294Y-89919735D01*
X158835724Y-89607539D01*
X158872515Y-89431135D01*
X158893134Y-89408000D01*
X158985055Y-89490021D01*
X159140919Y-89706084D01*
X159328576Y-90011189D01*
X159346792Y-90043000D01*
X159708116Y-90678000D01*
X159711658Y-90043000D01*
X159728359Y-89710228D01*
X159768568Y-89481502D01*
X159816800Y-89408000D01*
X159864723Y-89504270D01*
G36*
X180821218Y-89424511D02*
G01*
X181011647Y-89479255D01*
X181024607Y-89580045D01*
X180898800Y-89712800D01*
X180770024Y-89879208D01*
X180746400Y-89966800D01*
X180817550Y-90133601D01*
X180898800Y-90220800D01*
X181009003Y-90416262D01*
X181047315Y-90697103D01*
X181010973Y-90966592D01*
X180924200Y-91110719D01*
X180734571Y-91190005D01*
X180440558Y-91250119D01*
X180140931Y-91276267D01*
X179944706Y-91257435D01*
X179839316Y-91137326D01*
X179832000Y-91088413D01*
X179897525Y-91007562D01*
X180114038Y-90992766D01*
X180273920Y-91006771D01*
X180566800Y-91022511D01*
X180721109Y-90973888D01*
X180784224Y-90878377D01*
X180809095Y-90583904D01*
X180668706Y-90352785D01*
X180485628Y-90260821D01*
X180294200Y-90194405D01*
X180260060Y-90100341D01*
X180380268Y-89932316D01*
X180459310Y-89846348D01*
X180680220Y-89611200D01*
X180256110Y-89611200D01*
X179995153Y-89589547D01*
X179845723Y-89535200D01*
X179832000Y-89509600D01*
X179924543Y-89455482D01*
X180166299Y-89418791D01*
X180441600Y-89408000D01*
X180821218Y-89424511D01*
G37*
X180821218Y-89424511D02*
X181011647Y-89479255D01*
X181024607Y-89580045D01*
X180898800Y-89712800D01*
X180770024Y-89879208D01*
X180746400Y-89966800D01*
X180817550Y-90133601D01*
X180898800Y-90220800D01*
X181009003Y-90416262D01*
X181047315Y-90697103D01*
X181010973Y-90966592D01*
X180924200Y-91110719D01*
X180734571Y-91190005D01*
X180440558Y-91250119D01*
X180140931Y-91276267D01*
X179944706Y-91257435D01*
X179839316Y-91137326D01*
X179832000Y-91088413D01*
X179897525Y-91007562D01*
X180114038Y-90992766D01*
X180273920Y-91006771D01*
X180566800Y-91022511D01*
X180721109Y-90973888D01*
X180784224Y-90878377D01*
X180809095Y-90583904D01*
X180668706Y-90352785D01*
X180485628Y-90260821D01*
X180294200Y-90194405D01*
X180260060Y-90100341D01*
X180380268Y-89932316D01*
X180459310Y-89846348D01*
X180680220Y-89611200D01*
X180256110Y-89611200D01*
X179995153Y-89589547D01*
X179845723Y-89535200D01*
X179832000Y-89509600D01*
X179924543Y-89455482D01*
X180166299Y-89418791D01*
X180441600Y-89408000D01*
X180821218Y-89424511D01*
G36*
X158138282Y-89503911D02*
G01*
X158173009Y-89769409D01*
X158190074Y-90171140D01*
X158191200Y-90322400D01*
X158180543Y-90760542D01*
X158151043Y-91073084D01*
X158106406Y-91226671D01*
X158089600Y-91236800D01*
X158040917Y-91140888D01*
X158006190Y-90875390D01*
X157989125Y-90473659D01*
X157988000Y-90322400D01*
X157998656Y-89884257D01*
X158028156Y-89571715D01*
X158072793Y-89418128D01*
X158089600Y-89408000D01*
X158138282Y-89503911D01*
G37*
X158138282Y-89503911D02*
X158173009Y-89769409D01*
X158190074Y-90171140D01*
X158191200Y-90322400D01*
X158180543Y-90760542D01*
X158151043Y-91073084D01*
X158106406Y-91226671D01*
X158089600Y-91236800D01*
X158040917Y-91140888D01*
X158006190Y-90875390D01*
X157989125Y-90473659D01*
X157988000Y-90322400D01*
X157998656Y-89884257D01*
X158028156Y-89571715D01*
X158072793Y-89418128D01*
X158089600Y-89408000D01*
X158138282Y-89503911D01*
G36*
X182218167Y-65507193D02*
G01*
X182496670Y-65627476D01*
X182927796Y-65825385D01*
X183497143Y-66093971D01*
X184190313Y-66426287D01*
X184992904Y-66815386D01*
X185890516Y-67254321D01*
X186868748Y-67736145D01*
X187913201Y-68253910D01*
X189009473Y-68800670D01*
X189063043Y-68827470D01*
X195878311Y-72237599D01*
X197432263Y-72237600D01*
X198025209Y-72236412D01*
X198446941Y-72229936D01*
X198729444Y-72213800D01*
X198904703Y-72183631D01*
X199004700Y-72135058D01*
X199061421Y-72063710D01*
X199086507Y-72011493D01*
X199250617Y-71792301D01*
X199446611Y-71640960D01*
X199663590Y-71551721D01*
X199864649Y-71578245D01*
X200005411Y-71638917D01*
X200249546Y-71809770D01*
X200404692Y-72009450D01*
X200466314Y-72116889D01*
X200564804Y-72184043D01*
X200742969Y-72220290D01*
X201043613Y-72235009D01*
X201446092Y-72237600D01*
X201893293Y-72247975D01*
X202213470Y-72276784D01*
X202374430Y-72320551D01*
X202387200Y-72339200D01*
X202290929Y-72387123D01*
X202022918Y-72421545D01*
X201614372Y-72439180D01*
X201422000Y-72440800D01*
X200964149Y-72445923D01*
X200674475Y-72465077D01*
X200518124Y-72503934D01*
X200460244Y-72568169D01*
X200456800Y-72597925D01*
X200375678Y-72750639D01*
X200177847Y-72913244D01*
X200152642Y-72928125D01*
X199848484Y-73101200D01*
X199847200Y-80873600D01*
X178714400Y-80873600D01*
X178714400Y-75793600D01*
X178917600Y-75793600D01*
X178917600Y-80670400D01*
X199644000Y-80670400D01*
X199644000Y-73098584D01*
X199415400Y-72998292D01*
X199191370Y-72825256D01*
X199086507Y-72669400D01*
X199040519Y-72582269D01*
X198970177Y-72520663D01*
X198843497Y-72480162D01*
X198628497Y-72456347D01*
X198293195Y-72444798D01*
X197805606Y-72441094D01*
X197432263Y-72440800D01*
X195878311Y-72440800D01*
X189063043Y-75850929D01*
X187964650Y-76398902D01*
X186917386Y-76918215D01*
X185935653Y-77401919D01*
X185033851Y-77843067D01*
X184226380Y-78234712D01*
X183527640Y-78569907D01*
X182952032Y-78841704D01*
X182513957Y-79043157D01*
X182227814Y-79167317D01*
X182108005Y-79207238D01*
X182106687Y-79206917D01*
X182052490Y-79146980D01*
X182013439Y-78997863D01*
X181987427Y-78733689D01*
X181972349Y-78328581D01*
X181966099Y-77756662D01*
X181965600Y-77473188D01*
X181965600Y-75793600D01*
X178917600Y-75793600D01*
X178714400Y-75793600D01*
X178714400Y-75590400D01*
X181965600Y-75590400D01*
X181965600Y-72339200D01*
X182372000Y-72339200D01*
X182372792Y-73449816D01*
X182375078Y-74498001D01*
X182378718Y-75466482D01*
X182383573Y-76337982D01*
X182389506Y-77095228D01*
X182396376Y-77720943D01*
X182404046Y-78197853D01*
X182412376Y-78508684D01*
X182421228Y-78636160D01*
X182422582Y-78638400D01*
X182519624Y-78594128D01*
X182783530Y-78466214D01*
X183199478Y-78262009D01*
X183752644Y-77988864D01*
X184428205Y-77654129D01*
X185211337Y-77265156D01*
X186087217Y-76829296D01*
X187041022Y-76353899D01*
X188057928Y-75846316D01*
X188721782Y-75514584D01*
X189769643Y-74990006D01*
X190762396Y-74491598D01*
X191685353Y-74026823D01*
X192523824Y-73603148D01*
X193263122Y-73228035D01*
X193888557Y-72908949D01*
X194385440Y-72653355D01*
X194739084Y-72468718D01*
X194934799Y-72362501D01*
X194970400Y-72339200D01*
X194882432Y-72287956D01*
X194630451Y-72155110D01*
X194232337Y-71949638D01*
X193705971Y-71680517D01*
X193069233Y-71356724D01*
X192340006Y-70987234D01*
X191536169Y-70581025D01*
X190675604Y-70147073D01*
X189776192Y-69694354D01*
X188855813Y-69231845D01*
X187932349Y-68768523D01*
X187023680Y-68313363D01*
X186147688Y-67875343D01*
X185322253Y-67463439D01*
X184565257Y-67086627D01*
X183894580Y-66753885D01*
X183328103Y-66474188D01*
X182883707Y-66256513D01*
X182579273Y-66109836D01*
X182432682Y-66043135D01*
X182422582Y-66039999D01*
X182413663Y-66138720D01*
X182405247Y-66423366D01*
X182397470Y-66876661D01*
X182390472Y-67481331D01*
X182384391Y-68220102D01*
X182379367Y-69075697D01*
X182375537Y-70030843D01*
X182373041Y-71068265D01*
X182372017Y-72170686D01*
X182372000Y-72339200D01*
X181965600Y-72339200D01*
X181965600Y-69088000D01*
X171094400Y-69088000D01*
X169127541Y-69087052D01*
X167353760Y-69084215D01*
X165774130Y-69079499D01*
X164389720Y-69072914D01*
X163201603Y-69064471D01*
X162210850Y-69054178D01*
X161418531Y-69042047D01*
X160825719Y-69028086D01*
X160433485Y-69012307D01*
X160242899Y-68994719D01*
X160223200Y-68986400D01*
X160324617Y-68968018D01*
X160628155Y-68951440D01*
X161132743Y-68936677D01*
X161837309Y-68923739D01*
X162740782Y-68912635D01*
X163842090Y-68903376D01*
X165140163Y-68895971D01*
X166633929Y-68890431D01*
X168322316Y-68886765D01*
X170204254Y-68884984D01*
X171094400Y-68884800D01*
X181965600Y-68884800D01*
X181965600Y-67205211D01*
X181968887Y-66558759D01*
X181980155Y-66089545D01*
X182001507Y-65771692D01*
X182035051Y-65579324D01*
X182082891Y-65486564D01*
X182106687Y-65471482D01*
X182218167Y-65507193D01*
G37*
X182218167Y-65507193D02*
X182496670Y-65627476D01*
X182927796Y-65825385D01*
X183497143Y-66093971D01*
X184190313Y-66426287D01*
X184992904Y-66815386D01*
X185890516Y-67254321D01*
X186868748Y-67736145D01*
X187913201Y-68253910D01*
X189009473Y-68800670D01*
X189063043Y-68827470D01*
X195878311Y-72237599D01*
X197432263Y-72237600D01*
X198025209Y-72236412D01*
X198446941Y-72229936D01*
X198729444Y-72213800D01*
X198904703Y-72183631D01*
X199004700Y-72135058D01*
X199061421Y-72063710D01*
X199086507Y-72011493D01*
X199250617Y-71792301D01*
X199446611Y-71640960D01*
X199663590Y-71551721D01*
X199864649Y-71578245D01*
X200005411Y-71638917D01*
X200249546Y-71809770D01*
X200404692Y-72009450D01*
X200466314Y-72116889D01*
X200564804Y-72184043D01*
X200742969Y-72220290D01*
X201043613Y-72235009D01*
X201446092Y-72237600D01*
X201893293Y-72247975D01*
X202213470Y-72276784D01*
X202374430Y-72320551D01*
X202387200Y-72339200D01*
X202290929Y-72387123D01*
X202022918Y-72421545D01*
X201614372Y-72439180D01*
X201422000Y-72440800D01*
X200964149Y-72445923D01*
X200674475Y-72465077D01*
X200518124Y-72503934D01*
X200460244Y-72568169D01*
X200456800Y-72597925D01*
X200375678Y-72750639D01*
X200177847Y-72913244D01*
X200152642Y-72928125D01*
X199848484Y-73101200D01*
X199847200Y-80873600D01*
X178714400Y-80873600D01*
X178714400Y-75793600D01*
X178917600Y-75793600D01*
X178917600Y-80670400D01*
X199644000Y-80670400D01*
X199644000Y-73098584D01*
X199415400Y-72998292D01*
X199191370Y-72825256D01*
X199086507Y-72669400D01*
X199040519Y-72582269D01*
X198970177Y-72520663D01*
X198843497Y-72480162D01*
X198628497Y-72456347D01*
X198293195Y-72444798D01*
X197805606Y-72441094D01*
X197432263Y-72440800D01*
X195878311Y-72440800D01*
X189063043Y-75850929D01*
X187964650Y-76398902D01*
X186917386Y-76918215D01*
X185935653Y-77401919D01*
X185033851Y-77843067D01*
X184226380Y-78234712D01*
X183527640Y-78569907D01*
X182952032Y-78841704D01*
X182513957Y-79043157D01*
X182227814Y-79167317D01*
X182108005Y-79207238D01*
X182106687Y-79206917D01*
X182052490Y-79146980D01*
X182013439Y-78997863D01*
X181987427Y-78733689D01*
X181972349Y-78328581D01*
X181966099Y-77756662D01*
X181965600Y-77473188D01*
X181965600Y-75793600D01*
X178917600Y-75793600D01*
X178714400Y-75793600D01*
X178714400Y-75590400D01*
X181965600Y-75590400D01*
X181965600Y-72339200D01*
X182372000Y-72339200D01*
X182372792Y-73449816D01*
X182375078Y-74498001D01*
X182378718Y-75466482D01*
X182383573Y-76337982D01*
X182389506Y-77095228D01*
X182396376Y-77720943D01*
X182404046Y-78197853D01*
X182412376Y-78508684D01*
X182421228Y-78636160D01*
X182422582Y-78638400D01*
X182519624Y-78594128D01*
X182783530Y-78466214D01*
X183199478Y-78262009D01*
X183752644Y-77988864D01*
X184428205Y-77654129D01*
X185211337Y-77265156D01*
X186087217Y-76829296D01*
X187041022Y-76353899D01*
X188057928Y-75846316D01*
X188721782Y-75514584D01*
X189769643Y-74990006D01*
X190762396Y-74491598D01*
X191685353Y-74026823D01*
X192523824Y-73603148D01*
X193263122Y-73228035D01*
X193888557Y-72908949D01*
X194385440Y-72653355D01*
X194739084Y-72468718D01*
X194934799Y-72362501D01*
X194970400Y-72339200D01*
X194882432Y-72287956D01*
X194630451Y-72155110D01*
X194232337Y-71949638D01*
X193705971Y-71680517D01*
X193069233Y-71356724D01*
X192340006Y-70987234D01*
X191536169Y-70581025D01*
X190675604Y-70147073D01*
X189776192Y-69694354D01*
X188855813Y-69231845D01*
X187932349Y-68768523D01*
X187023680Y-68313363D01*
X186147688Y-67875343D01*
X185322253Y-67463439D01*
X184565257Y-67086627D01*
X183894580Y-66753885D01*
X183328103Y-66474188D01*
X182883707Y-66256513D01*
X182579273Y-66109836D01*
X182432682Y-66043135D01*
X182422582Y-66039999D01*
X182413663Y-66138720D01*
X182405247Y-66423366D01*
X182397470Y-66876661D01*
X182390472Y-67481331D01*
X182384391Y-68220102D01*
X182379367Y-69075697D01*
X182375537Y-70030843D01*
X182373041Y-71068265D01*
X182372017Y-72170686D01*
X182372000Y-72339200D01*
X181965600Y-72339200D01*
X181965600Y-69088000D01*
X171094400Y-69088000D01*
X169127541Y-69087052D01*
X167353760Y-69084215D01*
X165774130Y-69079499D01*
X164389720Y-69072914D01*
X163201603Y-69064471D01*
X162210850Y-69054178D01*
X161418531Y-69042047D01*
X160825719Y-69028086D01*
X160433485Y-69012307D01*
X160242899Y-68994719D01*
X160223200Y-68986400D01*
X160324617Y-68968018D01*
X160628155Y-68951440D01*
X161132743Y-68936677D01*
X161837309Y-68923739D01*
X162740782Y-68912635D01*
X163842090Y-68903376D01*
X165140163Y-68895971D01*
X166633929Y-68890431D01*
X168322316Y-68886765D01*
X170204254Y-68884984D01*
X171094400Y-68884800D01*
X181965600Y-68884800D01*
X181965600Y-67205211D01*
X181968887Y-66558759D01*
X181980155Y-66089545D01*
X182001507Y-65771692D01*
X182035051Y-65579324D01*
X182082891Y-65486564D01*
X182106687Y-65471482D01*
X182218167Y-65507193D01*
G36*
X180614686Y-73492277D02*
G01*
X180877886Y-73646782D01*
X181032295Y-73905583D01*
X181051200Y-74051270D01*
X180984957Y-74242986D01*
X180813438Y-74509966D01*
X180631860Y-74729070D01*
X180212520Y-75184000D01*
X180631860Y-75184000D01*
X180891089Y-75205882D01*
X181038419Y-75260740D01*
X181051200Y-75285600D01*
X180958656Y-75339717D01*
X180716900Y-75376408D01*
X180441600Y-75387200D01*
X180062709Y-75368380D01*
X179861509Y-75313837D01*
X179832000Y-75270016D01*
X179897620Y-75143171D01*
X180070464Y-74918627D01*
X180314501Y-74642799D01*
X180339391Y-74616341D01*
X180637923Y-74265708D01*
X180771331Y-74010524D01*
X180743294Y-73833122D01*
X180557493Y-73715834D01*
X180528938Y-73706273D01*
X180299152Y-73707023D01*
X180187175Y-73761952D01*
X180008140Y-73827243D01*
X179922659Y-73805638D01*
X179873983Y-73711224D01*
X179988427Y-73593691D01*
X180299322Y-73466453D01*
X180614686Y-73492277D01*
G37*
X180614686Y-73492277D02*
X180877886Y-73646782D01*
X181032295Y-73905583D01*
X181051200Y-74051270D01*
X180984957Y-74242986D01*
X180813438Y-74509966D01*
X180631860Y-74729070D01*
X180212520Y-75184000D01*
X180631860Y-75184000D01*
X180891089Y-75205882D01*
X181038419Y-75260740D01*
X181051200Y-75285600D01*
X180958656Y-75339717D01*
X180716900Y-75376408D01*
X180441600Y-75387200D01*
X180062709Y-75368380D01*
X179861509Y-75313837D01*
X179832000Y-75270016D01*
X179897620Y-75143171D01*
X180070464Y-74918627D01*
X180314501Y-74642799D01*
X180339391Y-74616341D01*
X180637923Y-74265708D01*
X180771331Y-74010524D01*
X180743294Y-73833122D01*
X180557493Y-73715834D01*
X180528938Y-73706273D01*
X180299152Y-73707023D01*
X180187175Y-73761952D01*
X180008140Y-73827243D01*
X179922659Y-73805638D01*
X179873983Y-73711224D01*
X179988427Y-73593691D01*
X180299322Y-73466453D01*
X180614686Y-73492277D01*
G36*
X197285246Y-70197819D02*
G01*
X197299090Y-70448176D01*
X197306513Y-70808418D01*
X197307200Y-70967600D01*
X197309532Y-71385795D01*
X197324416Y-71641022D01*
X197363686Y-71773511D01*
X197439173Y-71823494D01*
X197561200Y-71831200D01*
X197752137Y-71865978D01*
X197815200Y-71932800D01*
X197723391Y-71988698D01*
X197486793Y-72025600D01*
X197262396Y-72034400D01*
X196944210Y-72017113D01*
X196716038Y-71972669D01*
X196646800Y-71932800D01*
X196682770Y-71857461D01*
X196844003Y-71831200D01*
X196986951Y-71819367D01*
X197064747Y-71752336D01*
X197097162Y-71582809D01*
X197103965Y-71263485D01*
X197104000Y-71209159D01*
X197097673Y-70872084D01*
X197071991Y-70704069D01*
X197016899Y-70671186D01*
X196956050Y-70709906D01*
X196782119Y-70782204D01*
X196699447Y-70765541D01*
X196694060Y-70659962D01*
X196838405Y-70470439D01*
X196908941Y-70401194D01*
X197112361Y-70219073D01*
X197245972Y-70114114D01*
X197267144Y-70104000D01*
X197285246Y-70197819D01*
G37*
X197285246Y-70197819D02*
X197299090Y-70448176D01*
X197306513Y-70808418D01*
X197307200Y-70967600D01*
X197309532Y-71385795D01*
X197324416Y-71641022D01*
X197363686Y-71773511D01*
X197439173Y-71823494D01*
X197561200Y-71831200D01*
X197752137Y-71865978D01*
X197815200Y-71932800D01*
X197723391Y-71988698D01*
X197486793Y-72025600D01*
X197262396Y-72034400D01*
X196944210Y-72017113D01*
X196716038Y-71972669D01*
X196646800Y-71932800D01*
X196682770Y-71857461D01*
X196844003Y-71831200D01*
X196986951Y-71819367D01*
X197064747Y-71752336D01*
X197097162Y-71582809D01*
X197103965Y-71263485D01*
X197104000Y-71209159D01*
X197097673Y-70872084D01*
X197071991Y-70704069D01*
X197016899Y-70671186D01*
X196956050Y-70709906D01*
X196782119Y-70782204D01*
X196699447Y-70765541D01*
X196694060Y-70659962D01*
X196838405Y-70470439D01*
X196908941Y-70401194D01*
X197112361Y-70219073D01*
X197245972Y-70114114D01*
X197267144Y-70104000D01*
X197285246Y-70197819D01*
G36*
X203653835Y-70259019D02*
G01*
X203708000Y-70307200D01*
X203839400Y-70502989D01*
X203900728Y-70789079D01*
X203911200Y-71069200D01*
X203887785Y-71453965D01*
X203806054Y-71704349D01*
X203708000Y-71831200D01*
X203426536Y-71994964D01*
X203102338Y-72020155D01*
X202818388Y-71904930D01*
X202761817Y-71852214D01*
X202639420Y-71601471D01*
X202578094Y-71239495D01*
X202578452Y-71043605D01*
X202792219Y-71043605D01*
X202819189Y-71387390D01*
X202932983Y-71649210D01*
X202953257Y-71671542D01*
X203107824Y-71804722D01*
X203240041Y-71808599D01*
X203398192Y-71732279D01*
X203583967Y-71529776D01*
X203672775Y-71221609D01*
X203665254Y-70880337D01*
X203562042Y-70578522D01*
X203386489Y-70399857D01*
X203187069Y-70349742D01*
X202993782Y-70462358D01*
X202988348Y-70467248D01*
X202849473Y-70707132D01*
X202792219Y-71043605D01*
X202578452Y-71043605D01*
X202578815Y-70845776D01*
X202642559Y-70499803D01*
X202742868Y-70307124D01*
X203017580Y-70139436D01*
X203347809Y-70123403D01*
X203653835Y-70259019D01*
G37*
X203653835Y-70259019D02*
X203708000Y-70307200D01*
X203839400Y-70502989D01*
X203900728Y-70789079D01*
X203911200Y-71069200D01*
X203887785Y-71453965D01*
X203806054Y-71704349D01*
X203708000Y-71831200D01*
X203426536Y-71994964D01*
X203102338Y-72020155D01*
X202818388Y-71904930D01*
X202761817Y-71852214D01*
X202639420Y-71601471D01*
X202578094Y-71239495D01*
X202578452Y-71043605D01*
X202792219Y-71043605D01*
X202819189Y-71387390D01*
X202932983Y-71649210D01*
X202953257Y-71671542D01*
X203107824Y-71804722D01*
X203240041Y-71808599D01*
X203398192Y-71732279D01*
X203583967Y-71529776D01*
X203672775Y-71221609D01*
X203665254Y-70880337D01*
X203562042Y-70578522D01*
X203386489Y-70399857D01*
X203187069Y-70349742D01*
X202993782Y-70462358D01*
X202988348Y-70467248D01*
X202849473Y-70707132D01*
X202792219Y-71043605D01*
X202578452Y-71043605D01*
X202578815Y-70845776D01*
X202642559Y-70499803D01*
X202742868Y-70307124D01*
X203017580Y-70139436D01*
X203347809Y-70123403D01*
X203653835Y-70259019D01*
G36*
X205488826Y-70195913D02*
G01*
X205522623Y-70434970D01*
X205537207Y-70766146D01*
X205533198Y-71134417D01*
X205511214Y-71484757D01*
X205471873Y-71762142D01*
X205415792Y-71911547D01*
X205414880Y-71912480D01*
X205194925Y-72012111D01*
X204892506Y-72018451D01*
X204606428Y-71930029D01*
X204597000Y-71924661D01*
X204507376Y-71838468D01*
X204453179Y-71679278D01*
X204426443Y-71403986D01*
X204419200Y-70969485D01*
X204419200Y-70962551D01*
X204433980Y-70497055D01*
X204471566Y-70215436D01*
X204521830Y-70121389D01*
X204574639Y-70218608D01*
X204619865Y-70510790D01*
X204643526Y-70880721D01*
X204671761Y-71314251D01*
X204722106Y-71584965D01*
X204803563Y-71732824D01*
X204842483Y-71763830D01*
X205057520Y-71825730D01*
X205210228Y-71699957D01*
X205301833Y-71384242D01*
X205333558Y-70876316D01*
X205333600Y-70853559D01*
X205346397Y-70474237D01*
X205380961Y-70210395D01*
X205431545Y-70104415D01*
X205435200Y-70104000D01*
X205488826Y-70195913D01*
G37*
X205488826Y-70195913D02*
X205522623Y-70434970D01*
X205537207Y-70766146D01*
X205533198Y-71134417D01*
X205511214Y-71484757D01*
X205471873Y-71762142D01*
X205415792Y-71911547D01*
X205414880Y-71912480D01*
X205194925Y-72012111D01*
X204892506Y-72018451D01*
X204606428Y-71930029D01*
X204597000Y-71924661D01*
X204507376Y-71838468D01*
X204453179Y-71679278D01*
X204426443Y-71403986D01*
X204419200Y-70969485D01*
X204419200Y-70962551D01*
X204433980Y-70497055D01*
X204471566Y-70215436D01*
X204521830Y-70121389D01*
X204574639Y-70218608D01*
X204619865Y-70510790D01*
X204643526Y-70880721D01*
X204671761Y-71314251D01*
X204722106Y-71584965D01*
X204803563Y-71732824D01*
X204842483Y-71763830D01*
X205057520Y-71825730D01*
X205210228Y-71699957D01*
X205301833Y-71384242D01*
X205333558Y-70876316D01*
X205333600Y-70853559D01*
X205346397Y-70474237D01*
X205380961Y-70210395D01*
X205431545Y-70104415D01*
X205435200Y-70104000D01*
X205488826Y-70195913D01*
G36*
X206808017Y-70120702D02*
G01*
X207010987Y-70163787D01*
X207060800Y-70205600D01*
X206973974Y-70282411D01*
X206810755Y-70307200D01*
X206689835Y-70316455D01*
X206614150Y-70370870D01*
X206570902Y-70510419D01*
X206547290Y-70775074D01*
X206531355Y-71179751D01*
X206510219Y-71560731D01*
X206478624Y-71838791D01*
X206442021Y-71972811D01*
X206425800Y-71975618D01*
X206389729Y-71843884D01*
X206362881Y-71564020D01*
X206350061Y-71191048D01*
X206349600Y-71103066D01*
X206345183Y-70703168D01*
X206324910Y-70465125D01*
X206278240Y-70347662D01*
X206194637Y-70309505D01*
X206146400Y-70307200D01*
X205981303Y-70264652D01*
X205943200Y-70205600D01*
X206035062Y-70149960D01*
X206272029Y-70113056D01*
X206502000Y-70104000D01*
X206808017Y-70120702D01*
G37*
X206808017Y-70120702D02*
X207010987Y-70163787D01*
X207060800Y-70205600D01*
X206973974Y-70282411D01*
X206810755Y-70307200D01*
X206689835Y-70316455D01*
X206614150Y-70370870D01*
X206570902Y-70510419D01*
X206547290Y-70775074D01*
X206531355Y-71179751D01*
X206510219Y-71560731D01*
X206478624Y-71838791D01*
X206442021Y-71972811D01*
X206425800Y-71975618D01*
X206389729Y-71843884D01*
X206362881Y-71564020D01*
X206350061Y-71191048D01*
X206349600Y-71103066D01*
X206345183Y-70703168D01*
X206324910Y-70465125D01*
X206278240Y-70347662D01*
X206194637Y-70309505D01*
X206146400Y-70307200D01*
X205981303Y-70264652D01*
X205943200Y-70205600D01*
X206035062Y-70149960D01*
X206272029Y-70113056D01*
X206502000Y-70104000D01*
X206808017Y-70120702D01*
G36*
X158137523Y-66847470D02*
G01*
X158171945Y-67115481D01*
X158189580Y-67524027D01*
X158191200Y-67716400D01*
X158181066Y-68171670D01*
X158152854Y-68498678D01*
X158109849Y-68666219D01*
X158089600Y-68681600D01*
X158041676Y-68585329D01*
X158007254Y-68317318D01*
X157989619Y-67908772D01*
X157988000Y-67716400D01*
X157998133Y-67261129D01*
X158026345Y-66934121D01*
X158069350Y-66766580D01*
X158089600Y-66751200D01*
X158137523Y-66847470D01*
G37*
X158137523Y-66847470D02*
X158171945Y-67115481D01*
X158189580Y-67524027D01*
X158191200Y-67716400D01*
X158181066Y-68171670D01*
X158152854Y-68498678D01*
X158109849Y-68666219D01*
X158089600Y-68681600D01*
X158041676Y-68585329D01*
X158007254Y-68317318D01*
X157989619Y-67908772D01*
X157988000Y-67716400D01*
X157998133Y-67261129D01*
X158026345Y-66934121D01*
X158069350Y-66766580D01*
X158089600Y-66751200D01*
X158137523Y-66847470D01*
G36*
X158967028Y-66832292D02*
G01*
X159122036Y-67046103D01*
X159313530Y-67348427D01*
X159336059Y-67386200D01*
X159712441Y-68021200D01*
X159713820Y-67442996D01*
X159729193Y-67049012D01*
X159766440Y-66845595D01*
X159815775Y-66822593D01*
X159867415Y-66969852D01*
X159911575Y-67277222D01*
X159936550Y-67674099D01*
X159943184Y-68086109D01*
X159933625Y-68414768D01*
X159909980Y-68612075D01*
X159893869Y-68646274D01*
X159807798Y-68589637D01*
X159648970Y-68397661D01*
X159449000Y-68109349D01*
X159412234Y-68052058D01*
X159005930Y-67411600D01*
X159004965Y-68046600D01*
X158989593Y-68380985D01*
X158950169Y-68609364D01*
X158902400Y-68681600D01*
X158854476Y-68585329D01*
X158820054Y-68317318D01*
X158802419Y-67908772D01*
X158800800Y-67716400D01*
X158808555Y-67301659D01*
X158829400Y-66976186D01*
X158859704Y-66784103D01*
X158880238Y-66751200D01*
X158967028Y-66832292D01*
G37*
X158967028Y-66832292D02*
X159122036Y-67046103D01*
X159313530Y-67348427D01*
X159336059Y-67386200D01*
X159712441Y-68021200D01*
X159713820Y-67442996D01*
X159729193Y-67049012D01*
X159766440Y-66845595D01*
X159815775Y-66822593D01*
X159867415Y-66969852D01*
X159911575Y-67277222D01*
X159936550Y-67674099D01*
X159943184Y-68086109D01*
X159933625Y-68414768D01*
X159909980Y-68612075D01*
X159893869Y-68646274D01*
X159807798Y-68589637D01*
X159648970Y-68397661D01*
X159449000Y-68109349D01*
X159412234Y-68052058D01*
X159005930Y-67411600D01*
X159004965Y-68046600D01*
X158989593Y-68380985D01*
X158950169Y-68609364D01*
X158902400Y-68681600D01*
X158854476Y-68585329D01*
X158820054Y-68317318D01*
X158802419Y-67908772D01*
X158800800Y-67716400D01*
X158808555Y-67301659D01*
X158829400Y-66976186D01*
X158859704Y-66784103D01*
X158880238Y-66751200D01*
X158967028Y-66832292D01*
G36*
X180763111Y-66764508D02*
G01*
X180984001Y-66799100D01*
X181051200Y-66839098D01*
X180993785Y-66974193D01*
X180855946Y-67175221D01*
X180727837Y-67352716D01*
X180726962Y-67449612D01*
X180853322Y-67543745D01*
X180855946Y-67545384D01*
X181006291Y-67745074D01*
X181051411Y-68034780D01*
X180990480Y-68330191D01*
X180865399Y-68513453D01*
X180610080Y-68635829D01*
X180270826Y-68672532D01*
X179959000Y-68614312D01*
X179842394Y-68480199D01*
X179832000Y-68419133D01*
X179858261Y-68295560D01*
X179966395Y-68303892D01*
X180130650Y-68396538D01*
X180368697Y-68453284D01*
X180618359Y-68388324D01*
X180801394Y-68235101D01*
X180848000Y-68089924D01*
X180763180Y-67862635D01*
X180556215Y-67651557D01*
X180358109Y-67549427D01*
X180297958Y-67477323D01*
X180377899Y-67316328D01*
X180441683Y-67231369D01*
X180659548Y-66954400D01*
X180245774Y-66954400D01*
X179988574Y-66932241D01*
X179843715Y-66876776D01*
X179832000Y-66852800D01*
X179924543Y-66798682D01*
X180166299Y-66761991D01*
X180441600Y-66751200D01*
X180763111Y-66764508D01*
G37*
X180763111Y-66764508D02*
X180984001Y-66799100D01*
X181051200Y-66839098D01*
X180993785Y-66974193D01*
X180855946Y-67175221D01*
X180727837Y-67352716D01*
X180726962Y-67449612D01*
X180853322Y-67543745D01*
X180855946Y-67545384D01*
X181006291Y-67745074D01*
X181051411Y-68034780D01*
X180990480Y-68330191D01*
X180865399Y-68513453D01*
X180610080Y-68635829D01*
X180270826Y-68672532D01*
X179959000Y-68614312D01*
X179842394Y-68480199D01*
X179832000Y-68419133D01*
X179858261Y-68295560D01*
X179966395Y-68303892D01*
X180130650Y-68396538D01*
X180368697Y-68453284D01*
X180618359Y-68388324D01*
X180801394Y-68235101D01*
X180848000Y-68089924D01*
X180763180Y-67862635D01*
X180556215Y-67651557D01*
X180358109Y-67549427D01*
X180297958Y-67477323D01*
X180377899Y-67316328D01*
X180441683Y-67231369D01*
X180659548Y-66954400D01*
X180245774Y-66954400D01*
X179988574Y-66932241D01*
X179843715Y-66876776D01*
X179832000Y-66852800D01*
X179924543Y-66798682D01*
X180166299Y-66761991D01*
X180441600Y-66751200D01*
X180763111Y-66764508D01*
G36*
X183967336Y-135521087D02*
G01*
X183997592Y-135733807D01*
X183997600Y-135737600D01*
X184017423Y-135942383D01*
X184117971Y-136026376D01*
X184353200Y-136042400D01*
X184588240Y-136067918D01*
X184705728Y-136130666D01*
X184708800Y-136144000D01*
X184619485Y-136211154D01*
X184399867Y-136244722D01*
X184353200Y-136245600D01*
X184114286Y-136262591D01*
X184016293Y-136348775D01*
X183997600Y-136550400D01*
X183968170Y-136764410D01*
X183897264Y-136855176D01*
X183896000Y-136855200D01*
X183824663Y-136766912D01*
X183794407Y-136554192D01*
X183794400Y-136550400D01*
X183769224Y-136334510D01*
X183650472Y-136254937D01*
X183489600Y-136245600D01*
X183275589Y-136216170D01*
X183184823Y-136145264D01*
X183184800Y-136144000D01*
X183273087Y-136072663D01*
X183485807Y-136042407D01*
X183489600Y-136042400D01*
X183705489Y-136017224D01*
X183785062Y-135898472D01*
X183794400Y-135737600D01*
X183823829Y-135523589D01*
X183894735Y-135432823D01*
X183896000Y-135432800D01*
X183967336Y-135521087D01*
G37*
X183967336Y-135521087D02*
X183997592Y-135733807D01*
X183997600Y-135737600D01*
X184017423Y-135942383D01*
X184117971Y-136026376D01*
X184353200Y-136042400D01*
X184588240Y-136067918D01*
X184705728Y-136130666D01*
X184708800Y-136144000D01*
X184619485Y-136211154D01*
X184399867Y-136244722D01*
X184353200Y-136245600D01*
X184114286Y-136262591D01*
X184016293Y-136348775D01*
X183997600Y-136550400D01*
X183968170Y-136764410D01*
X183897264Y-136855176D01*
X183896000Y-136855200D01*
X183824663Y-136766912D01*
X183794407Y-136554192D01*
X183794400Y-136550400D01*
X183769224Y-136334510D01*
X183650472Y-136254937D01*
X183489600Y-136245600D01*
X183275589Y-136216170D01*
X183184823Y-136145264D01*
X183184800Y-136144000D01*
X183273087Y-136072663D01*
X183485807Y-136042407D01*
X183489600Y-136042400D01*
X183705489Y-136017224D01*
X183785062Y-135898472D01*
X183794400Y-135737600D01*
X183823829Y-135523589D01*
X183894735Y-135432823D01*
X183896000Y-135432800D01*
X183967336Y-135521087D01*
G36*
X184330752Y-129349406D02*
G01*
X184598368Y-129383532D01*
X184708086Y-129433635D01*
X184708800Y-129438400D01*
X184614249Y-129489593D01*
X184358306Y-129525275D01*
X183982533Y-129539904D01*
X183946800Y-129540000D01*
X183562847Y-129527393D01*
X183295231Y-129493267D01*
X183185513Y-129443164D01*
X183184800Y-129438400D01*
X183279350Y-129387206D01*
X183535293Y-129351524D01*
X183911066Y-129336895D01*
X183946800Y-129336800D01*
X184330752Y-129349406D01*
G37*
X184330752Y-129349406D02*
X184598368Y-129383532D01*
X184708086Y-129433635D01*
X184708800Y-129438400D01*
X184614249Y-129489593D01*
X184358306Y-129525275D01*
X183982533Y-129539904D01*
X183946800Y-129540000D01*
X183562847Y-129527393D01*
X183295231Y-129493267D01*
X183185513Y-129443164D01*
X183184800Y-129438400D01*
X183279350Y-129387206D01*
X183535293Y-129351524D01*
X183911066Y-129336895D01*
X183946800Y-129336800D01*
X184330752Y-129349406D01*
G36*
X197285246Y-130548219D02*
G01*
X197299090Y-130798576D01*
X197306513Y-131158818D01*
X197307200Y-131318000D01*
X197309532Y-131736195D01*
X197324416Y-131991422D01*
X197363686Y-132123911D01*
X197439173Y-132173894D01*
X197561200Y-132181600D01*
X197752137Y-132216378D01*
X197815200Y-132283200D01*
X197723391Y-132339098D01*
X197486793Y-132376000D01*
X197262396Y-132384800D01*
X196944210Y-132367513D01*
X196716038Y-132323069D01*
X196646800Y-132283200D01*
X196682770Y-132207861D01*
X196844003Y-132181600D01*
X196986951Y-132169767D01*
X197064747Y-132102736D01*
X197097162Y-131933209D01*
X197103965Y-131613885D01*
X197104000Y-131559559D01*
X197097673Y-131222484D01*
X197071991Y-131054469D01*
X197016899Y-131021586D01*
X196956050Y-131060306D01*
X196782119Y-131132604D01*
X196699447Y-131115941D01*
X196694060Y-131010362D01*
X196838405Y-130820839D01*
X196908941Y-130751594D01*
X197112361Y-130569473D01*
X197245972Y-130464514D01*
X197267144Y-130454400D01*
X197285246Y-130548219D01*
G37*
X197285246Y-130548219D02*
X197299090Y-130798576D01*
X197306513Y-131158818D01*
X197307200Y-131318000D01*
X197309532Y-131736195D01*
X197324416Y-131991422D01*
X197363686Y-132123911D01*
X197439173Y-132173894D01*
X197561200Y-132181600D01*
X197752137Y-132216378D01*
X197815200Y-132283200D01*
X197723391Y-132339098D01*
X197486793Y-132376000D01*
X197262396Y-132384800D01*
X196944210Y-132367513D01*
X196716038Y-132323069D01*
X196646800Y-132283200D01*
X196682770Y-132207861D01*
X196844003Y-132181600D01*
X196986951Y-132169767D01*
X197064747Y-132102736D01*
X197097162Y-131933209D01*
X197103965Y-131613885D01*
X197104000Y-131559559D01*
X197097673Y-131222484D01*
X197071991Y-131054469D01*
X197016899Y-131021586D01*
X196956050Y-131060306D01*
X196782119Y-131132604D01*
X196699447Y-131115941D01*
X196694060Y-131010362D01*
X196838405Y-130820839D01*
X196908941Y-130751594D01*
X197112361Y-130569473D01*
X197245972Y-130464514D01*
X197267144Y-130454400D01*
X197285246Y-130548219D01*
G36*
X180614686Y-127137077D02*
G01*
X180877886Y-127291582D01*
X181032295Y-127550383D01*
X181051200Y-127696070D01*
X180984957Y-127887786D01*
X180813438Y-128154766D01*
X180631860Y-128373870D01*
X180212520Y-128828800D01*
X180631860Y-128828800D01*
X180891089Y-128850682D01*
X181038419Y-128905540D01*
X181051200Y-128930400D01*
X180958656Y-128984517D01*
X180716900Y-129021208D01*
X180441600Y-129032000D01*
X180062709Y-129013180D01*
X179861509Y-128958637D01*
X179832000Y-128914816D01*
X179897620Y-128787971D01*
X180070464Y-128563427D01*
X180314501Y-128287599D01*
X180339391Y-128261141D01*
X180637923Y-127910508D01*
X180771331Y-127655324D01*
X180743294Y-127477922D01*
X180557493Y-127360634D01*
X180528938Y-127351073D01*
X180299152Y-127351823D01*
X180187175Y-127406752D01*
X180008140Y-127472043D01*
X179922659Y-127450438D01*
X179873983Y-127356024D01*
X179988427Y-127238491D01*
X180299322Y-127111253D01*
X180614686Y-127137077D01*
G37*
X180614686Y-127137077D02*
X180877886Y-127291582D01*
X181032295Y-127550383D01*
X181051200Y-127696070D01*
X180984957Y-127887786D01*
X180813438Y-128154766D01*
X180631860Y-128373870D01*
X180212520Y-128828800D01*
X180631860Y-128828800D01*
X180891089Y-128850682D01*
X181038419Y-128905540D01*
X181051200Y-128930400D01*
X180958656Y-128984517D01*
X180716900Y-129021208D01*
X180441600Y-129032000D01*
X180062709Y-129013180D01*
X179861509Y-128958637D01*
X179832000Y-128914816D01*
X179897620Y-128787971D01*
X180070464Y-128563427D01*
X180314501Y-128287599D01*
X180339391Y-128261141D01*
X180637923Y-127910508D01*
X180771331Y-127655324D01*
X180743294Y-127477922D01*
X180557493Y-127360634D01*
X180528938Y-127351073D01*
X180299152Y-127351823D01*
X180187175Y-127406752D01*
X180008140Y-127472043D01*
X179922659Y-127450438D01*
X179873983Y-127356024D01*
X179988427Y-127238491D01*
X180299322Y-127111253D01*
X180614686Y-127137077D01*
G36*
X184330752Y-98361406D02*
G01*
X184598368Y-98395532D01*
X184708086Y-98445635D01*
X184708800Y-98450400D01*
X184614249Y-98501593D01*
X184358306Y-98537275D01*
X183982533Y-98551904D01*
X183946800Y-98552000D01*
X183562847Y-98539393D01*
X183295231Y-98505267D01*
X183185513Y-98455164D01*
X183184800Y-98450400D01*
X183279350Y-98399206D01*
X183535293Y-98363524D01*
X183911066Y-98348895D01*
X183946800Y-98348800D01*
X184330752Y-98361406D01*
G37*
X184330752Y-98361406D02*
X184598368Y-98395532D01*
X184708086Y-98445635D01*
X184708800Y-98450400D01*
X184614249Y-98501593D01*
X184358306Y-98537275D01*
X183982533Y-98551904D01*
X183946800Y-98552000D01*
X183562847Y-98539393D01*
X183295231Y-98505267D01*
X183185513Y-98455164D01*
X183184800Y-98450400D01*
X183279350Y-98399206D01*
X183535293Y-98363524D01*
X183911066Y-98348895D01*
X183946800Y-98348800D01*
X184330752Y-98361406D01*
G36*
X183965134Y-91025723D02*
G01*
X183996850Y-91232708D01*
X183997600Y-91281603D01*
X184012610Y-91522586D01*
X184098199Y-91622466D01*
X184315206Y-91643109D01*
X184353200Y-91643200D01*
X184588240Y-91668718D01*
X184705728Y-91731466D01*
X184708800Y-91744800D01*
X184619485Y-91811954D01*
X184399867Y-91845522D01*
X184353200Y-91846400D01*
X184114286Y-91863391D01*
X184016293Y-91949575D01*
X183997600Y-92151200D01*
X183968170Y-92365210D01*
X183897264Y-92455976D01*
X183896000Y-92456000D01*
X183824663Y-92367712D01*
X183794407Y-92154992D01*
X183794400Y-92151200D01*
X183769224Y-91935310D01*
X183650472Y-91855737D01*
X183489600Y-91846400D01*
X183275589Y-91816970D01*
X183184823Y-91746064D01*
X183184800Y-91744800D01*
X183273087Y-91673463D01*
X183485807Y-91643207D01*
X183489600Y-91643200D01*
X183705639Y-91617835D01*
X183785235Y-91499532D01*
X183794400Y-91344396D01*
X183825718Y-91109761D01*
X183896000Y-90982800D01*
X183965134Y-91025723D01*
G37*
X183965134Y-91025723D02*
X183996850Y-91232708D01*
X183997600Y-91281603D01*
X184012610Y-91522586D01*
X184098199Y-91622466D01*
X184315206Y-91643109D01*
X184353200Y-91643200D01*
X184588240Y-91668718D01*
X184705728Y-91731466D01*
X184708800Y-91744800D01*
X184619485Y-91811954D01*
X184399867Y-91845522D01*
X184353200Y-91846400D01*
X184114286Y-91863391D01*
X184016293Y-91949575D01*
X183997600Y-92151200D01*
X183968170Y-92365210D01*
X183897264Y-92455976D01*
X183896000Y-92456000D01*
X183824663Y-92367712D01*
X183794407Y-92154992D01*
X183794400Y-92151200D01*
X183769224Y-91935310D01*
X183650472Y-91855737D01*
X183489600Y-91846400D01*
X183275589Y-91816970D01*
X183184823Y-91746064D01*
X183184800Y-91744800D01*
X183273087Y-91673463D01*
X183485807Y-91643207D01*
X183489600Y-91643200D01*
X183705639Y-91617835D01*
X183785235Y-91499532D01*
X183794400Y-91344396D01*
X183825718Y-91109761D01*
X183896000Y-90982800D01*
X183965134Y-91025723D01*
G36*
X184330752Y-75704606D02*
G01*
X184598368Y-75738732D01*
X184708086Y-75788835D01*
X184708800Y-75793600D01*
X184614249Y-75844793D01*
X184358306Y-75880475D01*
X183982533Y-75895104D01*
X183946800Y-75895200D01*
X183562847Y-75882593D01*
X183295231Y-75848467D01*
X183185513Y-75798364D01*
X183184800Y-75793600D01*
X183279350Y-75742406D01*
X183535293Y-75706724D01*
X183911066Y-75692095D01*
X183946800Y-75692000D01*
X184330752Y-75704606D01*
G37*
X184330752Y-75704606D02*
X184598368Y-75738732D01*
X184708086Y-75788835D01*
X184708800Y-75793600D01*
X184614249Y-75844793D01*
X184358306Y-75880475D01*
X183982533Y-75895104D01*
X183946800Y-75895200D01*
X183562847Y-75882593D01*
X183295231Y-75848467D01*
X183185513Y-75798364D01*
X183184800Y-75793600D01*
X183279350Y-75742406D01*
X183535293Y-75706724D01*
X183911066Y-75692095D01*
X183946800Y-75692000D01*
X184330752Y-75704606D01*
G36*
X183967336Y-68465087D02*
G01*
X183997592Y-68677807D01*
X183997600Y-68681600D01*
X184017423Y-68886383D01*
X184117971Y-68970376D01*
X184353200Y-68986400D01*
X184588240Y-69011918D01*
X184705728Y-69074666D01*
X184708800Y-69088000D01*
X184619485Y-69155154D01*
X184399867Y-69188722D01*
X184353200Y-69189600D01*
X184114286Y-69206591D01*
X184016293Y-69292775D01*
X183997600Y-69494400D01*
X183968170Y-69708410D01*
X183897264Y-69799176D01*
X183896000Y-69799200D01*
X183824663Y-69710912D01*
X183794407Y-69498192D01*
X183794400Y-69494400D01*
X183769224Y-69278510D01*
X183650472Y-69198937D01*
X183489600Y-69189600D01*
X183275589Y-69160170D01*
X183184823Y-69089264D01*
X183184800Y-69088000D01*
X183273087Y-69016663D01*
X183485807Y-68986407D01*
X183489600Y-68986400D01*
X183705489Y-68961224D01*
X183785062Y-68842472D01*
X183794400Y-68681600D01*
X183823829Y-68467589D01*
X183894735Y-68376823D01*
X183896000Y-68376800D01*
X183967336Y-68465087D01*
G37*
X183967336Y-68465087D02*
X183997592Y-68677807D01*
X183997600Y-68681600D01*
X184017423Y-68886383D01*
X184117971Y-68970376D01*
X184353200Y-68986400D01*
X184588240Y-69011918D01*
X184705728Y-69074666D01*
X184708800Y-69088000D01*
X184619485Y-69155154D01*
X184399867Y-69188722D01*
X184353200Y-69189600D01*
X184114286Y-69206591D01*
X184016293Y-69292775D01*
X183997600Y-69494400D01*
X183968170Y-69708410D01*
X183897264Y-69799176D01*
X183896000Y-69799200D01*
X183824663Y-69710912D01*
X183794407Y-69498192D01*
X183794400Y-69494400D01*
X183769224Y-69278510D01*
X183650472Y-69198937D01*
X183489600Y-69189600D01*
X183275589Y-69160170D01*
X183184823Y-69089264D01*
X183184800Y-69088000D01*
X183273087Y-69016663D01*
X183485807Y-68986407D01*
X183489600Y-68986400D01*
X183705489Y-68961224D01*
X183785062Y-68842472D01*
X183794400Y-68681600D01*
X183823829Y-68467589D01*
X183894735Y-68376823D01*
X183896000Y-68376800D01*
X183967336Y-68465087D01*
G36*
X148769126Y-132418667D02*
G01*
X151437837Y-132418667D01*
X151414839Y-133043083D01*
X151388037Y-133503479D01*
X151340786Y-133911280D01*
X151267912Y-134297170D01*
X151164244Y-134691831D01*
X151103841Y-134887738D01*
X150836079Y-135587902D01*
X150497104Y-136247158D01*
X150091930Y-136861089D01*
X149625571Y-137425278D01*
X149103042Y-137935309D01*
X148529357Y-138386765D01*
X147909530Y-138775231D01*
X147248576Y-139096290D01*
X146551508Y-139345525D01*
X145852071Y-139513292D01*
X145642747Y-139542546D01*
X145373916Y-139566418D01*
X145067539Y-139584272D01*
X144745577Y-139595477D01*
X144429988Y-139599399D01*
X144142734Y-139595404D01*
X143905773Y-139582859D01*
X143806333Y-139572290D01*
X143072889Y-139432269D01*
X142370643Y-139218921D01*
X141703746Y-138936880D01*
X141076349Y-138590779D01*
X140492605Y-138185251D01*
X139956665Y-137724930D01*
X139472681Y-137214447D01*
X139044804Y-136658438D01*
X138677187Y-136061534D01*
X138373981Y-135428370D01*
X138254652Y-135090287D01*
X139835805Y-135090287D01*
X139896803Y-135319740D01*
X140013873Y-135583929D01*
X140350502Y-136157841D01*
X140751245Y-136678631D01*
X141211238Y-137142271D01*
X141725613Y-137544733D01*
X142289505Y-137881986D01*
X142898048Y-138150004D01*
X143256000Y-138268197D01*
X143773039Y-138385687D01*
X144330949Y-138451728D01*
X144902098Y-138464628D01*
X145458853Y-138422697D01*
X145556444Y-138409039D01*
X146197844Y-138270400D01*
X146811263Y-138054407D01*
X147390517Y-137765515D01*
X147929422Y-137408184D01*
X148421793Y-136986870D01*
X148861447Y-136506031D01*
X149242198Y-135970126D01*
X149451531Y-135601429D01*
X149567075Y-135356143D01*
X149631359Y-135160559D01*
X149647340Y-134999348D01*
X149617977Y-134857181D01*
X149602393Y-134819488D01*
X149510677Y-134704116D01*
X149370589Y-134616257D01*
X149218245Y-134577934D01*
X149205783Y-134577667D01*
X149078904Y-134592384D01*
X148969138Y-134643707D01*
X148865214Y-134742395D01*
X148755859Y-134899203D01*
X148629803Y-135124890D01*
X148627204Y-135129855D01*
X148306663Y-135657107D01*
X147931111Y-136124381D01*
X147506770Y-136529096D01*
X147039861Y-136868671D01*
X146536607Y-137140525D01*
X146003230Y-137342075D01*
X145445952Y-137470743D01*
X144870995Y-137523945D01*
X144284580Y-137499102D01*
X143692930Y-137393632D01*
X143383000Y-137305335D01*
X142818027Y-137080558D01*
X142302112Y-136786986D01*
X141836457Y-136425668D01*
X141422261Y-135997653D01*
X141060727Y-135503990D01*
X140806475Y-135055055D01*
X140663349Y-134814004D01*
X140516255Y-134655834D01*
X140361828Y-134578765D01*
X140196704Y-134581014D01*
X140038222Y-134648163D01*
X139906369Y-134760063D01*
X139838945Y-134905583D01*
X139835805Y-135090287D01*
X138254652Y-135090287D01*
X138139337Y-134763578D01*
X138022396Y-134263988D01*
X142113158Y-134263988D01*
X142144643Y-134432991D01*
X142232262Y-134638166D01*
X142365231Y-134863815D01*
X142532770Y-135094240D01*
X142724094Y-135313743D01*
X142928421Y-135506624D01*
X143012936Y-135573979D01*
X143250760Y-135742158D01*
X143466278Y-135866719D01*
X143695019Y-135965880D01*
X143933333Y-136045943D01*
X144202260Y-136104111D01*
X144520290Y-136134493D01*
X144859051Y-136137488D01*
X145190169Y-136113490D01*
X145485270Y-136062899D01*
X145626667Y-136022252D01*
X146001957Y-135858965D01*
X146363092Y-135640730D01*
X146678095Y-135387374D01*
X146727333Y-135339667D01*
X146906653Y-135139140D01*
X147070138Y-134917136D01*
X147206068Y-134693033D01*
X147302721Y-134486210D01*
X147348375Y-134316045D01*
X147348775Y-134312303D01*
X147333598Y-134110593D01*
X147247969Y-133949203D01*
X147098337Y-133838235D01*
X147029826Y-133812510D01*
X146840890Y-133791022D01*
X146673981Y-133848126D01*
X146526111Y-133985562D01*
X146409833Y-134173404D01*
X146200868Y-134498961D01*
X145935947Y-134769310D01*
X145626318Y-134979629D01*
X145283227Y-135125094D01*
X144917921Y-135200884D01*
X144541646Y-135202175D01*
X144181209Y-135129057D01*
X143847782Y-134991686D01*
X143558822Y-134797062D01*
X143304637Y-134536831D01*
X143075539Y-134202638D01*
X143044690Y-134149074D01*
X142950999Y-133995992D01*
X142870823Y-133901608D01*
X142785478Y-133846312D01*
X142739336Y-133828601D01*
X142544724Y-133802313D01*
X142369118Y-133847561D01*
X142228335Y-133953348D01*
X142138193Y-134108676D01*
X142113158Y-134263988D01*
X138022396Y-134263988D01*
X137977407Y-134071792D01*
X137892344Y-133357644D01*
X137879828Y-132958417D01*
X137879667Y-132418667D01*
X140649530Y-132418667D01*
X143419394Y-132418666D01*
X143513301Y-132606699D01*
X143687014Y-132861923D01*
X143932080Y-133080673D01*
X144145000Y-133209561D01*
X144271688Y-133269020D01*
X144385712Y-133304857D01*
X144516586Y-133322807D01*
X144693827Y-133328606D01*
X144758833Y-133328833D01*
X144955151Y-133325521D01*
X145096433Y-133311759D01*
X145212179Y-133281804D01*
X145331889Y-133229918D01*
X145372667Y-133209381D01*
X145607284Y-133069252D01*
X145785397Y-132910573D01*
X145934813Y-132707050D01*
X145973890Y-132640917D01*
X146100415Y-132418666D01*
X148769126Y-132418667D01*
G37*
X148769126Y-132418667D02*
X151437837Y-132418667D01*
X151414839Y-133043083D01*
X151388037Y-133503479D01*
X151340786Y-133911280D01*
X151267912Y-134297170D01*
X151164244Y-134691831D01*
X151103841Y-134887738D01*
X150836079Y-135587902D01*
X150497104Y-136247158D01*
X150091930Y-136861089D01*
X149625571Y-137425278D01*
X149103042Y-137935309D01*
X148529357Y-138386765D01*
X147909530Y-138775231D01*
X147248576Y-139096290D01*
X146551508Y-139345525D01*
X145852071Y-139513292D01*
X145642747Y-139542546D01*
X145373916Y-139566418D01*
X145067539Y-139584272D01*
X144745577Y-139595477D01*
X144429988Y-139599399D01*
X144142734Y-139595404D01*
X143905773Y-139582859D01*
X143806333Y-139572290D01*
X143072889Y-139432269D01*
X142370643Y-139218921D01*
X141703746Y-138936880D01*
X141076349Y-138590779D01*
X140492605Y-138185251D01*
X139956665Y-137724930D01*
X139472681Y-137214447D01*
X139044804Y-136658438D01*
X138677187Y-136061534D01*
X138373981Y-135428370D01*
X138254652Y-135090287D01*
X139835805Y-135090287D01*
X139896803Y-135319740D01*
X140013873Y-135583929D01*
X140350502Y-136157841D01*
X140751245Y-136678631D01*
X141211238Y-137142271D01*
X141725613Y-137544733D01*
X142289505Y-137881986D01*
X142898048Y-138150004D01*
X143256000Y-138268197D01*
X143773039Y-138385687D01*
X144330949Y-138451728D01*
X144902098Y-138464628D01*
X145458853Y-138422697D01*
X145556444Y-138409039D01*
X146197844Y-138270400D01*
X146811263Y-138054407D01*
X147390517Y-137765515D01*
X147929422Y-137408184D01*
X148421793Y-136986870D01*
X148861447Y-136506031D01*
X149242198Y-135970126D01*
X149451531Y-135601429D01*
X149567075Y-135356143D01*
X149631359Y-135160559D01*
X149647340Y-134999348D01*
X149617977Y-134857181D01*
X149602393Y-134819488D01*
X149510677Y-134704116D01*
X149370589Y-134616257D01*
X149218245Y-134577934D01*
X149205783Y-134577667D01*
X149078904Y-134592384D01*
X148969138Y-134643707D01*
X148865214Y-134742395D01*
X148755859Y-134899203D01*
X148629803Y-135124890D01*
X148627204Y-135129855D01*
X148306663Y-135657107D01*
X147931111Y-136124381D01*
X147506770Y-136529096D01*
X147039861Y-136868671D01*
X146536607Y-137140525D01*
X146003230Y-137342075D01*
X145445952Y-137470743D01*
X144870995Y-137523945D01*
X144284580Y-137499102D01*
X143692930Y-137393632D01*
X143383000Y-137305335D01*
X142818027Y-137080558D01*
X142302112Y-136786986D01*
X141836457Y-136425668D01*
X141422261Y-135997653D01*
X141060727Y-135503990D01*
X140806475Y-135055055D01*
X140663349Y-134814004D01*
X140516255Y-134655834D01*
X140361828Y-134578765D01*
X140196704Y-134581014D01*
X140038222Y-134648163D01*
X139906369Y-134760063D01*
X139838945Y-134905583D01*
X139835805Y-135090287D01*
X138254652Y-135090287D01*
X138139337Y-134763578D01*
X138022396Y-134263988D01*
X142113158Y-134263988D01*
X142144643Y-134432991D01*
X142232262Y-134638166D01*
X142365231Y-134863815D01*
X142532770Y-135094240D01*
X142724094Y-135313743D01*
X142928421Y-135506624D01*
X143012936Y-135573979D01*
X143250760Y-135742158D01*
X143466278Y-135866719D01*
X143695019Y-135965880D01*
X143933333Y-136045943D01*
X144202260Y-136104111D01*
X144520290Y-136134493D01*
X144859051Y-136137488D01*
X145190169Y-136113490D01*
X145485270Y-136062899D01*
X145626667Y-136022252D01*
X146001957Y-135858965D01*
X146363092Y-135640730D01*
X146678095Y-135387374D01*
X146727333Y-135339667D01*
X146906653Y-135139140D01*
X147070138Y-134917136D01*
X147206068Y-134693033D01*
X147302721Y-134486210D01*
X147348375Y-134316045D01*
X147348775Y-134312303D01*
X147333598Y-134110593D01*
X147247969Y-133949203D01*
X147098337Y-133838235D01*
X147029826Y-133812510D01*
X146840890Y-133791022D01*
X146673981Y-133848126D01*
X146526111Y-133985562D01*
X146409833Y-134173404D01*
X146200868Y-134498961D01*
X145935947Y-134769310D01*
X145626318Y-134979629D01*
X145283227Y-135125094D01*
X144917921Y-135200884D01*
X144541646Y-135202175D01*
X144181209Y-135129057D01*
X143847782Y-134991686D01*
X143558822Y-134797062D01*
X143304637Y-134536831D01*
X143075539Y-134202638D01*
X143044690Y-134149074D01*
X142950999Y-133995992D01*
X142870823Y-133901608D01*
X142785478Y-133846312D01*
X142739336Y-133828601D01*
X142544724Y-133802313D01*
X142369118Y-133847561D01*
X142228335Y-133953348D01*
X142138193Y-134108676D01*
X142113158Y-134263988D01*
X138022396Y-134263988D01*
X137977407Y-134071792D01*
X137892344Y-133357644D01*
X137879828Y-132958417D01*
X137879667Y-132418667D01*
X140649530Y-132418667D01*
X143419394Y-132418666D01*
X143513301Y-132606699D01*
X143687014Y-132861923D01*
X143932080Y-133080673D01*
X144145000Y-133209561D01*
X144271688Y-133269020D01*
X144385712Y-133304857D01*
X144516586Y-133322807D01*
X144693827Y-133328606D01*
X144758833Y-133328833D01*
X144955151Y-133325521D01*
X145096433Y-133311759D01*
X145212179Y-133281804D01*
X145331889Y-133229918D01*
X145372667Y-133209381D01*
X145607284Y-133069252D01*
X145785397Y-132910573D01*
X145934813Y-132707050D01*
X145973890Y-132640917D01*
X146100415Y-132418666D01*
X148769126Y-132418667D01*
G36*
X144977021Y-126096060D02*
G01*
X145233234Y-126100908D01*
X145438481Y-126109980D01*
X145609600Y-126124466D01*
X145763430Y-126145556D01*
X145916812Y-126174440D01*
X145979744Y-126187985D01*
X146728665Y-126394282D01*
X147436917Y-126671957D01*
X148100684Y-127018032D01*
X148716147Y-127429532D01*
X149279488Y-127903480D01*
X149786890Y-128436900D01*
X150234533Y-129026817D01*
X150618600Y-129670253D01*
X150728963Y-129890119D01*
X150859664Y-130179451D01*
X150983741Y-130485279D01*
X151093072Y-130785217D01*
X151179531Y-131056876D01*
X151234994Y-131277869D01*
X151237722Y-131292014D01*
X151266422Y-131445000D01*
X145203333Y-131445000D01*
X145203333Y-131781306D01*
X145199919Y-131959582D01*
X145186259Y-132077312D01*
X145157227Y-132158462D01*
X145108083Y-132226552D01*
X144955246Y-132340847D01*
X144769407Y-132385249D01*
X144623913Y-132368865D01*
X144482827Y-132307932D01*
X144388566Y-132205646D01*
X144334701Y-132049737D01*
X144314804Y-131827935D01*
X144314333Y-131777957D01*
X144314333Y-131445000D01*
X138012773Y-131445000D01*
X138112144Y-131073684D01*
X138345220Y-130363087D01*
X138652048Y-129689829D01*
X139028271Y-129058574D01*
X139469533Y-128473987D01*
X139971479Y-127940731D01*
X140529752Y-127463470D01*
X141139996Y-127046868D01*
X141797855Y-126695590D01*
X142447288Y-126432062D01*
X142778312Y-126321996D01*
X143072309Y-126237814D01*
X143349944Y-126176353D01*
X143631880Y-126134447D01*
X143938780Y-126108931D01*
X144291308Y-126096641D01*
X144653000Y-126094248D01*
X144977021Y-126096060D01*
G37*
X144977021Y-126096060D02*
X145233234Y-126100908D01*
X145438481Y-126109980D01*
X145609600Y-126124466D01*
X145763430Y-126145556D01*
X145916812Y-126174440D01*
X145979744Y-126187985D01*
X146728665Y-126394282D01*
X147436917Y-126671957D01*
X148100684Y-127018032D01*
X148716147Y-127429532D01*
X149279488Y-127903480D01*
X149786890Y-128436900D01*
X150234533Y-129026817D01*
X150618600Y-129670253D01*
X150728963Y-129890119D01*
X150859664Y-130179451D01*
X150983741Y-130485279D01*
X151093072Y-130785217D01*
X151179531Y-131056876D01*
X151234994Y-131277869D01*
X151237722Y-131292014D01*
X151266422Y-131445000D01*
X145203333Y-131445000D01*
X145203333Y-131781306D01*
X145199919Y-131959582D01*
X145186259Y-132077312D01*
X145157227Y-132158462D01*
X145108083Y-132226552D01*
X144955246Y-132340847D01*
X144769407Y-132385249D01*
X144623913Y-132368865D01*
X144482827Y-132307932D01*
X144388566Y-132205646D01*
X144334701Y-132049737D01*
X144314804Y-131827935D01*
X144314333Y-131777957D01*
X144314333Y-131445000D01*
X138012773Y-131445000D01*
X138112144Y-131073684D01*
X138345220Y-130363087D01*
X138652048Y-129689829D01*
X139028271Y-129058574D01*
X139469533Y-128473987D01*
X139971479Y-127940731D01*
X140529752Y-127463470D01*
X141139996Y-127046868D01*
X141797855Y-126695590D01*
X142447288Y-126432062D01*
X142778312Y-126321996D01*
X143072309Y-126237814D01*
X143349944Y-126176353D01*
X143631880Y-126134447D01*
X143938780Y-126108931D01*
X144291308Y-126096641D01*
X144653000Y-126094248D01*
X144977021Y-126096060D01*
D11*
%TO.C,R13*%
X104612221Y-67943000D02*
X104937779Y-67943000D01*
X104612221Y-68963000D02*
X104937779Y-68963000D01*
%TO.C,J7*%
X86300000Y-105470000D02*
X88960000Y-105470000D01*
X86300000Y-97790000D02*
X86300000Y-105470000D01*
X88960000Y-97790000D02*
X88960000Y-105470000D01*
X86300000Y-97790000D02*
X88960000Y-97790000D01*
X86300000Y-96520000D02*
X86300000Y-95190000D01*
X86300000Y-95190000D02*
X87630000Y-95190000D01*
%TO.C,D1*%
X101965000Y-67493000D02*
X99280000Y-67493000D01*
X99280000Y-67493000D02*
X99280000Y-69413000D01*
X99280000Y-69413000D02*
X101965000Y-69413000D01*
D10*
%TO.C,U4*%
X132545000Y-119395000D02*
X131145000Y-119395000D01*
X132545000Y-124495000D02*
X136695000Y-124495000D01*
X132545000Y-119345000D02*
X136695000Y-119345000D01*
X132545000Y-124495000D02*
X132545000Y-124350000D01*
X136695000Y-124495000D02*
X136695000Y-124350000D01*
X136695000Y-119345000D02*
X136695000Y-119490000D01*
X132545000Y-119345000D02*
X132545000Y-119395000D01*
%TO.C,U3*%
X124290000Y-76215000D02*
X122890000Y-76215000D01*
X124290000Y-81315000D02*
X128440000Y-81315000D01*
X124290000Y-76165000D02*
X128440000Y-76165000D01*
X124290000Y-81315000D02*
X124290000Y-81170000D01*
X128440000Y-81315000D02*
X128440000Y-81170000D01*
X128440000Y-76165000D02*
X128440000Y-76310000D01*
X124290000Y-76165000D02*
X124290000Y-76215000D01*
%TO.C,U2*%
X132545000Y-97805000D02*
X131145000Y-97805000D01*
X132545000Y-102905000D02*
X136695000Y-102905000D01*
X132545000Y-97755000D02*
X136695000Y-97755000D01*
X132545000Y-102905000D02*
X132545000Y-102760000D01*
X136695000Y-102905000D02*
X136695000Y-102760000D01*
X136695000Y-97755000D02*
X136695000Y-97900000D01*
X132545000Y-97755000D02*
X132545000Y-97805000D01*
D11*
%TO.C,U1*%
X91948000Y-133604000D02*
G75*
G03*
X91948000Y-133604000I-254000J0D01*
G01*
X83102000Y-134090000D02*
X83102000Y-112290000D01*
X92202000Y-134090000D02*
X83102000Y-134090000D01*
X92202000Y-112290000D02*
X83102000Y-112290000D01*
X92202000Y-134090000D02*
X92202000Y-112290000D01*
D16*
%TO.C,SW2*%
X117740000Y-117820000D02*
G75*
G03*
X117740000Y-117820000I-100000J0D01*
G01*
D17*
X118190000Y-126920000D02*
X118190000Y-116920000D01*
X128190000Y-126920000D02*
X118190000Y-126920000D01*
X128190000Y-116920000D02*
X128190000Y-126920000D01*
X118190000Y-116920000D02*
X128190000Y-116920000D01*
D16*
%TO.C,SW1*%
X117740000Y-96230000D02*
G75*
G03*
X117740000Y-96230000I-100000J0D01*
G01*
D17*
X118190000Y-105330000D02*
X118190000Y-95330000D01*
X128190000Y-105330000D02*
X118190000Y-105330000D01*
X128190000Y-95330000D02*
X128190000Y-105330000D01*
X118190000Y-95330000D02*
X128190000Y-95330000D01*
D11*
%TO.C,R12*%
X134457221Y-127510000D02*
X134782779Y-127510000D01*
X134457221Y-126490000D02*
X134782779Y-126490000D01*
%TO.C,R11*%
X114462779Y-126490000D02*
X114137221Y-126490000D01*
X114462779Y-127510000D02*
X114137221Y-127510000D01*
%TO.C,R10*%
X114462779Y-123950000D02*
X114137221Y-123950000D01*
X114462779Y-124970000D02*
X114137221Y-124970000D01*
%TO.C,R9*%
X114462779Y-121410000D02*
X114137221Y-121410000D01*
X114462779Y-122430000D02*
X114137221Y-122430000D01*
%TO.C,R8*%
X114462779Y-118870000D02*
X114137221Y-118870000D01*
X114462779Y-119890000D02*
X114137221Y-119890000D01*
%TO.C,R7*%
X114462779Y-116330000D02*
X114137221Y-116330000D01*
X114462779Y-117350000D02*
X114137221Y-117350000D01*
%TO.C,R6*%
X134782779Y-104900000D02*
X134457221Y-104900000D01*
X134782779Y-105920000D02*
X134457221Y-105920000D01*
%TO.C,R5*%
X114462779Y-104900000D02*
X114137221Y-104900000D01*
X114462779Y-105920000D02*
X114137221Y-105920000D01*
%TO.C,R4*%
X114462779Y-102360000D02*
X114137221Y-102360000D01*
X114462779Y-103380000D02*
X114137221Y-103380000D01*
%TO.C,R3*%
X114462779Y-99820000D02*
X114137221Y-99820000D01*
X114462779Y-100840000D02*
X114137221Y-100840000D01*
%TO.C,R2*%
X114462779Y-97280000D02*
X114137221Y-97280000D01*
X114462779Y-98300000D02*
X114137221Y-98300000D01*
%TO.C,R1*%
X114462779Y-94740000D02*
X114137221Y-94740000D01*
X114462779Y-95760000D02*
X114137221Y-95760000D01*
%TO.C,J6*%
X143450000Y-119320000D02*
X144780000Y-119320000D01*
X143450000Y-120650000D02*
X143450000Y-119320000D01*
X143450000Y-121920000D02*
X146110000Y-121920000D01*
X146110000Y-121920000D02*
X146110000Y-124520000D01*
X143450000Y-121920000D02*
X143450000Y-124520000D01*
X143450000Y-124520000D02*
X146110000Y-124520000D01*
%TO.C,J5*%
X143450000Y-76140000D02*
X144780000Y-76140000D01*
X143450000Y-77470000D02*
X143450000Y-76140000D01*
X143450000Y-78740000D02*
X146110000Y-78740000D01*
X146110000Y-78740000D02*
X146110000Y-81340000D01*
X143450000Y-78740000D02*
X143450000Y-81340000D01*
X143450000Y-81340000D02*
X146110000Y-81340000D01*
%TO.C,J4*%
X105350000Y-119320000D02*
X106680000Y-119320000D01*
X105350000Y-120650000D02*
X105350000Y-119320000D01*
X105350000Y-121920000D02*
X108010000Y-121920000D01*
X108010000Y-121920000D02*
X108010000Y-124520000D01*
X105350000Y-121920000D02*
X105350000Y-124520000D01*
X105350000Y-124520000D02*
X108010000Y-124520000D01*
%TO.C,J3*%
X105350000Y-76140000D02*
X106680000Y-76140000D01*
X105350000Y-77470000D02*
X105350000Y-76140000D01*
X105350000Y-78740000D02*
X108010000Y-78740000D01*
X108010000Y-78740000D02*
X108010000Y-81340000D01*
X105350000Y-78740000D02*
X105350000Y-81340000D01*
X105350000Y-81340000D02*
X108010000Y-81340000D01*
%TO.C,J2*%
X143450000Y-97730000D02*
X144780000Y-97730000D01*
X143450000Y-99060000D02*
X143450000Y-97730000D01*
X143450000Y-100330000D02*
X146110000Y-100330000D01*
X146110000Y-100330000D02*
X146110000Y-102930000D01*
X143450000Y-100330000D02*
X143450000Y-102930000D01*
X143450000Y-102930000D02*
X146110000Y-102930000D01*
%TO.C,J1*%
X108010000Y-102930000D02*
X106680000Y-102930000D01*
X108010000Y-101600000D02*
X108010000Y-102930000D01*
X108010000Y-100330000D02*
X105350000Y-100330000D01*
X105350000Y-100330000D02*
X105350000Y-97730000D01*
X108010000Y-100330000D02*
X108010000Y-97730000D01*
X108010000Y-97730000D02*
X105350000Y-97730000D01*
D10*
%TO.C,CON1*%
X95338000Y-75017000D02*
X95338000Y-76967000D01*
X95338000Y-67817000D02*
X95338000Y-70017000D01*
X81378000Y-66917000D02*
X81372000Y-76967000D01*
X95338000Y-76967000D02*
X91888000Y-76967000D01*
X95338000Y-66967000D02*
X95338000Y-67817000D01*
X91888000Y-66917000D02*
X95338000Y-66917000D01*
X81378000Y-76967000D02*
X84488000Y-76967000D01*
X81378000Y-66917000D02*
X84488000Y-66917000D01*
D11*
%TO.C,C12*%
X123860779Y-73281000D02*
X123535221Y-73281000D01*
X123860779Y-72261000D02*
X123535221Y-72261000D01*
%TO.C,C11*%
X123860779Y-69848000D02*
X123535221Y-69848000D01*
X123860779Y-70868000D02*
X123535221Y-70868000D01*
%TO.C,C10*%
X129194779Y-72261000D02*
X128869221Y-72261000D01*
X129194779Y-73281000D02*
X128869221Y-73281000D01*
%TO.C,C9*%
X129194779Y-70868000D02*
X128869221Y-70868000D01*
X129194779Y-69848000D02*
X128869221Y-69848000D01*
%TO.C,C8*%
X132090279Y-94871000D02*
X131764721Y-94871000D01*
X132090279Y-93851000D02*
X131764721Y-93851000D01*
%TO.C,C7*%
X132115779Y-91438000D02*
X131790221Y-91438000D01*
X132115779Y-92458000D02*
X131790221Y-92458000D01*
%TO.C,C6*%
X137449779Y-93851000D02*
X137124221Y-93851000D01*
X137449779Y-94871000D02*
X137124221Y-94871000D01*
%TO.C,C5*%
X137449779Y-92458000D02*
X137124221Y-92458000D01*
X137449779Y-91438000D02*
X137124221Y-91438000D01*
%TO.C,C4*%
X132115779Y-116461000D02*
X131790221Y-116461000D01*
X132115779Y-115441000D02*
X131790221Y-115441000D01*
%TO.C,C3*%
X132115779Y-113028000D02*
X131790221Y-113028000D01*
X132115779Y-114048000D02*
X131790221Y-114048000D01*
%TO.C,C2*%
X137475279Y-115441000D02*
X137149721Y-115441000D01*
X137475279Y-116461000D02*
X137149721Y-116461000D01*
%TO.C,C1*%
X137449779Y-114048000D02*
X137124221Y-114048000D01*
X137449779Y-113028000D02*
X137124221Y-113028000D01*
%TO.C,R13*%
D10*
X104132142Y-67475380D02*
X103798809Y-66999190D01*
X103560714Y-67475380D02*
X103560714Y-66475380D01*
X103941666Y-66475380D01*
X104036904Y-66523000D01*
X104084523Y-66570619D01*
X104132142Y-66665857D01*
X104132142Y-66808714D01*
X104084523Y-66903952D01*
X104036904Y-66951571D01*
X103941666Y-66999190D01*
X103560714Y-66999190D01*
X105084523Y-67475380D02*
X104513095Y-67475380D01*
X104798809Y-67475380D02*
X104798809Y-66475380D01*
X104703571Y-66618238D01*
X104608333Y-66713476D01*
X104513095Y-66761095D01*
X105417857Y-66475380D02*
X106036904Y-66475380D01*
X105703571Y-66856333D01*
X105846428Y-66856333D01*
X105941666Y-66903952D01*
X105989285Y-66951571D01*
X106036904Y-67046809D01*
X106036904Y-67284904D01*
X105989285Y-67380142D01*
X105941666Y-67427761D01*
X105846428Y-67475380D01*
X105560714Y-67475380D01*
X105465476Y-67427761D01*
X105417857Y-67380142D01*
%TO.C,D1*%
X100226904Y-67255380D02*
X100226904Y-66255380D01*
X100465000Y-66255380D01*
X100607857Y-66303000D01*
X100703095Y-66398238D01*
X100750714Y-66493476D01*
X100798333Y-66683952D01*
X100798333Y-66826809D01*
X100750714Y-67017285D01*
X100703095Y-67112523D01*
X100607857Y-67207761D01*
X100465000Y-67255380D01*
X100226904Y-67255380D01*
X101750714Y-67255380D02*
X101179285Y-67255380D01*
X101465000Y-67255380D02*
X101465000Y-66255380D01*
X101369761Y-66398238D01*
X101274523Y-66493476D01*
X101179285Y-66541095D01*
%TO.C,U4*%
X133858095Y-117872380D02*
X133858095Y-118681904D01*
X133905714Y-118777142D01*
X133953333Y-118824761D01*
X134048571Y-118872380D01*
X134239047Y-118872380D01*
X134334285Y-118824761D01*
X134381904Y-118777142D01*
X134429523Y-118681904D01*
X134429523Y-117872380D01*
X135334285Y-118205714D02*
X135334285Y-118872380D01*
X135096190Y-117824761D02*
X134858095Y-118539047D01*
X135477142Y-118539047D01*
%TO.C,U3*%
X125603095Y-74692380D02*
X125603095Y-75501904D01*
X125650714Y-75597142D01*
X125698333Y-75644761D01*
X125793571Y-75692380D01*
X125984047Y-75692380D01*
X126079285Y-75644761D01*
X126126904Y-75597142D01*
X126174523Y-75501904D01*
X126174523Y-74692380D01*
X126555476Y-74692380D02*
X127174523Y-74692380D01*
X126841190Y-75073333D01*
X126984047Y-75073333D01*
X127079285Y-75120952D01*
X127126904Y-75168571D01*
X127174523Y-75263809D01*
X127174523Y-75501904D01*
X127126904Y-75597142D01*
X127079285Y-75644761D01*
X126984047Y-75692380D01*
X126698333Y-75692380D01*
X126603095Y-75644761D01*
X126555476Y-75597142D01*
%TO.C,U2*%
X133858095Y-96282380D02*
X133858095Y-97091904D01*
X133905714Y-97187142D01*
X133953333Y-97234761D01*
X134048571Y-97282380D01*
X134239047Y-97282380D01*
X134334285Y-97234761D01*
X134381904Y-97187142D01*
X134429523Y-97091904D01*
X134429523Y-96282380D01*
X134858095Y-96377619D02*
X134905714Y-96330000D01*
X135000952Y-96282380D01*
X135239047Y-96282380D01*
X135334285Y-96330000D01*
X135381904Y-96377619D01*
X135429523Y-96472857D01*
X135429523Y-96568095D01*
X135381904Y-96710952D01*
X134810476Y-97282380D01*
X135429523Y-97282380D01*
%TO.C,U1*%
X88352380Y-123951904D02*
X89161904Y-123951904D01*
X89257142Y-123904285D01*
X89304761Y-123856666D01*
X89352380Y-123761428D01*
X89352380Y-123570952D01*
X89304761Y-123475714D01*
X89257142Y-123428095D01*
X89161904Y-123380476D01*
X88352380Y-123380476D01*
X89352380Y-122380476D02*
X89352380Y-122951904D01*
X89352380Y-122666190D02*
X88352380Y-122666190D01*
X88495238Y-122761428D01*
X88590476Y-122856666D01*
X88638095Y-122951904D01*
%TO.C,SW2*%
D18*
X121856666Y-122197761D02*
X121999523Y-122245380D01*
X122237619Y-122245380D01*
X122332857Y-122197761D01*
X122380476Y-122150142D01*
X122428095Y-122054904D01*
X122428095Y-121959666D01*
X122380476Y-121864428D01*
X122332857Y-121816809D01*
X122237619Y-121769190D01*
X122047142Y-121721571D01*
X121951904Y-121673952D01*
X121904285Y-121626333D01*
X121856666Y-121531095D01*
X121856666Y-121435857D01*
X121904285Y-121340619D01*
X121951904Y-121293000D01*
X122047142Y-121245380D01*
X122285238Y-121245380D01*
X122428095Y-121293000D01*
X122761428Y-121245380D02*
X122999523Y-122245380D01*
X123190000Y-121531095D01*
X123380476Y-122245380D01*
X123618571Y-121245380D01*
X123951904Y-121340619D02*
X123999523Y-121293000D01*
X124094761Y-121245380D01*
X124332857Y-121245380D01*
X124428095Y-121293000D01*
X124475714Y-121340619D01*
X124523333Y-121435857D01*
X124523333Y-121531095D01*
X124475714Y-121673952D01*
X123904285Y-122245380D01*
X124523333Y-122245380D01*
%TO.C,SW1*%
X121856666Y-100734761D02*
X121999523Y-100782380D01*
X122237619Y-100782380D01*
X122332857Y-100734761D01*
X122380476Y-100687142D01*
X122428095Y-100591904D01*
X122428095Y-100496666D01*
X122380476Y-100401428D01*
X122332857Y-100353809D01*
X122237619Y-100306190D01*
X122047142Y-100258571D01*
X121951904Y-100210952D01*
X121904285Y-100163333D01*
X121856666Y-100068095D01*
X121856666Y-99972857D01*
X121904285Y-99877619D01*
X121951904Y-99830000D01*
X122047142Y-99782380D01*
X122285238Y-99782380D01*
X122428095Y-99830000D01*
X122761428Y-99782380D02*
X122999523Y-100782380D01*
X123190000Y-100068095D01*
X123380476Y-100782380D01*
X123618571Y-99782380D01*
X124523333Y-100782380D02*
X123951904Y-100782380D01*
X124237619Y-100782380D02*
X124237619Y-99782380D01*
X124142380Y-99925238D01*
X124047142Y-100020476D01*
X123951904Y-100068095D01*
%TO.C,R12*%
D10*
X133977142Y-128976380D02*
X133643809Y-128500190D01*
X133405714Y-128976380D02*
X133405714Y-127976380D01*
X133786666Y-127976380D01*
X133881904Y-128024000D01*
X133929523Y-128071619D01*
X133977142Y-128166857D01*
X133977142Y-128309714D01*
X133929523Y-128404952D01*
X133881904Y-128452571D01*
X133786666Y-128500190D01*
X133405714Y-128500190D01*
X134929523Y-128976380D02*
X134358095Y-128976380D01*
X134643809Y-128976380D02*
X134643809Y-127976380D01*
X134548571Y-128119238D01*
X134453333Y-128214476D01*
X134358095Y-128262095D01*
X135310476Y-128071619D02*
X135358095Y-128024000D01*
X135453333Y-127976380D01*
X135691428Y-127976380D01*
X135786666Y-128024000D01*
X135834285Y-128071619D01*
X135881904Y-128166857D01*
X135881904Y-128262095D01*
X135834285Y-128404952D01*
X135262857Y-128976380D01*
X135881904Y-128976380D01*
%TO.C,R11*%
X110609142Y-127452380D02*
X110275809Y-126976190D01*
X110037714Y-127452380D02*
X110037714Y-126452380D01*
X110418666Y-126452380D01*
X110513904Y-126500000D01*
X110561523Y-126547619D01*
X110609142Y-126642857D01*
X110609142Y-126785714D01*
X110561523Y-126880952D01*
X110513904Y-126928571D01*
X110418666Y-126976190D01*
X110037714Y-126976190D01*
X111561523Y-127452380D02*
X110990095Y-127452380D01*
X111275809Y-127452380D02*
X111275809Y-126452380D01*
X111180571Y-126595238D01*
X111085333Y-126690476D01*
X110990095Y-126738095D01*
X112513904Y-127452380D02*
X111942476Y-127452380D01*
X112228190Y-127452380D02*
X112228190Y-126452380D01*
X112132952Y-126595238D01*
X112037714Y-126690476D01*
X111942476Y-126738095D01*
%TO.C,R10*%
X110609142Y-124912380D02*
X110275809Y-124436190D01*
X110037714Y-124912380D02*
X110037714Y-123912380D01*
X110418666Y-123912380D01*
X110513904Y-123960000D01*
X110561523Y-124007619D01*
X110609142Y-124102857D01*
X110609142Y-124245714D01*
X110561523Y-124340952D01*
X110513904Y-124388571D01*
X110418666Y-124436190D01*
X110037714Y-124436190D01*
X111561523Y-124912380D02*
X110990095Y-124912380D01*
X111275809Y-124912380D02*
X111275809Y-123912380D01*
X111180571Y-124055238D01*
X111085333Y-124150476D01*
X110990095Y-124198095D01*
X112180571Y-123912380D02*
X112275809Y-123912380D01*
X112371047Y-123960000D01*
X112418666Y-124007619D01*
X112466285Y-124102857D01*
X112513904Y-124293333D01*
X112513904Y-124531428D01*
X112466285Y-124721904D01*
X112418666Y-124817142D01*
X112371047Y-124864761D01*
X112275809Y-124912380D01*
X112180571Y-124912380D01*
X112085333Y-124864761D01*
X112037714Y-124817142D01*
X111990095Y-124721904D01*
X111942476Y-124531428D01*
X111942476Y-124293333D01*
X111990095Y-124102857D01*
X112037714Y-124007619D01*
X112085333Y-123960000D01*
X112180571Y-123912380D01*
%TO.C,R9*%
X111593333Y-122372380D02*
X111260000Y-121896190D01*
X111021904Y-122372380D02*
X111021904Y-121372380D01*
X111402857Y-121372380D01*
X111498095Y-121420000D01*
X111545714Y-121467619D01*
X111593333Y-121562857D01*
X111593333Y-121705714D01*
X111545714Y-121800952D01*
X111498095Y-121848571D01*
X111402857Y-121896190D01*
X111021904Y-121896190D01*
X112069523Y-122372380D02*
X112260000Y-122372380D01*
X112355238Y-122324761D01*
X112402857Y-122277142D01*
X112498095Y-122134285D01*
X112545714Y-121943809D01*
X112545714Y-121562857D01*
X112498095Y-121467619D01*
X112450476Y-121420000D01*
X112355238Y-121372380D01*
X112164761Y-121372380D01*
X112069523Y-121420000D01*
X112021904Y-121467619D01*
X111974285Y-121562857D01*
X111974285Y-121800952D01*
X112021904Y-121896190D01*
X112069523Y-121943809D01*
X112164761Y-121991428D01*
X112355238Y-121991428D01*
X112450476Y-121943809D01*
X112498095Y-121896190D01*
X112545714Y-121800952D01*
%TO.C,R8*%
X111593333Y-119832380D02*
X111260000Y-119356190D01*
X111021904Y-119832380D02*
X111021904Y-118832380D01*
X111402857Y-118832380D01*
X111498095Y-118880000D01*
X111545714Y-118927619D01*
X111593333Y-119022857D01*
X111593333Y-119165714D01*
X111545714Y-119260952D01*
X111498095Y-119308571D01*
X111402857Y-119356190D01*
X111021904Y-119356190D01*
X112164761Y-119260952D02*
X112069523Y-119213333D01*
X112021904Y-119165714D01*
X111974285Y-119070476D01*
X111974285Y-119022857D01*
X112021904Y-118927619D01*
X112069523Y-118880000D01*
X112164761Y-118832380D01*
X112355238Y-118832380D01*
X112450476Y-118880000D01*
X112498095Y-118927619D01*
X112545714Y-119022857D01*
X112545714Y-119070476D01*
X112498095Y-119165714D01*
X112450476Y-119213333D01*
X112355238Y-119260952D01*
X112164761Y-119260952D01*
X112069523Y-119308571D01*
X112021904Y-119356190D01*
X111974285Y-119451428D01*
X111974285Y-119641904D01*
X112021904Y-119737142D01*
X112069523Y-119784761D01*
X112164761Y-119832380D01*
X112355238Y-119832380D01*
X112450476Y-119784761D01*
X112498095Y-119737142D01*
X112545714Y-119641904D01*
X112545714Y-119451428D01*
X112498095Y-119356190D01*
X112450476Y-119308571D01*
X112355238Y-119260952D01*
%TO.C,R7*%
X111593333Y-117292380D02*
X111260000Y-116816190D01*
X111021904Y-117292380D02*
X111021904Y-116292380D01*
X111402857Y-116292380D01*
X111498095Y-116340000D01*
X111545714Y-116387619D01*
X111593333Y-116482857D01*
X111593333Y-116625714D01*
X111545714Y-116720952D01*
X111498095Y-116768571D01*
X111402857Y-116816190D01*
X111021904Y-116816190D01*
X111926666Y-116292380D02*
X112593333Y-116292380D01*
X112164761Y-117292380D01*
%TO.C,R6*%
X134453333Y-107292380D02*
X134120000Y-106816190D01*
X133881904Y-107292380D02*
X133881904Y-106292380D01*
X134262857Y-106292380D01*
X134358095Y-106340000D01*
X134405714Y-106387619D01*
X134453333Y-106482857D01*
X134453333Y-106625714D01*
X134405714Y-106720952D01*
X134358095Y-106768571D01*
X134262857Y-106816190D01*
X133881904Y-106816190D01*
X135310476Y-106292380D02*
X135120000Y-106292380D01*
X135024761Y-106340000D01*
X134977142Y-106387619D01*
X134881904Y-106530476D01*
X134834285Y-106720952D01*
X134834285Y-107101904D01*
X134881904Y-107197142D01*
X134929523Y-107244761D01*
X135024761Y-107292380D01*
X135215238Y-107292380D01*
X135310476Y-107244761D01*
X135358095Y-107197142D01*
X135405714Y-107101904D01*
X135405714Y-106863809D01*
X135358095Y-106768571D01*
X135310476Y-106720952D01*
X135215238Y-106673333D01*
X135024761Y-106673333D01*
X134929523Y-106720952D01*
X134881904Y-106768571D01*
X134834285Y-106863809D01*
%TO.C,R5*%
X111593333Y-105862380D02*
X111260000Y-105386190D01*
X111021904Y-105862380D02*
X111021904Y-104862380D01*
X111402857Y-104862380D01*
X111498095Y-104910000D01*
X111545714Y-104957619D01*
X111593333Y-105052857D01*
X111593333Y-105195714D01*
X111545714Y-105290952D01*
X111498095Y-105338571D01*
X111402857Y-105386190D01*
X111021904Y-105386190D01*
X112498095Y-104862380D02*
X112021904Y-104862380D01*
X111974285Y-105338571D01*
X112021904Y-105290952D01*
X112117142Y-105243333D01*
X112355238Y-105243333D01*
X112450476Y-105290952D01*
X112498095Y-105338571D01*
X112545714Y-105433809D01*
X112545714Y-105671904D01*
X112498095Y-105767142D01*
X112450476Y-105814761D01*
X112355238Y-105862380D01*
X112117142Y-105862380D01*
X112021904Y-105814761D01*
X111974285Y-105767142D01*
%TO.C,R4*%
X111593333Y-103322380D02*
X111260000Y-102846190D01*
X111021904Y-103322380D02*
X111021904Y-102322380D01*
X111402857Y-102322380D01*
X111498095Y-102370000D01*
X111545714Y-102417619D01*
X111593333Y-102512857D01*
X111593333Y-102655714D01*
X111545714Y-102750952D01*
X111498095Y-102798571D01*
X111402857Y-102846190D01*
X111021904Y-102846190D01*
X112450476Y-102655714D02*
X112450476Y-103322380D01*
X112212380Y-102274761D02*
X111974285Y-102989047D01*
X112593333Y-102989047D01*
%TO.C,R3*%
X111593333Y-100782380D02*
X111260000Y-100306190D01*
X111021904Y-100782380D02*
X111021904Y-99782380D01*
X111402857Y-99782380D01*
X111498095Y-99830000D01*
X111545714Y-99877619D01*
X111593333Y-99972857D01*
X111593333Y-100115714D01*
X111545714Y-100210952D01*
X111498095Y-100258571D01*
X111402857Y-100306190D01*
X111021904Y-100306190D01*
X111926666Y-99782380D02*
X112545714Y-99782380D01*
X112212380Y-100163333D01*
X112355238Y-100163333D01*
X112450476Y-100210952D01*
X112498095Y-100258571D01*
X112545714Y-100353809D01*
X112545714Y-100591904D01*
X112498095Y-100687142D01*
X112450476Y-100734761D01*
X112355238Y-100782380D01*
X112069523Y-100782380D01*
X111974285Y-100734761D01*
X111926666Y-100687142D01*
%TO.C,R2*%
X111593333Y-98242380D02*
X111260000Y-97766190D01*
X111021904Y-98242380D02*
X111021904Y-97242380D01*
X111402857Y-97242380D01*
X111498095Y-97290000D01*
X111545714Y-97337619D01*
X111593333Y-97432857D01*
X111593333Y-97575714D01*
X111545714Y-97670952D01*
X111498095Y-97718571D01*
X111402857Y-97766190D01*
X111021904Y-97766190D01*
X111974285Y-97337619D02*
X112021904Y-97290000D01*
X112117142Y-97242380D01*
X112355238Y-97242380D01*
X112450476Y-97290000D01*
X112498095Y-97337619D01*
X112545714Y-97432857D01*
X112545714Y-97528095D01*
X112498095Y-97670952D01*
X111926666Y-98242380D01*
X112545714Y-98242380D01*
%TO.C,R1*%
X111593333Y-95702380D02*
X111260000Y-95226190D01*
X111021904Y-95702380D02*
X111021904Y-94702380D01*
X111402857Y-94702380D01*
X111498095Y-94750000D01*
X111545714Y-94797619D01*
X111593333Y-94892857D01*
X111593333Y-95035714D01*
X111545714Y-95130952D01*
X111498095Y-95178571D01*
X111402857Y-95226190D01*
X111021904Y-95226190D01*
X112545714Y-95702380D02*
X111974285Y-95702380D01*
X112260000Y-95702380D02*
X112260000Y-94702380D01*
X112164761Y-94845238D01*
X112069523Y-94940476D01*
X111974285Y-94988095D01*
%TO.C,CON1*%
X86923714Y-72747142D02*
X86876095Y-72794761D01*
X86733238Y-72842380D01*
X86638000Y-72842380D01*
X86495142Y-72794761D01*
X86399904Y-72699523D01*
X86352285Y-72604285D01*
X86304666Y-72413809D01*
X86304666Y-72270952D01*
X86352285Y-72080476D01*
X86399904Y-71985238D01*
X86495142Y-71890000D01*
X86638000Y-71842380D01*
X86733238Y-71842380D01*
X86876095Y-71890000D01*
X86923714Y-71937619D01*
X87542761Y-71842380D02*
X87733238Y-71842380D01*
X87828476Y-71890000D01*
X87923714Y-71985238D01*
X87971333Y-72175714D01*
X87971333Y-72509047D01*
X87923714Y-72699523D01*
X87828476Y-72794761D01*
X87733238Y-72842380D01*
X87542761Y-72842380D01*
X87447523Y-72794761D01*
X87352285Y-72699523D01*
X87304666Y-72509047D01*
X87304666Y-72175714D01*
X87352285Y-71985238D01*
X87447523Y-71890000D01*
X87542761Y-71842380D01*
X88399904Y-72842380D02*
X88399904Y-71842380D01*
X88971333Y-72842380D01*
X88971333Y-71842380D01*
X89971333Y-72842380D02*
X89399904Y-72842380D01*
X89685619Y-72842380D02*
X89685619Y-71842380D01*
X89590380Y-71985238D01*
X89495142Y-72080476D01*
X89399904Y-72128095D01*
%TO.C,C12*%
X120007142Y-73128142D02*
X119959523Y-73175761D01*
X119816666Y-73223380D01*
X119721428Y-73223380D01*
X119578571Y-73175761D01*
X119483333Y-73080523D01*
X119435714Y-72985285D01*
X119388095Y-72794809D01*
X119388095Y-72651952D01*
X119435714Y-72461476D01*
X119483333Y-72366238D01*
X119578571Y-72271000D01*
X119721428Y-72223380D01*
X119816666Y-72223380D01*
X119959523Y-72271000D01*
X120007142Y-72318619D01*
X120959523Y-73223380D02*
X120388095Y-73223380D01*
X120673809Y-73223380D02*
X120673809Y-72223380D01*
X120578571Y-72366238D01*
X120483333Y-72461476D01*
X120388095Y-72509095D01*
X121340476Y-72318619D02*
X121388095Y-72271000D01*
X121483333Y-72223380D01*
X121721428Y-72223380D01*
X121816666Y-72271000D01*
X121864285Y-72318619D01*
X121911904Y-72413857D01*
X121911904Y-72509095D01*
X121864285Y-72651952D01*
X121292857Y-73223380D01*
X121911904Y-73223380D01*
%TO.C,C11*%
X120007142Y-70715142D02*
X119959523Y-70762761D01*
X119816666Y-70810380D01*
X119721428Y-70810380D01*
X119578571Y-70762761D01*
X119483333Y-70667523D01*
X119435714Y-70572285D01*
X119388095Y-70381809D01*
X119388095Y-70238952D01*
X119435714Y-70048476D01*
X119483333Y-69953238D01*
X119578571Y-69858000D01*
X119721428Y-69810380D01*
X119816666Y-69810380D01*
X119959523Y-69858000D01*
X120007142Y-69905619D01*
X120959523Y-70810380D02*
X120388095Y-70810380D01*
X120673809Y-70810380D02*
X120673809Y-69810380D01*
X120578571Y-69953238D01*
X120483333Y-70048476D01*
X120388095Y-70096095D01*
X121911904Y-70810380D02*
X121340476Y-70810380D01*
X121626190Y-70810380D02*
X121626190Y-69810380D01*
X121530952Y-69953238D01*
X121435714Y-70048476D01*
X121340476Y-70096095D01*
%TO.C,C10*%
X131564142Y-73128142D02*
X131516523Y-73175761D01*
X131373666Y-73223380D01*
X131278428Y-73223380D01*
X131135571Y-73175761D01*
X131040333Y-73080523D01*
X130992714Y-72985285D01*
X130945095Y-72794809D01*
X130945095Y-72651952D01*
X130992714Y-72461476D01*
X131040333Y-72366238D01*
X131135571Y-72271000D01*
X131278428Y-72223380D01*
X131373666Y-72223380D01*
X131516523Y-72271000D01*
X131564142Y-72318619D01*
X132516523Y-73223380D02*
X131945095Y-73223380D01*
X132230809Y-73223380D02*
X132230809Y-72223380D01*
X132135571Y-72366238D01*
X132040333Y-72461476D01*
X131945095Y-72509095D01*
X133135571Y-72223380D02*
X133230809Y-72223380D01*
X133326047Y-72271000D01*
X133373666Y-72318619D01*
X133421285Y-72413857D01*
X133468904Y-72604333D01*
X133468904Y-72842428D01*
X133421285Y-73032904D01*
X133373666Y-73128142D01*
X133326047Y-73175761D01*
X133230809Y-73223380D01*
X133135571Y-73223380D01*
X133040333Y-73175761D01*
X132992714Y-73128142D01*
X132945095Y-73032904D01*
X132897476Y-72842428D01*
X132897476Y-72604333D01*
X132945095Y-72413857D01*
X132992714Y-72318619D01*
X133040333Y-72271000D01*
X133135571Y-72223380D01*
%TO.C,C9*%
X131532333Y-70715142D02*
X131484714Y-70762761D01*
X131341857Y-70810380D01*
X131246619Y-70810380D01*
X131103761Y-70762761D01*
X131008523Y-70667523D01*
X130960904Y-70572285D01*
X130913285Y-70381809D01*
X130913285Y-70238952D01*
X130960904Y-70048476D01*
X131008523Y-69953238D01*
X131103761Y-69858000D01*
X131246619Y-69810380D01*
X131341857Y-69810380D01*
X131484714Y-69858000D01*
X131532333Y-69905619D01*
X132008523Y-70810380D02*
X132199000Y-70810380D01*
X132294238Y-70762761D01*
X132341857Y-70715142D01*
X132437095Y-70572285D01*
X132484714Y-70381809D01*
X132484714Y-70000857D01*
X132437095Y-69905619D01*
X132389476Y-69858000D01*
X132294238Y-69810380D01*
X132103761Y-69810380D01*
X132008523Y-69858000D01*
X131960904Y-69905619D01*
X131913285Y-70000857D01*
X131913285Y-70238952D01*
X131960904Y-70334190D01*
X132008523Y-70381809D01*
X132103761Y-70429428D01*
X132294238Y-70429428D01*
X132389476Y-70381809D01*
X132437095Y-70334190D01*
X132484714Y-70238952D01*
%TO.C,C8*%
X129119333Y-94718142D02*
X129071714Y-94765761D01*
X128928857Y-94813380D01*
X128833619Y-94813380D01*
X128690761Y-94765761D01*
X128595523Y-94670523D01*
X128547904Y-94575285D01*
X128500285Y-94384809D01*
X128500285Y-94241952D01*
X128547904Y-94051476D01*
X128595523Y-93956238D01*
X128690761Y-93861000D01*
X128833619Y-93813380D01*
X128928857Y-93813380D01*
X129071714Y-93861000D01*
X129119333Y-93908619D01*
X129690761Y-94241952D02*
X129595523Y-94194333D01*
X129547904Y-94146714D01*
X129500285Y-94051476D01*
X129500285Y-94003857D01*
X129547904Y-93908619D01*
X129595523Y-93861000D01*
X129690761Y-93813380D01*
X129881238Y-93813380D01*
X129976476Y-93861000D01*
X130024095Y-93908619D01*
X130071714Y-94003857D01*
X130071714Y-94051476D01*
X130024095Y-94146714D01*
X129976476Y-94194333D01*
X129881238Y-94241952D01*
X129690761Y-94241952D01*
X129595523Y-94289571D01*
X129547904Y-94337190D01*
X129500285Y-94432428D01*
X129500285Y-94622904D01*
X129547904Y-94718142D01*
X129595523Y-94765761D01*
X129690761Y-94813380D01*
X129881238Y-94813380D01*
X129976476Y-94765761D01*
X130024095Y-94718142D01*
X130071714Y-94622904D01*
X130071714Y-94432428D01*
X130024095Y-94337190D01*
X129976476Y-94289571D01*
X129881238Y-94241952D01*
%TO.C,C7*%
X129119333Y-92305142D02*
X129071714Y-92352761D01*
X128928857Y-92400380D01*
X128833619Y-92400380D01*
X128690761Y-92352761D01*
X128595523Y-92257523D01*
X128547904Y-92162285D01*
X128500285Y-91971809D01*
X128500285Y-91828952D01*
X128547904Y-91638476D01*
X128595523Y-91543238D01*
X128690761Y-91448000D01*
X128833619Y-91400380D01*
X128928857Y-91400380D01*
X129071714Y-91448000D01*
X129119333Y-91495619D01*
X129452666Y-91400380D02*
X130119333Y-91400380D01*
X129690761Y-92400380D01*
%TO.C,C6*%
X139660333Y-94718142D02*
X139612714Y-94765761D01*
X139469857Y-94813380D01*
X139374619Y-94813380D01*
X139231761Y-94765761D01*
X139136523Y-94670523D01*
X139088904Y-94575285D01*
X139041285Y-94384809D01*
X139041285Y-94241952D01*
X139088904Y-94051476D01*
X139136523Y-93956238D01*
X139231761Y-93861000D01*
X139374619Y-93813380D01*
X139469857Y-93813380D01*
X139612714Y-93861000D01*
X139660333Y-93908619D01*
X140517476Y-93813380D02*
X140327000Y-93813380D01*
X140231761Y-93861000D01*
X140184142Y-93908619D01*
X140088904Y-94051476D01*
X140041285Y-94241952D01*
X140041285Y-94622904D01*
X140088904Y-94718142D01*
X140136523Y-94765761D01*
X140231761Y-94813380D01*
X140422238Y-94813380D01*
X140517476Y-94765761D01*
X140565095Y-94718142D01*
X140612714Y-94622904D01*
X140612714Y-94384809D01*
X140565095Y-94289571D01*
X140517476Y-94241952D01*
X140422238Y-94194333D01*
X140231761Y-94194333D01*
X140136523Y-94241952D01*
X140088904Y-94289571D01*
X140041285Y-94384809D01*
%TO.C,C5*%
X139660333Y-92305142D02*
X139612714Y-92352761D01*
X139469857Y-92400380D01*
X139374619Y-92400380D01*
X139231761Y-92352761D01*
X139136523Y-92257523D01*
X139088904Y-92162285D01*
X139041285Y-91971809D01*
X139041285Y-91828952D01*
X139088904Y-91638476D01*
X139136523Y-91543238D01*
X139231761Y-91448000D01*
X139374619Y-91400380D01*
X139469857Y-91400380D01*
X139612714Y-91448000D01*
X139660333Y-91495619D01*
X140565095Y-91400380D02*
X140088904Y-91400380D01*
X140041285Y-91876571D01*
X140088904Y-91828952D01*
X140184142Y-91781333D01*
X140422238Y-91781333D01*
X140517476Y-91828952D01*
X140565095Y-91876571D01*
X140612714Y-91971809D01*
X140612714Y-92209904D01*
X140565095Y-92305142D01*
X140517476Y-92352761D01*
X140422238Y-92400380D01*
X140184142Y-92400380D01*
X140088904Y-92352761D01*
X140041285Y-92305142D01*
%TO.C,C4*%
X128992333Y-116308142D02*
X128944714Y-116355761D01*
X128801857Y-116403380D01*
X128706619Y-116403380D01*
X128563761Y-116355761D01*
X128468523Y-116260523D01*
X128420904Y-116165285D01*
X128373285Y-115974809D01*
X128373285Y-115831952D01*
X128420904Y-115641476D01*
X128468523Y-115546238D01*
X128563761Y-115451000D01*
X128706619Y-115403380D01*
X128801857Y-115403380D01*
X128944714Y-115451000D01*
X128992333Y-115498619D01*
X129849476Y-115736714D02*
X129849476Y-116403380D01*
X129611380Y-115355761D02*
X129373285Y-116070047D01*
X129992333Y-116070047D01*
%TO.C,C3*%
X129119333Y-113895142D02*
X129071714Y-113942761D01*
X128928857Y-113990380D01*
X128833619Y-113990380D01*
X128690761Y-113942761D01*
X128595523Y-113847523D01*
X128547904Y-113752285D01*
X128500285Y-113561809D01*
X128500285Y-113418952D01*
X128547904Y-113228476D01*
X128595523Y-113133238D01*
X128690761Y-113038000D01*
X128833619Y-112990380D01*
X128928857Y-112990380D01*
X129071714Y-113038000D01*
X129119333Y-113085619D01*
X129452666Y-112990380D02*
X130071714Y-112990380D01*
X129738380Y-113371333D01*
X129881238Y-113371333D01*
X129976476Y-113418952D01*
X130024095Y-113466571D01*
X130071714Y-113561809D01*
X130071714Y-113799904D01*
X130024095Y-113895142D01*
X129976476Y-113942761D01*
X129881238Y-113990380D01*
X129595523Y-113990380D01*
X129500285Y-113942761D01*
X129452666Y-113895142D01*
%TO.C,C2*%
X139685833Y-116308142D02*
X139638214Y-116355761D01*
X139495357Y-116403380D01*
X139400119Y-116403380D01*
X139257261Y-116355761D01*
X139162023Y-116260523D01*
X139114404Y-116165285D01*
X139066785Y-115974809D01*
X139066785Y-115831952D01*
X139114404Y-115641476D01*
X139162023Y-115546238D01*
X139257261Y-115451000D01*
X139400119Y-115403380D01*
X139495357Y-115403380D01*
X139638214Y-115451000D01*
X139685833Y-115498619D01*
X140066785Y-115498619D02*
X140114404Y-115451000D01*
X140209642Y-115403380D01*
X140447738Y-115403380D01*
X140542976Y-115451000D01*
X140590595Y-115498619D01*
X140638214Y-115593857D01*
X140638214Y-115689095D01*
X140590595Y-115831952D01*
X140019166Y-116403380D01*
X140638214Y-116403380D01*
%TO.C,C1*%
X139660333Y-113895142D02*
X139612714Y-113942761D01*
X139469857Y-113990380D01*
X139374619Y-113990380D01*
X139231761Y-113942761D01*
X139136523Y-113847523D01*
X139088904Y-113752285D01*
X139041285Y-113561809D01*
X139041285Y-113418952D01*
X139088904Y-113228476D01*
X139136523Y-113133238D01*
X139231761Y-113038000D01*
X139374619Y-112990380D01*
X139469857Y-112990380D01*
X139612714Y-113038000D01*
X139660333Y-113085619D01*
X140612714Y-113990380D02*
X140041285Y-113990380D01*
X140327000Y-113990380D02*
X140327000Y-112990380D01*
X140231761Y-113133238D01*
X140136523Y-113228476D01*
X140041285Y-113276095D01*
%TD*%
M02*
