%TF.GenerationSoftware,KiCad,Pcbnew,(5.1.7)-1*%
%TF.CreationDate,2021-06-25T13:39:54-05:00*%
%TF.ProjectId,Op_Amp_demo_PCB,4f705f41-6d70-45f6-9465-6d6f5f504342,1.1*%
%TF.SameCoordinates,Original*%
%TF.FileFunction,Legend,Bot*%
%TF.FilePolarity,Positive*%
%FSLAX46Y46*%
G04 Gerber Fmt 4.6, Leading zero omitted, Abs format (unit mm)*
G04 Created by KiCad (PCBNEW (5.1.7)-1) date 2021-06-25 13:39:54*
%MOMM*%
%LPD*%
G01*
G04 APERTURE LIST*
%ADD10C,0.300000*%
G04 APERTURE END LIST*
D10*
X188419571Y-58101571D02*
X187491000Y-58101571D01*
X187991000Y-58673000D01*
X187776714Y-58673000D01*
X187633857Y-58744428D01*
X187562428Y-58815857D01*
X187491000Y-58958714D01*
X187491000Y-59315857D01*
X187562428Y-59458714D01*
X187633857Y-59530142D01*
X187776714Y-59601571D01*
X188205285Y-59601571D01*
X188348142Y-59530142D01*
X188419571Y-59458714D01*
X186848142Y-59030142D02*
X185705285Y-59030142D01*
X184705285Y-58101571D02*
X184562428Y-58101571D01*
X184419571Y-58173000D01*
X184348142Y-58244428D01*
X184276714Y-58387285D01*
X184205285Y-58673000D01*
X184205285Y-59030142D01*
X184276714Y-59315857D01*
X184348142Y-59458714D01*
X184419571Y-59530142D01*
X184562428Y-59601571D01*
X184705285Y-59601571D01*
X184848142Y-59530142D01*
X184919571Y-59458714D01*
X184991000Y-59315857D01*
X185062428Y-59030142D01*
X185062428Y-58673000D01*
X184991000Y-58387285D01*
X184919571Y-58244428D01*
X184848142Y-58173000D01*
X184705285Y-58101571D01*
X183276714Y-58101571D02*
X183133857Y-58101571D01*
X182991000Y-58173000D01*
X182919571Y-58244428D01*
X182848142Y-58387285D01*
X182776714Y-58673000D01*
X182776714Y-59030142D01*
X182848142Y-59315857D01*
X182919571Y-59458714D01*
X182991000Y-59530142D01*
X183133857Y-59601571D01*
X183276714Y-59601571D01*
X183419571Y-59530142D01*
X183491000Y-59458714D01*
X183562428Y-59315857D01*
X183633857Y-59030142D01*
X183633857Y-58673000D01*
X183562428Y-58387285D01*
X183491000Y-58244428D01*
X183419571Y-58173000D01*
X183276714Y-58101571D01*
X181848142Y-58101571D02*
X181705285Y-58101571D01*
X181562428Y-58173000D01*
X181491000Y-58244428D01*
X181419571Y-58387285D01*
X181348142Y-58673000D01*
X181348142Y-59030142D01*
X181419571Y-59315857D01*
X181491000Y-59458714D01*
X181562428Y-59530142D01*
X181705285Y-59601571D01*
X181848142Y-59601571D01*
X181991000Y-59530142D01*
X182062428Y-59458714D01*
X182133857Y-59315857D01*
X182205285Y-59030142D01*
X182205285Y-58673000D01*
X182133857Y-58387285D01*
X182062428Y-58244428D01*
X181991000Y-58173000D01*
X181848142Y-58101571D01*
X180419571Y-58101571D02*
X180276714Y-58101571D01*
X180133857Y-58173000D01*
X180062428Y-58244428D01*
X179991000Y-58387285D01*
X179919571Y-58673000D01*
X179919571Y-59030142D01*
X179991000Y-59315857D01*
X180062428Y-59458714D01*
X180133857Y-59530142D01*
X180276714Y-59601571D01*
X180419571Y-59601571D01*
X180562428Y-59530142D01*
X180633857Y-59458714D01*
X180705285Y-59315857D01*
X180776714Y-59030142D01*
X180776714Y-58673000D01*
X180705285Y-58387285D01*
X180633857Y-58244428D01*
X180562428Y-58173000D01*
X180419571Y-58101571D01*
X178991000Y-58101571D02*
X178848142Y-58101571D01*
X178705285Y-58173000D01*
X178633857Y-58244428D01*
X178562428Y-58387285D01*
X178491000Y-58673000D01*
X178491000Y-59030142D01*
X178562428Y-59315857D01*
X178633857Y-59458714D01*
X178705285Y-59530142D01*
X178848142Y-59601571D01*
X178991000Y-59601571D01*
X179133857Y-59530142D01*
X179205285Y-59458714D01*
X179276714Y-59315857D01*
X179348142Y-59030142D01*
X179348142Y-58673000D01*
X179276714Y-58387285D01*
X179205285Y-58244428D01*
X179133857Y-58173000D01*
X178991000Y-58101571D01*
X177776714Y-59601571D02*
X177491000Y-59601571D01*
X177348142Y-59530142D01*
X177276714Y-59458714D01*
X177133857Y-59244428D01*
X177062428Y-58958714D01*
X177062428Y-58387285D01*
X177133857Y-58244428D01*
X177205285Y-58173000D01*
X177348142Y-58101571D01*
X177633857Y-58101571D01*
X177776714Y-58173000D01*
X177848142Y-58244428D01*
X177919571Y-58387285D01*
X177919571Y-58744428D01*
X177848142Y-58887285D01*
X177776714Y-58958714D01*
X177633857Y-59030142D01*
X177348142Y-59030142D01*
X177205285Y-58958714D01*
X177133857Y-58887285D01*
X177062428Y-58744428D01*
X176133857Y-58101571D02*
X175991000Y-58101571D01*
X175848142Y-58173000D01*
X175776714Y-58244428D01*
X175705285Y-58387285D01*
X175633857Y-58673000D01*
X175633857Y-59030142D01*
X175705285Y-59315857D01*
X175776714Y-59458714D01*
X175848142Y-59530142D01*
X175991000Y-59601571D01*
X176133857Y-59601571D01*
X176276714Y-59530142D01*
X176348142Y-59458714D01*
X176419571Y-59315857D01*
X176491000Y-59030142D01*
X176491000Y-58673000D01*
X176419571Y-58387285D01*
X176348142Y-58244428D01*
X176276714Y-58173000D01*
X176133857Y-58101571D01*
X188419571Y-60651571D02*
X187419571Y-60651571D01*
X188062428Y-62151571D01*
X186848142Y-61580142D02*
X185705285Y-61580142D01*
X184705285Y-60651571D02*
X184562428Y-60651571D01*
X184419571Y-60723000D01*
X184348142Y-60794428D01*
X184276714Y-60937285D01*
X184205285Y-61223000D01*
X184205285Y-61580142D01*
X184276714Y-61865857D01*
X184348142Y-62008714D01*
X184419571Y-62080142D01*
X184562428Y-62151571D01*
X184705285Y-62151571D01*
X184848142Y-62080142D01*
X184919571Y-62008714D01*
X184991000Y-61865857D01*
X185062428Y-61580142D01*
X185062428Y-61223000D01*
X184991000Y-60937285D01*
X184919571Y-60794428D01*
X184848142Y-60723000D01*
X184705285Y-60651571D01*
X183276714Y-60651571D02*
X183133857Y-60651571D01*
X182991000Y-60723000D01*
X182919571Y-60794428D01*
X182848142Y-60937285D01*
X182776714Y-61223000D01*
X182776714Y-61580142D01*
X182848142Y-61865857D01*
X182919571Y-62008714D01*
X182991000Y-62080142D01*
X183133857Y-62151571D01*
X183276714Y-62151571D01*
X183419571Y-62080142D01*
X183491000Y-62008714D01*
X183562428Y-61865857D01*
X183633857Y-61580142D01*
X183633857Y-61223000D01*
X183562428Y-60937285D01*
X183491000Y-60794428D01*
X183419571Y-60723000D01*
X183276714Y-60651571D01*
X181848142Y-60651571D02*
X181705285Y-60651571D01*
X181562428Y-60723000D01*
X181491000Y-60794428D01*
X181419571Y-60937285D01*
X181348142Y-61223000D01*
X181348142Y-61580142D01*
X181419571Y-61865857D01*
X181491000Y-62008714D01*
X181562428Y-62080142D01*
X181705285Y-62151571D01*
X181848142Y-62151571D01*
X181991000Y-62080142D01*
X182062428Y-62008714D01*
X182133857Y-61865857D01*
X182205285Y-61580142D01*
X182205285Y-61223000D01*
X182133857Y-60937285D01*
X182062428Y-60794428D01*
X181991000Y-60723000D01*
X181848142Y-60651571D01*
X180419571Y-60651571D02*
X180276714Y-60651571D01*
X180133857Y-60723000D01*
X180062428Y-60794428D01*
X179991000Y-60937285D01*
X179919571Y-61223000D01*
X179919571Y-61580142D01*
X179991000Y-61865857D01*
X180062428Y-62008714D01*
X180133857Y-62080142D01*
X180276714Y-62151571D01*
X180419571Y-62151571D01*
X180562428Y-62080142D01*
X180633857Y-62008714D01*
X180705285Y-61865857D01*
X180776714Y-61580142D01*
X180776714Y-61223000D01*
X180705285Y-60937285D01*
X180633857Y-60794428D01*
X180562428Y-60723000D01*
X180419571Y-60651571D01*
X178991000Y-60651571D02*
X178848142Y-60651571D01*
X178705285Y-60723000D01*
X178633857Y-60794428D01*
X178562428Y-60937285D01*
X178491000Y-61223000D01*
X178491000Y-61580142D01*
X178562428Y-61865857D01*
X178633857Y-62008714D01*
X178705285Y-62080142D01*
X178848142Y-62151571D01*
X178991000Y-62151571D01*
X179133857Y-62080142D01*
X179205285Y-62008714D01*
X179276714Y-61865857D01*
X179348142Y-61580142D01*
X179348142Y-61223000D01*
X179276714Y-60937285D01*
X179205285Y-60794428D01*
X179133857Y-60723000D01*
X178991000Y-60651571D01*
X177205285Y-61151571D02*
X177205285Y-62151571D01*
X177562428Y-60580142D02*
X177919571Y-61651571D01*
X176991000Y-61651571D01*
X176205285Y-61294428D02*
X176348142Y-61223000D01*
X176419571Y-61151571D01*
X176491000Y-61008714D01*
X176491000Y-60937285D01*
X176419571Y-60794428D01*
X176348142Y-60723000D01*
X176205285Y-60651571D01*
X175919571Y-60651571D01*
X175776714Y-60723000D01*
X175705285Y-60794428D01*
X175633857Y-60937285D01*
X175633857Y-61008714D01*
X175705285Y-61151571D01*
X175776714Y-61223000D01*
X175919571Y-61294428D01*
X176205285Y-61294428D01*
X176348142Y-61365857D01*
X176419571Y-61437285D01*
X176491000Y-61580142D01*
X176491000Y-61865857D01*
X176419571Y-62008714D01*
X176348142Y-62080142D01*
X176205285Y-62151571D01*
X175919571Y-62151571D01*
X175776714Y-62080142D01*
X175705285Y-62008714D01*
X175633857Y-61865857D01*
X175633857Y-61580142D01*
X175705285Y-61437285D01*
X175776714Y-61365857D01*
X175919571Y-61294428D01*
M02*
