%TF.GenerationSoftware,KiCad,Pcbnew,(5.1.7)-1*%
%TF.CreationDate,2021-04-26T16:45:44-05:00*%
%TF.ProjectId,Op_Amp_demo_PCB,4f705f41-6d70-45f6-9465-6d6f5f504342,1.0*%
%TF.SameCoordinates,Original*%
%TF.FileFunction,Legend,Bot*%
%TF.FilePolarity,Positive*%
%FSLAX46Y46*%
G04 Gerber Fmt 4.6, Leading zero omitted, Abs format (unit mm)*
G04 Created by KiCad (PCBNEW (5.1.7)-1) date 2021-04-26 16:45:44*
%MOMM*%
%LPD*%
G01*
G04 APERTURE LIST*
%ADD10C,0.300000*%
G04 APERTURE END LIST*
D10*
X198198571Y-58101571D02*
X197270000Y-58101571D01*
X197770000Y-58673000D01*
X197555714Y-58673000D01*
X197412857Y-58744428D01*
X197341428Y-58815857D01*
X197270000Y-58958714D01*
X197270000Y-59315857D01*
X197341428Y-59458714D01*
X197412857Y-59530142D01*
X197555714Y-59601571D01*
X197984285Y-59601571D01*
X198127142Y-59530142D01*
X198198571Y-59458714D01*
X196627142Y-59030142D02*
X195484285Y-59030142D01*
X194484285Y-58101571D02*
X194341428Y-58101571D01*
X194198571Y-58173000D01*
X194127142Y-58244428D01*
X194055714Y-58387285D01*
X193984285Y-58673000D01*
X193984285Y-59030142D01*
X194055714Y-59315857D01*
X194127142Y-59458714D01*
X194198571Y-59530142D01*
X194341428Y-59601571D01*
X194484285Y-59601571D01*
X194627142Y-59530142D01*
X194698571Y-59458714D01*
X194770000Y-59315857D01*
X194841428Y-59030142D01*
X194841428Y-58673000D01*
X194770000Y-58387285D01*
X194698571Y-58244428D01*
X194627142Y-58173000D01*
X194484285Y-58101571D01*
X193055714Y-58101571D02*
X192912857Y-58101571D01*
X192770000Y-58173000D01*
X192698571Y-58244428D01*
X192627142Y-58387285D01*
X192555714Y-58673000D01*
X192555714Y-59030142D01*
X192627142Y-59315857D01*
X192698571Y-59458714D01*
X192770000Y-59530142D01*
X192912857Y-59601571D01*
X193055714Y-59601571D01*
X193198571Y-59530142D01*
X193270000Y-59458714D01*
X193341428Y-59315857D01*
X193412857Y-59030142D01*
X193412857Y-58673000D01*
X193341428Y-58387285D01*
X193270000Y-58244428D01*
X193198571Y-58173000D01*
X193055714Y-58101571D01*
X191627142Y-58101571D02*
X191484285Y-58101571D01*
X191341428Y-58173000D01*
X191270000Y-58244428D01*
X191198571Y-58387285D01*
X191127142Y-58673000D01*
X191127142Y-59030142D01*
X191198571Y-59315857D01*
X191270000Y-59458714D01*
X191341428Y-59530142D01*
X191484285Y-59601571D01*
X191627142Y-59601571D01*
X191770000Y-59530142D01*
X191841428Y-59458714D01*
X191912857Y-59315857D01*
X191984285Y-59030142D01*
X191984285Y-58673000D01*
X191912857Y-58387285D01*
X191841428Y-58244428D01*
X191770000Y-58173000D01*
X191627142Y-58101571D01*
X190198571Y-58101571D02*
X190055714Y-58101571D01*
X189912857Y-58173000D01*
X189841428Y-58244428D01*
X189770000Y-58387285D01*
X189698571Y-58673000D01*
X189698571Y-59030142D01*
X189770000Y-59315857D01*
X189841428Y-59458714D01*
X189912857Y-59530142D01*
X190055714Y-59601571D01*
X190198571Y-59601571D01*
X190341428Y-59530142D01*
X190412857Y-59458714D01*
X190484285Y-59315857D01*
X190555714Y-59030142D01*
X190555714Y-58673000D01*
X190484285Y-58387285D01*
X190412857Y-58244428D01*
X190341428Y-58173000D01*
X190198571Y-58101571D01*
X188770000Y-58101571D02*
X188627142Y-58101571D01*
X188484285Y-58173000D01*
X188412857Y-58244428D01*
X188341428Y-58387285D01*
X188270000Y-58673000D01*
X188270000Y-59030142D01*
X188341428Y-59315857D01*
X188412857Y-59458714D01*
X188484285Y-59530142D01*
X188627142Y-59601571D01*
X188770000Y-59601571D01*
X188912857Y-59530142D01*
X188984285Y-59458714D01*
X189055714Y-59315857D01*
X189127142Y-59030142D01*
X189127142Y-58673000D01*
X189055714Y-58387285D01*
X188984285Y-58244428D01*
X188912857Y-58173000D01*
X188770000Y-58101571D01*
X187412857Y-58744428D02*
X187555714Y-58673000D01*
X187627142Y-58601571D01*
X187698571Y-58458714D01*
X187698571Y-58387285D01*
X187627142Y-58244428D01*
X187555714Y-58173000D01*
X187412857Y-58101571D01*
X187127142Y-58101571D01*
X186984285Y-58173000D01*
X186912857Y-58244428D01*
X186841428Y-58387285D01*
X186841428Y-58458714D01*
X186912857Y-58601571D01*
X186984285Y-58673000D01*
X187127142Y-58744428D01*
X187412857Y-58744428D01*
X187555714Y-58815857D01*
X187627142Y-58887285D01*
X187698571Y-59030142D01*
X187698571Y-59315857D01*
X187627142Y-59458714D01*
X187555714Y-59530142D01*
X187412857Y-59601571D01*
X187127142Y-59601571D01*
X186984285Y-59530142D01*
X186912857Y-59458714D01*
X186841428Y-59315857D01*
X186841428Y-59030142D01*
X186912857Y-58887285D01*
X186984285Y-58815857D01*
X187127142Y-58744428D01*
X185555714Y-58601571D02*
X185555714Y-59601571D01*
X185912857Y-58030142D02*
X186270000Y-59101571D01*
X185341428Y-59101571D01*
X198198571Y-60651571D02*
X197198571Y-60651571D01*
X197841428Y-62151571D01*
X196627142Y-61580142D02*
X195484285Y-61580142D01*
X194484285Y-60651571D02*
X194341428Y-60651571D01*
X194198571Y-60723000D01*
X194127142Y-60794428D01*
X194055714Y-60937285D01*
X193984285Y-61223000D01*
X193984285Y-61580142D01*
X194055714Y-61865857D01*
X194127142Y-62008714D01*
X194198571Y-62080142D01*
X194341428Y-62151571D01*
X194484285Y-62151571D01*
X194627142Y-62080142D01*
X194698571Y-62008714D01*
X194770000Y-61865857D01*
X194841428Y-61580142D01*
X194841428Y-61223000D01*
X194770000Y-60937285D01*
X194698571Y-60794428D01*
X194627142Y-60723000D01*
X194484285Y-60651571D01*
X193055714Y-60651571D02*
X192912857Y-60651571D01*
X192770000Y-60723000D01*
X192698571Y-60794428D01*
X192627142Y-60937285D01*
X192555714Y-61223000D01*
X192555714Y-61580142D01*
X192627142Y-61865857D01*
X192698571Y-62008714D01*
X192770000Y-62080142D01*
X192912857Y-62151571D01*
X193055714Y-62151571D01*
X193198571Y-62080142D01*
X193270000Y-62008714D01*
X193341428Y-61865857D01*
X193412857Y-61580142D01*
X193412857Y-61223000D01*
X193341428Y-60937285D01*
X193270000Y-60794428D01*
X193198571Y-60723000D01*
X193055714Y-60651571D01*
X191627142Y-60651571D02*
X191484285Y-60651571D01*
X191341428Y-60723000D01*
X191270000Y-60794428D01*
X191198571Y-60937285D01*
X191127142Y-61223000D01*
X191127142Y-61580142D01*
X191198571Y-61865857D01*
X191270000Y-62008714D01*
X191341428Y-62080142D01*
X191484285Y-62151571D01*
X191627142Y-62151571D01*
X191770000Y-62080142D01*
X191841428Y-62008714D01*
X191912857Y-61865857D01*
X191984285Y-61580142D01*
X191984285Y-61223000D01*
X191912857Y-60937285D01*
X191841428Y-60794428D01*
X191770000Y-60723000D01*
X191627142Y-60651571D01*
X190198571Y-60651571D02*
X190055714Y-60651571D01*
X189912857Y-60723000D01*
X189841428Y-60794428D01*
X189770000Y-60937285D01*
X189698571Y-61223000D01*
X189698571Y-61580142D01*
X189770000Y-61865857D01*
X189841428Y-62008714D01*
X189912857Y-62080142D01*
X190055714Y-62151571D01*
X190198571Y-62151571D01*
X190341428Y-62080142D01*
X190412857Y-62008714D01*
X190484285Y-61865857D01*
X190555714Y-61580142D01*
X190555714Y-61223000D01*
X190484285Y-60937285D01*
X190412857Y-60794428D01*
X190341428Y-60723000D01*
X190198571Y-60651571D01*
X188770000Y-60651571D02*
X188627142Y-60651571D01*
X188484285Y-60723000D01*
X188412857Y-60794428D01*
X188341428Y-60937285D01*
X188270000Y-61223000D01*
X188270000Y-61580142D01*
X188341428Y-61865857D01*
X188412857Y-62008714D01*
X188484285Y-62080142D01*
X188627142Y-62151571D01*
X188770000Y-62151571D01*
X188912857Y-62080142D01*
X188984285Y-62008714D01*
X189055714Y-61865857D01*
X189127142Y-61580142D01*
X189127142Y-61223000D01*
X189055714Y-60937285D01*
X188984285Y-60794428D01*
X188912857Y-60723000D01*
X188770000Y-60651571D01*
X186984285Y-61151571D02*
X186984285Y-62151571D01*
X187341428Y-60580142D02*
X187698571Y-61651571D01*
X186770000Y-61651571D01*
X185912857Y-60651571D02*
X185770000Y-60651571D01*
X185627142Y-60723000D01*
X185555714Y-60794428D01*
X185484285Y-60937285D01*
X185412857Y-61223000D01*
X185412857Y-61580142D01*
X185484285Y-61865857D01*
X185555714Y-62008714D01*
X185627142Y-62080142D01*
X185770000Y-62151571D01*
X185912857Y-62151571D01*
X186055714Y-62080142D01*
X186127142Y-62008714D01*
X186198571Y-61865857D01*
X186270000Y-61580142D01*
X186270000Y-61223000D01*
X186198571Y-60937285D01*
X186127142Y-60794428D01*
X186055714Y-60723000D01*
X185912857Y-60651571D01*
M02*
