%TF.GenerationSoftware,KiCad,Pcbnew,(5.1.7)-1*%
%TF.CreationDate,2021-06-25T14:26:50-05:00*%
%TF.ProjectId,Op_Amp_demo_PCB,4f705f41-6d70-45f6-9465-6d6f5f504342,1.0*%
%TF.SameCoordinates,Original*%
%TF.FileFunction,Copper,L1,Top*%
%TF.FilePolarity,Positive*%
%FSLAX46Y46*%
G04 Gerber Fmt 4.6, Leading zero omitted, Abs format (unit mm)*
G04 Created by KiCad (PCBNEW (5.1.7)-1) date 2021-06-25 14:26:50*
%MOMM*%
%LPD*%
G01*
G04 APERTURE LIST*
%TA.AperFunction,ComponentPad*%
%ADD10O,1.700000X1.700000*%
%TD*%
%TA.AperFunction,ComponentPad*%
%ADD11R,1.700000X1.700000*%
%TD*%
%TA.AperFunction,SMDPad,CuDef*%
%ADD12C,1.000000*%
%TD*%
%TA.AperFunction,SMDPad,CuDef*%
%ADD13R,1.550000X0.600000*%
%TD*%
%TA.AperFunction,ComponentPad*%
%ADD14C,1.509000*%
%TD*%
%TA.AperFunction,ComponentPad*%
%ADD15C,1.308000*%
%TD*%
%TA.AperFunction,ComponentPad*%
%ADD16R,1.308000X1.308000*%
%TD*%
%TA.AperFunction,SMDPad,CuDef*%
%ADD17R,6.350000X3.810000*%
%TD*%
%TA.AperFunction,SMDPad,CuDef*%
%ADD18R,5.760000X3.810000*%
%TD*%
%TA.AperFunction,SMDPad,CuDef*%
%ADD19R,4.060000X3.300000*%
%TD*%
%TA.AperFunction,ViaPad*%
%ADD20C,0.508000*%
%TD*%
%TA.AperFunction,Conductor*%
%ADD21C,0.304800*%
%TD*%
%TA.AperFunction,Conductor*%
%ADD22C,0.254000*%
%TD*%
%TA.AperFunction,Conductor*%
%ADD23C,0.100000*%
%TD*%
G04 APERTURE END LIST*
%TO.P,R13,2*%
%TO.N,+5V*%
%TA.AperFunction,SMDPad,CuDef*%
G36*
G01*
X105125000Y-68709250D02*
X105125000Y-68196750D01*
G75*
G02*
X105343750Y-67978000I218750J0D01*
G01*
X105781250Y-67978000D01*
G75*
G02*
X106000000Y-68196750I0J-218750D01*
G01*
X106000000Y-68709250D01*
G75*
G02*
X105781250Y-68928000I-218750J0D01*
G01*
X105343750Y-68928000D01*
G75*
G02*
X105125000Y-68709250I0J218750D01*
G01*
G37*
%TD.AperFunction*%
%TO.P,R13,1*%
%TO.N,Net-(D1-Pad2)*%
%TA.AperFunction,SMDPad,CuDef*%
G36*
G01*
X103550000Y-68709250D02*
X103550000Y-68196750D01*
G75*
G02*
X103768750Y-67978000I218750J0D01*
G01*
X104206250Y-67978000D01*
G75*
G02*
X104425000Y-68196750I0J-218750D01*
G01*
X104425000Y-68709250D01*
G75*
G02*
X104206250Y-68928000I-218750J0D01*
G01*
X103768750Y-68928000D01*
G75*
G02*
X103550000Y-68709250I0J218750D01*
G01*
G37*
%TD.AperFunction*%
%TD*%
D10*
%TO.P,J7,4*%
%TO.N,+5V*%
X87630000Y-104140000D03*
%TO.P,J7,3*%
%TO.N,GND*%
X87630000Y-101600000D03*
%TO.P,J7,2*%
X87630000Y-99060000D03*
D11*
%TO.P,J7,1*%
%TO.N,-5V*%
X87630000Y-96520000D03*
%TD*%
D12*
%TO.P,FID2,*%
%TO.N,*%
X201930000Y-62230000D03*
%TD*%
%TO.P,FID1,*%
%TO.N,*%
X87630000Y-138430000D03*
%TD*%
%TO.P,D1,2*%
%TO.N,Net-(D1-Pad2)*%
%TA.AperFunction,SMDPad,CuDef*%
G36*
G01*
X101415000Y-68909250D02*
X101415000Y-67996750D01*
G75*
G02*
X101658750Y-67753000I243750J0D01*
G01*
X102146250Y-67753000D01*
G75*
G02*
X102390000Y-67996750I0J-243750D01*
G01*
X102390000Y-68909250D01*
G75*
G02*
X102146250Y-69153000I-243750J0D01*
G01*
X101658750Y-69153000D01*
G75*
G02*
X101415000Y-68909250I0J243750D01*
G01*
G37*
%TD.AperFunction*%
%TO.P,D1,1*%
%TO.N,GND*%
%TA.AperFunction,SMDPad,CuDef*%
G36*
G01*
X99540000Y-68909250D02*
X99540000Y-67996750D01*
G75*
G02*
X99783750Y-67753000I243750J0D01*
G01*
X100271250Y-67753000D01*
G75*
G02*
X100515000Y-67996750I0J-243750D01*
G01*
X100515000Y-68909250D01*
G75*
G02*
X100271250Y-69153000I-243750J0D01*
G01*
X99783750Y-69153000D01*
G75*
G02*
X99540000Y-68909250I0J243750D01*
G01*
G37*
%TD.AperFunction*%
%TD*%
D13*
%TO.P,U4,1*%
%TO.N,N/C*%
X131920000Y-120015000D03*
%TO.P,U4,2*%
%TO.N,Net-(R12-Pad1)*%
X131920000Y-121285000D03*
%TO.P,U4,3*%
%TO.N,GND*%
X131920000Y-122555000D03*
%TO.P,U4,4*%
%TO.N,-5V*%
X131920000Y-123825000D03*
%TO.P,U4,5*%
%TO.N,N/C*%
X137320000Y-123825000D03*
%TO.P,U4,6*%
%TO.N,Net-(J6-Pad2)*%
X137320000Y-122555000D03*
%TO.P,U4,7*%
%TO.N,+5V*%
X137320000Y-121285000D03*
%TO.P,U4,8*%
%TO.N,N/C*%
X137320000Y-120015000D03*
%TD*%
%TO.P,U3,1*%
%TO.N,N/C*%
X123665000Y-76835000D03*
%TO.P,U3,2*%
%TO.N,Net-(J5-Pad2)*%
X123665000Y-78105000D03*
%TO.P,U3,3*%
%TO.N,Net-(J3-Pad2)*%
X123665000Y-79375000D03*
%TO.P,U3,4*%
%TO.N,-5V*%
X123665000Y-80645000D03*
%TO.P,U3,5*%
%TO.N,N/C*%
X129065000Y-80645000D03*
%TO.P,U3,6*%
%TO.N,Net-(J5-Pad2)*%
X129065000Y-79375000D03*
%TO.P,U3,7*%
%TO.N,+5V*%
X129065000Y-78105000D03*
%TO.P,U3,8*%
%TO.N,N/C*%
X129065000Y-76835000D03*
%TD*%
%TO.P,U2,1*%
%TO.N,N/C*%
X131920000Y-98425000D03*
%TO.P,U2,2*%
%TO.N,Net-(R6-Pad2)*%
X131920000Y-99695000D03*
%TO.P,U2,3*%
%TO.N,Net-(J1-Pad2)*%
X131920000Y-100965000D03*
%TO.P,U2,4*%
%TO.N,-5V*%
X131920000Y-102235000D03*
%TO.P,U2,5*%
%TO.N,N/C*%
X137320000Y-102235000D03*
%TO.P,U2,6*%
%TO.N,Net-(J2-Pad2)*%
X137320000Y-100965000D03*
%TO.P,U2,7*%
%TO.N,+5V*%
X137320000Y-99695000D03*
%TO.P,U2,8*%
%TO.N,N/C*%
X137320000Y-98425000D03*
%TD*%
D14*
%TO.P,U1,1*%
%TO.N,Net-(CON1-Pad2)*%
X86410000Y-131800000D03*
%TO.P,U1,2*%
%TO.N,Net-(CON1-Pad1)*%
X86410000Y-129260000D03*
%TO.P,U1,3*%
%TO.N,N/C*%
X86410000Y-126720000D03*
%TO.P,U1,5*%
X86410000Y-121640000D03*
%TO.P,U1,6*%
%TO.N,+5V*%
X86410000Y-119100000D03*
%TO.P,U1,7*%
%TO.N,GND*%
X86410000Y-116560000D03*
%TO.P,U1,8*%
%TO.N,-5V*%
X86410000Y-114020000D03*
%TD*%
D15*
%TO.P,SW2,4*%
%TO.N,Net-(R10-Pad1)*%
X119380000Y-125730000D03*
%TO.P,SW2,5*%
%TO.N,Net-(R11-Pad1)*%
X121920000Y-125730000D03*
%TO.P,SW2,C1*%
%TO.N,N/C*%
X124460000Y-125730000D03*
%TO.P,SW2,NC*%
X127000000Y-125730000D03*
D16*
%TO.P,SW2,1*%
%TO.N,Net-(R7-Pad1)*%
X119380000Y-118110000D03*
D15*
%TO.P,SW2,C*%
%TO.N,Net-(R12-Pad1)*%
X121920000Y-118110000D03*
%TO.P,SW2,2*%
%TO.N,Net-(R8-Pad1)*%
X124460000Y-118110000D03*
%TO.P,SW2,3*%
%TO.N,Net-(R9-Pad1)*%
X127000000Y-118110000D03*
%TD*%
%TO.P,SW1,4*%
%TO.N,Net-(R4-Pad1)*%
X119380000Y-104140000D03*
%TO.P,SW1,5*%
%TO.N,Net-(R5-Pad1)*%
X121920000Y-104140000D03*
%TO.P,SW1,C1*%
%TO.N,N/C*%
X124460000Y-104140000D03*
%TO.P,SW1,NC*%
X127000000Y-104140000D03*
D16*
%TO.P,SW1,1*%
%TO.N,Net-(R1-Pad1)*%
X119380000Y-96520000D03*
D15*
%TO.P,SW1,C*%
%TO.N,Net-(R6-Pad2)*%
X121920000Y-96520000D03*
%TO.P,SW1,2*%
%TO.N,Net-(R2-Pad1)*%
X124460000Y-96520000D03*
%TO.P,SW1,3*%
%TO.N,Net-(R3-Pad1)*%
X127000000Y-96520000D03*
%TD*%
%TO.P,R12,2*%
%TO.N,Net-(J6-Pad2)*%
%TA.AperFunction,SMDPad,CuDef*%
G36*
G01*
X134970000Y-127256250D02*
X134970000Y-126743750D01*
G75*
G02*
X135188750Y-126525000I218750J0D01*
G01*
X135626250Y-126525000D01*
G75*
G02*
X135845000Y-126743750I0J-218750D01*
G01*
X135845000Y-127256250D01*
G75*
G02*
X135626250Y-127475000I-218750J0D01*
G01*
X135188750Y-127475000D01*
G75*
G02*
X134970000Y-127256250I0J218750D01*
G01*
G37*
%TD.AperFunction*%
%TO.P,R12,1*%
%TO.N,Net-(R12-Pad1)*%
%TA.AperFunction,SMDPad,CuDef*%
G36*
G01*
X133395000Y-127256250D02*
X133395000Y-126743750D01*
G75*
G02*
X133613750Y-126525000I218750J0D01*
G01*
X134051250Y-126525000D01*
G75*
G02*
X134270000Y-126743750I0J-218750D01*
G01*
X134270000Y-127256250D01*
G75*
G02*
X134051250Y-127475000I-218750J0D01*
G01*
X133613750Y-127475000D01*
G75*
G02*
X133395000Y-127256250I0J218750D01*
G01*
G37*
%TD.AperFunction*%
%TD*%
%TO.P,R11,2*%
%TO.N,Net-(J4-Pad2)*%
%TA.AperFunction,SMDPad,CuDef*%
G36*
G01*
X113950000Y-126743750D02*
X113950000Y-127256250D01*
G75*
G02*
X113731250Y-127475000I-218750J0D01*
G01*
X113293750Y-127475000D01*
G75*
G02*
X113075000Y-127256250I0J218750D01*
G01*
X113075000Y-126743750D01*
G75*
G02*
X113293750Y-126525000I218750J0D01*
G01*
X113731250Y-126525000D01*
G75*
G02*
X113950000Y-126743750I0J-218750D01*
G01*
G37*
%TD.AperFunction*%
%TO.P,R11,1*%
%TO.N,Net-(R11-Pad1)*%
%TA.AperFunction,SMDPad,CuDef*%
G36*
G01*
X115525000Y-126743750D02*
X115525000Y-127256250D01*
G75*
G02*
X115306250Y-127475000I-218750J0D01*
G01*
X114868750Y-127475000D01*
G75*
G02*
X114650000Y-127256250I0J218750D01*
G01*
X114650000Y-126743750D01*
G75*
G02*
X114868750Y-126525000I218750J0D01*
G01*
X115306250Y-126525000D01*
G75*
G02*
X115525000Y-126743750I0J-218750D01*
G01*
G37*
%TD.AperFunction*%
%TD*%
%TO.P,R10,2*%
%TO.N,Net-(J4-Pad2)*%
%TA.AperFunction,SMDPad,CuDef*%
G36*
G01*
X113950000Y-124203750D02*
X113950000Y-124716250D01*
G75*
G02*
X113731250Y-124935000I-218750J0D01*
G01*
X113293750Y-124935000D01*
G75*
G02*
X113075000Y-124716250I0J218750D01*
G01*
X113075000Y-124203750D01*
G75*
G02*
X113293750Y-123985000I218750J0D01*
G01*
X113731250Y-123985000D01*
G75*
G02*
X113950000Y-124203750I0J-218750D01*
G01*
G37*
%TD.AperFunction*%
%TO.P,R10,1*%
%TO.N,Net-(R10-Pad1)*%
%TA.AperFunction,SMDPad,CuDef*%
G36*
G01*
X115525000Y-124203750D02*
X115525000Y-124716250D01*
G75*
G02*
X115306250Y-124935000I-218750J0D01*
G01*
X114868750Y-124935000D01*
G75*
G02*
X114650000Y-124716250I0J218750D01*
G01*
X114650000Y-124203750D01*
G75*
G02*
X114868750Y-123985000I218750J0D01*
G01*
X115306250Y-123985000D01*
G75*
G02*
X115525000Y-124203750I0J-218750D01*
G01*
G37*
%TD.AperFunction*%
%TD*%
%TO.P,R9,2*%
%TO.N,Net-(J4-Pad2)*%
%TA.AperFunction,SMDPad,CuDef*%
G36*
G01*
X113950000Y-121663750D02*
X113950000Y-122176250D01*
G75*
G02*
X113731250Y-122395000I-218750J0D01*
G01*
X113293750Y-122395000D01*
G75*
G02*
X113075000Y-122176250I0J218750D01*
G01*
X113075000Y-121663750D01*
G75*
G02*
X113293750Y-121445000I218750J0D01*
G01*
X113731250Y-121445000D01*
G75*
G02*
X113950000Y-121663750I0J-218750D01*
G01*
G37*
%TD.AperFunction*%
%TO.P,R9,1*%
%TO.N,Net-(R9-Pad1)*%
%TA.AperFunction,SMDPad,CuDef*%
G36*
G01*
X115525000Y-121663750D02*
X115525000Y-122176250D01*
G75*
G02*
X115306250Y-122395000I-218750J0D01*
G01*
X114868750Y-122395000D01*
G75*
G02*
X114650000Y-122176250I0J218750D01*
G01*
X114650000Y-121663750D01*
G75*
G02*
X114868750Y-121445000I218750J0D01*
G01*
X115306250Y-121445000D01*
G75*
G02*
X115525000Y-121663750I0J-218750D01*
G01*
G37*
%TD.AperFunction*%
%TD*%
%TO.P,R8,2*%
%TO.N,Net-(J4-Pad2)*%
%TA.AperFunction,SMDPad,CuDef*%
G36*
G01*
X113950000Y-119123750D02*
X113950000Y-119636250D01*
G75*
G02*
X113731250Y-119855000I-218750J0D01*
G01*
X113293750Y-119855000D01*
G75*
G02*
X113075000Y-119636250I0J218750D01*
G01*
X113075000Y-119123750D01*
G75*
G02*
X113293750Y-118905000I218750J0D01*
G01*
X113731250Y-118905000D01*
G75*
G02*
X113950000Y-119123750I0J-218750D01*
G01*
G37*
%TD.AperFunction*%
%TO.P,R8,1*%
%TO.N,Net-(R8-Pad1)*%
%TA.AperFunction,SMDPad,CuDef*%
G36*
G01*
X115525000Y-119123750D02*
X115525000Y-119636250D01*
G75*
G02*
X115306250Y-119855000I-218750J0D01*
G01*
X114868750Y-119855000D01*
G75*
G02*
X114650000Y-119636250I0J218750D01*
G01*
X114650000Y-119123750D01*
G75*
G02*
X114868750Y-118905000I218750J0D01*
G01*
X115306250Y-118905000D01*
G75*
G02*
X115525000Y-119123750I0J-218750D01*
G01*
G37*
%TD.AperFunction*%
%TD*%
%TO.P,R7,2*%
%TO.N,Net-(J4-Pad2)*%
%TA.AperFunction,SMDPad,CuDef*%
G36*
G01*
X113950000Y-116583750D02*
X113950000Y-117096250D01*
G75*
G02*
X113731250Y-117315000I-218750J0D01*
G01*
X113293750Y-117315000D01*
G75*
G02*
X113075000Y-117096250I0J218750D01*
G01*
X113075000Y-116583750D01*
G75*
G02*
X113293750Y-116365000I218750J0D01*
G01*
X113731250Y-116365000D01*
G75*
G02*
X113950000Y-116583750I0J-218750D01*
G01*
G37*
%TD.AperFunction*%
%TO.P,R7,1*%
%TO.N,Net-(R7-Pad1)*%
%TA.AperFunction,SMDPad,CuDef*%
G36*
G01*
X115525000Y-116583750D02*
X115525000Y-117096250D01*
G75*
G02*
X115306250Y-117315000I-218750J0D01*
G01*
X114868750Y-117315000D01*
G75*
G02*
X114650000Y-117096250I0J218750D01*
G01*
X114650000Y-116583750D01*
G75*
G02*
X114868750Y-116365000I218750J0D01*
G01*
X115306250Y-116365000D01*
G75*
G02*
X115525000Y-116583750I0J-218750D01*
G01*
G37*
%TD.AperFunction*%
%TD*%
%TO.P,R6,2*%
%TO.N,Net-(R6-Pad2)*%
%TA.AperFunction,SMDPad,CuDef*%
G36*
G01*
X134270000Y-105153750D02*
X134270000Y-105666250D01*
G75*
G02*
X134051250Y-105885000I-218750J0D01*
G01*
X133613750Y-105885000D01*
G75*
G02*
X133395000Y-105666250I0J218750D01*
G01*
X133395000Y-105153750D01*
G75*
G02*
X133613750Y-104935000I218750J0D01*
G01*
X134051250Y-104935000D01*
G75*
G02*
X134270000Y-105153750I0J-218750D01*
G01*
G37*
%TD.AperFunction*%
%TO.P,R6,1*%
%TO.N,Net-(J2-Pad2)*%
%TA.AperFunction,SMDPad,CuDef*%
G36*
G01*
X135845000Y-105153750D02*
X135845000Y-105666250D01*
G75*
G02*
X135626250Y-105885000I-218750J0D01*
G01*
X135188750Y-105885000D01*
G75*
G02*
X134970000Y-105666250I0J218750D01*
G01*
X134970000Y-105153750D01*
G75*
G02*
X135188750Y-104935000I218750J0D01*
G01*
X135626250Y-104935000D01*
G75*
G02*
X135845000Y-105153750I0J-218750D01*
G01*
G37*
%TD.AperFunction*%
%TD*%
%TO.P,R5,2*%
%TO.N,GND*%
%TA.AperFunction,SMDPad,CuDef*%
G36*
G01*
X113950000Y-105153750D02*
X113950000Y-105666250D01*
G75*
G02*
X113731250Y-105885000I-218750J0D01*
G01*
X113293750Y-105885000D01*
G75*
G02*
X113075000Y-105666250I0J218750D01*
G01*
X113075000Y-105153750D01*
G75*
G02*
X113293750Y-104935000I218750J0D01*
G01*
X113731250Y-104935000D01*
G75*
G02*
X113950000Y-105153750I0J-218750D01*
G01*
G37*
%TD.AperFunction*%
%TO.P,R5,1*%
%TO.N,Net-(R5-Pad1)*%
%TA.AperFunction,SMDPad,CuDef*%
G36*
G01*
X115525000Y-105153750D02*
X115525000Y-105666250D01*
G75*
G02*
X115306250Y-105885000I-218750J0D01*
G01*
X114868750Y-105885000D01*
G75*
G02*
X114650000Y-105666250I0J218750D01*
G01*
X114650000Y-105153750D01*
G75*
G02*
X114868750Y-104935000I218750J0D01*
G01*
X115306250Y-104935000D01*
G75*
G02*
X115525000Y-105153750I0J-218750D01*
G01*
G37*
%TD.AperFunction*%
%TD*%
%TO.P,R4,2*%
%TO.N,GND*%
%TA.AperFunction,SMDPad,CuDef*%
G36*
G01*
X113950000Y-102613750D02*
X113950000Y-103126250D01*
G75*
G02*
X113731250Y-103345000I-218750J0D01*
G01*
X113293750Y-103345000D01*
G75*
G02*
X113075000Y-103126250I0J218750D01*
G01*
X113075000Y-102613750D01*
G75*
G02*
X113293750Y-102395000I218750J0D01*
G01*
X113731250Y-102395000D01*
G75*
G02*
X113950000Y-102613750I0J-218750D01*
G01*
G37*
%TD.AperFunction*%
%TO.P,R4,1*%
%TO.N,Net-(R4-Pad1)*%
%TA.AperFunction,SMDPad,CuDef*%
G36*
G01*
X115525000Y-102613750D02*
X115525000Y-103126250D01*
G75*
G02*
X115306250Y-103345000I-218750J0D01*
G01*
X114868750Y-103345000D01*
G75*
G02*
X114650000Y-103126250I0J218750D01*
G01*
X114650000Y-102613750D01*
G75*
G02*
X114868750Y-102395000I218750J0D01*
G01*
X115306250Y-102395000D01*
G75*
G02*
X115525000Y-102613750I0J-218750D01*
G01*
G37*
%TD.AperFunction*%
%TD*%
%TO.P,R3,2*%
%TO.N,GND*%
%TA.AperFunction,SMDPad,CuDef*%
G36*
G01*
X113950000Y-100073750D02*
X113950000Y-100586250D01*
G75*
G02*
X113731250Y-100805000I-218750J0D01*
G01*
X113293750Y-100805000D01*
G75*
G02*
X113075000Y-100586250I0J218750D01*
G01*
X113075000Y-100073750D01*
G75*
G02*
X113293750Y-99855000I218750J0D01*
G01*
X113731250Y-99855000D01*
G75*
G02*
X113950000Y-100073750I0J-218750D01*
G01*
G37*
%TD.AperFunction*%
%TO.P,R3,1*%
%TO.N,Net-(R3-Pad1)*%
%TA.AperFunction,SMDPad,CuDef*%
G36*
G01*
X115525000Y-100073750D02*
X115525000Y-100586250D01*
G75*
G02*
X115306250Y-100805000I-218750J0D01*
G01*
X114868750Y-100805000D01*
G75*
G02*
X114650000Y-100586250I0J218750D01*
G01*
X114650000Y-100073750D01*
G75*
G02*
X114868750Y-99855000I218750J0D01*
G01*
X115306250Y-99855000D01*
G75*
G02*
X115525000Y-100073750I0J-218750D01*
G01*
G37*
%TD.AperFunction*%
%TD*%
%TO.P,R2,2*%
%TO.N,GND*%
%TA.AperFunction,SMDPad,CuDef*%
G36*
G01*
X113950000Y-97533750D02*
X113950000Y-98046250D01*
G75*
G02*
X113731250Y-98265000I-218750J0D01*
G01*
X113293750Y-98265000D01*
G75*
G02*
X113075000Y-98046250I0J218750D01*
G01*
X113075000Y-97533750D01*
G75*
G02*
X113293750Y-97315000I218750J0D01*
G01*
X113731250Y-97315000D01*
G75*
G02*
X113950000Y-97533750I0J-218750D01*
G01*
G37*
%TD.AperFunction*%
%TO.P,R2,1*%
%TO.N,Net-(R2-Pad1)*%
%TA.AperFunction,SMDPad,CuDef*%
G36*
G01*
X115525000Y-97533750D02*
X115525000Y-98046250D01*
G75*
G02*
X115306250Y-98265000I-218750J0D01*
G01*
X114868750Y-98265000D01*
G75*
G02*
X114650000Y-98046250I0J218750D01*
G01*
X114650000Y-97533750D01*
G75*
G02*
X114868750Y-97315000I218750J0D01*
G01*
X115306250Y-97315000D01*
G75*
G02*
X115525000Y-97533750I0J-218750D01*
G01*
G37*
%TD.AperFunction*%
%TD*%
%TO.P,R1,2*%
%TO.N,GND*%
%TA.AperFunction,SMDPad,CuDef*%
G36*
G01*
X113950000Y-94993750D02*
X113950000Y-95506250D01*
G75*
G02*
X113731250Y-95725000I-218750J0D01*
G01*
X113293750Y-95725000D01*
G75*
G02*
X113075000Y-95506250I0J218750D01*
G01*
X113075000Y-94993750D01*
G75*
G02*
X113293750Y-94775000I218750J0D01*
G01*
X113731250Y-94775000D01*
G75*
G02*
X113950000Y-94993750I0J-218750D01*
G01*
G37*
%TD.AperFunction*%
%TO.P,R1,1*%
%TO.N,Net-(R1-Pad1)*%
%TA.AperFunction,SMDPad,CuDef*%
G36*
G01*
X115525000Y-94993750D02*
X115525000Y-95506250D01*
G75*
G02*
X115306250Y-95725000I-218750J0D01*
G01*
X114868750Y-95725000D01*
G75*
G02*
X114650000Y-95506250I0J218750D01*
G01*
X114650000Y-94993750D01*
G75*
G02*
X114868750Y-94775000I218750J0D01*
G01*
X115306250Y-94775000D01*
G75*
G02*
X115525000Y-94993750I0J-218750D01*
G01*
G37*
%TD.AperFunction*%
%TD*%
D10*
%TO.P,J6,2*%
%TO.N,Net-(J6-Pad2)*%
X144780000Y-120650000D03*
D11*
%TO.P,J6,1*%
%TO.N,GND*%
X144780000Y-123190000D03*
%TD*%
D10*
%TO.P,J5,2*%
%TO.N,Net-(J5-Pad2)*%
X144780000Y-77470000D03*
D11*
%TO.P,J5,1*%
%TO.N,GND*%
X144780000Y-80010000D03*
%TD*%
D10*
%TO.P,J4,2*%
%TO.N,Net-(J4-Pad2)*%
X106680000Y-120650000D03*
D11*
%TO.P,J4,1*%
%TO.N,GND*%
X106680000Y-123190000D03*
%TD*%
D10*
%TO.P,J3,2*%
%TO.N,Net-(J3-Pad2)*%
X106680000Y-77724000D03*
D11*
%TO.P,J3,1*%
%TO.N,GND*%
X106680000Y-80264000D03*
%TD*%
D10*
%TO.P,J2,2*%
%TO.N,Net-(J2-Pad2)*%
X144780000Y-99060000D03*
D11*
%TO.P,J2,1*%
%TO.N,GND*%
X144780000Y-101600000D03*
%TD*%
D10*
%TO.P,J1,2*%
%TO.N,Net-(J1-Pad2)*%
X106680000Y-99060000D03*
D11*
%TO.P,J1,1*%
%TO.N,GND*%
X106680000Y-101600000D03*
%TD*%
D17*
%TO.P,CON1,2*%
%TO.N,Net-(CON1-Pad2)*%
X88138000Y-78617000D03*
D18*
%TO.P,CON1,3*%
X88138000Y-65327000D03*
D19*
%TO.P,CON1,1*%
%TO.N,Net-(CON1-Pad1)*%
X97278000Y-72517000D03*
%TD*%
%TO.P,C12,2*%
%TO.N,GND*%
%TA.AperFunction,SMDPad,CuDef*%
G36*
G01*
X123348000Y-72514750D02*
X123348000Y-73027250D01*
G75*
G02*
X123129250Y-73246000I-218750J0D01*
G01*
X122691750Y-73246000D01*
G75*
G02*
X122473000Y-73027250I0J218750D01*
G01*
X122473000Y-72514750D01*
G75*
G02*
X122691750Y-72296000I218750J0D01*
G01*
X123129250Y-72296000D01*
G75*
G02*
X123348000Y-72514750I0J-218750D01*
G01*
G37*
%TD.AperFunction*%
%TO.P,C12,1*%
%TO.N,-5V*%
%TA.AperFunction,SMDPad,CuDef*%
G36*
G01*
X124923000Y-72514750D02*
X124923000Y-73027250D01*
G75*
G02*
X124704250Y-73246000I-218750J0D01*
G01*
X124266750Y-73246000D01*
G75*
G02*
X124048000Y-73027250I0J218750D01*
G01*
X124048000Y-72514750D01*
G75*
G02*
X124266750Y-72296000I218750J0D01*
G01*
X124704250Y-72296000D01*
G75*
G02*
X124923000Y-72514750I0J-218750D01*
G01*
G37*
%TD.AperFunction*%
%TD*%
%TO.P,C11,2*%
%TO.N,GND*%
%TA.AperFunction,SMDPad,CuDef*%
G36*
G01*
X123348000Y-70101750D02*
X123348000Y-70614250D01*
G75*
G02*
X123129250Y-70833000I-218750J0D01*
G01*
X122691750Y-70833000D01*
G75*
G02*
X122473000Y-70614250I0J218750D01*
G01*
X122473000Y-70101750D01*
G75*
G02*
X122691750Y-69883000I218750J0D01*
G01*
X123129250Y-69883000D01*
G75*
G02*
X123348000Y-70101750I0J-218750D01*
G01*
G37*
%TD.AperFunction*%
%TO.P,C11,1*%
%TO.N,-5V*%
%TA.AperFunction,SMDPad,CuDef*%
G36*
G01*
X124923000Y-70101750D02*
X124923000Y-70614250D01*
G75*
G02*
X124704250Y-70833000I-218750J0D01*
G01*
X124266750Y-70833000D01*
G75*
G02*
X124048000Y-70614250I0J218750D01*
G01*
X124048000Y-70101750D01*
G75*
G02*
X124266750Y-69883000I218750J0D01*
G01*
X124704250Y-69883000D01*
G75*
G02*
X124923000Y-70101750I0J-218750D01*
G01*
G37*
%TD.AperFunction*%
%TD*%
%TO.P,C10,2*%
%TO.N,+5V*%
%TA.AperFunction,SMDPad,CuDef*%
G36*
G01*
X128682000Y-72514750D02*
X128682000Y-73027250D01*
G75*
G02*
X128463250Y-73246000I-218750J0D01*
G01*
X128025750Y-73246000D01*
G75*
G02*
X127807000Y-73027250I0J218750D01*
G01*
X127807000Y-72514750D01*
G75*
G02*
X128025750Y-72296000I218750J0D01*
G01*
X128463250Y-72296000D01*
G75*
G02*
X128682000Y-72514750I0J-218750D01*
G01*
G37*
%TD.AperFunction*%
%TO.P,C10,1*%
%TO.N,GND*%
%TA.AperFunction,SMDPad,CuDef*%
G36*
G01*
X130257000Y-72514750D02*
X130257000Y-73027250D01*
G75*
G02*
X130038250Y-73246000I-218750J0D01*
G01*
X129600750Y-73246000D01*
G75*
G02*
X129382000Y-73027250I0J218750D01*
G01*
X129382000Y-72514750D01*
G75*
G02*
X129600750Y-72296000I218750J0D01*
G01*
X130038250Y-72296000D01*
G75*
G02*
X130257000Y-72514750I0J-218750D01*
G01*
G37*
%TD.AperFunction*%
%TD*%
%TO.P,C9,2*%
%TO.N,+5V*%
%TA.AperFunction,SMDPad,CuDef*%
G36*
G01*
X128682000Y-70101750D02*
X128682000Y-70614250D01*
G75*
G02*
X128463250Y-70833000I-218750J0D01*
G01*
X128025750Y-70833000D01*
G75*
G02*
X127807000Y-70614250I0J218750D01*
G01*
X127807000Y-70101750D01*
G75*
G02*
X128025750Y-69883000I218750J0D01*
G01*
X128463250Y-69883000D01*
G75*
G02*
X128682000Y-70101750I0J-218750D01*
G01*
G37*
%TD.AperFunction*%
%TO.P,C9,1*%
%TO.N,GND*%
%TA.AperFunction,SMDPad,CuDef*%
G36*
G01*
X130257000Y-70101750D02*
X130257000Y-70614250D01*
G75*
G02*
X130038250Y-70833000I-218750J0D01*
G01*
X129600750Y-70833000D01*
G75*
G02*
X129382000Y-70614250I0J218750D01*
G01*
X129382000Y-70101750D01*
G75*
G02*
X129600750Y-69883000I218750J0D01*
G01*
X130038250Y-69883000D01*
G75*
G02*
X130257000Y-70101750I0J-218750D01*
G01*
G37*
%TD.AperFunction*%
%TD*%
%TO.P,C8,2*%
%TO.N,GND*%
%TA.AperFunction,SMDPad,CuDef*%
G36*
G01*
X131577500Y-94104750D02*
X131577500Y-94617250D01*
G75*
G02*
X131358750Y-94836000I-218750J0D01*
G01*
X130921250Y-94836000D01*
G75*
G02*
X130702500Y-94617250I0J218750D01*
G01*
X130702500Y-94104750D01*
G75*
G02*
X130921250Y-93886000I218750J0D01*
G01*
X131358750Y-93886000D01*
G75*
G02*
X131577500Y-94104750I0J-218750D01*
G01*
G37*
%TD.AperFunction*%
%TO.P,C8,1*%
%TO.N,-5V*%
%TA.AperFunction,SMDPad,CuDef*%
G36*
G01*
X133152500Y-94104750D02*
X133152500Y-94617250D01*
G75*
G02*
X132933750Y-94836000I-218750J0D01*
G01*
X132496250Y-94836000D01*
G75*
G02*
X132277500Y-94617250I0J218750D01*
G01*
X132277500Y-94104750D01*
G75*
G02*
X132496250Y-93886000I218750J0D01*
G01*
X132933750Y-93886000D01*
G75*
G02*
X133152500Y-94104750I0J-218750D01*
G01*
G37*
%TD.AperFunction*%
%TD*%
%TO.P,C7,2*%
%TO.N,GND*%
%TA.AperFunction,SMDPad,CuDef*%
G36*
G01*
X131603000Y-91691750D02*
X131603000Y-92204250D01*
G75*
G02*
X131384250Y-92423000I-218750J0D01*
G01*
X130946750Y-92423000D01*
G75*
G02*
X130728000Y-92204250I0J218750D01*
G01*
X130728000Y-91691750D01*
G75*
G02*
X130946750Y-91473000I218750J0D01*
G01*
X131384250Y-91473000D01*
G75*
G02*
X131603000Y-91691750I0J-218750D01*
G01*
G37*
%TD.AperFunction*%
%TO.P,C7,1*%
%TO.N,-5V*%
%TA.AperFunction,SMDPad,CuDef*%
G36*
G01*
X133178000Y-91691750D02*
X133178000Y-92204250D01*
G75*
G02*
X132959250Y-92423000I-218750J0D01*
G01*
X132521750Y-92423000D01*
G75*
G02*
X132303000Y-92204250I0J218750D01*
G01*
X132303000Y-91691750D01*
G75*
G02*
X132521750Y-91473000I218750J0D01*
G01*
X132959250Y-91473000D01*
G75*
G02*
X133178000Y-91691750I0J-218750D01*
G01*
G37*
%TD.AperFunction*%
%TD*%
%TO.P,C6,2*%
%TO.N,+5V*%
%TA.AperFunction,SMDPad,CuDef*%
G36*
G01*
X136937000Y-94104750D02*
X136937000Y-94617250D01*
G75*
G02*
X136718250Y-94836000I-218750J0D01*
G01*
X136280750Y-94836000D01*
G75*
G02*
X136062000Y-94617250I0J218750D01*
G01*
X136062000Y-94104750D01*
G75*
G02*
X136280750Y-93886000I218750J0D01*
G01*
X136718250Y-93886000D01*
G75*
G02*
X136937000Y-94104750I0J-218750D01*
G01*
G37*
%TD.AperFunction*%
%TO.P,C6,1*%
%TO.N,GND*%
%TA.AperFunction,SMDPad,CuDef*%
G36*
G01*
X138512000Y-94104750D02*
X138512000Y-94617250D01*
G75*
G02*
X138293250Y-94836000I-218750J0D01*
G01*
X137855750Y-94836000D01*
G75*
G02*
X137637000Y-94617250I0J218750D01*
G01*
X137637000Y-94104750D01*
G75*
G02*
X137855750Y-93886000I218750J0D01*
G01*
X138293250Y-93886000D01*
G75*
G02*
X138512000Y-94104750I0J-218750D01*
G01*
G37*
%TD.AperFunction*%
%TD*%
%TO.P,C5,2*%
%TO.N,+5V*%
%TA.AperFunction,SMDPad,CuDef*%
G36*
G01*
X136937000Y-91691750D02*
X136937000Y-92204250D01*
G75*
G02*
X136718250Y-92423000I-218750J0D01*
G01*
X136280750Y-92423000D01*
G75*
G02*
X136062000Y-92204250I0J218750D01*
G01*
X136062000Y-91691750D01*
G75*
G02*
X136280750Y-91473000I218750J0D01*
G01*
X136718250Y-91473000D01*
G75*
G02*
X136937000Y-91691750I0J-218750D01*
G01*
G37*
%TD.AperFunction*%
%TO.P,C5,1*%
%TO.N,GND*%
%TA.AperFunction,SMDPad,CuDef*%
G36*
G01*
X138512000Y-91691750D02*
X138512000Y-92204250D01*
G75*
G02*
X138293250Y-92423000I-218750J0D01*
G01*
X137855750Y-92423000D01*
G75*
G02*
X137637000Y-92204250I0J218750D01*
G01*
X137637000Y-91691750D01*
G75*
G02*
X137855750Y-91473000I218750J0D01*
G01*
X138293250Y-91473000D01*
G75*
G02*
X138512000Y-91691750I0J-218750D01*
G01*
G37*
%TD.AperFunction*%
%TD*%
%TO.P,C4,2*%
%TO.N,GND*%
%TA.AperFunction,SMDPad,CuDef*%
G36*
G01*
X131603000Y-115694750D02*
X131603000Y-116207250D01*
G75*
G02*
X131384250Y-116426000I-218750J0D01*
G01*
X130946750Y-116426000D01*
G75*
G02*
X130728000Y-116207250I0J218750D01*
G01*
X130728000Y-115694750D01*
G75*
G02*
X130946750Y-115476000I218750J0D01*
G01*
X131384250Y-115476000D01*
G75*
G02*
X131603000Y-115694750I0J-218750D01*
G01*
G37*
%TD.AperFunction*%
%TO.P,C4,1*%
%TO.N,-5V*%
%TA.AperFunction,SMDPad,CuDef*%
G36*
G01*
X133178000Y-115694750D02*
X133178000Y-116207250D01*
G75*
G02*
X132959250Y-116426000I-218750J0D01*
G01*
X132521750Y-116426000D01*
G75*
G02*
X132303000Y-116207250I0J218750D01*
G01*
X132303000Y-115694750D01*
G75*
G02*
X132521750Y-115476000I218750J0D01*
G01*
X132959250Y-115476000D01*
G75*
G02*
X133178000Y-115694750I0J-218750D01*
G01*
G37*
%TD.AperFunction*%
%TD*%
%TO.P,C3,2*%
%TO.N,GND*%
%TA.AperFunction,SMDPad,CuDef*%
G36*
G01*
X131603000Y-113281750D02*
X131603000Y-113794250D01*
G75*
G02*
X131384250Y-114013000I-218750J0D01*
G01*
X130946750Y-114013000D01*
G75*
G02*
X130728000Y-113794250I0J218750D01*
G01*
X130728000Y-113281750D01*
G75*
G02*
X130946750Y-113063000I218750J0D01*
G01*
X131384250Y-113063000D01*
G75*
G02*
X131603000Y-113281750I0J-218750D01*
G01*
G37*
%TD.AperFunction*%
%TO.P,C3,1*%
%TO.N,-5V*%
%TA.AperFunction,SMDPad,CuDef*%
G36*
G01*
X133178000Y-113281750D02*
X133178000Y-113794250D01*
G75*
G02*
X132959250Y-114013000I-218750J0D01*
G01*
X132521750Y-114013000D01*
G75*
G02*
X132303000Y-113794250I0J218750D01*
G01*
X132303000Y-113281750D01*
G75*
G02*
X132521750Y-113063000I218750J0D01*
G01*
X132959250Y-113063000D01*
G75*
G02*
X133178000Y-113281750I0J-218750D01*
G01*
G37*
%TD.AperFunction*%
%TD*%
%TO.P,C2,2*%
%TO.N,+5V*%
%TA.AperFunction,SMDPad,CuDef*%
G36*
G01*
X136962500Y-115694750D02*
X136962500Y-116207250D01*
G75*
G02*
X136743750Y-116426000I-218750J0D01*
G01*
X136306250Y-116426000D01*
G75*
G02*
X136087500Y-116207250I0J218750D01*
G01*
X136087500Y-115694750D01*
G75*
G02*
X136306250Y-115476000I218750J0D01*
G01*
X136743750Y-115476000D01*
G75*
G02*
X136962500Y-115694750I0J-218750D01*
G01*
G37*
%TD.AperFunction*%
%TO.P,C2,1*%
%TO.N,GND*%
%TA.AperFunction,SMDPad,CuDef*%
G36*
G01*
X138537500Y-115694750D02*
X138537500Y-116207250D01*
G75*
G02*
X138318750Y-116426000I-218750J0D01*
G01*
X137881250Y-116426000D01*
G75*
G02*
X137662500Y-116207250I0J218750D01*
G01*
X137662500Y-115694750D01*
G75*
G02*
X137881250Y-115476000I218750J0D01*
G01*
X138318750Y-115476000D01*
G75*
G02*
X138537500Y-115694750I0J-218750D01*
G01*
G37*
%TD.AperFunction*%
%TD*%
%TO.P,C1,2*%
%TO.N,+5V*%
%TA.AperFunction,SMDPad,CuDef*%
G36*
G01*
X136937000Y-113281750D02*
X136937000Y-113794250D01*
G75*
G02*
X136718250Y-114013000I-218750J0D01*
G01*
X136280750Y-114013000D01*
G75*
G02*
X136062000Y-113794250I0J218750D01*
G01*
X136062000Y-113281750D01*
G75*
G02*
X136280750Y-113063000I218750J0D01*
G01*
X136718250Y-113063000D01*
G75*
G02*
X136937000Y-113281750I0J-218750D01*
G01*
G37*
%TD.AperFunction*%
%TO.P,C1,1*%
%TO.N,GND*%
%TA.AperFunction,SMDPad,CuDef*%
G36*
G01*
X138512000Y-113281750D02*
X138512000Y-113794250D01*
G75*
G02*
X138293250Y-114013000I-218750J0D01*
G01*
X137855750Y-114013000D01*
G75*
G02*
X137637000Y-113794250I0J218750D01*
G01*
X137637000Y-113281750D01*
G75*
G02*
X137855750Y-113063000I218750J0D01*
G01*
X138293250Y-113063000D01*
G75*
G02*
X138512000Y-113281750I0J-218750D01*
G01*
G37*
%TD.AperFunction*%
%TD*%
D20*
%TO.N,GND*%
X138074500Y-114655500D03*
X131165500Y-114706500D03*
X113538000Y-93472000D03*
X131140000Y-93142000D03*
X138074500Y-93192510D03*
X130175000Y-122555000D03*
X129819500Y-71602500D03*
X122910500Y-71526500D03*
X98425000Y-68453000D03*
%TO.N,-5V*%
X130175000Y-123825000D03*
X132842000Y-117475000D03*
X131826000Y-103632000D03*
X132715000Y-95885000D03*
X121920000Y-80645000D03*
X122301000Y-74955500D03*
%TO.N,Net-(R8-Pad1)*%
X119380000Y-120523000D03*
%TO.N,Net-(R9-Pad1)*%
X127000000Y-122174000D03*
%TD*%
D21*
%TO.N,+5V*%
X136525000Y-113563500D02*
X136499500Y-113538000D01*
X136398000Y-115951000D02*
X136525000Y-115951000D01*
X137320000Y-121285000D02*
X136845000Y-121285000D01*
X128590000Y-78105000D02*
X129065000Y-78105000D01*
%TO.N,GND*%
X138074500Y-115925500D02*
X138100000Y-115951000D01*
X138074500Y-113538000D02*
X138074500Y-114655500D01*
X138074500Y-114655500D02*
X138074500Y-115925500D01*
X131165500Y-115951000D02*
X131165500Y-114706500D01*
X131165500Y-114706500D02*
X131165500Y-113538000D01*
X106705500Y-101625500D02*
X106680000Y-101600000D01*
X113512500Y-97790000D02*
X113512500Y-101625500D01*
X113512500Y-101625500D02*
X113512500Y-105410000D01*
X113512500Y-95250000D02*
X113512500Y-97790000D01*
X113512500Y-93497500D02*
X113538000Y-93472000D01*
X113512500Y-95250000D02*
X113512500Y-93497500D01*
X131140000Y-91973500D02*
X131165500Y-91948000D01*
X131140000Y-94361000D02*
X131140000Y-93142000D01*
X131140000Y-93142000D02*
X131140000Y-91973500D01*
X138074500Y-91948000D02*
X138074500Y-93192510D01*
X138074500Y-94361000D02*
X138074500Y-93192510D01*
X131920000Y-122555000D02*
X130175000Y-122555000D01*
X129819500Y-72771000D02*
X129819500Y-71602500D01*
X129819500Y-71602500D02*
X129819500Y-70358000D01*
X122910500Y-72771000D02*
X122910500Y-71526500D01*
X122910500Y-71526500D02*
X122910500Y-70358000D01*
X100027500Y-68453000D02*
X98425000Y-68453000D01*
%TO.N,-5V*%
X132740500Y-115951000D02*
X132740500Y-113538000D01*
X132740500Y-94335500D02*
X132715000Y-94361000D01*
X132740500Y-91948000D02*
X132740500Y-94335500D01*
X133350000Y-106299000D02*
X131920000Y-104869000D01*
X124485500Y-70358000D02*
X124485500Y-71475500D01*
X124485500Y-72771000D02*
X122301000Y-74955500D01*
X124485500Y-71475500D02*
X124485500Y-72771000D01*
X85344000Y-112954000D02*
X86410000Y-114020000D01*
X85344000Y-98806000D02*
X85344000Y-112954000D01*
X87630000Y-96520000D02*
X85344000Y-98806000D01*
X130499690Y-111297190D02*
X132740500Y-113538000D01*
X129565500Y-110363000D02*
X130499690Y-111297190D01*
X129438500Y-110236000D02*
X129565500Y-110363000D01*
X101346000Y-110236000D02*
X129438500Y-110236000D01*
X87630000Y-96520000D02*
X101346000Y-110236000D01*
X129438500Y-110210500D02*
X133350000Y-106299000D01*
X129438500Y-110236000D02*
X129438500Y-110210500D01*
X131920000Y-123825000D02*
X130175000Y-123825000D01*
X132842000Y-116052500D02*
X132740500Y-115951000D01*
X132842000Y-117475000D02*
X132842000Y-116052500D01*
X131920000Y-103538000D02*
X131826000Y-103632000D01*
X131920000Y-104869000D02*
X131920000Y-103538000D01*
X131920000Y-103538000D02*
X131920000Y-102235000D01*
X132715000Y-95885000D02*
X132715000Y-94361000D01*
X123665000Y-80645000D02*
X121920000Y-80645000D01*
X132740500Y-87528500D02*
X132740500Y-91948000D01*
X125857000Y-80645000D02*
X132740500Y-87528500D01*
X123665000Y-80645000D02*
X125857000Y-80645000D01*
%TO.N,Net-(CON1-Pad2)*%
X88138000Y-92329000D02*
X88138000Y-85602000D01*
X84200989Y-96266011D02*
X88138000Y-92329000D01*
X84200989Y-129590989D02*
X84200989Y-96266011D01*
X86410000Y-131800000D02*
X84200989Y-129590989D01*
X88138000Y-65327000D02*
X88138000Y-72517000D01*
X88138000Y-72517000D02*
X88138000Y-85602000D01*
X88138000Y-72312000D02*
X88138000Y-72517000D01*
%TO.N,Net-(CON1-Pad1)*%
X84658200Y-96455392D02*
X97278000Y-83835593D01*
X86410000Y-129260000D02*
X84658200Y-127508200D01*
X84658200Y-127508200D02*
X84658200Y-96455392D01*
X97278000Y-83835593D02*
X97278000Y-81456800D01*
X97278000Y-72517000D02*
X97278000Y-79887000D01*
X97278000Y-79887000D02*
X97278000Y-79502000D01*
X97278000Y-81456800D02*
X97278000Y-79887000D01*
%TO.N,Net-(J1-Pad2)*%
X130048000Y-101473000D02*
X130556000Y-100965000D01*
X130556000Y-100965000D02*
X131920000Y-100965000D01*
X130048000Y-103378000D02*
X130048000Y-101473000D01*
X126746000Y-106680000D02*
X130048000Y-103378000D01*
X106680000Y-99060000D02*
X108966000Y-99060000D01*
X108966000Y-99060000D02*
X109982000Y-100076000D01*
X109982000Y-105918000D02*
X110744000Y-106680000D01*
X109982000Y-100076000D02*
X109982000Y-105918000D01*
X110744000Y-106680000D02*
X126746000Y-106680000D01*
%TO.N,Net-(J3-Pad2)*%
X121793000Y-78740000D02*
X107950000Y-78740000D01*
X122428000Y-79375000D02*
X121793000Y-78740000D01*
X123665000Y-79375000D02*
X122428000Y-79375000D01*
X107696000Y-78740000D02*
X107950000Y-78740000D01*
X106680000Y-77724000D02*
X107696000Y-78740000D01*
%TO.N,Net-(R1-Pad1)*%
X118110000Y-95250000D02*
X119380000Y-96520000D01*
X115087500Y-95250000D02*
X118110000Y-95250000D01*
%TO.N,Net-(R2-Pad1)*%
X115087500Y-97790000D02*
X119876408Y-97790000D01*
X123043989Y-95103989D02*
X124460000Y-96520000D01*
X121270393Y-95103989D02*
X123043989Y-95103989D01*
X120446791Y-95927591D02*
X121270393Y-95103989D01*
X120446790Y-97219618D02*
X120446791Y-95927591D01*
X119876408Y-97790000D02*
X120446790Y-97219618D01*
%TO.N,Net-(R3-Pad1)*%
X125857000Y-97663000D02*
X127000000Y-96520000D01*
X123203147Y-97168147D02*
X123698000Y-97663000D01*
X123203147Y-96025147D02*
X123203147Y-97168147D01*
X121459775Y-95561199D02*
X122739199Y-95561199D01*
X120904000Y-96116974D02*
X121459775Y-95561199D01*
X122739199Y-95561199D02*
X123203147Y-96025147D01*
X120904000Y-97409000D02*
X120904000Y-96116974D01*
X123698000Y-97663000D02*
X125857000Y-97663000D01*
X117983000Y-100330000D02*
X120904000Y-97409000D01*
X115087500Y-100330000D02*
X117983000Y-100330000D01*
%TO.N,Net-(R4-Pad1)*%
X118110000Y-102870000D02*
X119380000Y-104140000D01*
X115087500Y-102870000D02*
X118110000Y-102870000D01*
%TO.N,Net-(R5-Pad1)*%
X120650000Y-105410000D02*
X121920000Y-104140000D01*
X115087500Y-105410000D02*
X120650000Y-105410000D01*
%TO.N,Net-(R6-Pad2)*%
X124170105Y-99695000D02*
X131920000Y-99695000D01*
X121920000Y-97444895D02*
X124170105Y-99695000D01*
X121920000Y-96520000D02*
X121920000Y-97444895D01*
X133832500Y-101132500D02*
X133832500Y-105410000D01*
X132395000Y-99695000D02*
X133832500Y-101132500D01*
X131920000Y-99695000D02*
X132395000Y-99695000D01*
%TO.N,Net-(R7-Pad1)*%
X118110000Y-116840000D02*
X119380000Y-118110000D01*
X115087500Y-116840000D02*
X118110000Y-116840000D01*
%TO.N,Net-(R8-Pad1)*%
X118237000Y-119380000D02*
X119380000Y-120523000D01*
X115087500Y-119380000D02*
X118237000Y-119380000D01*
%TO.N,Net-(R9-Pad1)*%
X115087500Y-121920000D02*
X118237000Y-121920000D01*
X126746000Y-121920000D02*
X127000000Y-122174000D01*
X118237000Y-121920000D02*
X126746000Y-121920000D01*
%TO.N,Net-(R10-Pad1)*%
X118110000Y-124460000D02*
X119380000Y-125730000D01*
X115087500Y-124460000D02*
X118110000Y-124460000D01*
%TO.N,Net-(R11-Pad1)*%
X120650000Y-127000000D02*
X121920000Y-125730000D01*
X115087500Y-127000000D02*
X120650000Y-127000000D01*
%TO.N,Net-(R12-Pad1)*%
X125095000Y-121285000D02*
X131920000Y-121285000D01*
X121920000Y-118110000D02*
X125095000Y-121285000D01*
X133832500Y-122117700D02*
X133832500Y-127000000D01*
X132999800Y-121285000D02*
X133832500Y-122117700D01*
X131920000Y-121285000D02*
X132999800Y-121285000D01*
%TO.N,Net-(D1-Pad2)*%
X101902500Y-68453000D02*
X103987500Y-68453000D01*
%TO.N,Net-(J4-Pad2)*%
X113512500Y-116840000D02*
X113512500Y-119380000D01*
X113512500Y-121920000D02*
X113512500Y-119380000D01*
X113512500Y-124460000D02*
X113512500Y-121920000D01*
X113512500Y-127000000D02*
X113512500Y-124460000D01*
X107950000Y-119380000D02*
X113512500Y-119380000D01*
X106680000Y-120650000D02*
X107950000Y-119380000D01*
%TO.N,Net-(J2-Pad2)*%
X142875000Y-100965000D02*
X144780000Y-99060000D01*
X135407500Y-105410000D02*
X138303000Y-105410000D01*
X138303000Y-105410000D02*
X139446000Y-104267000D01*
X139446000Y-101727000D02*
X140208000Y-100965000D01*
X140208000Y-100965000D02*
X142875000Y-100965000D01*
X139446000Y-104267000D02*
X139446000Y-101727000D01*
X137320000Y-100965000D02*
X140208000Y-100965000D01*
%TO.N,Net-(J5-Pad2)*%
X142875000Y-79375000D02*
X144780000Y-77470000D01*
X129065000Y-79375000D02*
X142875000Y-79375000D01*
X126014800Y-79375000D02*
X129065000Y-79375000D01*
X124744800Y-78105000D02*
X126014800Y-79375000D01*
X123665000Y-78105000D02*
X124744800Y-78105000D01*
%TO.N,Net-(J6-Pad2)*%
X142875000Y-122555000D02*
X144780000Y-120650000D01*
X135407500Y-127000000D02*
X138303000Y-127000000D01*
X138303000Y-127000000D02*
X139319000Y-125984000D01*
X139319000Y-123444000D02*
X140208000Y-122555000D01*
X139319000Y-125984000D02*
X139319000Y-123444000D01*
X140208000Y-122555000D02*
X142875000Y-122555000D01*
X137320000Y-122555000D02*
X140208000Y-122555000D01*
%TD*%
D22*
%TO.N,+5V*%
X206104545Y-56578909D02*
X206455208Y-56684780D01*
X206778625Y-56856744D01*
X207062484Y-57088254D01*
X207295965Y-57370486D01*
X207470183Y-57692695D01*
X207578502Y-58042614D01*
X207620000Y-58437443D01*
X207620001Y-142207711D01*
X207581091Y-142604545D01*
X207475220Y-142955206D01*
X207303257Y-143278623D01*
X207071748Y-143562482D01*
X206789514Y-143795965D01*
X206467304Y-143970184D01*
X206117385Y-144078502D01*
X205722557Y-144120000D01*
X83852279Y-144120000D01*
X83455455Y-144081091D01*
X83104794Y-143975220D01*
X82781377Y-143803257D01*
X82497518Y-143571748D01*
X82264035Y-143289514D01*
X82089816Y-142967304D01*
X81981498Y-142617385D01*
X81940000Y-142222557D01*
X81940000Y-141384872D01*
X82220000Y-141384872D01*
X82220000Y-141825128D01*
X82305890Y-142256925D01*
X82474369Y-142663669D01*
X82718962Y-143029729D01*
X83030271Y-143341038D01*
X83396331Y-143585631D01*
X83803075Y-143754110D01*
X84234872Y-143840000D01*
X84675128Y-143840000D01*
X85106925Y-143754110D01*
X85513669Y-143585631D01*
X85879729Y-143341038D01*
X86191038Y-143029729D01*
X86435631Y-142663669D01*
X86604110Y-142256925D01*
X86690000Y-141825128D01*
X86690000Y-141384872D01*
X202870000Y-141384872D01*
X202870000Y-141825128D01*
X202955890Y-142256925D01*
X203124369Y-142663669D01*
X203368962Y-143029729D01*
X203680271Y-143341038D01*
X204046331Y-143585631D01*
X204453075Y-143754110D01*
X204884872Y-143840000D01*
X205325128Y-143840000D01*
X205756925Y-143754110D01*
X206163669Y-143585631D01*
X206529729Y-143341038D01*
X206841038Y-143029729D01*
X207085631Y-142663669D01*
X207254110Y-142256925D01*
X207340000Y-141825128D01*
X207340000Y-141384872D01*
X207254110Y-140953075D01*
X207085631Y-140546331D01*
X206841038Y-140180271D01*
X206529729Y-139868962D01*
X206163669Y-139624369D01*
X205756925Y-139455890D01*
X205325128Y-139370000D01*
X204884872Y-139370000D01*
X204453075Y-139455890D01*
X204046331Y-139624369D01*
X203680271Y-139868962D01*
X203368962Y-140180271D01*
X203124369Y-140546331D01*
X202955890Y-140953075D01*
X202870000Y-141384872D01*
X86690000Y-141384872D01*
X86604110Y-140953075D01*
X86435631Y-140546331D01*
X86191038Y-140180271D01*
X85879729Y-139868962D01*
X85513669Y-139624369D01*
X85106925Y-139455890D01*
X84675128Y-139370000D01*
X84234872Y-139370000D01*
X83803075Y-139455890D01*
X83396331Y-139624369D01*
X83030271Y-139868962D01*
X82718962Y-140180271D01*
X82474369Y-140546331D01*
X82305890Y-140953075D01*
X82220000Y-141384872D01*
X81940000Y-141384872D01*
X81940000Y-138318212D01*
X86495000Y-138318212D01*
X86495000Y-138541788D01*
X86538617Y-138761067D01*
X86624176Y-138967624D01*
X86748388Y-139153520D01*
X86906480Y-139311612D01*
X87092376Y-139435824D01*
X87298933Y-139521383D01*
X87518212Y-139565000D01*
X87741788Y-139565000D01*
X87961067Y-139521383D01*
X88167624Y-139435824D01*
X88353520Y-139311612D01*
X88511612Y-139153520D01*
X88635824Y-138967624D01*
X88721383Y-138761067D01*
X88765000Y-138541788D01*
X88765000Y-138318212D01*
X88721383Y-138098933D01*
X88635824Y-137892376D01*
X88511612Y-137706480D01*
X88353520Y-137548388D01*
X88167624Y-137424176D01*
X87961067Y-137338617D01*
X87741788Y-137295000D01*
X87518212Y-137295000D01*
X87298933Y-137338617D01*
X87092376Y-137424176D01*
X86906480Y-137548388D01*
X86748388Y-137706480D01*
X86624176Y-137892376D01*
X86538617Y-138098933D01*
X86495000Y-138318212D01*
X81940000Y-138318212D01*
X81940000Y-96266011D01*
X83409781Y-96266011D01*
X83413590Y-96304684D01*
X83413589Y-129552326D01*
X83409781Y-129590989D01*
X83413589Y-129629652D01*
X83413589Y-129629661D01*
X83424983Y-129745345D01*
X83470007Y-129893771D01*
X83543123Y-130030560D01*
X83641520Y-130150458D01*
X83671566Y-130175117D01*
X85043577Y-131547129D01*
X85020500Y-131663146D01*
X85020500Y-131936854D01*
X85073898Y-132205302D01*
X85178641Y-132458175D01*
X85330705Y-132685754D01*
X85524246Y-132879295D01*
X85751825Y-133031359D01*
X86004698Y-133136102D01*
X86273146Y-133189500D01*
X86546854Y-133189500D01*
X86815302Y-133136102D01*
X87068175Y-133031359D01*
X87295754Y-132879295D01*
X87489295Y-132685754D01*
X87641359Y-132458175D01*
X87746102Y-132205302D01*
X87799500Y-131936854D01*
X87799500Y-131663146D01*
X87746102Y-131394698D01*
X87641359Y-131141825D01*
X87489295Y-130914246D01*
X87295754Y-130720705D01*
X87068175Y-130568641D01*
X86974887Y-130530000D01*
X87068175Y-130491359D01*
X87295754Y-130339295D01*
X87489295Y-130145754D01*
X87641359Y-129918175D01*
X87746102Y-129665302D01*
X87799500Y-129396854D01*
X87799500Y-129123146D01*
X87746102Y-128854698D01*
X87641359Y-128601825D01*
X87489295Y-128374246D01*
X87295754Y-128180705D01*
X87068175Y-128028641D01*
X86974887Y-127990000D01*
X87068175Y-127951359D01*
X87295754Y-127799295D01*
X87489295Y-127605754D01*
X87641359Y-127378175D01*
X87746102Y-127125302D01*
X87799500Y-126856854D01*
X87799500Y-126583146D01*
X87746102Y-126314698D01*
X87641359Y-126061825D01*
X87489295Y-125834246D01*
X87295754Y-125640705D01*
X87068175Y-125488641D01*
X86815302Y-125383898D01*
X86546854Y-125330500D01*
X86273146Y-125330500D01*
X86004698Y-125383898D01*
X85751825Y-125488641D01*
X85524246Y-125640705D01*
X85445600Y-125719351D01*
X85445600Y-122640649D01*
X85524246Y-122719295D01*
X85751825Y-122871359D01*
X86004698Y-122976102D01*
X86273146Y-123029500D01*
X86546854Y-123029500D01*
X86815302Y-122976102D01*
X87068175Y-122871359D01*
X87295754Y-122719295D01*
X87489295Y-122525754D01*
X87613412Y-122340000D01*
X105191928Y-122340000D01*
X105191928Y-124040000D01*
X105204188Y-124164482D01*
X105240498Y-124284180D01*
X105299463Y-124394494D01*
X105378815Y-124491185D01*
X105475506Y-124570537D01*
X105585820Y-124629502D01*
X105705518Y-124665812D01*
X105830000Y-124678072D01*
X107530000Y-124678072D01*
X107654482Y-124665812D01*
X107774180Y-124629502D01*
X107884494Y-124570537D01*
X107981185Y-124491185D01*
X108060537Y-124394494D01*
X108119502Y-124284180D01*
X108155812Y-124164482D01*
X108168072Y-124040000D01*
X108168072Y-122340000D01*
X108155812Y-122215518D01*
X108119502Y-122095820D01*
X108060537Y-121985506D01*
X107981185Y-121888815D01*
X107884494Y-121809463D01*
X107774180Y-121750498D01*
X107701620Y-121728487D01*
X107833475Y-121596632D01*
X107995990Y-121353411D01*
X108107932Y-121083158D01*
X108165000Y-120796260D01*
X108165000Y-120503740D01*
X108127639Y-120315913D01*
X108276152Y-120167400D01*
X112626569Y-120167400D01*
X112687885Y-120242115D01*
X112725101Y-120272657D01*
X112725100Y-121027343D01*
X112687885Y-121057885D01*
X112581329Y-121187725D01*
X112502150Y-121335858D01*
X112453392Y-121496592D01*
X112436928Y-121663750D01*
X112436928Y-122176250D01*
X112453392Y-122343408D01*
X112502150Y-122504142D01*
X112581329Y-122652275D01*
X112687885Y-122782115D01*
X112725101Y-122812657D01*
X112725100Y-123567343D01*
X112687885Y-123597885D01*
X112581329Y-123727725D01*
X112502150Y-123875858D01*
X112453392Y-124036592D01*
X112436928Y-124203750D01*
X112436928Y-124716250D01*
X112453392Y-124883408D01*
X112502150Y-125044142D01*
X112581329Y-125192275D01*
X112687885Y-125322115D01*
X112725101Y-125352657D01*
X112725100Y-126107343D01*
X112687885Y-126137885D01*
X112581329Y-126267725D01*
X112502150Y-126415858D01*
X112453392Y-126576592D01*
X112436928Y-126743750D01*
X112436928Y-127256250D01*
X112453392Y-127423408D01*
X112502150Y-127584142D01*
X112581329Y-127732275D01*
X112687885Y-127862115D01*
X112817725Y-127968671D01*
X112965858Y-128047850D01*
X113126592Y-128096608D01*
X113293750Y-128113072D01*
X113731250Y-128113072D01*
X113898408Y-128096608D01*
X114059142Y-128047850D01*
X114207275Y-127968671D01*
X114300000Y-127892574D01*
X114392725Y-127968671D01*
X114540858Y-128047850D01*
X114701592Y-128096608D01*
X114868750Y-128113072D01*
X115306250Y-128113072D01*
X115473408Y-128096608D01*
X115634142Y-128047850D01*
X115782275Y-127968671D01*
X115912115Y-127862115D01*
X115973431Y-127787400D01*
X120611337Y-127787400D01*
X120650000Y-127791208D01*
X120688663Y-127787400D01*
X120688673Y-127787400D01*
X120804357Y-127776006D01*
X120952783Y-127730982D01*
X121089572Y-127657866D01*
X121209469Y-127559469D01*
X121234127Y-127529423D01*
X121752596Y-127010954D01*
X121793045Y-127019000D01*
X122046955Y-127019000D01*
X122295987Y-126969465D01*
X122530570Y-126872297D01*
X122741690Y-126731232D01*
X122921232Y-126551690D01*
X123062297Y-126340570D01*
X123159465Y-126105987D01*
X123190000Y-125952476D01*
X123220535Y-126105987D01*
X123317703Y-126340570D01*
X123458768Y-126551690D01*
X123638310Y-126731232D01*
X123849430Y-126872297D01*
X124084013Y-126969465D01*
X124333045Y-127019000D01*
X124586955Y-127019000D01*
X124835987Y-126969465D01*
X125070570Y-126872297D01*
X125281690Y-126731232D01*
X125461232Y-126551690D01*
X125602297Y-126340570D01*
X125699465Y-126105987D01*
X125730000Y-125952476D01*
X125760535Y-126105987D01*
X125857703Y-126340570D01*
X125998768Y-126551690D01*
X126178310Y-126731232D01*
X126389430Y-126872297D01*
X126624013Y-126969465D01*
X126873045Y-127019000D01*
X127126955Y-127019000D01*
X127375987Y-126969465D01*
X127610570Y-126872297D01*
X127821690Y-126731232D01*
X128001232Y-126551690D01*
X128142297Y-126340570D01*
X128239465Y-126105987D01*
X128289000Y-125856955D01*
X128289000Y-125603045D01*
X128239465Y-125354013D01*
X128142297Y-125119430D01*
X128001232Y-124908310D01*
X127821690Y-124728768D01*
X127610570Y-124587703D01*
X127375987Y-124490535D01*
X127126955Y-124441000D01*
X126873045Y-124441000D01*
X126624013Y-124490535D01*
X126389430Y-124587703D01*
X126178310Y-124728768D01*
X125998768Y-124908310D01*
X125857703Y-125119430D01*
X125760535Y-125354013D01*
X125730000Y-125507524D01*
X125699465Y-125354013D01*
X125602297Y-125119430D01*
X125461232Y-124908310D01*
X125281690Y-124728768D01*
X125070570Y-124587703D01*
X124835987Y-124490535D01*
X124586955Y-124441000D01*
X124333045Y-124441000D01*
X124084013Y-124490535D01*
X123849430Y-124587703D01*
X123638310Y-124728768D01*
X123458768Y-124908310D01*
X123317703Y-125119430D01*
X123220535Y-125354013D01*
X123190000Y-125507524D01*
X123159465Y-125354013D01*
X123062297Y-125119430D01*
X122921232Y-124908310D01*
X122741690Y-124728768D01*
X122530570Y-124587703D01*
X122295987Y-124490535D01*
X122046955Y-124441000D01*
X121793045Y-124441000D01*
X121544013Y-124490535D01*
X121309430Y-124587703D01*
X121098310Y-124728768D01*
X120918768Y-124908310D01*
X120777703Y-125119430D01*
X120680535Y-125354013D01*
X120650000Y-125507524D01*
X120619465Y-125354013D01*
X120522297Y-125119430D01*
X120381232Y-124908310D01*
X120201690Y-124728768D01*
X119990570Y-124587703D01*
X119755987Y-124490535D01*
X119506955Y-124441000D01*
X119253045Y-124441000D01*
X119212596Y-124449046D01*
X118694127Y-123930577D01*
X118669469Y-123900531D01*
X118549572Y-123802134D01*
X118412783Y-123729018D01*
X118264357Y-123683994D01*
X118148673Y-123672600D01*
X118148663Y-123672600D01*
X118110000Y-123668792D01*
X118071337Y-123672600D01*
X115973431Y-123672600D01*
X115912115Y-123597885D01*
X115782275Y-123491329D01*
X115634142Y-123412150D01*
X115473408Y-123363392D01*
X115306250Y-123346928D01*
X114868750Y-123346928D01*
X114701592Y-123363392D01*
X114540858Y-123412150D01*
X114392725Y-123491329D01*
X114300000Y-123567426D01*
X114299900Y-123567344D01*
X114299900Y-122812656D01*
X114300000Y-122812574D01*
X114392725Y-122888671D01*
X114540858Y-122967850D01*
X114701592Y-123016608D01*
X114868750Y-123033072D01*
X115306250Y-123033072D01*
X115473408Y-123016608D01*
X115634142Y-122967850D01*
X115782275Y-122888671D01*
X115912115Y-122782115D01*
X115973431Y-122707400D01*
X126287216Y-122707400D01*
X126309469Y-122740704D01*
X126433296Y-122864531D01*
X126578901Y-122961821D01*
X126740688Y-123028836D01*
X126912441Y-123063000D01*
X127087559Y-123063000D01*
X127259312Y-123028836D01*
X127421099Y-122961821D01*
X127566704Y-122864531D01*
X127690531Y-122740704D01*
X127787821Y-122595099D01*
X127854836Y-122433312D01*
X127889000Y-122261559D01*
X127889000Y-122086441D01*
X127886207Y-122072400D01*
X129428273Y-122072400D01*
X129387179Y-122133901D01*
X129320164Y-122295688D01*
X129286000Y-122467441D01*
X129286000Y-122642559D01*
X129320164Y-122814312D01*
X129387179Y-122976099D01*
X129484469Y-123121704D01*
X129552765Y-123190000D01*
X129484469Y-123258296D01*
X129387179Y-123403901D01*
X129320164Y-123565688D01*
X129286000Y-123737441D01*
X129286000Y-123912559D01*
X129320164Y-124084312D01*
X129387179Y-124246099D01*
X129484469Y-124391704D01*
X129608296Y-124515531D01*
X129753901Y-124612821D01*
X129915688Y-124679836D01*
X130087441Y-124714000D01*
X130262559Y-124714000D01*
X130434312Y-124679836D01*
X130596099Y-124612821D01*
X130596729Y-124612400D01*
X130737943Y-124612400D01*
X130790506Y-124655537D01*
X130900820Y-124714502D01*
X131020518Y-124750812D01*
X131145000Y-124763072D01*
X132695000Y-124763072D01*
X132819482Y-124750812D01*
X132939180Y-124714502D01*
X133045101Y-124657885D01*
X133045101Y-126107343D01*
X133007885Y-126137885D01*
X132901329Y-126267725D01*
X132822150Y-126415858D01*
X132773392Y-126576592D01*
X132756928Y-126743750D01*
X132756928Y-127256250D01*
X132773392Y-127423408D01*
X132822150Y-127584142D01*
X132901329Y-127732275D01*
X133007885Y-127862115D01*
X133137725Y-127968671D01*
X133285858Y-128047850D01*
X133446592Y-128096608D01*
X133613750Y-128113072D01*
X134051250Y-128113072D01*
X134218408Y-128096608D01*
X134379142Y-128047850D01*
X134527275Y-127968671D01*
X134620000Y-127892574D01*
X134712725Y-127968671D01*
X134860858Y-128047850D01*
X135021592Y-128096608D01*
X135188750Y-128113072D01*
X135626250Y-128113072D01*
X135793408Y-128096608D01*
X135954142Y-128047850D01*
X136102275Y-127968671D01*
X136232115Y-127862115D01*
X136293431Y-127787400D01*
X138264337Y-127787400D01*
X138303000Y-127791208D01*
X138341663Y-127787400D01*
X138341673Y-127787400D01*
X138457357Y-127776006D01*
X138605783Y-127730982D01*
X138742572Y-127657866D01*
X138862469Y-127559469D01*
X138887128Y-127529423D01*
X139848429Y-126568122D01*
X139878469Y-126543469D01*
X139938295Y-126470571D01*
X139976866Y-126423573D01*
X140049982Y-126286783D01*
X140058279Y-126259431D01*
X140095006Y-126138357D01*
X140106400Y-126022673D01*
X140106400Y-126022663D01*
X140110208Y-125984000D01*
X140106400Y-125945337D01*
X140106400Y-123770150D01*
X140534151Y-123342400D01*
X142836337Y-123342400D01*
X142875000Y-123346208D01*
X142913663Y-123342400D01*
X142913673Y-123342400D01*
X143029357Y-123331006D01*
X143177783Y-123285982D01*
X143291928Y-123224970D01*
X143291928Y-124040000D01*
X143304188Y-124164482D01*
X143340498Y-124284180D01*
X143399463Y-124394494D01*
X143478815Y-124491185D01*
X143575506Y-124570537D01*
X143685820Y-124629502D01*
X143805518Y-124665812D01*
X143930000Y-124678072D01*
X145630000Y-124678072D01*
X145754482Y-124665812D01*
X145874180Y-124629502D01*
X145984494Y-124570537D01*
X146081185Y-124491185D01*
X146160537Y-124394494D01*
X146219502Y-124284180D01*
X146255812Y-124164482D01*
X146268072Y-124040000D01*
X146268072Y-122340000D01*
X146255812Y-122215518D01*
X146219502Y-122095820D01*
X146160537Y-121985506D01*
X146081185Y-121888815D01*
X145984494Y-121809463D01*
X145874180Y-121750498D01*
X145801620Y-121728487D01*
X145933475Y-121596632D01*
X146095990Y-121353411D01*
X146207932Y-121083158D01*
X146265000Y-120796260D01*
X146265000Y-120503740D01*
X146207932Y-120216842D01*
X146095990Y-119946589D01*
X145933475Y-119703368D01*
X145726632Y-119496525D01*
X145483411Y-119334010D01*
X145213158Y-119222068D01*
X144926260Y-119165000D01*
X144633740Y-119165000D01*
X144346842Y-119222068D01*
X144076589Y-119334010D01*
X143833368Y-119496525D01*
X143626525Y-119703368D01*
X143464010Y-119946589D01*
X143352068Y-120216842D01*
X143295000Y-120503740D01*
X143295000Y-120796260D01*
X143332362Y-120984088D01*
X142548850Y-121767600D01*
X140246663Y-121767600D01*
X140208000Y-121763792D01*
X140169337Y-121767600D01*
X138703182Y-121767600D01*
X138720812Y-121709482D01*
X138733072Y-121585000D01*
X138730000Y-121570750D01*
X138571250Y-121412000D01*
X137447000Y-121412000D01*
X137447000Y-121432000D01*
X137193000Y-121432000D01*
X137193000Y-121412000D01*
X136068750Y-121412000D01*
X135910000Y-121570750D01*
X135906928Y-121585000D01*
X135919188Y-121709482D01*
X135955498Y-121829180D01*
X136004043Y-121920000D01*
X135955498Y-122010820D01*
X135919188Y-122130518D01*
X135906928Y-122255000D01*
X135906928Y-122855000D01*
X135919188Y-122979482D01*
X135955498Y-123099180D01*
X136004043Y-123190000D01*
X135955498Y-123280820D01*
X135919188Y-123400518D01*
X135906928Y-123525000D01*
X135906928Y-124125000D01*
X135919188Y-124249482D01*
X135955498Y-124369180D01*
X136014463Y-124479494D01*
X136093815Y-124576185D01*
X136190506Y-124655537D01*
X136300820Y-124714502D01*
X136420518Y-124750812D01*
X136545000Y-124763072D01*
X138095000Y-124763072D01*
X138219482Y-124750812D01*
X138339180Y-124714502D01*
X138449494Y-124655537D01*
X138531601Y-124588154D01*
X138531600Y-125657849D01*
X137976850Y-126212600D01*
X136293431Y-126212600D01*
X136232115Y-126137885D01*
X136102275Y-126031329D01*
X135954142Y-125952150D01*
X135793408Y-125903392D01*
X135626250Y-125886928D01*
X135188750Y-125886928D01*
X135021592Y-125903392D01*
X134860858Y-125952150D01*
X134712725Y-126031329D01*
X134620000Y-126107426D01*
X134619900Y-126107344D01*
X134619900Y-122156365D01*
X134623708Y-122117700D01*
X134619900Y-122079035D01*
X134619900Y-122079027D01*
X134608506Y-121963343D01*
X134563482Y-121814917D01*
X134490366Y-121678128D01*
X134450202Y-121629188D01*
X134416622Y-121588270D01*
X134416619Y-121588267D01*
X134391969Y-121558231D01*
X134361934Y-121533582D01*
X133583927Y-120755577D01*
X133559269Y-120725531D01*
X133439372Y-120627134D01*
X133302583Y-120554018D01*
X133287460Y-120549430D01*
X133320812Y-120439482D01*
X133333072Y-120315000D01*
X133333072Y-119715000D01*
X135906928Y-119715000D01*
X135906928Y-120315000D01*
X135919188Y-120439482D01*
X135955498Y-120559180D01*
X136004043Y-120650000D01*
X135955498Y-120740820D01*
X135919188Y-120860518D01*
X135906928Y-120985000D01*
X135910000Y-120999250D01*
X136068750Y-121158000D01*
X137193000Y-121158000D01*
X137193000Y-121138000D01*
X137447000Y-121138000D01*
X137447000Y-121158000D01*
X138571250Y-121158000D01*
X138730000Y-120999250D01*
X138733072Y-120985000D01*
X138720812Y-120860518D01*
X138684502Y-120740820D01*
X138635957Y-120650000D01*
X138684502Y-120559180D01*
X138720812Y-120439482D01*
X138733072Y-120315000D01*
X138733072Y-119715000D01*
X138720812Y-119590518D01*
X138684502Y-119470820D01*
X138625537Y-119360506D01*
X138546185Y-119263815D01*
X138449494Y-119184463D01*
X138339180Y-119125498D01*
X138219482Y-119089188D01*
X138095000Y-119076928D01*
X136545000Y-119076928D01*
X136420518Y-119089188D01*
X136300820Y-119125498D01*
X136190506Y-119184463D01*
X136093815Y-119263815D01*
X136014463Y-119360506D01*
X135955498Y-119470820D01*
X135919188Y-119590518D01*
X135906928Y-119715000D01*
X133333072Y-119715000D01*
X133320812Y-119590518D01*
X133284502Y-119470820D01*
X133225537Y-119360506D01*
X133146185Y-119263815D01*
X133049494Y-119184463D01*
X132939180Y-119125498D01*
X132819482Y-119089188D01*
X132695000Y-119076928D01*
X131145000Y-119076928D01*
X131020518Y-119089188D01*
X130900820Y-119125498D01*
X130790506Y-119184463D01*
X130693815Y-119263815D01*
X130614463Y-119360506D01*
X130555498Y-119470820D01*
X130519188Y-119590518D01*
X130506928Y-119715000D01*
X130506928Y-120315000D01*
X130519188Y-120439482D01*
X130536818Y-120497600D01*
X125421151Y-120497600D01*
X124319945Y-119396394D01*
X124333045Y-119399000D01*
X124586955Y-119399000D01*
X124835987Y-119349465D01*
X125070570Y-119252297D01*
X125281690Y-119111232D01*
X125461232Y-118931690D01*
X125602297Y-118720570D01*
X125699465Y-118485987D01*
X125730000Y-118332476D01*
X125760535Y-118485987D01*
X125857703Y-118720570D01*
X125998768Y-118931690D01*
X126178310Y-119111232D01*
X126389430Y-119252297D01*
X126624013Y-119349465D01*
X126873045Y-119399000D01*
X127126955Y-119399000D01*
X127375987Y-119349465D01*
X127610570Y-119252297D01*
X127821690Y-119111232D01*
X128001232Y-118931690D01*
X128142297Y-118720570D01*
X128239465Y-118485987D01*
X128289000Y-118236955D01*
X128289000Y-117983045D01*
X128239465Y-117734013D01*
X128142297Y-117499430D01*
X128001232Y-117288310D01*
X127821690Y-117108768D01*
X127610570Y-116967703D01*
X127375987Y-116870535D01*
X127126955Y-116821000D01*
X126873045Y-116821000D01*
X126624013Y-116870535D01*
X126389430Y-116967703D01*
X126178310Y-117108768D01*
X125998768Y-117288310D01*
X125857703Y-117499430D01*
X125760535Y-117734013D01*
X125730000Y-117887524D01*
X125699465Y-117734013D01*
X125602297Y-117499430D01*
X125461232Y-117288310D01*
X125281690Y-117108768D01*
X125070570Y-116967703D01*
X124835987Y-116870535D01*
X124586955Y-116821000D01*
X124333045Y-116821000D01*
X124084013Y-116870535D01*
X123849430Y-116967703D01*
X123638310Y-117108768D01*
X123458768Y-117288310D01*
X123317703Y-117499430D01*
X123220535Y-117734013D01*
X123190000Y-117887524D01*
X123159465Y-117734013D01*
X123062297Y-117499430D01*
X122921232Y-117288310D01*
X122741690Y-117108768D01*
X122530570Y-116967703D01*
X122295987Y-116870535D01*
X122046955Y-116821000D01*
X121793045Y-116821000D01*
X121544013Y-116870535D01*
X121309430Y-116967703D01*
X121098310Y-117108768D01*
X120918768Y-117288310D01*
X120777703Y-117499430D01*
X120680535Y-117734013D01*
X120672072Y-117776560D01*
X120672072Y-117456000D01*
X120659812Y-117331518D01*
X120623502Y-117211820D01*
X120564537Y-117101506D01*
X120485185Y-117004815D01*
X120388494Y-116925463D01*
X120278180Y-116866498D01*
X120158482Y-116830188D01*
X120034000Y-116817928D01*
X119201479Y-116817928D01*
X118694127Y-116310577D01*
X118669469Y-116280531D01*
X118549572Y-116182134D01*
X118412783Y-116109018D01*
X118264357Y-116063994D01*
X118148673Y-116052600D01*
X118148663Y-116052600D01*
X118110000Y-116048792D01*
X118071337Y-116052600D01*
X115973431Y-116052600D01*
X115912115Y-115977885D01*
X115782275Y-115871329D01*
X115634142Y-115792150D01*
X115473408Y-115743392D01*
X115306250Y-115726928D01*
X114868750Y-115726928D01*
X114701592Y-115743392D01*
X114540858Y-115792150D01*
X114392725Y-115871329D01*
X114300000Y-115947426D01*
X114207275Y-115871329D01*
X114059142Y-115792150D01*
X113898408Y-115743392D01*
X113731250Y-115726928D01*
X113293750Y-115726928D01*
X113126592Y-115743392D01*
X112965858Y-115792150D01*
X112817725Y-115871329D01*
X112687885Y-115977885D01*
X112581329Y-116107725D01*
X112502150Y-116255858D01*
X112453392Y-116416592D01*
X112436928Y-116583750D01*
X112436928Y-117096250D01*
X112453392Y-117263408D01*
X112502150Y-117424142D01*
X112581329Y-117572275D01*
X112687885Y-117702115D01*
X112725100Y-117732657D01*
X112725101Y-118487343D01*
X112687885Y-118517885D01*
X112626569Y-118592600D01*
X107988662Y-118592600D01*
X107949999Y-118588792D01*
X107911336Y-118592600D01*
X107911327Y-118592600D01*
X107795643Y-118603994D01*
X107647217Y-118649018D01*
X107510428Y-118722134D01*
X107510426Y-118722135D01*
X107510427Y-118722135D01*
X107420569Y-118795879D01*
X107420567Y-118795881D01*
X107390531Y-118820531D01*
X107365881Y-118850567D01*
X107014087Y-119202361D01*
X106826260Y-119165000D01*
X106533740Y-119165000D01*
X106246842Y-119222068D01*
X105976589Y-119334010D01*
X105733368Y-119496525D01*
X105526525Y-119703368D01*
X105364010Y-119946589D01*
X105252068Y-120216842D01*
X105195000Y-120503740D01*
X105195000Y-120796260D01*
X105252068Y-121083158D01*
X105364010Y-121353411D01*
X105526525Y-121596632D01*
X105658380Y-121728487D01*
X105585820Y-121750498D01*
X105475506Y-121809463D01*
X105378815Y-121888815D01*
X105299463Y-121985506D01*
X105240498Y-122095820D01*
X105204188Y-122215518D01*
X105191928Y-122340000D01*
X87613412Y-122340000D01*
X87641359Y-122298175D01*
X87746102Y-122045302D01*
X87799500Y-121776854D01*
X87799500Y-121503146D01*
X87746102Y-121234698D01*
X87641359Y-120981825D01*
X87489295Y-120754246D01*
X87295754Y-120560705D01*
X87068175Y-120408641D01*
X86979215Y-120371793D01*
X87010404Y-120360537D01*
X87124532Y-120299534D01*
X87190603Y-120060208D01*
X86410000Y-119279605D01*
X86395858Y-119293748D01*
X86216253Y-119114143D01*
X86230395Y-119100000D01*
X86589605Y-119100000D01*
X87370208Y-119880603D01*
X87609534Y-119814532D01*
X87725883Y-119566785D01*
X87791664Y-119301100D01*
X87804349Y-119027686D01*
X87763449Y-118757052D01*
X87670537Y-118499596D01*
X87609534Y-118385468D01*
X87370208Y-118319397D01*
X86589605Y-119100000D01*
X86230395Y-119100000D01*
X86216253Y-119085858D01*
X86395858Y-118906253D01*
X86410000Y-118920395D01*
X87190603Y-118139792D01*
X87124532Y-117900466D01*
X86974674Y-117830088D01*
X87068175Y-117791359D01*
X87295754Y-117639295D01*
X87489295Y-117445754D01*
X87641359Y-117218175D01*
X87746102Y-116965302D01*
X87799500Y-116696854D01*
X87799500Y-116423146D01*
X87746102Y-116154698D01*
X87641359Y-115901825D01*
X87489295Y-115674246D01*
X87295754Y-115480705D01*
X87068175Y-115328641D01*
X86974887Y-115290000D01*
X87068175Y-115251359D01*
X87295754Y-115099295D01*
X87489295Y-114905754D01*
X87641359Y-114678175D01*
X87746102Y-114425302D01*
X87799500Y-114156854D01*
X87799500Y-113883146D01*
X87746102Y-113614698D01*
X87641359Y-113361825D01*
X87489295Y-113134246D01*
X87295754Y-112940705D01*
X87068175Y-112788641D01*
X86815302Y-112683898D01*
X86546854Y-112630500D01*
X86273146Y-112630500D01*
X86157128Y-112653578D01*
X86131400Y-112627850D01*
X86131400Y-104496890D01*
X86188524Y-104496890D01*
X86233175Y-104644099D01*
X86358359Y-104906920D01*
X86532412Y-105140269D01*
X86748645Y-105335178D01*
X86998748Y-105484157D01*
X87273109Y-105581481D01*
X87503000Y-105460814D01*
X87503000Y-104267000D01*
X87757000Y-104267000D01*
X87757000Y-105460814D01*
X87986891Y-105581481D01*
X88261252Y-105484157D01*
X88511355Y-105335178D01*
X88727588Y-105140269D01*
X88901641Y-104906920D01*
X89026825Y-104644099D01*
X89071476Y-104496890D01*
X88950155Y-104267000D01*
X87757000Y-104267000D01*
X87503000Y-104267000D01*
X86309845Y-104267000D01*
X86188524Y-104496890D01*
X86131400Y-104496890D01*
X86131400Y-99132150D01*
X86145000Y-99118550D01*
X86145000Y-99206260D01*
X86202068Y-99493158D01*
X86314010Y-99763411D01*
X86476525Y-100006632D01*
X86683368Y-100213475D01*
X86857760Y-100330000D01*
X86683368Y-100446525D01*
X86476525Y-100653368D01*
X86314010Y-100896589D01*
X86202068Y-101166842D01*
X86145000Y-101453740D01*
X86145000Y-101746260D01*
X86202068Y-102033158D01*
X86314010Y-102303411D01*
X86476525Y-102546632D01*
X86683368Y-102753475D01*
X86865534Y-102875195D01*
X86748645Y-102944822D01*
X86532412Y-103139731D01*
X86358359Y-103373080D01*
X86233175Y-103635901D01*
X86188524Y-103783110D01*
X86309845Y-104013000D01*
X87503000Y-104013000D01*
X87503000Y-103993000D01*
X87757000Y-103993000D01*
X87757000Y-104013000D01*
X88950155Y-104013000D01*
X89071476Y-103783110D01*
X89026825Y-103635901D01*
X88901641Y-103373080D01*
X88727588Y-103139731D01*
X88511355Y-102944822D01*
X88394466Y-102875195D01*
X88576632Y-102753475D01*
X88783475Y-102546632D01*
X88945990Y-102303411D01*
X89057932Y-102033158D01*
X89115000Y-101746260D01*
X89115000Y-101453740D01*
X89057932Y-101166842D01*
X88945990Y-100896589D01*
X88783475Y-100653368D01*
X88576632Y-100446525D01*
X88402240Y-100330000D01*
X88576632Y-100213475D01*
X88783475Y-100006632D01*
X88945990Y-99763411D01*
X89057932Y-99493158D01*
X89115000Y-99206260D01*
X89115000Y-99118550D01*
X100761881Y-110765433D01*
X100786531Y-110795469D01*
X100816567Y-110820119D01*
X100816569Y-110820121D01*
X100862258Y-110857617D01*
X100906428Y-110893866D01*
X101043217Y-110966982D01*
X101191643Y-111012006D01*
X101307327Y-111023400D01*
X101307336Y-111023400D01*
X101345999Y-111027208D01*
X101384662Y-111023400D01*
X129112350Y-111023400D01*
X129970259Y-111881311D01*
X129970270Y-111881320D01*
X130592949Y-112503999D01*
X130470725Y-112569329D01*
X130340885Y-112675885D01*
X130234329Y-112805725D01*
X130155150Y-112953858D01*
X130106392Y-113114592D01*
X130089928Y-113281750D01*
X130089928Y-113794250D01*
X130106392Y-113961408D01*
X130155150Y-114122142D01*
X130234329Y-114270275D01*
X130333759Y-114391432D01*
X130310664Y-114447188D01*
X130276500Y-114618941D01*
X130276500Y-114794059D01*
X130310664Y-114965812D01*
X130356377Y-115076171D01*
X130340885Y-115088885D01*
X130234329Y-115218725D01*
X130155150Y-115366858D01*
X130106392Y-115527592D01*
X130089928Y-115694750D01*
X130089928Y-116207250D01*
X130106392Y-116374408D01*
X130155150Y-116535142D01*
X130234329Y-116683275D01*
X130340885Y-116813115D01*
X130470725Y-116919671D01*
X130618858Y-116998850D01*
X130779592Y-117047608D01*
X130946750Y-117064072D01*
X131384250Y-117064072D01*
X131551408Y-117047608D01*
X131712142Y-116998850D01*
X131860275Y-116919671D01*
X131953000Y-116843574D01*
X132045725Y-116919671D01*
X132054600Y-116924415D01*
X132054600Y-117053270D01*
X132054179Y-117053901D01*
X131987164Y-117215688D01*
X131953000Y-117387441D01*
X131953000Y-117562559D01*
X131987164Y-117734312D01*
X132054179Y-117896099D01*
X132151469Y-118041704D01*
X132275296Y-118165531D01*
X132420901Y-118262821D01*
X132582688Y-118329836D01*
X132754441Y-118364000D01*
X132929559Y-118364000D01*
X133101312Y-118329836D01*
X133263099Y-118262821D01*
X133408704Y-118165531D01*
X133532531Y-118041704D01*
X133629821Y-117896099D01*
X133696836Y-117734312D01*
X133731000Y-117562559D01*
X133731000Y-117387441D01*
X133696836Y-117215688D01*
X133629821Y-117053901D01*
X133629400Y-117053271D01*
X133629400Y-116734783D01*
X133671671Y-116683275D01*
X133750850Y-116535142D01*
X133783957Y-116426000D01*
X135449428Y-116426000D01*
X135461688Y-116550482D01*
X135497998Y-116670180D01*
X135556963Y-116780494D01*
X135636315Y-116877185D01*
X135733006Y-116956537D01*
X135843320Y-117015502D01*
X135963018Y-117051812D01*
X136087500Y-117064072D01*
X136239250Y-117061000D01*
X136398000Y-116902250D01*
X136398000Y-116078000D01*
X135611250Y-116078000D01*
X135452500Y-116236750D01*
X135449428Y-116426000D01*
X133783957Y-116426000D01*
X133799608Y-116374408D01*
X133816072Y-116207250D01*
X133816072Y-115694750D01*
X133799608Y-115527592D01*
X133783958Y-115476000D01*
X135449428Y-115476000D01*
X135452500Y-115665250D01*
X135611250Y-115824000D01*
X136398000Y-115824000D01*
X136398000Y-114999750D01*
X136239250Y-114841000D01*
X136087500Y-114837928D01*
X135963018Y-114850188D01*
X135843320Y-114886498D01*
X135733006Y-114945463D01*
X135636315Y-115024815D01*
X135556963Y-115121506D01*
X135497998Y-115231820D01*
X135461688Y-115351518D01*
X135449428Y-115476000D01*
X133783958Y-115476000D01*
X133750850Y-115366858D01*
X133671671Y-115218725D01*
X133565115Y-115088885D01*
X133527900Y-115058344D01*
X133527900Y-114430656D01*
X133565115Y-114400115D01*
X133671671Y-114270275D01*
X133750850Y-114122142D01*
X133783957Y-114013000D01*
X135423928Y-114013000D01*
X135436188Y-114137482D01*
X135472498Y-114257180D01*
X135531463Y-114367494D01*
X135610815Y-114464185D01*
X135707506Y-114543537D01*
X135817820Y-114602502D01*
X135937518Y-114638812D01*
X136062000Y-114651072D01*
X136213750Y-114648000D01*
X136372500Y-114489250D01*
X136372500Y-113665000D01*
X135585750Y-113665000D01*
X135427000Y-113823750D01*
X135423928Y-114013000D01*
X133783957Y-114013000D01*
X133799608Y-113961408D01*
X133816072Y-113794250D01*
X133816072Y-113281750D01*
X133799608Y-113114592D01*
X133783958Y-113063000D01*
X135423928Y-113063000D01*
X135427000Y-113252250D01*
X135585750Y-113411000D01*
X136372500Y-113411000D01*
X136372500Y-112586750D01*
X136626500Y-112586750D01*
X136626500Y-113411000D01*
X136646500Y-113411000D01*
X136646500Y-113665000D01*
X136626500Y-113665000D01*
X136626500Y-114489250D01*
X136785250Y-114648000D01*
X136937000Y-114651072D01*
X137061482Y-114638812D01*
X137181180Y-114602502D01*
X137185500Y-114600193D01*
X137185500Y-114743059D01*
X137214907Y-114890895D01*
X137206680Y-114886498D01*
X137086982Y-114850188D01*
X136962500Y-114837928D01*
X136810750Y-114841000D01*
X136652000Y-114999750D01*
X136652000Y-115824000D01*
X136672000Y-115824000D01*
X136672000Y-116078000D01*
X136652000Y-116078000D01*
X136652000Y-116902250D01*
X136810750Y-117061000D01*
X136962500Y-117064072D01*
X137086982Y-117051812D01*
X137206680Y-117015502D01*
X137316994Y-116956537D01*
X137383570Y-116901900D01*
X137405225Y-116919671D01*
X137553358Y-116998850D01*
X137714092Y-117047608D01*
X137881250Y-117064072D01*
X138318750Y-117064072D01*
X138485908Y-117047608D01*
X138646642Y-116998850D01*
X138794775Y-116919671D01*
X138924615Y-116813115D01*
X139031171Y-116683275D01*
X139110350Y-116535142D01*
X139159108Y-116374408D01*
X139175572Y-116207250D01*
X139175572Y-115694750D01*
X139159108Y-115527592D01*
X139110350Y-115366858D01*
X139031171Y-115218725D01*
X138924615Y-115088885D01*
X138874327Y-115047615D01*
X138929336Y-114914812D01*
X138963500Y-114743059D01*
X138963500Y-114567941D01*
X138929336Y-114396188D01*
X138920280Y-114374325D01*
X139005671Y-114270275D01*
X139084850Y-114122142D01*
X139133608Y-113961408D01*
X139150072Y-113794250D01*
X139150072Y-113281750D01*
X139133608Y-113114592D01*
X139084850Y-112953858D01*
X139005671Y-112805725D01*
X138899115Y-112675885D01*
X138769275Y-112569329D01*
X138621142Y-112490150D01*
X138460408Y-112441392D01*
X138293250Y-112424928D01*
X137855750Y-112424928D01*
X137688592Y-112441392D01*
X137527858Y-112490150D01*
X137379725Y-112569329D01*
X137358070Y-112587100D01*
X137291494Y-112532463D01*
X137181180Y-112473498D01*
X137061482Y-112437188D01*
X136937000Y-112424928D01*
X136785250Y-112428000D01*
X136626500Y-112586750D01*
X136372500Y-112586750D01*
X136213750Y-112428000D01*
X136062000Y-112424928D01*
X135937518Y-112437188D01*
X135817820Y-112473498D01*
X135707506Y-112532463D01*
X135610815Y-112611815D01*
X135531463Y-112708506D01*
X135472498Y-112818820D01*
X135436188Y-112938518D01*
X135423928Y-113063000D01*
X133783958Y-113063000D01*
X133750850Y-112953858D01*
X133671671Y-112805725D01*
X133565115Y-112675885D01*
X133435275Y-112569329D01*
X133287142Y-112490150D01*
X133126408Y-112441392D01*
X132959250Y-112424928D01*
X132740979Y-112424928D01*
X131083820Y-110767770D01*
X131083811Y-110767759D01*
X130539301Y-110223250D01*
X133879443Y-106883109D01*
X133909468Y-106858468D01*
X133934108Y-106828444D01*
X133934121Y-106828431D01*
X134007865Y-106738573D01*
X134080981Y-106601783D01*
X134106509Y-106517629D01*
X134218408Y-106506608D01*
X134379142Y-106457850D01*
X134527275Y-106378671D01*
X134620000Y-106302574D01*
X134712725Y-106378671D01*
X134860858Y-106457850D01*
X135021592Y-106506608D01*
X135188750Y-106523072D01*
X135626250Y-106523072D01*
X135793408Y-106506608D01*
X135954142Y-106457850D01*
X136102275Y-106378671D01*
X136232115Y-106272115D01*
X136293431Y-106197400D01*
X138264337Y-106197400D01*
X138303000Y-106201208D01*
X138341663Y-106197400D01*
X138341673Y-106197400D01*
X138457357Y-106186006D01*
X138605783Y-106140982D01*
X138742572Y-106067866D01*
X138862469Y-105969469D01*
X138887127Y-105939423D01*
X139975434Y-104851118D01*
X140005469Y-104826469D01*
X140103866Y-104706572D01*
X140176982Y-104569783D01*
X140222006Y-104421357D01*
X140233400Y-104305673D01*
X140233400Y-104305664D01*
X140237208Y-104267001D01*
X140233400Y-104228338D01*
X140233400Y-102053151D01*
X140534151Y-101752400D01*
X142836337Y-101752400D01*
X142875000Y-101756208D01*
X142913663Y-101752400D01*
X142913673Y-101752400D01*
X143029357Y-101741006D01*
X143177783Y-101695982D01*
X143291928Y-101634970D01*
X143291928Y-102450000D01*
X143304188Y-102574482D01*
X143340498Y-102694180D01*
X143399463Y-102804494D01*
X143478815Y-102901185D01*
X143575506Y-102980537D01*
X143685820Y-103039502D01*
X143805518Y-103075812D01*
X143930000Y-103088072D01*
X145630000Y-103088072D01*
X145754482Y-103075812D01*
X145874180Y-103039502D01*
X145984494Y-102980537D01*
X146081185Y-102901185D01*
X146160537Y-102804494D01*
X146219502Y-102694180D01*
X146255812Y-102574482D01*
X146268072Y-102450000D01*
X146268072Y-100750000D01*
X146255812Y-100625518D01*
X146219502Y-100505820D01*
X146160537Y-100395506D01*
X146081185Y-100298815D01*
X145984494Y-100219463D01*
X145874180Y-100160498D01*
X145801620Y-100138487D01*
X145933475Y-100006632D01*
X146095990Y-99763411D01*
X146207932Y-99493158D01*
X146265000Y-99206260D01*
X146265000Y-98913740D01*
X146207932Y-98626842D01*
X146095990Y-98356589D01*
X145933475Y-98113368D01*
X145726632Y-97906525D01*
X145483411Y-97744010D01*
X145213158Y-97632068D01*
X144926260Y-97575000D01*
X144633740Y-97575000D01*
X144346842Y-97632068D01*
X144076589Y-97744010D01*
X143833368Y-97906525D01*
X143626525Y-98113368D01*
X143464010Y-98356589D01*
X143352068Y-98626842D01*
X143295000Y-98913740D01*
X143295000Y-99206260D01*
X143332362Y-99394088D01*
X142548850Y-100177600D01*
X140246665Y-100177600D01*
X140208000Y-100173792D01*
X140169335Y-100177600D01*
X138703182Y-100177600D01*
X138720812Y-100119482D01*
X138733072Y-99995000D01*
X138730000Y-99980750D01*
X138571250Y-99822000D01*
X137447000Y-99822000D01*
X137447000Y-99842000D01*
X137193000Y-99842000D01*
X137193000Y-99822000D01*
X136068750Y-99822000D01*
X135910000Y-99980750D01*
X135906928Y-99995000D01*
X135919188Y-100119482D01*
X135955498Y-100239180D01*
X136004043Y-100330000D01*
X135955498Y-100420820D01*
X135919188Y-100540518D01*
X135906928Y-100665000D01*
X135906928Y-101265000D01*
X135919188Y-101389482D01*
X135955498Y-101509180D01*
X136004043Y-101600000D01*
X135955498Y-101690820D01*
X135919188Y-101810518D01*
X135906928Y-101935000D01*
X135906928Y-102535000D01*
X135919188Y-102659482D01*
X135955498Y-102779180D01*
X136014463Y-102889494D01*
X136093815Y-102986185D01*
X136190506Y-103065537D01*
X136300820Y-103124502D01*
X136420518Y-103160812D01*
X136545000Y-103173072D01*
X138095000Y-103173072D01*
X138219482Y-103160812D01*
X138339180Y-103124502D01*
X138449494Y-103065537D01*
X138546185Y-102986185D01*
X138625537Y-102889494D01*
X138658601Y-102827637D01*
X138658600Y-103940848D01*
X137976850Y-104622600D01*
X136293431Y-104622600D01*
X136232115Y-104547885D01*
X136102275Y-104441329D01*
X135954142Y-104362150D01*
X135793408Y-104313392D01*
X135626250Y-104296928D01*
X135188750Y-104296928D01*
X135021592Y-104313392D01*
X134860858Y-104362150D01*
X134712725Y-104441329D01*
X134620000Y-104517426D01*
X134619900Y-104517344D01*
X134619900Y-101171163D01*
X134623708Y-101132500D01*
X134619900Y-101093837D01*
X134619900Y-101093827D01*
X134608506Y-100978143D01*
X134563482Y-100829717D01*
X134490366Y-100692928D01*
X134391969Y-100573031D01*
X134361929Y-100548378D01*
X133333072Y-99519522D01*
X133333072Y-99395000D01*
X133320812Y-99270518D01*
X133284502Y-99150820D01*
X133235957Y-99060000D01*
X133284502Y-98969180D01*
X133320812Y-98849482D01*
X133333072Y-98725000D01*
X133333072Y-98125000D01*
X135906928Y-98125000D01*
X135906928Y-98725000D01*
X135919188Y-98849482D01*
X135955498Y-98969180D01*
X136004043Y-99060000D01*
X135955498Y-99150820D01*
X135919188Y-99270518D01*
X135906928Y-99395000D01*
X135910000Y-99409250D01*
X136068750Y-99568000D01*
X137193000Y-99568000D01*
X137193000Y-99548000D01*
X137447000Y-99548000D01*
X137447000Y-99568000D01*
X138571250Y-99568000D01*
X138730000Y-99409250D01*
X138733072Y-99395000D01*
X138720812Y-99270518D01*
X138684502Y-99150820D01*
X138635957Y-99060000D01*
X138684502Y-98969180D01*
X138720812Y-98849482D01*
X138733072Y-98725000D01*
X138733072Y-98125000D01*
X138720812Y-98000518D01*
X138684502Y-97880820D01*
X138625537Y-97770506D01*
X138546185Y-97673815D01*
X138449494Y-97594463D01*
X138339180Y-97535498D01*
X138219482Y-97499188D01*
X138095000Y-97486928D01*
X136545000Y-97486928D01*
X136420518Y-97499188D01*
X136300820Y-97535498D01*
X136190506Y-97594463D01*
X136093815Y-97673815D01*
X136014463Y-97770506D01*
X135955498Y-97880820D01*
X135919188Y-98000518D01*
X135906928Y-98125000D01*
X133333072Y-98125000D01*
X133320812Y-98000518D01*
X133284502Y-97880820D01*
X133225537Y-97770506D01*
X133146185Y-97673815D01*
X133049494Y-97594463D01*
X132939180Y-97535498D01*
X132819482Y-97499188D01*
X132695000Y-97486928D01*
X131145000Y-97486928D01*
X131020518Y-97499188D01*
X130900820Y-97535498D01*
X130790506Y-97594463D01*
X130693815Y-97673815D01*
X130614463Y-97770506D01*
X130555498Y-97880820D01*
X130519188Y-98000518D01*
X130506928Y-98125000D01*
X130506928Y-98725000D01*
X130519188Y-98849482D01*
X130536818Y-98907600D01*
X124496256Y-98907600D01*
X124039056Y-98450400D01*
X125818337Y-98450400D01*
X125857000Y-98454208D01*
X125895663Y-98450400D01*
X125895673Y-98450400D01*
X126011357Y-98439006D01*
X126159783Y-98393982D01*
X126296572Y-98320866D01*
X126416469Y-98222469D01*
X126441127Y-98192423D01*
X126832596Y-97800954D01*
X126873045Y-97809000D01*
X127126955Y-97809000D01*
X127375987Y-97759465D01*
X127610570Y-97662297D01*
X127821690Y-97521232D01*
X128001232Y-97341690D01*
X128142297Y-97130570D01*
X128239465Y-96895987D01*
X128289000Y-96646955D01*
X128289000Y-96393045D01*
X128239465Y-96144013D01*
X128142297Y-95909430D01*
X128001232Y-95698310D01*
X127821690Y-95518768D01*
X127610570Y-95377703D01*
X127375987Y-95280535D01*
X127126955Y-95231000D01*
X126873045Y-95231000D01*
X126624013Y-95280535D01*
X126389430Y-95377703D01*
X126178310Y-95518768D01*
X125998768Y-95698310D01*
X125857703Y-95909430D01*
X125760535Y-96144013D01*
X125730000Y-96297524D01*
X125699465Y-96144013D01*
X125602297Y-95909430D01*
X125461232Y-95698310D01*
X125281690Y-95518768D01*
X125070570Y-95377703D01*
X124835987Y-95280535D01*
X124586955Y-95231000D01*
X124333045Y-95231000D01*
X124292596Y-95239046D01*
X123628117Y-94574567D01*
X123603458Y-94544520D01*
X123483561Y-94446123D01*
X123346772Y-94373007D01*
X123198346Y-94327983D01*
X123082662Y-94316589D01*
X123082652Y-94316589D01*
X123043989Y-94312781D01*
X123005326Y-94316589D01*
X121309055Y-94316589D01*
X121270392Y-94312781D01*
X121231729Y-94316589D01*
X121231720Y-94316589D01*
X121116036Y-94327983D01*
X120967610Y-94373007D01*
X120830821Y-94446123D01*
X120830819Y-94446124D01*
X120830820Y-94446124D01*
X120740962Y-94519868D01*
X120740960Y-94519870D01*
X120710924Y-94544520D01*
X120686274Y-94574556D01*
X120032904Y-95227928D01*
X119201479Y-95227928D01*
X118694127Y-94720577D01*
X118669469Y-94690531D01*
X118549572Y-94592134D01*
X118412783Y-94519018D01*
X118264357Y-94473994D01*
X118148673Y-94462600D01*
X118148663Y-94462600D01*
X118110000Y-94458792D01*
X118071337Y-94462600D01*
X115973431Y-94462600D01*
X115912115Y-94387885D01*
X115782275Y-94281329D01*
X115634142Y-94202150D01*
X115473408Y-94153392D01*
X115306250Y-94136928D01*
X114868750Y-94136928D01*
X114701592Y-94153392D01*
X114540858Y-94202150D01*
X114392725Y-94281329D01*
X114300000Y-94357426D01*
X114299900Y-94357344D01*
X114299900Y-93931893D01*
X114325821Y-93893099D01*
X114392836Y-93731312D01*
X114427000Y-93559559D01*
X114427000Y-93384441D01*
X114392836Y-93212688D01*
X114325821Y-93050901D01*
X114228531Y-92905296D01*
X114104704Y-92781469D01*
X113959099Y-92684179D01*
X113797312Y-92617164D01*
X113625559Y-92583000D01*
X113450441Y-92583000D01*
X113278688Y-92617164D01*
X113116901Y-92684179D01*
X112971296Y-92781469D01*
X112847469Y-92905296D01*
X112750179Y-93050901D01*
X112683164Y-93212688D01*
X112649000Y-93384441D01*
X112649000Y-93559559D01*
X112683164Y-93731312D01*
X112725101Y-93832555D01*
X112725101Y-94357343D01*
X112687885Y-94387885D01*
X112581329Y-94517725D01*
X112502150Y-94665858D01*
X112453392Y-94826592D01*
X112436928Y-94993750D01*
X112436928Y-95506250D01*
X112453392Y-95673408D01*
X112502150Y-95834142D01*
X112581329Y-95982275D01*
X112687885Y-96112115D01*
X112725100Y-96142657D01*
X112725101Y-96897343D01*
X112687885Y-96927885D01*
X112581329Y-97057725D01*
X112502150Y-97205858D01*
X112453392Y-97366592D01*
X112436928Y-97533750D01*
X112436928Y-98046250D01*
X112453392Y-98213408D01*
X112502150Y-98374142D01*
X112581329Y-98522275D01*
X112687885Y-98652115D01*
X112725100Y-98682656D01*
X112725100Y-99437343D01*
X112687885Y-99467885D01*
X112581329Y-99597725D01*
X112502150Y-99745858D01*
X112453392Y-99906592D01*
X112436928Y-100073750D01*
X112436928Y-100586250D01*
X112453392Y-100753408D01*
X112502150Y-100914142D01*
X112581329Y-101062275D01*
X112687885Y-101192115D01*
X112725101Y-101222657D01*
X112725101Y-101586818D01*
X112725100Y-101586828D01*
X112725100Y-101977344D01*
X112687885Y-102007885D01*
X112581329Y-102137725D01*
X112502150Y-102285858D01*
X112453392Y-102446592D01*
X112436928Y-102613750D01*
X112436928Y-103126250D01*
X112453392Y-103293408D01*
X112502150Y-103454142D01*
X112581329Y-103602275D01*
X112687885Y-103732115D01*
X112725101Y-103762657D01*
X112725101Y-104517343D01*
X112687885Y-104547885D01*
X112581329Y-104677725D01*
X112502150Y-104825858D01*
X112453392Y-104986592D01*
X112436928Y-105153750D01*
X112436928Y-105666250D01*
X112453392Y-105833408D01*
X112471348Y-105892600D01*
X111070151Y-105892600D01*
X110769400Y-105591849D01*
X110769400Y-100114663D01*
X110773208Y-100076000D01*
X110769400Y-100037337D01*
X110769400Y-100037327D01*
X110758006Y-99921643D01*
X110712982Y-99773217D01*
X110671173Y-99694999D01*
X110639866Y-99636427D01*
X110589835Y-99575465D01*
X110541469Y-99516531D01*
X110511429Y-99491878D01*
X109550128Y-98530577D01*
X109525469Y-98500531D01*
X109405572Y-98402134D01*
X109268783Y-98329018D01*
X109120357Y-98283994D01*
X109004673Y-98272600D01*
X109004663Y-98272600D01*
X108966000Y-98268792D01*
X108927337Y-98272600D01*
X107939870Y-98272600D01*
X107833475Y-98113368D01*
X107626632Y-97906525D01*
X107383411Y-97744010D01*
X107113158Y-97632068D01*
X106826260Y-97575000D01*
X106533740Y-97575000D01*
X106246842Y-97632068D01*
X105976589Y-97744010D01*
X105733368Y-97906525D01*
X105526525Y-98113368D01*
X105364010Y-98356589D01*
X105252068Y-98626842D01*
X105195000Y-98913740D01*
X105195000Y-99206260D01*
X105252068Y-99493158D01*
X105364010Y-99763411D01*
X105526525Y-100006632D01*
X105658380Y-100138487D01*
X105585820Y-100160498D01*
X105475506Y-100219463D01*
X105378815Y-100298815D01*
X105299463Y-100395506D01*
X105240498Y-100505820D01*
X105204188Y-100625518D01*
X105191928Y-100750000D01*
X105191928Y-102450000D01*
X105204188Y-102574482D01*
X105240498Y-102694180D01*
X105299463Y-102804494D01*
X105378815Y-102901185D01*
X105475506Y-102980537D01*
X105585820Y-103039502D01*
X105705518Y-103075812D01*
X105830000Y-103088072D01*
X107530000Y-103088072D01*
X107654482Y-103075812D01*
X107774180Y-103039502D01*
X107884494Y-102980537D01*
X107981185Y-102901185D01*
X108060537Y-102804494D01*
X108119502Y-102694180D01*
X108155812Y-102574482D01*
X108168072Y-102450000D01*
X108168072Y-100750000D01*
X108155812Y-100625518D01*
X108119502Y-100505820D01*
X108060537Y-100395506D01*
X107981185Y-100298815D01*
X107884494Y-100219463D01*
X107774180Y-100160498D01*
X107701620Y-100138487D01*
X107833475Y-100006632D01*
X107939870Y-99847400D01*
X108639850Y-99847400D01*
X109194600Y-100402151D01*
X109194601Y-105879327D01*
X109190792Y-105918000D01*
X109205995Y-106072357D01*
X109251018Y-106220782D01*
X109278457Y-106272115D01*
X109324135Y-106357572D01*
X109422532Y-106477469D01*
X109452572Y-106502123D01*
X110159881Y-107209433D01*
X110184531Y-107239469D01*
X110214567Y-107264119D01*
X110214570Y-107264122D01*
X110304427Y-107337866D01*
X110441217Y-107410982D01*
X110589643Y-107456006D01*
X110705327Y-107467400D01*
X110705335Y-107467400D01*
X110744000Y-107471208D01*
X110782665Y-107467400D01*
X126707337Y-107467400D01*
X126746000Y-107471208D01*
X126784663Y-107467400D01*
X126784673Y-107467400D01*
X126900357Y-107456006D01*
X127048783Y-107410982D01*
X127185572Y-107337866D01*
X127305469Y-107239469D01*
X127330128Y-107209422D01*
X130577434Y-103962118D01*
X130607469Y-103937469D01*
X130705866Y-103817572D01*
X130778982Y-103680783D01*
X130824006Y-103532357D01*
X130835400Y-103416673D01*
X130835400Y-103416664D01*
X130839208Y-103378001D01*
X130835400Y-103339338D01*
X130835400Y-103089534D01*
X130900820Y-103124502D01*
X131020518Y-103160812D01*
X131068490Y-103165537D01*
X131038179Y-103210901D01*
X130971164Y-103372688D01*
X130937000Y-103544441D01*
X130937000Y-103719559D01*
X130971164Y-103891312D01*
X131038179Y-104053099D01*
X131132601Y-104194411D01*
X131132600Y-104830337D01*
X131128792Y-104869000D01*
X131132600Y-104907663D01*
X131132600Y-104907672D01*
X131143994Y-105023356D01*
X131189018Y-105171782D01*
X131262134Y-105308571D01*
X131360531Y-105428469D01*
X131390577Y-105453127D01*
X132236449Y-106299000D01*
X129086850Y-109448600D01*
X101672152Y-109448600D01*
X89118072Y-96894522D01*
X89118072Y-95670000D01*
X89105812Y-95545518D01*
X89069502Y-95425820D01*
X89010537Y-95315506D01*
X88931185Y-95218815D01*
X88834494Y-95139463D01*
X88724180Y-95080498D01*
X88604482Y-95044188D01*
X88480000Y-95031928D01*
X87195214Y-95031928D01*
X97807434Y-84419711D01*
X97837469Y-84395062D01*
X97862119Y-84365026D01*
X97862122Y-84365023D01*
X97935866Y-84275165D01*
X98008982Y-84138376D01*
X98054006Y-83989950D01*
X98054006Y-83989949D01*
X98065400Y-83874266D01*
X98065400Y-83874258D01*
X98069208Y-83835593D01*
X98065400Y-83796928D01*
X98065400Y-79414000D01*
X105191928Y-79414000D01*
X105191928Y-81114000D01*
X105204188Y-81238482D01*
X105240498Y-81358180D01*
X105299463Y-81468494D01*
X105378815Y-81565185D01*
X105475506Y-81644537D01*
X105585820Y-81703502D01*
X105705518Y-81739812D01*
X105830000Y-81752072D01*
X107530000Y-81752072D01*
X107654482Y-81739812D01*
X107774180Y-81703502D01*
X107884494Y-81644537D01*
X107981185Y-81565185D01*
X108060537Y-81468494D01*
X108119502Y-81358180D01*
X108155812Y-81238482D01*
X108168072Y-81114000D01*
X108168072Y-79527400D01*
X121466849Y-79527400D01*
X121718177Y-79778729D01*
X121660688Y-79790164D01*
X121498901Y-79857179D01*
X121353296Y-79954469D01*
X121229469Y-80078296D01*
X121132179Y-80223901D01*
X121065164Y-80385688D01*
X121031000Y-80557441D01*
X121031000Y-80732559D01*
X121065164Y-80904312D01*
X121132179Y-81066099D01*
X121229469Y-81211704D01*
X121353296Y-81335531D01*
X121498901Y-81432821D01*
X121660688Y-81499836D01*
X121832441Y-81534000D01*
X122007559Y-81534000D01*
X122179312Y-81499836D01*
X122341099Y-81432821D01*
X122341729Y-81432400D01*
X122482943Y-81432400D01*
X122535506Y-81475537D01*
X122645820Y-81534502D01*
X122765518Y-81570812D01*
X122890000Y-81583072D01*
X124440000Y-81583072D01*
X124564482Y-81570812D01*
X124684180Y-81534502D01*
X124794494Y-81475537D01*
X124847057Y-81432400D01*
X125530850Y-81432400D01*
X131953100Y-87854651D01*
X131953101Y-91055343D01*
X131953000Y-91055426D01*
X131860275Y-90979329D01*
X131712142Y-90900150D01*
X131551408Y-90851392D01*
X131384250Y-90834928D01*
X130946750Y-90834928D01*
X130779592Y-90851392D01*
X130618858Y-90900150D01*
X130470725Y-90979329D01*
X130340885Y-91085885D01*
X130234329Y-91215725D01*
X130155150Y-91363858D01*
X130106392Y-91524592D01*
X130089928Y-91691750D01*
X130089928Y-92204250D01*
X130106392Y-92371408D01*
X130155150Y-92532142D01*
X130234329Y-92680275D01*
X130323832Y-92789336D01*
X130285164Y-92882688D01*
X130251000Y-93054441D01*
X130251000Y-93229559D01*
X130285164Y-93401312D01*
X130322994Y-93492641D01*
X130315385Y-93498885D01*
X130208829Y-93628725D01*
X130129650Y-93776858D01*
X130080892Y-93937592D01*
X130064428Y-94104750D01*
X130064428Y-94617250D01*
X130080892Y-94784408D01*
X130129650Y-94945142D01*
X130208829Y-95093275D01*
X130315385Y-95223115D01*
X130445225Y-95329671D01*
X130593358Y-95408850D01*
X130754092Y-95457608D01*
X130921250Y-95474072D01*
X131358750Y-95474072D01*
X131525908Y-95457608D01*
X131686642Y-95408850D01*
X131834775Y-95329671D01*
X131927500Y-95253574D01*
X131927600Y-95253657D01*
X131927600Y-95463270D01*
X131927179Y-95463901D01*
X131860164Y-95625688D01*
X131826000Y-95797441D01*
X131826000Y-95972559D01*
X131860164Y-96144312D01*
X131927179Y-96306099D01*
X132024469Y-96451704D01*
X132148296Y-96575531D01*
X132293901Y-96672821D01*
X132455688Y-96739836D01*
X132627441Y-96774000D01*
X132802559Y-96774000D01*
X132974312Y-96739836D01*
X133136099Y-96672821D01*
X133281704Y-96575531D01*
X133405531Y-96451704D01*
X133502821Y-96306099D01*
X133569836Y-96144312D01*
X133604000Y-95972559D01*
X133604000Y-95797441D01*
X133569836Y-95625688D01*
X133502821Y-95463901D01*
X133502400Y-95463271D01*
X133502400Y-95253656D01*
X133539615Y-95223115D01*
X133646171Y-95093275D01*
X133725350Y-94945142D01*
X133758457Y-94836000D01*
X135423928Y-94836000D01*
X135436188Y-94960482D01*
X135472498Y-95080180D01*
X135531463Y-95190494D01*
X135610815Y-95287185D01*
X135707506Y-95366537D01*
X135817820Y-95425502D01*
X135937518Y-95461812D01*
X136062000Y-95474072D01*
X136213750Y-95471000D01*
X136372500Y-95312250D01*
X136372500Y-94488000D01*
X135585750Y-94488000D01*
X135427000Y-94646750D01*
X135423928Y-94836000D01*
X133758457Y-94836000D01*
X133774108Y-94784408D01*
X133790572Y-94617250D01*
X133790572Y-94104750D01*
X133774108Y-93937592D01*
X133758458Y-93886000D01*
X135423928Y-93886000D01*
X135427000Y-94075250D01*
X135585750Y-94234000D01*
X136372500Y-94234000D01*
X136372500Y-93409750D01*
X136213750Y-93251000D01*
X136062000Y-93247928D01*
X135937518Y-93260188D01*
X135817820Y-93296498D01*
X135707506Y-93355463D01*
X135610815Y-93434815D01*
X135531463Y-93531506D01*
X135472498Y-93641820D01*
X135436188Y-93761518D01*
X135423928Y-93886000D01*
X133758458Y-93886000D01*
X133725350Y-93776858D01*
X133646171Y-93628725D01*
X133539615Y-93498885D01*
X133527900Y-93489271D01*
X133527900Y-92840656D01*
X133565115Y-92810115D01*
X133671671Y-92680275D01*
X133750850Y-92532142D01*
X133783957Y-92423000D01*
X135423928Y-92423000D01*
X135436188Y-92547482D01*
X135472498Y-92667180D01*
X135531463Y-92777494D01*
X135610815Y-92874185D01*
X135707506Y-92953537D01*
X135817820Y-93012502D01*
X135937518Y-93048812D01*
X136062000Y-93061072D01*
X136213750Y-93058000D01*
X136372500Y-92899250D01*
X136372500Y-92075000D01*
X135585750Y-92075000D01*
X135427000Y-92233750D01*
X135423928Y-92423000D01*
X133783957Y-92423000D01*
X133799608Y-92371408D01*
X133816072Y-92204250D01*
X133816072Y-91691750D01*
X133799608Y-91524592D01*
X133783958Y-91473000D01*
X135423928Y-91473000D01*
X135427000Y-91662250D01*
X135585750Y-91821000D01*
X136372500Y-91821000D01*
X136372500Y-90996750D01*
X136626500Y-90996750D01*
X136626500Y-91821000D01*
X136646500Y-91821000D01*
X136646500Y-92075000D01*
X136626500Y-92075000D01*
X136626500Y-92899250D01*
X136785250Y-93058000D01*
X136937000Y-93061072D01*
X137061482Y-93048812D01*
X137181180Y-93012502D01*
X137206591Y-92998919D01*
X137185500Y-93104951D01*
X137185500Y-93280069D01*
X137189671Y-93301036D01*
X137181180Y-93296498D01*
X137061482Y-93260188D01*
X136937000Y-93247928D01*
X136785250Y-93251000D01*
X136626500Y-93409750D01*
X136626500Y-94234000D01*
X136646500Y-94234000D01*
X136646500Y-94488000D01*
X136626500Y-94488000D01*
X136626500Y-95312250D01*
X136785250Y-95471000D01*
X136937000Y-95474072D01*
X137061482Y-95461812D01*
X137181180Y-95425502D01*
X137291494Y-95366537D01*
X137358070Y-95311900D01*
X137379725Y-95329671D01*
X137527858Y-95408850D01*
X137688592Y-95457608D01*
X137855750Y-95474072D01*
X138293250Y-95474072D01*
X138460408Y-95457608D01*
X138621142Y-95408850D01*
X138769275Y-95329671D01*
X138899115Y-95223115D01*
X139005671Y-95093275D01*
X139084850Y-94945142D01*
X139133608Y-94784408D01*
X139150072Y-94617250D01*
X139150072Y-94104750D01*
X139133608Y-93937592D01*
X139084850Y-93776858D01*
X139005671Y-93628725D01*
X138906244Y-93507571D01*
X138929336Y-93451822D01*
X138963500Y-93280069D01*
X138963500Y-93104951D01*
X138929336Y-92933198D01*
X138883620Y-92822831D01*
X138899115Y-92810115D01*
X139005671Y-92680275D01*
X139084850Y-92532142D01*
X139133608Y-92371408D01*
X139150072Y-92204250D01*
X139150072Y-91691750D01*
X139133608Y-91524592D01*
X139084850Y-91363858D01*
X139005671Y-91215725D01*
X138899115Y-91085885D01*
X138769275Y-90979329D01*
X138621142Y-90900150D01*
X138460408Y-90851392D01*
X138293250Y-90834928D01*
X137855750Y-90834928D01*
X137688592Y-90851392D01*
X137527858Y-90900150D01*
X137379725Y-90979329D01*
X137358070Y-90997100D01*
X137291494Y-90942463D01*
X137181180Y-90883498D01*
X137061482Y-90847188D01*
X136937000Y-90834928D01*
X136785250Y-90838000D01*
X136626500Y-90996750D01*
X136372500Y-90996750D01*
X136213750Y-90838000D01*
X136062000Y-90834928D01*
X135937518Y-90847188D01*
X135817820Y-90883498D01*
X135707506Y-90942463D01*
X135610815Y-91021815D01*
X135531463Y-91118506D01*
X135472498Y-91228820D01*
X135436188Y-91348518D01*
X135423928Y-91473000D01*
X133783958Y-91473000D01*
X133750850Y-91363858D01*
X133671671Y-91215725D01*
X133565115Y-91085885D01*
X133527900Y-91055344D01*
X133527900Y-87567162D01*
X133531708Y-87528499D01*
X133527900Y-87489836D01*
X133527900Y-87489827D01*
X133516506Y-87374143D01*
X133471482Y-87225717D01*
X133398366Y-87088928D01*
X133299969Y-86969031D01*
X133269929Y-86944378D01*
X126487950Y-80162400D01*
X127681818Y-80162400D01*
X127664188Y-80220518D01*
X127651928Y-80345000D01*
X127651928Y-80945000D01*
X127664188Y-81069482D01*
X127700498Y-81189180D01*
X127759463Y-81299494D01*
X127838815Y-81396185D01*
X127935506Y-81475537D01*
X128045820Y-81534502D01*
X128165518Y-81570812D01*
X128290000Y-81583072D01*
X129840000Y-81583072D01*
X129964482Y-81570812D01*
X130084180Y-81534502D01*
X130194494Y-81475537D01*
X130291185Y-81396185D01*
X130370537Y-81299494D01*
X130429502Y-81189180D01*
X130465812Y-81069482D01*
X130478072Y-80945000D01*
X130478072Y-80345000D01*
X130465812Y-80220518D01*
X130448182Y-80162400D01*
X142836337Y-80162400D01*
X142875000Y-80166208D01*
X142913663Y-80162400D01*
X142913673Y-80162400D01*
X143029357Y-80151006D01*
X143177783Y-80105982D01*
X143291928Y-80044970D01*
X143291928Y-80860000D01*
X143304188Y-80984482D01*
X143340498Y-81104180D01*
X143399463Y-81214494D01*
X143478815Y-81311185D01*
X143575506Y-81390537D01*
X143685820Y-81449502D01*
X143805518Y-81485812D01*
X143930000Y-81498072D01*
X145630000Y-81498072D01*
X145754482Y-81485812D01*
X145874180Y-81449502D01*
X145984494Y-81390537D01*
X146081185Y-81311185D01*
X146160537Y-81214494D01*
X146219502Y-81104180D01*
X146255812Y-80984482D01*
X146268072Y-80860000D01*
X146268072Y-79160000D01*
X146255812Y-79035518D01*
X146219502Y-78915820D01*
X146160537Y-78805506D01*
X146081185Y-78708815D01*
X145984494Y-78629463D01*
X145874180Y-78570498D01*
X145801620Y-78548487D01*
X145933475Y-78416632D01*
X146095990Y-78173411D01*
X146207932Y-77903158D01*
X146265000Y-77616260D01*
X146265000Y-77323740D01*
X146207932Y-77036842D01*
X146095990Y-76766589D01*
X145933475Y-76523368D01*
X145726632Y-76316525D01*
X145483411Y-76154010D01*
X145213158Y-76042068D01*
X144926260Y-75985000D01*
X144633740Y-75985000D01*
X144346842Y-76042068D01*
X144076589Y-76154010D01*
X143833368Y-76316525D01*
X143626525Y-76523368D01*
X143464010Y-76766589D01*
X143352068Y-77036842D01*
X143295000Y-77323740D01*
X143295000Y-77616260D01*
X143332362Y-77804088D01*
X142548850Y-78587600D01*
X130448182Y-78587600D01*
X130465812Y-78529482D01*
X130478072Y-78405000D01*
X130475000Y-78390750D01*
X130316250Y-78232000D01*
X129192000Y-78232000D01*
X129192000Y-78252000D01*
X128938000Y-78252000D01*
X128938000Y-78232000D01*
X127813750Y-78232000D01*
X127655000Y-78390750D01*
X127651928Y-78405000D01*
X127664188Y-78529482D01*
X127681818Y-78587600D01*
X126340952Y-78587600D01*
X125328927Y-77575577D01*
X125304269Y-77545531D01*
X125184372Y-77447134D01*
X125047583Y-77374018D01*
X125032460Y-77369430D01*
X125065812Y-77259482D01*
X125078072Y-77135000D01*
X125078072Y-76535000D01*
X127651928Y-76535000D01*
X127651928Y-77135000D01*
X127664188Y-77259482D01*
X127700498Y-77379180D01*
X127749043Y-77470000D01*
X127700498Y-77560820D01*
X127664188Y-77680518D01*
X127651928Y-77805000D01*
X127655000Y-77819250D01*
X127813750Y-77978000D01*
X128938000Y-77978000D01*
X128938000Y-77958000D01*
X129192000Y-77958000D01*
X129192000Y-77978000D01*
X130316250Y-77978000D01*
X130475000Y-77819250D01*
X130478072Y-77805000D01*
X130465812Y-77680518D01*
X130429502Y-77560820D01*
X130380957Y-77470000D01*
X130429502Y-77379180D01*
X130465812Y-77259482D01*
X130478072Y-77135000D01*
X130478072Y-76535000D01*
X130465812Y-76410518D01*
X130429502Y-76290820D01*
X130370537Y-76180506D01*
X130291185Y-76083815D01*
X130194494Y-76004463D01*
X130084180Y-75945498D01*
X129964482Y-75909188D01*
X129840000Y-75896928D01*
X128290000Y-75896928D01*
X128165518Y-75909188D01*
X128045820Y-75945498D01*
X127935506Y-76004463D01*
X127838815Y-76083815D01*
X127759463Y-76180506D01*
X127700498Y-76290820D01*
X127664188Y-76410518D01*
X127651928Y-76535000D01*
X125078072Y-76535000D01*
X125065812Y-76410518D01*
X125029502Y-76290820D01*
X124970537Y-76180506D01*
X124891185Y-76083815D01*
X124794494Y-76004463D01*
X124684180Y-75945498D01*
X124564482Y-75909188D01*
X124440000Y-75896928D01*
X122890000Y-75896928D01*
X122765518Y-75909188D01*
X122645820Y-75945498D01*
X122535506Y-76004463D01*
X122438815Y-76083815D01*
X122359463Y-76180506D01*
X122300498Y-76290820D01*
X122264188Y-76410518D01*
X122251928Y-76535000D01*
X122251928Y-77135000D01*
X122264188Y-77259482D01*
X122300498Y-77379180D01*
X122349043Y-77470000D01*
X122300498Y-77560820D01*
X122264188Y-77680518D01*
X122251928Y-77805000D01*
X122251928Y-78098019D01*
X122232572Y-78082134D01*
X122095783Y-78009018D01*
X121947357Y-77963994D01*
X121831673Y-77952600D01*
X121831663Y-77952600D01*
X121793000Y-77948792D01*
X121754337Y-77952600D01*
X108148621Y-77952600D01*
X108165000Y-77870260D01*
X108165000Y-77577740D01*
X108107932Y-77290842D01*
X107995990Y-77020589D01*
X107833475Y-76777368D01*
X107626632Y-76570525D01*
X107383411Y-76408010D01*
X107113158Y-76296068D01*
X106826260Y-76239000D01*
X106533740Y-76239000D01*
X106246842Y-76296068D01*
X105976589Y-76408010D01*
X105733368Y-76570525D01*
X105526525Y-76777368D01*
X105364010Y-77020589D01*
X105252068Y-77290842D01*
X105195000Y-77577740D01*
X105195000Y-77870260D01*
X105252068Y-78157158D01*
X105364010Y-78427411D01*
X105526525Y-78670632D01*
X105658380Y-78802487D01*
X105585820Y-78824498D01*
X105475506Y-78883463D01*
X105378815Y-78962815D01*
X105299463Y-79059506D01*
X105240498Y-79169820D01*
X105204188Y-79289518D01*
X105191928Y-79414000D01*
X98065400Y-79414000D01*
X98065400Y-74867941D01*
X121412000Y-74867941D01*
X121412000Y-75043059D01*
X121446164Y-75214812D01*
X121513179Y-75376599D01*
X121610469Y-75522204D01*
X121734296Y-75646031D01*
X121879901Y-75743321D01*
X122041688Y-75810336D01*
X122213441Y-75844500D01*
X122388559Y-75844500D01*
X122560312Y-75810336D01*
X122722099Y-75743321D01*
X122867704Y-75646031D01*
X122991531Y-75522204D01*
X123088821Y-75376599D01*
X123155836Y-75214812D01*
X123155984Y-75214066D01*
X124485979Y-73884072D01*
X124704250Y-73884072D01*
X124871408Y-73867608D01*
X125032142Y-73818850D01*
X125180275Y-73739671D01*
X125310115Y-73633115D01*
X125416671Y-73503275D01*
X125495850Y-73355142D01*
X125528957Y-73246000D01*
X127168928Y-73246000D01*
X127181188Y-73370482D01*
X127217498Y-73490180D01*
X127276463Y-73600494D01*
X127355815Y-73697185D01*
X127452506Y-73776537D01*
X127562820Y-73835502D01*
X127682518Y-73871812D01*
X127807000Y-73884072D01*
X127958750Y-73881000D01*
X128117500Y-73722250D01*
X128117500Y-72898000D01*
X127330750Y-72898000D01*
X127172000Y-73056750D01*
X127168928Y-73246000D01*
X125528957Y-73246000D01*
X125544608Y-73194408D01*
X125561072Y-73027250D01*
X125561072Y-72514750D01*
X125544608Y-72347592D01*
X125528958Y-72296000D01*
X127168928Y-72296000D01*
X127172000Y-72485250D01*
X127330750Y-72644000D01*
X128117500Y-72644000D01*
X128117500Y-71819750D01*
X127958750Y-71661000D01*
X127807000Y-71657928D01*
X127682518Y-71670188D01*
X127562820Y-71706498D01*
X127452506Y-71765463D01*
X127355815Y-71844815D01*
X127276463Y-71941506D01*
X127217498Y-72051820D01*
X127181188Y-72171518D01*
X127168928Y-72296000D01*
X125528958Y-72296000D01*
X125495850Y-72186858D01*
X125416671Y-72038725D01*
X125310115Y-71908885D01*
X125272900Y-71878344D01*
X125272900Y-71250656D01*
X125310115Y-71220115D01*
X125416671Y-71090275D01*
X125495850Y-70942142D01*
X125528957Y-70833000D01*
X127168928Y-70833000D01*
X127181188Y-70957482D01*
X127217498Y-71077180D01*
X127276463Y-71187494D01*
X127355815Y-71284185D01*
X127452506Y-71363537D01*
X127562820Y-71422502D01*
X127682518Y-71458812D01*
X127807000Y-71471072D01*
X127958750Y-71468000D01*
X128117500Y-71309250D01*
X128117500Y-70485000D01*
X127330750Y-70485000D01*
X127172000Y-70643750D01*
X127168928Y-70833000D01*
X125528957Y-70833000D01*
X125544608Y-70781408D01*
X125561072Y-70614250D01*
X125561072Y-70101750D01*
X125544608Y-69934592D01*
X125528958Y-69883000D01*
X127168928Y-69883000D01*
X127172000Y-70072250D01*
X127330750Y-70231000D01*
X128117500Y-70231000D01*
X128117500Y-69406750D01*
X128371500Y-69406750D01*
X128371500Y-70231000D01*
X128391500Y-70231000D01*
X128391500Y-70485000D01*
X128371500Y-70485000D01*
X128371500Y-71309250D01*
X128530250Y-71468000D01*
X128682000Y-71471072D01*
X128806482Y-71458812D01*
X128926180Y-71422502D01*
X128951589Y-71408920D01*
X128930500Y-71514941D01*
X128930500Y-71690059D01*
X128934673Y-71711038D01*
X128926180Y-71706498D01*
X128806482Y-71670188D01*
X128682000Y-71657928D01*
X128530250Y-71661000D01*
X128371500Y-71819750D01*
X128371500Y-72644000D01*
X128391500Y-72644000D01*
X128391500Y-72898000D01*
X128371500Y-72898000D01*
X128371500Y-73722250D01*
X128530250Y-73881000D01*
X128682000Y-73884072D01*
X128806482Y-73871812D01*
X128926180Y-73835502D01*
X129036494Y-73776537D01*
X129103070Y-73721900D01*
X129124725Y-73739671D01*
X129272858Y-73818850D01*
X129433592Y-73867608D01*
X129600750Y-73884072D01*
X130038250Y-73884072D01*
X130205408Y-73867608D01*
X130366142Y-73818850D01*
X130514275Y-73739671D01*
X130644115Y-73633115D01*
X130750671Y-73503275D01*
X130829850Y-73355142D01*
X130878608Y-73194408D01*
X130895072Y-73027250D01*
X130895072Y-72514750D01*
X130878608Y-72347592D01*
X130829850Y-72186858D01*
X130750671Y-72038725D01*
X130651241Y-71917568D01*
X130674336Y-71861812D01*
X130708500Y-71690059D01*
X130708500Y-71514941D01*
X130674336Y-71343188D01*
X130628623Y-71232829D01*
X130644115Y-71220115D01*
X130750671Y-71090275D01*
X130829850Y-70942142D01*
X130878608Y-70781408D01*
X130895072Y-70614250D01*
X130895072Y-70101750D01*
X130878608Y-69934592D01*
X130829850Y-69773858D01*
X130750671Y-69625725D01*
X130644115Y-69495885D01*
X130514275Y-69389329D01*
X130366142Y-69310150D01*
X130205408Y-69261392D01*
X130038250Y-69244928D01*
X129600750Y-69244928D01*
X129433592Y-69261392D01*
X129272858Y-69310150D01*
X129124725Y-69389329D01*
X129103070Y-69407100D01*
X129036494Y-69352463D01*
X128926180Y-69293498D01*
X128806482Y-69257188D01*
X128682000Y-69244928D01*
X128530250Y-69248000D01*
X128371500Y-69406750D01*
X128117500Y-69406750D01*
X127958750Y-69248000D01*
X127807000Y-69244928D01*
X127682518Y-69257188D01*
X127562820Y-69293498D01*
X127452506Y-69352463D01*
X127355815Y-69431815D01*
X127276463Y-69528506D01*
X127217498Y-69638820D01*
X127181188Y-69758518D01*
X127168928Y-69883000D01*
X125528958Y-69883000D01*
X125495850Y-69773858D01*
X125416671Y-69625725D01*
X125310115Y-69495885D01*
X125180275Y-69389329D01*
X125032142Y-69310150D01*
X124871408Y-69261392D01*
X124704250Y-69244928D01*
X124266750Y-69244928D01*
X124099592Y-69261392D01*
X123938858Y-69310150D01*
X123790725Y-69389329D01*
X123698000Y-69465426D01*
X123605275Y-69389329D01*
X123457142Y-69310150D01*
X123296408Y-69261392D01*
X123129250Y-69244928D01*
X122691750Y-69244928D01*
X122524592Y-69261392D01*
X122363858Y-69310150D01*
X122215725Y-69389329D01*
X122085885Y-69495885D01*
X121979329Y-69625725D01*
X121900150Y-69773858D01*
X121851392Y-69934592D01*
X121834928Y-70101750D01*
X121834928Y-70614250D01*
X121851392Y-70781408D01*
X121900150Y-70942142D01*
X121979329Y-71090275D01*
X122078759Y-71211432D01*
X122055664Y-71267188D01*
X122021500Y-71438941D01*
X122021500Y-71614059D01*
X122055664Y-71785812D01*
X122101377Y-71896171D01*
X122085885Y-71908885D01*
X121979329Y-72038725D01*
X121900150Y-72186858D01*
X121851392Y-72347592D01*
X121834928Y-72514750D01*
X121834928Y-73027250D01*
X121851392Y-73194408D01*
X121900150Y-73355142D01*
X121979329Y-73503275D01*
X122085885Y-73633115D01*
X122215725Y-73739671D01*
X122337948Y-73805001D01*
X122042434Y-74100516D01*
X122041688Y-74100664D01*
X121879901Y-74167679D01*
X121734296Y-74264969D01*
X121610469Y-74388796D01*
X121513179Y-74534401D01*
X121446164Y-74696188D01*
X121412000Y-74867941D01*
X98065400Y-74867941D01*
X98065400Y-74805072D01*
X99308000Y-74805072D01*
X99432482Y-74792812D01*
X99552180Y-74756502D01*
X99662494Y-74697537D01*
X99759185Y-74618185D01*
X99838537Y-74521494D01*
X99897502Y-74411180D01*
X99933812Y-74291482D01*
X99946072Y-74167000D01*
X99946072Y-70867000D01*
X99933812Y-70742518D01*
X99897502Y-70622820D01*
X99838537Y-70512506D01*
X99759185Y-70415815D01*
X99662494Y-70336463D01*
X99552180Y-70277498D01*
X99432482Y-70241188D01*
X99308000Y-70228928D01*
X95248000Y-70228928D01*
X95123518Y-70241188D01*
X95003820Y-70277498D01*
X94893506Y-70336463D01*
X94796815Y-70415815D01*
X94717463Y-70512506D01*
X94658498Y-70622820D01*
X94622188Y-70742518D01*
X94609928Y-70867000D01*
X94609928Y-74167000D01*
X94622188Y-74291482D01*
X94658498Y-74411180D01*
X94717463Y-74521494D01*
X94796815Y-74618185D01*
X94893506Y-74697537D01*
X95003820Y-74756502D01*
X95123518Y-74792812D01*
X95248000Y-74805072D01*
X96490600Y-74805072D01*
X96490601Y-79463317D01*
X96490600Y-79463327D01*
X96490600Y-79925672D01*
X96490601Y-79925682D01*
X96490600Y-81495472D01*
X96490601Y-81495482D01*
X96490600Y-83509441D01*
X88925400Y-91074642D01*
X88925400Y-81160072D01*
X91313000Y-81160072D01*
X91437482Y-81147812D01*
X91557180Y-81111502D01*
X91667494Y-81052537D01*
X91764185Y-80973185D01*
X91843537Y-80876494D01*
X91902502Y-80766180D01*
X91938812Y-80646482D01*
X91951072Y-80522000D01*
X91951072Y-76712000D01*
X91938812Y-76587518D01*
X91902502Y-76467820D01*
X91843537Y-76357506D01*
X91764185Y-76260815D01*
X91667494Y-76181463D01*
X91557180Y-76122498D01*
X91437482Y-76086188D01*
X91313000Y-76073928D01*
X88925400Y-76073928D01*
X88925400Y-68365441D01*
X97536000Y-68365441D01*
X97536000Y-68540559D01*
X97570164Y-68712312D01*
X97637179Y-68874099D01*
X97734469Y-69019704D01*
X97858296Y-69143531D01*
X98003901Y-69240821D01*
X98165688Y-69307836D01*
X98337441Y-69342000D01*
X98512559Y-69342000D01*
X98684312Y-69307836D01*
X98846099Y-69240821D01*
X98846729Y-69240400D01*
X98967139Y-69240400D01*
X98969053Y-69246709D01*
X99050542Y-69399164D01*
X99160208Y-69532792D01*
X99293836Y-69642458D01*
X99446291Y-69723947D01*
X99611715Y-69774128D01*
X99783750Y-69791072D01*
X100271250Y-69791072D01*
X100443285Y-69774128D01*
X100608709Y-69723947D01*
X100761164Y-69642458D01*
X100894792Y-69532792D01*
X100965000Y-69447244D01*
X101035208Y-69532792D01*
X101168836Y-69642458D01*
X101321291Y-69723947D01*
X101486715Y-69774128D01*
X101658750Y-69791072D01*
X102146250Y-69791072D01*
X102318285Y-69774128D01*
X102483709Y-69723947D01*
X102636164Y-69642458D01*
X102769792Y-69532792D01*
X102879458Y-69399164D01*
X102960947Y-69246709D01*
X102962861Y-69240400D01*
X103101569Y-69240400D01*
X103162885Y-69315115D01*
X103292725Y-69421671D01*
X103440858Y-69500850D01*
X103601592Y-69549608D01*
X103768750Y-69566072D01*
X104206250Y-69566072D01*
X104373408Y-69549608D01*
X104534142Y-69500850D01*
X104682275Y-69421671D01*
X104703930Y-69403900D01*
X104770506Y-69458537D01*
X104880820Y-69517502D01*
X105000518Y-69553812D01*
X105125000Y-69566072D01*
X105276750Y-69563000D01*
X105435500Y-69404250D01*
X105435500Y-68580000D01*
X105689500Y-68580000D01*
X105689500Y-69404250D01*
X105848250Y-69563000D01*
X106000000Y-69566072D01*
X106124482Y-69553812D01*
X106244180Y-69517502D01*
X106354494Y-69458537D01*
X106451185Y-69379185D01*
X106530537Y-69282494D01*
X106589502Y-69172180D01*
X106625812Y-69052482D01*
X106638072Y-68928000D01*
X106635000Y-68738750D01*
X106476250Y-68580000D01*
X105689500Y-68580000D01*
X105435500Y-68580000D01*
X105415500Y-68580000D01*
X105415500Y-68326000D01*
X105435500Y-68326000D01*
X105435500Y-67501750D01*
X105689500Y-67501750D01*
X105689500Y-68326000D01*
X106476250Y-68326000D01*
X106635000Y-68167250D01*
X106638072Y-67978000D01*
X106625812Y-67853518D01*
X106589502Y-67733820D01*
X106530537Y-67623506D01*
X106451185Y-67526815D01*
X106354494Y-67447463D01*
X106244180Y-67388498D01*
X106124482Y-67352188D01*
X106000000Y-67339928D01*
X105848250Y-67343000D01*
X105689500Y-67501750D01*
X105435500Y-67501750D01*
X105276750Y-67343000D01*
X105125000Y-67339928D01*
X105000518Y-67352188D01*
X104880820Y-67388498D01*
X104770506Y-67447463D01*
X104703930Y-67502100D01*
X104682275Y-67484329D01*
X104534142Y-67405150D01*
X104373408Y-67356392D01*
X104206250Y-67339928D01*
X103768750Y-67339928D01*
X103601592Y-67356392D01*
X103440858Y-67405150D01*
X103292725Y-67484329D01*
X103162885Y-67590885D01*
X103101569Y-67665600D01*
X102962861Y-67665600D01*
X102960947Y-67659291D01*
X102879458Y-67506836D01*
X102769792Y-67373208D01*
X102636164Y-67263542D01*
X102483709Y-67182053D01*
X102318285Y-67131872D01*
X102146250Y-67114928D01*
X101658750Y-67114928D01*
X101486715Y-67131872D01*
X101321291Y-67182053D01*
X101168836Y-67263542D01*
X101035208Y-67373208D01*
X100965000Y-67458756D01*
X100894792Y-67373208D01*
X100761164Y-67263542D01*
X100608709Y-67182053D01*
X100443285Y-67131872D01*
X100271250Y-67114928D01*
X99783750Y-67114928D01*
X99611715Y-67131872D01*
X99446291Y-67182053D01*
X99293836Y-67263542D01*
X99160208Y-67373208D01*
X99050542Y-67506836D01*
X98969053Y-67659291D01*
X98967139Y-67665600D01*
X98846729Y-67665600D01*
X98846099Y-67665179D01*
X98684312Y-67598164D01*
X98512559Y-67564000D01*
X98337441Y-67564000D01*
X98165688Y-67598164D01*
X98003901Y-67665179D01*
X97858296Y-67762469D01*
X97734469Y-67886296D01*
X97637179Y-68031901D01*
X97570164Y-68193688D01*
X97536000Y-68365441D01*
X88925400Y-68365441D01*
X88925400Y-67870072D01*
X91018000Y-67870072D01*
X91142482Y-67857812D01*
X91262180Y-67821502D01*
X91372494Y-67762537D01*
X91469185Y-67683185D01*
X91548537Y-67586494D01*
X91607502Y-67476180D01*
X91643812Y-67356482D01*
X91656072Y-67232000D01*
X91656072Y-63422000D01*
X91643812Y-63297518D01*
X91607502Y-63177820D01*
X91548537Y-63067506D01*
X91469185Y-62970815D01*
X91372494Y-62891463D01*
X91262180Y-62832498D01*
X91142482Y-62796188D01*
X91018000Y-62783928D01*
X85258000Y-62783928D01*
X85133518Y-62796188D01*
X85013820Y-62832498D01*
X84903506Y-62891463D01*
X84806815Y-62970815D01*
X84727463Y-63067506D01*
X84668498Y-63177820D01*
X84632188Y-63297518D01*
X84619928Y-63422000D01*
X84619928Y-67232000D01*
X84632188Y-67356482D01*
X84668498Y-67476180D01*
X84727463Y-67586494D01*
X84806815Y-67683185D01*
X84903506Y-67762537D01*
X85013820Y-67821502D01*
X85133518Y-67857812D01*
X85258000Y-67870072D01*
X87350600Y-67870072D01*
X87350601Y-72273318D01*
X87350600Y-72273328D01*
X87350600Y-76073928D01*
X84963000Y-76073928D01*
X84838518Y-76086188D01*
X84718820Y-76122498D01*
X84608506Y-76181463D01*
X84511815Y-76260815D01*
X84432463Y-76357506D01*
X84373498Y-76467820D01*
X84337188Y-76587518D01*
X84324928Y-76712000D01*
X84324928Y-80522000D01*
X84337188Y-80646482D01*
X84373498Y-80766180D01*
X84432463Y-80876494D01*
X84511815Y-80973185D01*
X84608506Y-81052537D01*
X84718820Y-81111502D01*
X84838518Y-81147812D01*
X84963000Y-81160072D01*
X87350601Y-81160072D01*
X87350601Y-85563327D01*
X87350600Y-92002848D01*
X83671562Y-95681888D01*
X83641521Y-95706542D01*
X83581704Y-95779429D01*
X83543124Y-95826439D01*
X83470007Y-95963229D01*
X83424984Y-96111654D01*
X83409781Y-96266011D01*
X81940000Y-96266011D01*
X81940000Y-62118212D01*
X200795000Y-62118212D01*
X200795000Y-62341788D01*
X200838617Y-62561067D01*
X200924176Y-62767624D01*
X201048388Y-62953520D01*
X201206480Y-63111612D01*
X201392376Y-63235824D01*
X201598933Y-63321383D01*
X201818212Y-63365000D01*
X202041788Y-63365000D01*
X202261067Y-63321383D01*
X202467624Y-63235824D01*
X202653520Y-63111612D01*
X202811612Y-62953520D01*
X202935824Y-62767624D01*
X203021383Y-62561067D01*
X203065000Y-62341788D01*
X203065000Y-62118212D01*
X203021383Y-61898933D01*
X202935824Y-61692376D01*
X202811612Y-61506480D01*
X202653520Y-61348388D01*
X202467624Y-61224176D01*
X202261067Y-61138617D01*
X202041788Y-61095000D01*
X201818212Y-61095000D01*
X201598933Y-61138617D01*
X201392376Y-61224176D01*
X201206480Y-61348388D01*
X201048388Y-61506480D01*
X200924176Y-61692376D01*
X200838617Y-61898933D01*
X200795000Y-62118212D01*
X81940000Y-62118212D01*
X81940000Y-58834872D01*
X82220000Y-58834872D01*
X82220000Y-59275128D01*
X82305890Y-59706925D01*
X82474369Y-60113669D01*
X82718962Y-60479729D01*
X83030271Y-60791038D01*
X83396331Y-61035631D01*
X83803075Y-61204110D01*
X84234872Y-61290000D01*
X84675128Y-61290000D01*
X85106925Y-61204110D01*
X85513669Y-61035631D01*
X85879729Y-60791038D01*
X86191038Y-60479729D01*
X86435631Y-60113669D01*
X86604110Y-59706925D01*
X86690000Y-59275128D01*
X86690000Y-58834872D01*
X202870000Y-58834872D01*
X202870000Y-59275128D01*
X202955890Y-59706925D01*
X203124369Y-60113669D01*
X203368962Y-60479729D01*
X203680271Y-60791038D01*
X204046331Y-61035631D01*
X204453075Y-61204110D01*
X204884872Y-61290000D01*
X205325128Y-61290000D01*
X205756925Y-61204110D01*
X206163669Y-61035631D01*
X206529729Y-60791038D01*
X206841038Y-60479729D01*
X207085631Y-60113669D01*
X207254110Y-59706925D01*
X207340000Y-59275128D01*
X207340000Y-58834872D01*
X207254110Y-58403075D01*
X207085631Y-57996331D01*
X206841038Y-57630271D01*
X206529729Y-57318962D01*
X206163669Y-57074369D01*
X205756925Y-56905890D01*
X205325128Y-56820000D01*
X204884872Y-56820000D01*
X204453075Y-56905890D01*
X204046331Y-57074369D01*
X203680271Y-57318962D01*
X203368962Y-57630271D01*
X203124369Y-57996331D01*
X202955890Y-58403075D01*
X202870000Y-58834872D01*
X86690000Y-58834872D01*
X86604110Y-58403075D01*
X86435631Y-57996331D01*
X86191038Y-57630271D01*
X85879729Y-57318962D01*
X85513669Y-57074369D01*
X85106925Y-56905890D01*
X84675128Y-56820000D01*
X84234872Y-56820000D01*
X83803075Y-56905890D01*
X83396331Y-57074369D01*
X83030271Y-57318962D01*
X82718962Y-57630271D01*
X82474369Y-57996331D01*
X82305890Y-58403075D01*
X82220000Y-58834872D01*
X81940000Y-58834872D01*
X81940000Y-58452279D01*
X81978909Y-58055455D01*
X82084780Y-57704792D01*
X82256744Y-57381375D01*
X82488254Y-57097516D01*
X82770486Y-56864035D01*
X83092695Y-56689817D01*
X83442614Y-56581498D01*
X83837443Y-56540000D01*
X205707721Y-56540000D01*
X206104545Y-56578909D01*
%TA.AperFunction,Conductor*%
D23*
G36*
X206104545Y-56578909D02*
G01*
X206455208Y-56684780D01*
X206778625Y-56856744D01*
X207062484Y-57088254D01*
X207295965Y-57370486D01*
X207470183Y-57692695D01*
X207578502Y-58042614D01*
X207620000Y-58437443D01*
X207620001Y-142207711D01*
X207581091Y-142604545D01*
X207475220Y-142955206D01*
X207303257Y-143278623D01*
X207071748Y-143562482D01*
X206789514Y-143795965D01*
X206467304Y-143970184D01*
X206117385Y-144078502D01*
X205722557Y-144120000D01*
X83852279Y-144120000D01*
X83455455Y-144081091D01*
X83104794Y-143975220D01*
X82781377Y-143803257D01*
X82497518Y-143571748D01*
X82264035Y-143289514D01*
X82089816Y-142967304D01*
X81981498Y-142617385D01*
X81940000Y-142222557D01*
X81940000Y-141384872D01*
X82220000Y-141384872D01*
X82220000Y-141825128D01*
X82305890Y-142256925D01*
X82474369Y-142663669D01*
X82718962Y-143029729D01*
X83030271Y-143341038D01*
X83396331Y-143585631D01*
X83803075Y-143754110D01*
X84234872Y-143840000D01*
X84675128Y-143840000D01*
X85106925Y-143754110D01*
X85513669Y-143585631D01*
X85879729Y-143341038D01*
X86191038Y-143029729D01*
X86435631Y-142663669D01*
X86604110Y-142256925D01*
X86690000Y-141825128D01*
X86690000Y-141384872D01*
X202870000Y-141384872D01*
X202870000Y-141825128D01*
X202955890Y-142256925D01*
X203124369Y-142663669D01*
X203368962Y-143029729D01*
X203680271Y-143341038D01*
X204046331Y-143585631D01*
X204453075Y-143754110D01*
X204884872Y-143840000D01*
X205325128Y-143840000D01*
X205756925Y-143754110D01*
X206163669Y-143585631D01*
X206529729Y-143341038D01*
X206841038Y-143029729D01*
X207085631Y-142663669D01*
X207254110Y-142256925D01*
X207340000Y-141825128D01*
X207340000Y-141384872D01*
X207254110Y-140953075D01*
X207085631Y-140546331D01*
X206841038Y-140180271D01*
X206529729Y-139868962D01*
X206163669Y-139624369D01*
X205756925Y-139455890D01*
X205325128Y-139370000D01*
X204884872Y-139370000D01*
X204453075Y-139455890D01*
X204046331Y-139624369D01*
X203680271Y-139868962D01*
X203368962Y-140180271D01*
X203124369Y-140546331D01*
X202955890Y-140953075D01*
X202870000Y-141384872D01*
X86690000Y-141384872D01*
X86604110Y-140953075D01*
X86435631Y-140546331D01*
X86191038Y-140180271D01*
X85879729Y-139868962D01*
X85513669Y-139624369D01*
X85106925Y-139455890D01*
X84675128Y-139370000D01*
X84234872Y-139370000D01*
X83803075Y-139455890D01*
X83396331Y-139624369D01*
X83030271Y-139868962D01*
X82718962Y-140180271D01*
X82474369Y-140546331D01*
X82305890Y-140953075D01*
X82220000Y-141384872D01*
X81940000Y-141384872D01*
X81940000Y-138318212D01*
X86495000Y-138318212D01*
X86495000Y-138541788D01*
X86538617Y-138761067D01*
X86624176Y-138967624D01*
X86748388Y-139153520D01*
X86906480Y-139311612D01*
X87092376Y-139435824D01*
X87298933Y-139521383D01*
X87518212Y-139565000D01*
X87741788Y-139565000D01*
X87961067Y-139521383D01*
X88167624Y-139435824D01*
X88353520Y-139311612D01*
X88511612Y-139153520D01*
X88635824Y-138967624D01*
X88721383Y-138761067D01*
X88765000Y-138541788D01*
X88765000Y-138318212D01*
X88721383Y-138098933D01*
X88635824Y-137892376D01*
X88511612Y-137706480D01*
X88353520Y-137548388D01*
X88167624Y-137424176D01*
X87961067Y-137338617D01*
X87741788Y-137295000D01*
X87518212Y-137295000D01*
X87298933Y-137338617D01*
X87092376Y-137424176D01*
X86906480Y-137548388D01*
X86748388Y-137706480D01*
X86624176Y-137892376D01*
X86538617Y-138098933D01*
X86495000Y-138318212D01*
X81940000Y-138318212D01*
X81940000Y-96266011D01*
X83409781Y-96266011D01*
X83413590Y-96304684D01*
X83413589Y-129552326D01*
X83409781Y-129590989D01*
X83413589Y-129629652D01*
X83413589Y-129629661D01*
X83424983Y-129745345D01*
X83470007Y-129893771D01*
X83543123Y-130030560D01*
X83641520Y-130150458D01*
X83671566Y-130175117D01*
X85043577Y-131547129D01*
X85020500Y-131663146D01*
X85020500Y-131936854D01*
X85073898Y-132205302D01*
X85178641Y-132458175D01*
X85330705Y-132685754D01*
X85524246Y-132879295D01*
X85751825Y-133031359D01*
X86004698Y-133136102D01*
X86273146Y-133189500D01*
X86546854Y-133189500D01*
X86815302Y-133136102D01*
X87068175Y-133031359D01*
X87295754Y-132879295D01*
X87489295Y-132685754D01*
X87641359Y-132458175D01*
X87746102Y-132205302D01*
X87799500Y-131936854D01*
X87799500Y-131663146D01*
X87746102Y-131394698D01*
X87641359Y-131141825D01*
X87489295Y-130914246D01*
X87295754Y-130720705D01*
X87068175Y-130568641D01*
X86974887Y-130530000D01*
X87068175Y-130491359D01*
X87295754Y-130339295D01*
X87489295Y-130145754D01*
X87641359Y-129918175D01*
X87746102Y-129665302D01*
X87799500Y-129396854D01*
X87799500Y-129123146D01*
X87746102Y-128854698D01*
X87641359Y-128601825D01*
X87489295Y-128374246D01*
X87295754Y-128180705D01*
X87068175Y-128028641D01*
X86974887Y-127990000D01*
X87068175Y-127951359D01*
X87295754Y-127799295D01*
X87489295Y-127605754D01*
X87641359Y-127378175D01*
X87746102Y-127125302D01*
X87799500Y-126856854D01*
X87799500Y-126583146D01*
X87746102Y-126314698D01*
X87641359Y-126061825D01*
X87489295Y-125834246D01*
X87295754Y-125640705D01*
X87068175Y-125488641D01*
X86815302Y-125383898D01*
X86546854Y-125330500D01*
X86273146Y-125330500D01*
X86004698Y-125383898D01*
X85751825Y-125488641D01*
X85524246Y-125640705D01*
X85445600Y-125719351D01*
X85445600Y-122640649D01*
X85524246Y-122719295D01*
X85751825Y-122871359D01*
X86004698Y-122976102D01*
X86273146Y-123029500D01*
X86546854Y-123029500D01*
X86815302Y-122976102D01*
X87068175Y-122871359D01*
X87295754Y-122719295D01*
X87489295Y-122525754D01*
X87613412Y-122340000D01*
X105191928Y-122340000D01*
X105191928Y-124040000D01*
X105204188Y-124164482D01*
X105240498Y-124284180D01*
X105299463Y-124394494D01*
X105378815Y-124491185D01*
X105475506Y-124570537D01*
X105585820Y-124629502D01*
X105705518Y-124665812D01*
X105830000Y-124678072D01*
X107530000Y-124678072D01*
X107654482Y-124665812D01*
X107774180Y-124629502D01*
X107884494Y-124570537D01*
X107981185Y-124491185D01*
X108060537Y-124394494D01*
X108119502Y-124284180D01*
X108155812Y-124164482D01*
X108168072Y-124040000D01*
X108168072Y-122340000D01*
X108155812Y-122215518D01*
X108119502Y-122095820D01*
X108060537Y-121985506D01*
X107981185Y-121888815D01*
X107884494Y-121809463D01*
X107774180Y-121750498D01*
X107701620Y-121728487D01*
X107833475Y-121596632D01*
X107995990Y-121353411D01*
X108107932Y-121083158D01*
X108165000Y-120796260D01*
X108165000Y-120503740D01*
X108127639Y-120315913D01*
X108276152Y-120167400D01*
X112626569Y-120167400D01*
X112687885Y-120242115D01*
X112725101Y-120272657D01*
X112725100Y-121027343D01*
X112687885Y-121057885D01*
X112581329Y-121187725D01*
X112502150Y-121335858D01*
X112453392Y-121496592D01*
X112436928Y-121663750D01*
X112436928Y-122176250D01*
X112453392Y-122343408D01*
X112502150Y-122504142D01*
X112581329Y-122652275D01*
X112687885Y-122782115D01*
X112725101Y-122812657D01*
X112725100Y-123567343D01*
X112687885Y-123597885D01*
X112581329Y-123727725D01*
X112502150Y-123875858D01*
X112453392Y-124036592D01*
X112436928Y-124203750D01*
X112436928Y-124716250D01*
X112453392Y-124883408D01*
X112502150Y-125044142D01*
X112581329Y-125192275D01*
X112687885Y-125322115D01*
X112725101Y-125352657D01*
X112725100Y-126107343D01*
X112687885Y-126137885D01*
X112581329Y-126267725D01*
X112502150Y-126415858D01*
X112453392Y-126576592D01*
X112436928Y-126743750D01*
X112436928Y-127256250D01*
X112453392Y-127423408D01*
X112502150Y-127584142D01*
X112581329Y-127732275D01*
X112687885Y-127862115D01*
X112817725Y-127968671D01*
X112965858Y-128047850D01*
X113126592Y-128096608D01*
X113293750Y-128113072D01*
X113731250Y-128113072D01*
X113898408Y-128096608D01*
X114059142Y-128047850D01*
X114207275Y-127968671D01*
X114300000Y-127892574D01*
X114392725Y-127968671D01*
X114540858Y-128047850D01*
X114701592Y-128096608D01*
X114868750Y-128113072D01*
X115306250Y-128113072D01*
X115473408Y-128096608D01*
X115634142Y-128047850D01*
X115782275Y-127968671D01*
X115912115Y-127862115D01*
X115973431Y-127787400D01*
X120611337Y-127787400D01*
X120650000Y-127791208D01*
X120688663Y-127787400D01*
X120688673Y-127787400D01*
X120804357Y-127776006D01*
X120952783Y-127730982D01*
X121089572Y-127657866D01*
X121209469Y-127559469D01*
X121234127Y-127529423D01*
X121752596Y-127010954D01*
X121793045Y-127019000D01*
X122046955Y-127019000D01*
X122295987Y-126969465D01*
X122530570Y-126872297D01*
X122741690Y-126731232D01*
X122921232Y-126551690D01*
X123062297Y-126340570D01*
X123159465Y-126105987D01*
X123190000Y-125952476D01*
X123220535Y-126105987D01*
X123317703Y-126340570D01*
X123458768Y-126551690D01*
X123638310Y-126731232D01*
X123849430Y-126872297D01*
X124084013Y-126969465D01*
X124333045Y-127019000D01*
X124586955Y-127019000D01*
X124835987Y-126969465D01*
X125070570Y-126872297D01*
X125281690Y-126731232D01*
X125461232Y-126551690D01*
X125602297Y-126340570D01*
X125699465Y-126105987D01*
X125730000Y-125952476D01*
X125760535Y-126105987D01*
X125857703Y-126340570D01*
X125998768Y-126551690D01*
X126178310Y-126731232D01*
X126389430Y-126872297D01*
X126624013Y-126969465D01*
X126873045Y-127019000D01*
X127126955Y-127019000D01*
X127375987Y-126969465D01*
X127610570Y-126872297D01*
X127821690Y-126731232D01*
X128001232Y-126551690D01*
X128142297Y-126340570D01*
X128239465Y-126105987D01*
X128289000Y-125856955D01*
X128289000Y-125603045D01*
X128239465Y-125354013D01*
X128142297Y-125119430D01*
X128001232Y-124908310D01*
X127821690Y-124728768D01*
X127610570Y-124587703D01*
X127375987Y-124490535D01*
X127126955Y-124441000D01*
X126873045Y-124441000D01*
X126624013Y-124490535D01*
X126389430Y-124587703D01*
X126178310Y-124728768D01*
X125998768Y-124908310D01*
X125857703Y-125119430D01*
X125760535Y-125354013D01*
X125730000Y-125507524D01*
X125699465Y-125354013D01*
X125602297Y-125119430D01*
X125461232Y-124908310D01*
X125281690Y-124728768D01*
X125070570Y-124587703D01*
X124835987Y-124490535D01*
X124586955Y-124441000D01*
X124333045Y-124441000D01*
X124084013Y-124490535D01*
X123849430Y-124587703D01*
X123638310Y-124728768D01*
X123458768Y-124908310D01*
X123317703Y-125119430D01*
X123220535Y-125354013D01*
X123190000Y-125507524D01*
X123159465Y-125354013D01*
X123062297Y-125119430D01*
X122921232Y-124908310D01*
X122741690Y-124728768D01*
X122530570Y-124587703D01*
X122295987Y-124490535D01*
X122046955Y-124441000D01*
X121793045Y-124441000D01*
X121544013Y-124490535D01*
X121309430Y-124587703D01*
X121098310Y-124728768D01*
X120918768Y-124908310D01*
X120777703Y-125119430D01*
X120680535Y-125354013D01*
X120650000Y-125507524D01*
X120619465Y-125354013D01*
X120522297Y-125119430D01*
X120381232Y-124908310D01*
X120201690Y-124728768D01*
X119990570Y-124587703D01*
X119755987Y-124490535D01*
X119506955Y-124441000D01*
X119253045Y-124441000D01*
X119212596Y-124449046D01*
X118694127Y-123930577D01*
X118669469Y-123900531D01*
X118549572Y-123802134D01*
X118412783Y-123729018D01*
X118264357Y-123683994D01*
X118148673Y-123672600D01*
X118148663Y-123672600D01*
X118110000Y-123668792D01*
X118071337Y-123672600D01*
X115973431Y-123672600D01*
X115912115Y-123597885D01*
X115782275Y-123491329D01*
X115634142Y-123412150D01*
X115473408Y-123363392D01*
X115306250Y-123346928D01*
X114868750Y-123346928D01*
X114701592Y-123363392D01*
X114540858Y-123412150D01*
X114392725Y-123491329D01*
X114300000Y-123567426D01*
X114299900Y-123567344D01*
X114299900Y-122812656D01*
X114300000Y-122812574D01*
X114392725Y-122888671D01*
X114540858Y-122967850D01*
X114701592Y-123016608D01*
X114868750Y-123033072D01*
X115306250Y-123033072D01*
X115473408Y-123016608D01*
X115634142Y-122967850D01*
X115782275Y-122888671D01*
X115912115Y-122782115D01*
X115973431Y-122707400D01*
X126287216Y-122707400D01*
X126309469Y-122740704D01*
X126433296Y-122864531D01*
X126578901Y-122961821D01*
X126740688Y-123028836D01*
X126912441Y-123063000D01*
X127087559Y-123063000D01*
X127259312Y-123028836D01*
X127421099Y-122961821D01*
X127566704Y-122864531D01*
X127690531Y-122740704D01*
X127787821Y-122595099D01*
X127854836Y-122433312D01*
X127889000Y-122261559D01*
X127889000Y-122086441D01*
X127886207Y-122072400D01*
X129428273Y-122072400D01*
X129387179Y-122133901D01*
X129320164Y-122295688D01*
X129286000Y-122467441D01*
X129286000Y-122642559D01*
X129320164Y-122814312D01*
X129387179Y-122976099D01*
X129484469Y-123121704D01*
X129552765Y-123190000D01*
X129484469Y-123258296D01*
X129387179Y-123403901D01*
X129320164Y-123565688D01*
X129286000Y-123737441D01*
X129286000Y-123912559D01*
X129320164Y-124084312D01*
X129387179Y-124246099D01*
X129484469Y-124391704D01*
X129608296Y-124515531D01*
X129753901Y-124612821D01*
X129915688Y-124679836D01*
X130087441Y-124714000D01*
X130262559Y-124714000D01*
X130434312Y-124679836D01*
X130596099Y-124612821D01*
X130596729Y-124612400D01*
X130737943Y-124612400D01*
X130790506Y-124655537D01*
X130900820Y-124714502D01*
X131020518Y-124750812D01*
X131145000Y-124763072D01*
X132695000Y-124763072D01*
X132819482Y-124750812D01*
X132939180Y-124714502D01*
X133045101Y-124657885D01*
X133045101Y-126107343D01*
X133007885Y-126137885D01*
X132901329Y-126267725D01*
X132822150Y-126415858D01*
X132773392Y-126576592D01*
X132756928Y-126743750D01*
X132756928Y-127256250D01*
X132773392Y-127423408D01*
X132822150Y-127584142D01*
X132901329Y-127732275D01*
X133007885Y-127862115D01*
X133137725Y-127968671D01*
X133285858Y-128047850D01*
X133446592Y-128096608D01*
X133613750Y-128113072D01*
X134051250Y-128113072D01*
X134218408Y-128096608D01*
X134379142Y-128047850D01*
X134527275Y-127968671D01*
X134620000Y-127892574D01*
X134712725Y-127968671D01*
X134860858Y-128047850D01*
X135021592Y-128096608D01*
X135188750Y-128113072D01*
X135626250Y-128113072D01*
X135793408Y-128096608D01*
X135954142Y-128047850D01*
X136102275Y-127968671D01*
X136232115Y-127862115D01*
X136293431Y-127787400D01*
X138264337Y-127787400D01*
X138303000Y-127791208D01*
X138341663Y-127787400D01*
X138341673Y-127787400D01*
X138457357Y-127776006D01*
X138605783Y-127730982D01*
X138742572Y-127657866D01*
X138862469Y-127559469D01*
X138887128Y-127529423D01*
X139848429Y-126568122D01*
X139878469Y-126543469D01*
X139938295Y-126470571D01*
X139976866Y-126423573D01*
X140049982Y-126286783D01*
X140058279Y-126259431D01*
X140095006Y-126138357D01*
X140106400Y-126022673D01*
X140106400Y-126022663D01*
X140110208Y-125984000D01*
X140106400Y-125945337D01*
X140106400Y-123770150D01*
X140534151Y-123342400D01*
X142836337Y-123342400D01*
X142875000Y-123346208D01*
X142913663Y-123342400D01*
X142913673Y-123342400D01*
X143029357Y-123331006D01*
X143177783Y-123285982D01*
X143291928Y-123224970D01*
X143291928Y-124040000D01*
X143304188Y-124164482D01*
X143340498Y-124284180D01*
X143399463Y-124394494D01*
X143478815Y-124491185D01*
X143575506Y-124570537D01*
X143685820Y-124629502D01*
X143805518Y-124665812D01*
X143930000Y-124678072D01*
X145630000Y-124678072D01*
X145754482Y-124665812D01*
X145874180Y-124629502D01*
X145984494Y-124570537D01*
X146081185Y-124491185D01*
X146160537Y-124394494D01*
X146219502Y-124284180D01*
X146255812Y-124164482D01*
X146268072Y-124040000D01*
X146268072Y-122340000D01*
X146255812Y-122215518D01*
X146219502Y-122095820D01*
X146160537Y-121985506D01*
X146081185Y-121888815D01*
X145984494Y-121809463D01*
X145874180Y-121750498D01*
X145801620Y-121728487D01*
X145933475Y-121596632D01*
X146095990Y-121353411D01*
X146207932Y-121083158D01*
X146265000Y-120796260D01*
X146265000Y-120503740D01*
X146207932Y-120216842D01*
X146095990Y-119946589D01*
X145933475Y-119703368D01*
X145726632Y-119496525D01*
X145483411Y-119334010D01*
X145213158Y-119222068D01*
X144926260Y-119165000D01*
X144633740Y-119165000D01*
X144346842Y-119222068D01*
X144076589Y-119334010D01*
X143833368Y-119496525D01*
X143626525Y-119703368D01*
X143464010Y-119946589D01*
X143352068Y-120216842D01*
X143295000Y-120503740D01*
X143295000Y-120796260D01*
X143332362Y-120984088D01*
X142548850Y-121767600D01*
X140246663Y-121767600D01*
X140208000Y-121763792D01*
X140169337Y-121767600D01*
X138703182Y-121767600D01*
X138720812Y-121709482D01*
X138733072Y-121585000D01*
X138730000Y-121570750D01*
X138571250Y-121412000D01*
X137447000Y-121412000D01*
X137447000Y-121432000D01*
X137193000Y-121432000D01*
X137193000Y-121412000D01*
X136068750Y-121412000D01*
X135910000Y-121570750D01*
X135906928Y-121585000D01*
X135919188Y-121709482D01*
X135955498Y-121829180D01*
X136004043Y-121920000D01*
X135955498Y-122010820D01*
X135919188Y-122130518D01*
X135906928Y-122255000D01*
X135906928Y-122855000D01*
X135919188Y-122979482D01*
X135955498Y-123099180D01*
X136004043Y-123190000D01*
X135955498Y-123280820D01*
X135919188Y-123400518D01*
X135906928Y-123525000D01*
X135906928Y-124125000D01*
X135919188Y-124249482D01*
X135955498Y-124369180D01*
X136014463Y-124479494D01*
X136093815Y-124576185D01*
X136190506Y-124655537D01*
X136300820Y-124714502D01*
X136420518Y-124750812D01*
X136545000Y-124763072D01*
X138095000Y-124763072D01*
X138219482Y-124750812D01*
X138339180Y-124714502D01*
X138449494Y-124655537D01*
X138531601Y-124588154D01*
X138531600Y-125657849D01*
X137976850Y-126212600D01*
X136293431Y-126212600D01*
X136232115Y-126137885D01*
X136102275Y-126031329D01*
X135954142Y-125952150D01*
X135793408Y-125903392D01*
X135626250Y-125886928D01*
X135188750Y-125886928D01*
X135021592Y-125903392D01*
X134860858Y-125952150D01*
X134712725Y-126031329D01*
X134620000Y-126107426D01*
X134619900Y-126107344D01*
X134619900Y-122156365D01*
X134623708Y-122117700D01*
X134619900Y-122079035D01*
X134619900Y-122079027D01*
X134608506Y-121963343D01*
X134563482Y-121814917D01*
X134490366Y-121678128D01*
X134450202Y-121629188D01*
X134416622Y-121588270D01*
X134416619Y-121588267D01*
X134391969Y-121558231D01*
X134361934Y-121533582D01*
X133583927Y-120755577D01*
X133559269Y-120725531D01*
X133439372Y-120627134D01*
X133302583Y-120554018D01*
X133287460Y-120549430D01*
X133320812Y-120439482D01*
X133333072Y-120315000D01*
X133333072Y-119715000D01*
X135906928Y-119715000D01*
X135906928Y-120315000D01*
X135919188Y-120439482D01*
X135955498Y-120559180D01*
X136004043Y-120650000D01*
X135955498Y-120740820D01*
X135919188Y-120860518D01*
X135906928Y-120985000D01*
X135910000Y-120999250D01*
X136068750Y-121158000D01*
X137193000Y-121158000D01*
X137193000Y-121138000D01*
X137447000Y-121138000D01*
X137447000Y-121158000D01*
X138571250Y-121158000D01*
X138730000Y-120999250D01*
X138733072Y-120985000D01*
X138720812Y-120860518D01*
X138684502Y-120740820D01*
X138635957Y-120650000D01*
X138684502Y-120559180D01*
X138720812Y-120439482D01*
X138733072Y-120315000D01*
X138733072Y-119715000D01*
X138720812Y-119590518D01*
X138684502Y-119470820D01*
X138625537Y-119360506D01*
X138546185Y-119263815D01*
X138449494Y-119184463D01*
X138339180Y-119125498D01*
X138219482Y-119089188D01*
X138095000Y-119076928D01*
X136545000Y-119076928D01*
X136420518Y-119089188D01*
X136300820Y-119125498D01*
X136190506Y-119184463D01*
X136093815Y-119263815D01*
X136014463Y-119360506D01*
X135955498Y-119470820D01*
X135919188Y-119590518D01*
X135906928Y-119715000D01*
X133333072Y-119715000D01*
X133320812Y-119590518D01*
X133284502Y-119470820D01*
X133225537Y-119360506D01*
X133146185Y-119263815D01*
X133049494Y-119184463D01*
X132939180Y-119125498D01*
X132819482Y-119089188D01*
X132695000Y-119076928D01*
X131145000Y-119076928D01*
X131020518Y-119089188D01*
X130900820Y-119125498D01*
X130790506Y-119184463D01*
X130693815Y-119263815D01*
X130614463Y-119360506D01*
X130555498Y-119470820D01*
X130519188Y-119590518D01*
X130506928Y-119715000D01*
X130506928Y-120315000D01*
X130519188Y-120439482D01*
X130536818Y-120497600D01*
X125421151Y-120497600D01*
X124319945Y-119396394D01*
X124333045Y-119399000D01*
X124586955Y-119399000D01*
X124835987Y-119349465D01*
X125070570Y-119252297D01*
X125281690Y-119111232D01*
X125461232Y-118931690D01*
X125602297Y-118720570D01*
X125699465Y-118485987D01*
X125730000Y-118332476D01*
X125760535Y-118485987D01*
X125857703Y-118720570D01*
X125998768Y-118931690D01*
X126178310Y-119111232D01*
X126389430Y-119252297D01*
X126624013Y-119349465D01*
X126873045Y-119399000D01*
X127126955Y-119399000D01*
X127375987Y-119349465D01*
X127610570Y-119252297D01*
X127821690Y-119111232D01*
X128001232Y-118931690D01*
X128142297Y-118720570D01*
X128239465Y-118485987D01*
X128289000Y-118236955D01*
X128289000Y-117983045D01*
X128239465Y-117734013D01*
X128142297Y-117499430D01*
X128001232Y-117288310D01*
X127821690Y-117108768D01*
X127610570Y-116967703D01*
X127375987Y-116870535D01*
X127126955Y-116821000D01*
X126873045Y-116821000D01*
X126624013Y-116870535D01*
X126389430Y-116967703D01*
X126178310Y-117108768D01*
X125998768Y-117288310D01*
X125857703Y-117499430D01*
X125760535Y-117734013D01*
X125730000Y-117887524D01*
X125699465Y-117734013D01*
X125602297Y-117499430D01*
X125461232Y-117288310D01*
X125281690Y-117108768D01*
X125070570Y-116967703D01*
X124835987Y-116870535D01*
X124586955Y-116821000D01*
X124333045Y-116821000D01*
X124084013Y-116870535D01*
X123849430Y-116967703D01*
X123638310Y-117108768D01*
X123458768Y-117288310D01*
X123317703Y-117499430D01*
X123220535Y-117734013D01*
X123190000Y-117887524D01*
X123159465Y-117734013D01*
X123062297Y-117499430D01*
X122921232Y-117288310D01*
X122741690Y-117108768D01*
X122530570Y-116967703D01*
X122295987Y-116870535D01*
X122046955Y-116821000D01*
X121793045Y-116821000D01*
X121544013Y-116870535D01*
X121309430Y-116967703D01*
X121098310Y-117108768D01*
X120918768Y-117288310D01*
X120777703Y-117499430D01*
X120680535Y-117734013D01*
X120672072Y-117776560D01*
X120672072Y-117456000D01*
X120659812Y-117331518D01*
X120623502Y-117211820D01*
X120564537Y-117101506D01*
X120485185Y-117004815D01*
X120388494Y-116925463D01*
X120278180Y-116866498D01*
X120158482Y-116830188D01*
X120034000Y-116817928D01*
X119201479Y-116817928D01*
X118694127Y-116310577D01*
X118669469Y-116280531D01*
X118549572Y-116182134D01*
X118412783Y-116109018D01*
X118264357Y-116063994D01*
X118148673Y-116052600D01*
X118148663Y-116052600D01*
X118110000Y-116048792D01*
X118071337Y-116052600D01*
X115973431Y-116052600D01*
X115912115Y-115977885D01*
X115782275Y-115871329D01*
X115634142Y-115792150D01*
X115473408Y-115743392D01*
X115306250Y-115726928D01*
X114868750Y-115726928D01*
X114701592Y-115743392D01*
X114540858Y-115792150D01*
X114392725Y-115871329D01*
X114300000Y-115947426D01*
X114207275Y-115871329D01*
X114059142Y-115792150D01*
X113898408Y-115743392D01*
X113731250Y-115726928D01*
X113293750Y-115726928D01*
X113126592Y-115743392D01*
X112965858Y-115792150D01*
X112817725Y-115871329D01*
X112687885Y-115977885D01*
X112581329Y-116107725D01*
X112502150Y-116255858D01*
X112453392Y-116416592D01*
X112436928Y-116583750D01*
X112436928Y-117096250D01*
X112453392Y-117263408D01*
X112502150Y-117424142D01*
X112581329Y-117572275D01*
X112687885Y-117702115D01*
X112725100Y-117732657D01*
X112725101Y-118487343D01*
X112687885Y-118517885D01*
X112626569Y-118592600D01*
X107988662Y-118592600D01*
X107949999Y-118588792D01*
X107911336Y-118592600D01*
X107911327Y-118592600D01*
X107795643Y-118603994D01*
X107647217Y-118649018D01*
X107510428Y-118722134D01*
X107510426Y-118722135D01*
X107510427Y-118722135D01*
X107420569Y-118795879D01*
X107420567Y-118795881D01*
X107390531Y-118820531D01*
X107365881Y-118850567D01*
X107014087Y-119202361D01*
X106826260Y-119165000D01*
X106533740Y-119165000D01*
X106246842Y-119222068D01*
X105976589Y-119334010D01*
X105733368Y-119496525D01*
X105526525Y-119703368D01*
X105364010Y-119946589D01*
X105252068Y-120216842D01*
X105195000Y-120503740D01*
X105195000Y-120796260D01*
X105252068Y-121083158D01*
X105364010Y-121353411D01*
X105526525Y-121596632D01*
X105658380Y-121728487D01*
X105585820Y-121750498D01*
X105475506Y-121809463D01*
X105378815Y-121888815D01*
X105299463Y-121985506D01*
X105240498Y-122095820D01*
X105204188Y-122215518D01*
X105191928Y-122340000D01*
X87613412Y-122340000D01*
X87641359Y-122298175D01*
X87746102Y-122045302D01*
X87799500Y-121776854D01*
X87799500Y-121503146D01*
X87746102Y-121234698D01*
X87641359Y-120981825D01*
X87489295Y-120754246D01*
X87295754Y-120560705D01*
X87068175Y-120408641D01*
X86979215Y-120371793D01*
X87010404Y-120360537D01*
X87124532Y-120299534D01*
X87190603Y-120060208D01*
X86410000Y-119279605D01*
X86395858Y-119293748D01*
X86216253Y-119114143D01*
X86230395Y-119100000D01*
X86589605Y-119100000D01*
X87370208Y-119880603D01*
X87609534Y-119814532D01*
X87725883Y-119566785D01*
X87791664Y-119301100D01*
X87804349Y-119027686D01*
X87763449Y-118757052D01*
X87670537Y-118499596D01*
X87609534Y-118385468D01*
X87370208Y-118319397D01*
X86589605Y-119100000D01*
X86230395Y-119100000D01*
X86216253Y-119085858D01*
X86395858Y-118906253D01*
X86410000Y-118920395D01*
X87190603Y-118139792D01*
X87124532Y-117900466D01*
X86974674Y-117830088D01*
X87068175Y-117791359D01*
X87295754Y-117639295D01*
X87489295Y-117445754D01*
X87641359Y-117218175D01*
X87746102Y-116965302D01*
X87799500Y-116696854D01*
X87799500Y-116423146D01*
X87746102Y-116154698D01*
X87641359Y-115901825D01*
X87489295Y-115674246D01*
X87295754Y-115480705D01*
X87068175Y-115328641D01*
X86974887Y-115290000D01*
X87068175Y-115251359D01*
X87295754Y-115099295D01*
X87489295Y-114905754D01*
X87641359Y-114678175D01*
X87746102Y-114425302D01*
X87799500Y-114156854D01*
X87799500Y-113883146D01*
X87746102Y-113614698D01*
X87641359Y-113361825D01*
X87489295Y-113134246D01*
X87295754Y-112940705D01*
X87068175Y-112788641D01*
X86815302Y-112683898D01*
X86546854Y-112630500D01*
X86273146Y-112630500D01*
X86157128Y-112653578D01*
X86131400Y-112627850D01*
X86131400Y-104496890D01*
X86188524Y-104496890D01*
X86233175Y-104644099D01*
X86358359Y-104906920D01*
X86532412Y-105140269D01*
X86748645Y-105335178D01*
X86998748Y-105484157D01*
X87273109Y-105581481D01*
X87503000Y-105460814D01*
X87503000Y-104267000D01*
X87757000Y-104267000D01*
X87757000Y-105460814D01*
X87986891Y-105581481D01*
X88261252Y-105484157D01*
X88511355Y-105335178D01*
X88727588Y-105140269D01*
X88901641Y-104906920D01*
X89026825Y-104644099D01*
X89071476Y-104496890D01*
X88950155Y-104267000D01*
X87757000Y-104267000D01*
X87503000Y-104267000D01*
X86309845Y-104267000D01*
X86188524Y-104496890D01*
X86131400Y-104496890D01*
X86131400Y-99132150D01*
X86145000Y-99118550D01*
X86145000Y-99206260D01*
X86202068Y-99493158D01*
X86314010Y-99763411D01*
X86476525Y-100006632D01*
X86683368Y-100213475D01*
X86857760Y-100330000D01*
X86683368Y-100446525D01*
X86476525Y-100653368D01*
X86314010Y-100896589D01*
X86202068Y-101166842D01*
X86145000Y-101453740D01*
X86145000Y-101746260D01*
X86202068Y-102033158D01*
X86314010Y-102303411D01*
X86476525Y-102546632D01*
X86683368Y-102753475D01*
X86865534Y-102875195D01*
X86748645Y-102944822D01*
X86532412Y-103139731D01*
X86358359Y-103373080D01*
X86233175Y-103635901D01*
X86188524Y-103783110D01*
X86309845Y-104013000D01*
X87503000Y-104013000D01*
X87503000Y-103993000D01*
X87757000Y-103993000D01*
X87757000Y-104013000D01*
X88950155Y-104013000D01*
X89071476Y-103783110D01*
X89026825Y-103635901D01*
X88901641Y-103373080D01*
X88727588Y-103139731D01*
X88511355Y-102944822D01*
X88394466Y-102875195D01*
X88576632Y-102753475D01*
X88783475Y-102546632D01*
X88945990Y-102303411D01*
X89057932Y-102033158D01*
X89115000Y-101746260D01*
X89115000Y-101453740D01*
X89057932Y-101166842D01*
X88945990Y-100896589D01*
X88783475Y-100653368D01*
X88576632Y-100446525D01*
X88402240Y-100330000D01*
X88576632Y-100213475D01*
X88783475Y-100006632D01*
X88945990Y-99763411D01*
X89057932Y-99493158D01*
X89115000Y-99206260D01*
X89115000Y-99118550D01*
X100761881Y-110765433D01*
X100786531Y-110795469D01*
X100816567Y-110820119D01*
X100816569Y-110820121D01*
X100862258Y-110857617D01*
X100906428Y-110893866D01*
X101043217Y-110966982D01*
X101191643Y-111012006D01*
X101307327Y-111023400D01*
X101307336Y-111023400D01*
X101345999Y-111027208D01*
X101384662Y-111023400D01*
X129112350Y-111023400D01*
X129970259Y-111881311D01*
X129970270Y-111881320D01*
X130592949Y-112503999D01*
X130470725Y-112569329D01*
X130340885Y-112675885D01*
X130234329Y-112805725D01*
X130155150Y-112953858D01*
X130106392Y-113114592D01*
X130089928Y-113281750D01*
X130089928Y-113794250D01*
X130106392Y-113961408D01*
X130155150Y-114122142D01*
X130234329Y-114270275D01*
X130333759Y-114391432D01*
X130310664Y-114447188D01*
X130276500Y-114618941D01*
X130276500Y-114794059D01*
X130310664Y-114965812D01*
X130356377Y-115076171D01*
X130340885Y-115088885D01*
X130234329Y-115218725D01*
X130155150Y-115366858D01*
X130106392Y-115527592D01*
X130089928Y-115694750D01*
X130089928Y-116207250D01*
X130106392Y-116374408D01*
X130155150Y-116535142D01*
X130234329Y-116683275D01*
X130340885Y-116813115D01*
X130470725Y-116919671D01*
X130618858Y-116998850D01*
X130779592Y-117047608D01*
X130946750Y-117064072D01*
X131384250Y-117064072D01*
X131551408Y-117047608D01*
X131712142Y-116998850D01*
X131860275Y-116919671D01*
X131953000Y-116843574D01*
X132045725Y-116919671D01*
X132054600Y-116924415D01*
X132054600Y-117053270D01*
X132054179Y-117053901D01*
X131987164Y-117215688D01*
X131953000Y-117387441D01*
X131953000Y-117562559D01*
X131987164Y-117734312D01*
X132054179Y-117896099D01*
X132151469Y-118041704D01*
X132275296Y-118165531D01*
X132420901Y-118262821D01*
X132582688Y-118329836D01*
X132754441Y-118364000D01*
X132929559Y-118364000D01*
X133101312Y-118329836D01*
X133263099Y-118262821D01*
X133408704Y-118165531D01*
X133532531Y-118041704D01*
X133629821Y-117896099D01*
X133696836Y-117734312D01*
X133731000Y-117562559D01*
X133731000Y-117387441D01*
X133696836Y-117215688D01*
X133629821Y-117053901D01*
X133629400Y-117053271D01*
X133629400Y-116734783D01*
X133671671Y-116683275D01*
X133750850Y-116535142D01*
X133783957Y-116426000D01*
X135449428Y-116426000D01*
X135461688Y-116550482D01*
X135497998Y-116670180D01*
X135556963Y-116780494D01*
X135636315Y-116877185D01*
X135733006Y-116956537D01*
X135843320Y-117015502D01*
X135963018Y-117051812D01*
X136087500Y-117064072D01*
X136239250Y-117061000D01*
X136398000Y-116902250D01*
X136398000Y-116078000D01*
X135611250Y-116078000D01*
X135452500Y-116236750D01*
X135449428Y-116426000D01*
X133783957Y-116426000D01*
X133799608Y-116374408D01*
X133816072Y-116207250D01*
X133816072Y-115694750D01*
X133799608Y-115527592D01*
X133783958Y-115476000D01*
X135449428Y-115476000D01*
X135452500Y-115665250D01*
X135611250Y-115824000D01*
X136398000Y-115824000D01*
X136398000Y-114999750D01*
X136239250Y-114841000D01*
X136087500Y-114837928D01*
X135963018Y-114850188D01*
X135843320Y-114886498D01*
X135733006Y-114945463D01*
X135636315Y-115024815D01*
X135556963Y-115121506D01*
X135497998Y-115231820D01*
X135461688Y-115351518D01*
X135449428Y-115476000D01*
X133783958Y-115476000D01*
X133750850Y-115366858D01*
X133671671Y-115218725D01*
X133565115Y-115088885D01*
X133527900Y-115058344D01*
X133527900Y-114430656D01*
X133565115Y-114400115D01*
X133671671Y-114270275D01*
X133750850Y-114122142D01*
X133783957Y-114013000D01*
X135423928Y-114013000D01*
X135436188Y-114137482D01*
X135472498Y-114257180D01*
X135531463Y-114367494D01*
X135610815Y-114464185D01*
X135707506Y-114543537D01*
X135817820Y-114602502D01*
X135937518Y-114638812D01*
X136062000Y-114651072D01*
X136213750Y-114648000D01*
X136372500Y-114489250D01*
X136372500Y-113665000D01*
X135585750Y-113665000D01*
X135427000Y-113823750D01*
X135423928Y-114013000D01*
X133783957Y-114013000D01*
X133799608Y-113961408D01*
X133816072Y-113794250D01*
X133816072Y-113281750D01*
X133799608Y-113114592D01*
X133783958Y-113063000D01*
X135423928Y-113063000D01*
X135427000Y-113252250D01*
X135585750Y-113411000D01*
X136372500Y-113411000D01*
X136372500Y-112586750D01*
X136626500Y-112586750D01*
X136626500Y-113411000D01*
X136646500Y-113411000D01*
X136646500Y-113665000D01*
X136626500Y-113665000D01*
X136626500Y-114489250D01*
X136785250Y-114648000D01*
X136937000Y-114651072D01*
X137061482Y-114638812D01*
X137181180Y-114602502D01*
X137185500Y-114600193D01*
X137185500Y-114743059D01*
X137214907Y-114890895D01*
X137206680Y-114886498D01*
X137086982Y-114850188D01*
X136962500Y-114837928D01*
X136810750Y-114841000D01*
X136652000Y-114999750D01*
X136652000Y-115824000D01*
X136672000Y-115824000D01*
X136672000Y-116078000D01*
X136652000Y-116078000D01*
X136652000Y-116902250D01*
X136810750Y-117061000D01*
X136962500Y-117064072D01*
X137086982Y-117051812D01*
X137206680Y-117015502D01*
X137316994Y-116956537D01*
X137383570Y-116901900D01*
X137405225Y-116919671D01*
X137553358Y-116998850D01*
X137714092Y-117047608D01*
X137881250Y-117064072D01*
X138318750Y-117064072D01*
X138485908Y-117047608D01*
X138646642Y-116998850D01*
X138794775Y-116919671D01*
X138924615Y-116813115D01*
X139031171Y-116683275D01*
X139110350Y-116535142D01*
X139159108Y-116374408D01*
X139175572Y-116207250D01*
X139175572Y-115694750D01*
X139159108Y-115527592D01*
X139110350Y-115366858D01*
X139031171Y-115218725D01*
X138924615Y-115088885D01*
X138874327Y-115047615D01*
X138929336Y-114914812D01*
X138963500Y-114743059D01*
X138963500Y-114567941D01*
X138929336Y-114396188D01*
X138920280Y-114374325D01*
X139005671Y-114270275D01*
X139084850Y-114122142D01*
X139133608Y-113961408D01*
X139150072Y-113794250D01*
X139150072Y-113281750D01*
X139133608Y-113114592D01*
X139084850Y-112953858D01*
X139005671Y-112805725D01*
X138899115Y-112675885D01*
X138769275Y-112569329D01*
X138621142Y-112490150D01*
X138460408Y-112441392D01*
X138293250Y-112424928D01*
X137855750Y-112424928D01*
X137688592Y-112441392D01*
X137527858Y-112490150D01*
X137379725Y-112569329D01*
X137358070Y-112587100D01*
X137291494Y-112532463D01*
X137181180Y-112473498D01*
X137061482Y-112437188D01*
X136937000Y-112424928D01*
X136785250Y-112428000D01*
X136626500Y-112586750D01*
X136372500Y-112586750D01*
X136213750Y-112428000D01*
X136062000Y-112424928D01*
X135937518Y-112437188D01*
X135817820Y-112473498D01*
X135707506Y-112532463D01*
X135610815Y-112611815D01*
X135531463Y-112708506D01*
X135472498Y-112818820D01*
X135436188Y-112938518D01*
X135423928Y-113063000D01*
X133783958Y-113063000D01*
X133750850Y-112953858D01*
X133671671Y-112805725D01*
X133565115Y-112675885D01*
X133435275Y-112569329D01*
X133287142Y-112490150D01*
X133126408Y-112441392D01*
X132959250Y-112424928D01*
X132740979Y-112424928D01*
X131083820Y-110767770D01*
X131083811Y-110767759D01*
X130539301Y-110223250D01*
X133879443Y-106883109D01*
X133909468Y-106858468D01*
X133934108Y-106828444D01*
X133934121Y-106828431D01*
X134007865Y-106738573D01*
X134080981Y-106601783D01*
X134106509Y-106517629D01*
X134218408Y-106506608D01*
X134379142Y-106457850D01*
X134527275Y-106378671D01*
X134620000Y-106302574D01*
X134712725Y-106378671D01*
X134860858Y-106457850D01*
X135021592Y-106506608D01*
X135188750Y-106523072D01*
X135626250Y-106523072D01*
X135793408Y-106506608D01*
X135954142Y-106457850D01*
X136102275Y-106378671D01*
X136232115Y-106272115D01*
X136293431Y-106197400D01*
X138264337Y-106197400D01*
X138303000Y-106201208D01*
X138341663Y-106197400D01*
X138341673Y-106197400D01*
X138457357Y-106186006D01*
X138605783Y-106140982D01*
X138742572Y-106067866D01*
X138862469Y-105969469D01*
X138887127Y-105939423D01*
X139975434Y-104851118D01*
X140005469Y-104826469D01*
X140103866Y-104706572D01*
X140176982Y-104569783D01*
X140222006Y-104421357D01*
X140233400Y-104305673D01*
X140233400Y-104305664D01*
X140237208Y-104267001D01*
X140233400Y-104228338D01*
X140233400Y-102053151D01*
X140534151Y-101752400D01*
X142836337Y-101752400D01*
X142875000Y-101756208D01*
X142913663Y-101752400D01*
X142913673Y-101752400D01*
X143029357Y-101741006D01*
X143177783Y-101695982D01*
X143291928Y-101634970D01*
X143291928Y-102450000D01*
X143304188Y-102574482D01*
X143340498Y-102694180D01*
X143399463Y-102804494D01*
X143478815Y-102901185D01*
X143575506Y-102980537D01*
X143685820Y-103039502D01*
X143805518Y-103075812D01*
X143930000Y-103088072D01*
X145630000Y-103088072D01*
X145754482Y-103075812D01*
X145874180Y-103039502D01*
X145984494Y-102980537D01*
X146081185Y-102901185D01*
X146160537Y-102804494D01*
X146219502Y-102694180D01*
X146255812Y-102574482D01*
X146268072Y-102450000D01*
X146268072Y-100750000D01*
X146255812Y-100625518D01*
X146219502Y-100505820D01*
X146160537Y-100395506D01*
X146081185Y-100298815D01*
X145984494Y-100219463D01*
X145874180Y-100160498D01*
X145801620Y-100138487D01*
X145933475Y-100006632D01*
X146095990Y-99763411D01*
X146207932Y-99493158D01*
X146265000Y-99206260D01*
X146265000Y-98913740D01*
X146207932Y-98626842D01*
X146095990Y-98356589D01*
X145933475Y-98113368D01*
X145726632Y-97906525D01*
X145483411Y-97744010D01*
X145213158Y-97632068D01*
X144926260Y-97575000D01*
X144633740Y-97575000D01*
X144346842Y-97632068D01*
X144076589Y-97744010D01*
X143833368Y-97906525D01*
X143626525Y-98113368D01*
X143464010Y-98356589D01*
X143352068Y-98626842D01*
X143295000Y-98913740D01*
X143295000Y-99206260D01*
X143332362Y-99394088D01*
X142548850Y-100177600D01*
X140246665Y-100177600D01*
X140208000Y-100173792D01*
X140169335Y-100177600D01*
X138703182Y-100177600D01*
X138720812Y-100119482D01*
X138733072Y-99995000D01*
X138730000Y-99980750D01*
X138571250Y-99822000D01*
X137447000Y-99822000D01*
X137447000Y-99842000D01*
X137193000Y-99842000D01*
X137193000Y-99822000D01*
X136068750Y-99822000D01*
X135910000Y-99980750D01*
X135906928Y-99995000D01*
X135919188Y-100119482D01*
X135955498Y-100239180D01*
X136004043Y-100330000D01*
X135955498Y-100420820D01*
X135919188Y-100540518D01*
X135906928Y-100665000D01*
X135906928Y-101265000D01*
X135919188Y-101389482D01*
X135955498Y-101509180D01*
X136004043Y-101600000D01*
X135955498Y-101690820D01*
X135919188Y-101810518D01*
X135906928Y-101935000D01*
X135906928Y-102535000D01*
X135919188Y-102659482D01*
X135955498Y-102779180D01*
X136014463Y-102889494D01*
X136093815Y-102986185D01*
X136190506Y-103065537D01*
X136300820Y-103124502D01*
X136420518Y-103160812D01*
X136545000Y-103173072D01*
X138095000Y-103173072D01*
X138219482Y-103160812D01*
X138339180Y-103124502D01*
X138449494Y-103065537D01*
X138546185Y-102986185D01*
X138625537Y-102889494D01*
X138658601Y-102827637D01*
X138658600Y-103940848D01*
X137976850Y-104622600D01*
X136293431Y-104622600D01*
X136232115Y-104547885D01*
X136102275Y-104441329D01*
X135954142Y-104362150D01*
X135793408Y-104313392D01*
X135626250Y-104296928D01*
X135188750Y-104296928D01*
X135021592Y-104313392D01*
X134860858Y-104362150D01*
X134712725Y-104441329D01*
X134620000Y-104517426D01*
X134619900Y-104517344D01*
X134619900Y-101171163D01*
X134623708Y-101132500D01*
X134619900Y-101093837D01*
X134619900Y-101093827D01*
X134608506Y-100978143D01*
X134563482Y-100829717D01*
X134490366Y-100692928D01*
X134391969Y-100573031D01*
X134361929Y-100548378D01*
X133333072Y-99519522D01*
X133333072Y-99395000D01*
X133320812Y-99270518D01*
X133284502Y-99150820D01*
X133235957Y-99060000D01*
X133284502Y-98969180D01*
X133320812Y-98849482D01*
X133333072Y-98725000D01*
X133333072Y-98125000D01*
X135906928Y-98125000D01*
X135906928Y-98725000D01*
X135919188Y-98849482D01*
X135955498Y-98969180D01*
X136004043Y-99060000D01*
X135955498Y-99150820D01*
X135919188Y-99270518D01*
X135906928Y-99395000D01*
X135910000Y-99409250D01*
X136068750Y-99568000D01*
X137193000Y-99568000D01*
X137193000Y-99548000D01*
X137447000Y-99548000D01*
X137447000Y-99568000D01*
X138571250Y-99568000D01*
X138730000Y-99409250D01*
X138733072Y-99395000D01*
X138720812Y-99270518D01*
X138684502Y-99150820D01*
X138635957Y-99060000D01*
X138684502Y-98969180D01*
X138720812Y-98849482D01*
X138733072Y-98725000D01*
X138733072Y-98125000D01*
X138720812Y-98000518D01*
X138684502Y-97880820D01*
X138625537Y-97770506D01*
X138546185Y-97673815D01*
X138449494Y-97594463D01*
X138339180Y-97535498D01*
X138219482Y-97499188D01*
X138095000Y-97486928D01*
X136545000Y-97486928D01*
X136420518Y-97499188D01*
X136300820Y-97535498D01*
X136190506Y-97594463D01*
X136093815Y-97673815D01*
X136014463Y-97770506D01*
X135955498Y-97880820D01*
X135919188Y-98000518D01*
X135906928Y-98125000D01*
X133333072Y-98125000D01*
X133320812Y-98000518D01*
X133284502Y-97880820D01*
X133225537Y-97770506D01*
X133146185Y-97673815D01*
X133049494Y-97594463D01*
X132939180Y-97535498D01*
X132819482Y-97499188D01*
X132695000Y-97486928D01*
X131145000Y-97486928D01*
X131020518Y-97499188D01*
X130900820Y-97535498D01*
X130790506Y-97594463D01*
X130693815Y-97673815D01*
X130614463Y-97770506D01*
X130555498Y-97880820D01*
X130519188Y-98000518D01*
X130506928Y-98125000D01*
X130506928Y-98725000D01*
X130519188Y-98849482D01*
X130536818Y-98907600D01*
X124496256Y-98907600D01*
X124039056Y-98450400D01*
X125818337Y-98450400D01*
X125857000Y-98454208D01*
X125895663Y-98450400D01*
X125895673Y-98450400D01*
X126011357Y-98439006D01*
X126159783Y-98393982D01*
X126296572Y-98320866D01*
X126416469Y-98222469D01*
X126441127Y-98192423D01*
X126832596Y-97800954D01*
X126873045Y-97809000D01*
X127126955Y-97809000D01*
X127375987Y-97759465D01*
X127610570Y-97662297D01*
X127821690Y-97521232D01*
X128001232Y-97341690D01*
X128142297Y-97130570D01*
X128239465Y-96895987D01*
X128289000Y-96646955D01*
X128289000Y-96393045D01*
X128239465Y-96144013D01*
X128142297Y-95909430D01*
X128001232Y-95698310D01*
X127821690Y-95518768D01*
X127610570Y-95377703D01*
X127375987Y-95280535D01*
X127126955Y-95231000D01*
X126873045Y-95231000D01*
X126624013Y-95280535D01*
X126389430Y-95377703D01*
X126178310Y-95518768D01*
X125998768Y-95698310D01*
X125857703Y-95909430D01*
X125760535Y-96144013D01*
X125730000Y-96297524D01*
X125699465Y-96144013D01*
X125602297Y-95909430D01*
X125461232Y-95698310D01*
X125281690Y-95518768D01*
X125070570Y-95377703D01*
X124835987Y-95280535D01*
X124586955Y-95231000D01*
X124333045Y-95231000D01*
X124292596Y-95239046D01*
X123628117Y-94574567D01*
X123603458Y-94544520D01*
X123483561Y-94446123D01*
X123346772Y-94373007D01*
X123198346Y-94327983D01*
X123082662Y-94316589D01*
X123082652Y-94316589D01*
X123043989Y-94312781D01*
X123005326Y-94316589D01*
X121309055Y-94316589D01*
X121270392Y-94312781D01*
X121231729Y-94316589D01*
X121231720Y-94316589D01*
X121116036Y-94327983D01*
X120967610Y-94373007D01*
X120830821Y-94446123D01*
X120830819Y-94446124D01*
X120830820Y-94446124D01*
X120740962Y-94519868D01*
X120740960Y-94519870D01*
X120710924Y-94544520D01*
X120686274Y-94574556D01*
X120032904Y-95227928D01*
X119201479Y-95227928D01*
X118694127Y-94720577D01*
X118669469Y-94690531D01*
X118549572Y-94592134D01*
X118412783Y-94519018D01*
X118264357Y-94473994D01*
X118148673Y-94462600D01*
X118148663Y-94462600D01*
X118110000Y-94458792D01*
X118071337Y-94462600D01*
X115973431Y-94462600D01*
X115912115Y-94387885D01*
X115782275Y-94281329D01*
X115634142Y-94202150D01*
X115473408Y-94153392D01*
X115306250Y-94136928D01*
X114868750Y-94136928D01*
X114701592Y-94153392D01*
X114540858Y-94202150D01*
X114392725Y-94281329D01*
X114300000Y-94357426D01*
X114299900Y-94357344D01*
X114299900Y-93931893D01*
X114325821Y-93893099D01*
X114392836Y-93731312D01*
X114427000Y-93559559D01*
X114427000Y-93384441D01*
X114392836Y-93212688D01*
X114325821Y-93050901D01*
X114228531Y-92905296D01*
X114104704Y-92781469D01*
X113959099Y-92684179D01*
X113797312Y-92617164D01*
X113625559Y-92583000D01*
X113450441Y-92583000D01*
X113278688Y-92617164D01*
X113116901Y-92684179D01*
X112971296Y-92781469D01*
X112847469Y-92905296D01*
X112750179Y-93050901D01*
X112683164Y-93212688D01*
X112649000Y-93384441D01*
X112649000Y-93559559D01*
X112683164Y-93731312D01*
X112725101Y-93832555D01*
X112725101Y-94357343D01*
X112687885Y-94387885D01*
X112581329Y-94517725D01*
X112502150Y-94665858D01*
X112453392Y-94826592D01*
X112436928Y-94993750D01*
X112436928Y-95506250D01*
X112453392Y-95673408D01*
X112502150Y-95834142D01*
X112581329Y-95982275D01*
X112687885Y-96112115D01*
X112725100Y-96142657D01*
X112725101Y-96897343D01*
X112687885Y-96927885D01*
X112581329Y-97057725D01*
X112502150Y-97205858D01*
X112453392Y-97366592D01*
X112436928Y-97533750D01*
X112436928Y-98046250D01*
X112453392Y-98213408D01*
X112502150Y-98374142D01*
X112581329Y-98522275D01*
X112687885Y-98652115D01*
X112725100Y-98682656D01*
X112725100Y-99437343D01*
X112687885Y-99467885D01*
X112581329Y-99597725D01*
X112502150Y-99745858D01*
X112453392Y-99906592D01*
X112436928Y-100073750D01*
X112436928Y-100586250D01*
X112453392Y-100753408D01*
X112502150Y-100914142D01*
X112581329Y-101062275D01*
X112687885Y-101192115D01*
X112725101Y-101222657D01*
X112725101Y-101586818D01*
X112725100Y-101586828D01*
X112725100Y-101977344D01*
X112687885Y-102007885D01*
X112581329Y-102137725D01*
X112502150Y-102285858D01*
X112453392Y-102446592D01*
X112436928Y-102613750D01*
X112436928Y-103126250D01*
X112453392Y-103293408D01*
X112502150Y-103454142D01*
X112581329Y-103602275D01*
X112687885Y-103732115D01*
X112725101Y-103762657D01*
X112725101Y-104517343D01*
X112687885Y-104547885D01*
X112581329Y-104677725D01*
X112502150Y-104825858D01*
X112453392Y-104986592D01*
X112436928Y-105153750D01*
X112436928Y-105666250D01*
X112453392Y-105833408D01*
X112471348Y-105892600D01*
X111070151Y-105892600D01*
X110769400Y-105591849D01*
X110769400Y-100114663D01*
X110773208Y-100076000D01*
X110769400Y-100037337D01*
X110769400Y-100037327D01*
X110758006Y-99921643D01*
X110712982Y-99773217D01*
X110671173Y-99694999D01*
X110639866Y-99636427D01*
X110589835Y-99575465D01*
X110541469Y-99516531D01*
X110511429Y-99491878D01*
X109550128Y-98530577D01*
X109525469Y-98500531D01*
X109405572Y-98402134D01*
X109268783Y-98329018D01*
X109120357Y-98283994D01*
X109004673Y-98272600D01*
X109004663Y-98272600D01*
X108966000Y-98268792D01*
X108927337Y-98272600D01*
X107939870Y-98272600D01*
X107833475Y-98113368D01*
X107626632Y-97906525D01*
X107383411Y-97744010D01*
X107113158Y-97632068D01*
X106826260Y-97575000D01*
X106533740Y-97575000D01*
X106246842Y-97632068D01*
X105976589Y-97744010D01*
X105733368Y-97906525D01*
X105526525Y-98113368D01*
X105364010Y-98356589D01*
X105252068Y-98626842D01*
X105195000Y-98913740D01*
X105195000Y-99206260D01*
X105252068Y-99493158D01*
X105364010Y-99763411D01*
X105526525Y-100006632D01*
X105658380Y-100138487D01*
X105585820Y-100160498D01*
X105475506Y-100219463D01*
X105378815Y-100298815D01*
X105299463Y-100395506D01*
X105240498Y-100505820D01*
X105204188Y-100625518D01*
X105191928Y-100750000D01*
X105191928Y-102450000D01*
X105204188Y-102574482D01*
X105240498Y-102694180D01*
X105299463Y-102804494D01*
X105378815Y-102901185D01*
X105475506Y-102980537D01*
X105585820Y-103039502D01*
X105705518Y-103075812D01*
X105830000Y-103088072D01*
X107530000Y-103088072D01*
X107654482Y-103075812D01*
X107774180Y-103039502D01*
X107884494Y-102980537D01*
X107981185Y-102901185D01*
X108060537Y-102804494D01*
X108119502Y-102694180D01*
X108155812Y-102574482D01*
X108168072Y-102450000D01*
X108168072Y-100750000D01*
X108155812Y-100625518D01*
X108119502Y-100505820D01*
X108060537Y-100395506D01*
X107981185Y-100298815D01*
X107884494Y-100219463D01*
X107774180Y-100160498D01*
X107701620Y-100138487D01*
X107833475Y-100006632D01*
X107939870Y-99847400D01*
X108639850Y-99847400D01*
X109194600Y-100402151D01*
X109194601Y-105879327D01*
X109190792Y-105918000D01*
X109205995Y-106072357D01*
X109251018Y-106220782D01*
X109278457Y-106272115D01*
X109324135Y-106357572D01*
X109422532Y-106477469D01*
X109452572Y-106502123D01*
X110159881Y-107209433D01*
X110184531Y-107239469D01*
X110214567Y-107264119D01*
X110214570Y-107264122D01*
X110304427Y-107337866D01*
X110441217Y-107410982D01*
X110589643Y-107456006D01*
X110705327Y-107467400D01*
X110705335Y-107467400D01*
X110744000Y-107471208D01*
X110782665Y-107467400D01*
X126707337Y-107467400D01*
X126746000Y-107471208D01*
X126784663Y-107467400D01*
X126784673Y-107467400D01*
X126900357Y-107456006D01*
X127048783Y-107410982D01*
X127185572Y-107337866D01*
X127305469Y-107239469D01*
X127330128Y-107209422D01*
X130577434Y-103962118D01*
X130607469Y-103937469D01*
X130705866Y-103817572D01*
X130778982Y-103680783D01*
X130824006Y-103532357D01*
X130835400Y-103416673D01*
X130835400Y-103416664D01*
X130839208Y-103378001D01*
X130835400Y-103339338D01*
X130835400Y-103089534D01*
X130900820Y-103124502D01*
X131020518Y-103160812D01*
X131068490Y-103165537D01*
X131038179Y-103210901D01*
X130971164Y-103372688D01*
X130937000Y-103544441D01*
X130937000Y-103719559D01*
X130971164Y-103891312D01*
X131038179Y-104053099D01*
X131132601Y-104194411D01*
X131132600Y-104830337D01*
X131128792Y-104869000D01*
X131132600Y-104907663D01*
X131132600Y-104907672D01*
X131143994Y-105023356D01*
X131189018Y-105171782D01*
X131262134Y-105308571D01*
X131360531Y-105428469D01*
X131390577Y-105453127D01*
X132236449Y-106299000D01*
X129086850Y-109448600D01*
X101672152Y-109448600D01*
X89118072Y-96894522D01*
X89118072Y-95670000D01*
X89105812Y-95545518D01*
X89069502Y-95425820D01*
X89010537Y-95315506D01*
X88931185Y-95218815D01*
X88834494Y-95139463D01*
X88724180Y-95080498D01*
X88604482Y-95044188D01*
X88480000Y-95031928D01*
X87195214Y-95031928D01*
X97807434Y-84419711D01*
X97837469Y-84395062D01*
X97862119Y-84365026D01*
X97862122Y-84365023D01*
X97935866Y-84275165D01*
X98008982Y-84138376D01*
X98054006Y-83989950D01*
X98054006Y-83989949D01*
X98065400Y-83874266D01*
X98065400Y-83874258D01*
X98069208Y-83835593D01*
X98065400Y-83796928D01*
X98065400Y-79414000D01*
X105191928Y-79414000D01*
X105191928Y-81114000D01*
X105204188Y-81238482D01*
X105240498Y-81358180D01*
X105299463Y-81468494D01*
X105378815Y-81565185D01*
X105475506Y-81644537D01*
X105585820Y-81703502D01*
X105705518Y-81739812D01*
X105830000Y-81752072D01*
X107530000Y-81752072D01*
X107654482Y-81739812D01*
X107774180Y-81703502D01*
X107884494Y-81644537D01*
X107981185Y-81565185D01*
X108060537Y-81468494D01*
X108119502Y-81358180D01*
X108155812Y-81238482D01*
X108168072Y-81114000D01*
X108168072Y-79527400D01*
X121466849Y-79527400D01*
X121718177Y-79778729D01*
X121660688Y-79790164D01*
X121498901Y-79857179D01*
X121353296Y-79954469D01*
X121229469Y-80078296D01*
X121132179Y-80223901D01*
X121065164Y-80385688D01*
X121031000Y-80557441D01*
X121031000Y-80732559D01*
X121065164Y-80904312D01*
X121132179Y-81066099D01*
X121229469Y-81211704D01*
X121353296Y-81335531D01*
X121498901Y-81432821D01*
X121660688Y-81499836D01*
X121832441Y-81534000D01*
X122007559Y-81534000D01*
X122179312Y-81499836D01*
X122341099Y-81432821D01*
X122341729Y-81432400D01*
X122482943Y-81432400D01*
X122535506Y-81475537D01*
X122645820Y-81534502D01*
X122765518Y-81570812D01*
X122890000Y-81583072D01*
X124440000Y-81583072D01*
X124564482Y-81570812D01*
X124684180Y-81534502D01*
X124794494Y-81475537D01*
X124847057Y-81432400D01*
X125530850Y-81432400D01*
X131953100Y-87854651D01*
X131953101Y-91055343D01*
X131953000Y-91055426D01*
X131860275Y-90979329D01*
X131712142Y-90900150D01*
X131551408Y-90851392D01*
X131384250Y-90834928D01*
X130946750Y-90834928D01*
X130779592Y-90851392D01*
X130618858Y-90900150D01*
X130470725Y-90979329D01*
X130340885Y-91085885D01*
X130234329Y-91215725D01*
X130155150Y-91363858D01*
X130106392Y-91524592D01*
X130089928Y-91691750D01*
X130089928Y-92204250D01*
X130106392Y-92371408D01*
X130155150Y-92532142D01*
X130234329Y-92680275D01*
X130323832Y-92789336D01*
X130285164Y-92882688D01*
X130251000Y-93054441D01*
X130251000Y-93229559D01*
X130285164Y-93401312D01*
X130322994Y-93492641D01*
X130315385Y-93498885D01*
X130208829Y-93628725D01*
X130129650Y-93776858D01*
X130080892Y-93937592D01*
X130064428Y-94104750D01*
X130064428Y-94617250D01*
X130080892Y-94784408D01*
X130129650Y-94945142D01*
X130208829Y-95093275D01*
X130315385Y-95223115D01*
X130445225Y-95329671D01*
X130593358Y-95408850D01*
X130754092Y-95457608D01*
X130921250Y-95474072D01*
X131358750Y-95474072D01*
X131525908Y-95457608D01*
X131686642Y-95408850D01*
X131834775Y-95329671D01*
X131927500Y-95253574D01*
X131927600Y-95253657D01*
X131927600Y-95463270D01*
X131927179Y-95463901D01*
X131860164Y-95625688D01*
X131826000Y-95797441D01*
X131826000Y-95972559D01*
X131860164Y-96144312D01*
X131927179Y-96306099D01*
X132024469Y-96451704D01*
X132148296Y-96575531D01*
X132293901Y-96672821D01*
X132455688Y-96739836D01*
X132627441Y-96774000D01*
X132802559Y-96774000D01*
X132974312Y-96739836D01*
X133136099Y-96672821D01*
X133281704Y-96575531D01*
X133405531Y-96451704D01*
X133502821Y-96306099D01*
X133569836Y-96144312D01*
X133604000Y-95972559D01*
X133604000Y-95797441D01*
X133569836Y-95625688D01*
X133502821Y-95463901D01*
X133502400Y-95463271D01*
X133502400Y-95253656D01*
X133539615Y-95223115D01*
X133646171Y-95093275D01*
X133725350Y-94945142D01*
X133758457Y-94836000D01*
X135423928Y-94836000D01*
X135436188Y-94960482D01*
X135472498Y-95080180D01*
X135531463Y-95190494D01*
X135610815Y-95287185D01*
X135707506Y-95366537D01*
X135817820Y-95425502D01*
X135937518Y-95461812D01*
X136062000Y-95474072D01*
X136213750Y-95471000D01*
X136372500Y-95312250D01*
X136372500Y-94488000D01*
X135585750Y-94488000D01*
X135427000Y-94646750D01*
X135423928Y-94836000D01*
X133758457Y-94836000D01*
X133774108Y-94784408D01*
X133790572Y-94617250D01*
X133790572Y-94104750D01*
X133774108Y-93937592D01*
X133758458Y-93886000D01*
X135423928Y-93886000D01*
X135427000Y-94075250D01*
X135585750Y-94234000D01*
X136372500Y-94234000D01*
X136372500Y-93409750D01*
X136213750Y-93251000D01*
X136062000Y-93247928D01*
X135937518Y-93260188D01*
X135817820Y-93296498D01*
X135707506Y-93355463D01*
X135610815Y-93434815D01*
X135531463Y-93531506D01*
X135472498Y-93641820D01*
X135436188Y-93761518D01*
X135423928Y-93886000D01*
X133758458Y-93886000D01*
X133725350Y-93776858D01*
X133646171Y-93628725D01*
X133539615Y-93498885D01*
X133527900Y-93489271D01*
X133527900Y-92840656D01*
X133565115Y-92810115D01*
X133671671Y-92680275D01*
X133750850Y-92532142D01*
X133783957Y-92423000D01*
X135423928Y-92423000D01*
X135436188Y-92547482D01*
X135472498Y-92667180D01*
X135531463Y-92777494D01*
X135610815Y-92874185D01*
X135707506Y-92953537D01*
X135817820Y-93012502D01*
X135937518Y-93048812D01*
X136062000Y-93061072D01*
X136213750Y-93058000D01*
X136372500Y-92899250D01*
X136372500Y-92075000D01*
X135585750Y-92075000D01*
X135427000Y-92233750D01*
X135423928Y-92423000D01*
X133783957Y-92423000D01*
X133799608Y-92371408D01*
X133816072Y-92204250D01*
X133816072Y-91691750D01*
X133799608Y-91524592D01*
X133783958Y-91473000D01*
X135423928Y-91473000D01*
X135427000Y-91662250D01*
X135585750Y-91821000D01*
X136372500Y-91821000D01*
X136372500Y-90996750D01*
X136626500Y-90996750D01*
X136626500Y-91821000D01*
X136646500Y-91821000D01*
X136646500Y-92075000D01*
X136626500Y-92075000D01*
X136626500Y-92899250D01*
X136785250Y-93058000D01*
X136937000Y-93061072D01*
X137061482Y-93048812D01*
X137181180Y-93012502D01*
X137206591Y-92998919D01*
X137185500Y-93104951D01*
X137185500Y-93280069D01*
X137189671Y-93301036D01*
X137181180Y-93296498D01*
X137061482Y-93260188D01*
X136937000Y-93247928D01*
X136785250Y-93251000D01*
X136626500Y-93409750D01*
X136626500Y-94234000D01*
X136646500Y-94234000D01*
X136646500Y-94488000D01*
X136626500Y-94488000D01*
X136626500Y-95312250D01*
X136785250Y-95471000D01*
X136937000Y-95474072D01*
X137061482Y-95461812D01*
X137181180Y-95425502D01*
X137291494Y-95366537D01*
X137358070Y-95311900D01*
X137379725Y-95329671D01*
X137527858Y-95408850D01*
X137688592Y-95457608D01*
X137855750Y-95474072D01*
X138293250Y-95474072D01*
X138460408Y-95457608D01*
X138621142Y-95408850D01*
X138769275Y-95329671D01*
X138899115Y-95223115D01*
X139005671Y-95093275D01*
X139084850Y-94945142D01*
X139133608Y-94784408D01*
X139150072Y-94617250D01*
X139150072Y-94104750D01*
X139133608Y-93937592D01*
X139084850Y-93776858D01*
X139005671Y-93628725D01*
X138906244Y-93507571D01*
X138929336Y-93451822D01*
X138963500Y-93280069D01*
X138963500Y-93104951D01*
X138929336Y-92933198D01*
X138883620Y-92822831D01*
X138899115Y-92810115D01*
X139005671Y-92680275D01*
X139084850Y-92532142D01*
X139133608Y-92371408D01*
X139150072Y-92204250D01*
X139150072Y-91691750D01*
X139133608Y-91524592D01*
X139084850Y-91363858D01*
X139005671Y-91215725D01*
X138899115Y-91085885D01*
X138769275Y-90979329D01*
X138621142Y-90900150D01*
X138460408Y-90851392D01*
X138293250Y-90834928D01*
X137855750Y-90834928D01*
X137688592Y-90851392D01*
X137527858Y-90900150D01*
X137379725Y-90979329D01*
X137358070Y-90997100D01*
X137291494Y-90942463D01*
X137181180Y-90883498D01*
X137061482Y-90847188D01*
X136937000Y-90834928D01*
X136785250Y-90838000D01*
X136626500Y-90996750D01*
X136372500Y-90996750D01*
X136213750Y-90838000D01*
X136062000Y-90834928D01*
X135937518Y-90847188D01*
X135817820Y-90883498D01*
X135707506Y-90942463D01*
X135610815Y-91021815D01*
X135531463Y-91118506D01*
X135472498Y-91228820D01*
X135436188Y-91348518D01*
X135423928Y-91473000D01*
X133783958Y-91473000D01*
X133750850Y-91363858D01*
X133671671Y-91215725D01*
X133565115Y-91085885D01*
X133527900Y-91055344D01*
X133527900Y-87567162D01*
X133531708Y-87528499D01*
X133527900Y-87489836D01*
X133527900Y-87489827D01*
X133516506Y-87374143D01*
X133471482Y-87225717D01*
X133398366Y-87088928D01*
X133299969Y-86969031D01*
X133269929Y-86944378D01*
X126487950Y-80162400D01*
X127681818Y-80162400D01*
X127664188Y-80220518D01*
X127651928Y-80345000D01*
X127651928Y-80945000D01*
X127664188Y-81069482D01*
X127700498Y-81189180D01*
X127759463Y-81299494D01*
X127838815Y-81396185D01*
X127935506Y-81475537D01*
X128045820Y-81534502D01*
X128165518Y-81570812D01*
X128290000Y-81583072D01*
X129840000Y-81583072D01*
X129964482Y-81570812D01*
X130084180Y-81534502D01*
X130194494Y-81475537D01*
X130291185Y-81396185D01*
X130370537Y-81299494D01*
X130429502Y-81189180D01*
X130465812Y-81069482D01*
X130478072Y-80945000D01*
X130478072Y-80345000D01*
X130465812Y-80220518D01*
X130448182Y-80162400D01*
X142836337Y-80162400D01*
X142875000Y-80166208D01*
X142913663Y-80162400D01*
X142913673Y-80162400D01*
X143029357Y-80151006D01*
X143177783Y-80105982D01*
X143291928Y-80044970D01*
X143291928Y-80860000D01*
X143304188Y-80984482D01*
X143340498Y-81104180D01*
X143399463Y-81214494D01*
X143478815Y-81311185D01*
X143575506Y-81390537D01*
X143685820Y-81449502D01*
X143805518Y-81485812D01*
X143930000Y-81498072D01*
X145630000Y-81498072D01*
X145754482Y-81485812D01*
X145874180Y-81449502D01*
X145984494Y-81390537D01*
X146081185Y-81311185D01*
X146160537Y-81214494D01*
X146219502Y-81104180D01*
X146255812Y-80984482D01*
X146268072Y-80860000D01*
X146268072Y-79160000D01*
X146255812Y-79035518D01*
X146219502Y-78915820D01*
X146160537Y-78805506D01*
X146081185Y-78708815D01*
X145984494Y-78629463D01*
X145874180Y-78570498D01*
X145801620Y-78548487D01*
X145933475Y-78416632D01*
X146095990Y-78173411D01*
X146207932Y-77903158D01*
X146265000Y-77616260D01*
X146265000Y-77323740D01*
X146207932Y-77036842D01*
X146095990Y-76766589D01*
X145933475Y-76523368D01*
X145726632Y-76316525D01*
X145483411Y-76154010D01*
X145213158Y-76042068D01*
X144926260Y-75985000D01*
X144633740Y-75985000D01*
X144346842Y-76042068D01*
X144076589Y-76154010D01*
X143833368Y-76316525D01*
X143626525Y-76523368D01*
X143464010Y-76766589D01*
X143352068Y-77036842D01*
X143295000Y-77323740D01*
X143295000Y-77616260D01*
X143332362Y-77804088D01*
X142548850Y-78587600D01*
X130448182Y-78587600D01*
X130465812Y-78529482D01*
X130478072Y-78405000D01*
X130475000Y-78390750D01*
X130316250Y-78232000D01*
X129192000Y-78232000D01*
X129192000Y-78252000D01*
X128938000Y-78252000D01*
X128938000Y-78232000D01*
X127813750Y-78232000D01*
X127655000Y-78390750D01*
X127651928Y-78405000D01*
X127664188Y-78529482D01*
X127681818Y-78587600D01*
X126340952Y-78587600D01*
X125328927Y-77575577D01*
X125304269Y-77545531D01*
X125184372Y-77447134D01*
X125047583Y-77374018D01*
X125032460Y-77369430D01*
X125065812Y-77259482D01*
X125078072Y-77135000D01*
X125078072Y-76535000D01*
X127651928Y-76535000D01*
X127651928Y-77135000D01*
X127664188Y-77259482D01*
X127700498Y-77379180D01*
X127749043Y-77470000D01*
X127700498Y-77560820D01*
X127664188Y-77680518D01*
X127651928Y-77805000D01*
X127655000Y-77819250D01*
X127813750Y-77978000D01*
X128938000Y-77978000D01*
X128938000Y-77958000D01*
X129192000Y-77958000D01*
X129192000Y-77978000D01*
X130316250Y-77978000D01*
X130475000Y-77819250D01*
X130478072Y-77805000D01*
X130465812Y-77680518D01*
X130429502Y-77560820D01*
X130380957Y-77470000D01*
X130429502Y-77379180D01*
X130465812Y-77259482D01*
X130478072Y-77135000D01*
X130478072Y-76535000D01*
X130465812Y-76410518D01*
X130429502Y-76290820D01*
X130370537Y-76180506D01*
X130291185Y-76083815D01*
X130194494Y-76004463D01*
X130084180Y-75945498D01*
X129964482Y-75909188D01*
X129840000Y-75896928D01*
X128290000Y-75896928D01*
X128165518Y-75909188D01*
X128045820Y-75945498D01*
X127935506Y-76004463D01*
X127838815Y-76083815D01*
X127759463Y-76180506D01*
X127700498Y-76290820D01*
X127664188Y-76410518D01*
X127651928Y-76535000D01*
X125078072Y-76535000D01*
X125065812Y-76410518D01*
X125029502Y-76290820D01*
X124970537Y-76180506D01*
X124891185Y-76083815D01*
X124794494Y-76004463D01*
X124684180Y-75945498D01*
X124564482Y-75909188D01*
X124440000Y-75896928D01*
X122890000Y-75896928D01*
X122765518Y-75909188D01*
X122645820Y-75945498D01*
X122535506Y-76004463D01*
X122438815Y-76083815D01*
X122359463Y-76180506D01*
X122300498Y-76290820D01*
X122264188Y-76410518D01*
X122251928Y-76535000D01*
X122251928Y-77135000D01*
X122264188Y-77259482D01*
X122300498Y-77379180D01*
X122349043Y-77470000D01*
X122300498Y-77560820D01*
X122264188Y-77680518D01*
X122251928Y-77805000D01*
X122251928Y-78098019D01*
X122232572Y-78082134D01*
X122095783Y-78009018D01*
X121947357Y-77963994D01*
X121831673Y-77952600D01*
X121831663Y-77952600D01*
X121793000Y-77948792D01*
X121754337Y-77952600D01*
X108148621Y-77952600D01*
X108165000Y-77870260D01*
X108165000Y-77577740D01*
X108107932Y-77290842D01*
X107995990Y-77020589D01*
X107833475Y-76777368D01*
X107626632Y-76570525D01*
X107383411Y-76408010D01*
X107113158Y-76296068D01*
X106826260Y-76239000D01*
X106533740Y-76239000D01*
X106246842Y-76296068D01*
X105976589Y-76408010D01*
X105733368Y-76570525D01*
X105526525Y-76777368D01*
X105364010Y-77020589D01*
X105252068Y-77290842D01*
X105195000Y-77577740D01*
X105195000Y-77870260D01*
X105252068Y-78157158D01*
X105364010Y-78427411D01*
X105526525Y-78670632D01*
X105658380Y-78802487D01*
X105585820Y-78824498D01*
X105475506Y-78883463D01*
X105378815Y-78962815D01*
X105299463Y-79059506D01*
X105240498Y-79169820D01*
X105204188Y-79289518D01*
X105191928Y-79414000D01*
X98065400Y-79414000D01*
X98065400Y-74867941D01*
X121412000Y-74867941D01*
X121412000Y-75043059D01*
X121446164Y-75214812D01*
X121513179Y-75376599D01*
X121610469Y-75522204D01*
X121734296Y-75646031D01*
X121879901Y-75743321D01*
X122041688Y-75810336D01*
X122213441Y-75844500D01*
X122388559Y-75844500D01*
X122560312Y-75810336D01*
X122722099Y-75743321D01*
X122867704Y-75646031D01*
X122991531Y-75522204D01*
X123088821Y-75376599D01*
X123155836Y-75214812D01*
X123155984Y-75214066D01*
X124485979Y-73884072D01*
X124704250Y-73884072D01*
X124871408Y-73867608D01*
X125032142Y-73818850D01*
X125180275Y-73739671D01*
X125310115Y-73633115D01*
X125416671Y-73503275D01*
X125495850Y-73355142D01*
X125528957Y-73246000D01*
X127168928Y-73246000D01*
X127181188Y-73370482D01*
X127217498Y-73490180D01*
X127276463Y-73600494D01*
X127355815Y-73697185D01*
X127452506Y-73776537D01*
X127562820Y-73835502D01*
X127682518Y-73871812D01*
X127807000Y-73884072D01*
X127958750Y-73881000D01*
X128117500Y-73722250D01*
X128117500Y-72898000D01*
X127330750Y-72898000D01*
X127172000Y-73056750D01*
X127168928Y-73246000D01*
X125528957Y-73246000D01*
X125544608Y-73194408D01*
X125561072Y-73027250D01*
X125561072Y-72514750D01*
X125544608Y-72347592D01*
X125528958Y-72296000D01*
X127168928Y-72296000D01*
X127172000Y-72485250D01*
X127330750Y-72644000D01*
X128117500Y-72644000D01*
X128117500Y-71819750D01*
X127958750Y-71661000D01*
X127807000Y-71657928D01*
X127682518Y-71670188D01*
X127562820Y-71706498D01*
X127452506Y-71765463D01*
X127355815Y-71844815D01*
X127276463Y-71941506D01*
X127217498Y-72051820D01*
X127181188Y-72171518D01*
X127168928Y-72296000D01*
X125528958Y-72296000D01*
X125495850Y-72186858D01*
X125416671Y-72038725D01*
X125310115Y-71908885D01*
X125272900Y-71878344D01*
X125272900Y-71250656D01*
X125310115Y-71220115D01*
X125416671Y-71090275D01*
X125495850Y-70942142D01*
X125528957Y-70833000D01*
X127168928Y-70833000D01*
X127181188Y-70957482D01*
X127217498Y-71077180D01*
X127276463Y-71187494D01*
X127355815Y-71284185D01*
X127452506Y-71363537D01*
X127562820Y-71422502D01*
X127682518Y-71458812D01*
X127807000Y-71471072D01*
X127958750Y-71468000D01*
X128117500Y-71309250D01*
X128117500Y-70485000D01*
X127330750Y-70485000D01*
X127172000Y-70643750D01*
X127168928Y-70833000D01*
X125528957Y-70833000D01*
X125544608Y-70781408D01*
X125561072Y-70614250D01*
X125561072Y-70101750D01*
X125544608Y-69934592D01*
X125528958Y-69883000D01*
X127168928Y-69883000D01*
X127172000Y-70072250D01*
X127330750Y-70231000D01*
X128117500Y-70231000D01*
X128117500Y-69406750D01*
X128371500Y-69406750D01*
X128371500Y-70231000D01*
X128391500Y-70231000D01*
X128391500Y-70485000D01*
X128371500Y-70485000D01*
X128371500Y-71309250D01*
X128530250Y-71468000D01*
X128682000Y-71471072D01*
X128806482Y-71458812D01*
X128926180Y-71422502D01*
X128951589Y-71408920D01*
X128930500Y-71514941D01*
X128930500Y-71690059D01*
X128934673Y-71711038D01*
X128926180Y-71706498D01*
X128806482Y-71670188D01*
X128682000Y-71657928D01*
X128530250Y-71661000D01*
X128371500Y-71819750D01*
X128371500Y-72644000D01*
X128391500Y-72644000D01*
X128391500Y-72898000D01*
X128371500Y-72898000D01*
X128371500Y-73722250D01*
X128530250Y-73881000D01*
X128682000Y-73884072D01*
X128806482Y-73871812D01*
X128926180Y-73835502D01*
X129036494Y-73776537D01*
X129103070Y-73721900D01*
X129124725Y-73739671D01*
X129272858Y-73818850D01*
X129433592Y-73867608D01*
X129600750Y-73884072D01*
X130038250Y-73884072D01*
X130205408Y-73867608D01*
X130366142Y-73818850D01*
X130514275Y-73739671D01*
X130644115Y-73633115D01*
X130750671Y-73503275D01*
X130829850Y-73355142D01*
X130878608Y-73194408D01*
X130895072Y-73027250D01*
X130895072Y-72514750D01*
X130878608Y-72347592D01*
X130829850Y-72186858D01*
X130750671Y-72038725D01*
X130651241Y-71917568D01*
X130674336Y-71861812D01*
X130708500Y-71690059D01*
X130708500Y-71514941D01*
X130674336Y-71343188D01*
X130628623Y-71232829D01*
X130644115Y-71220115D01*
X130750671Y-71090275D01*
X130829850Y-70942142D01*
X130878608Y-70781408D01*
X130895072Y-70614250D01*
X130895072Y-70101750D01*
X130878608Y-69934592D01*
X130829850Y-69773858D01*
X130750671Y-69625725D01*
X130644115Y-69495885D01*
X130514275Y-69389329D01*
X130366142Y-69310150D01*
X130205408Y-69261392D01*
X130038250Y-69244928D01*
X129600750Y-69244928D01*
X129433592Y-69261392D01*
X129272858Y-69310150D01*
X129124725Y-69389329D01*
X129103070Y-69407100D01*
X129036494Y-69352463D01*
X128926180Y-69293498D01*
X128806482Y-69257188D01*
X128682000Y-69244928D01*
X128530250Y-69248000D01*
X128371500Y-69406750D01*
X128117500Y-69406750D01*
X127958750Y-69248000D01*
X127807000Y-69244928D01*
X127682518Y-69257188D01*
X127562820Y-69293498D01*
X127452506Y-69352463D01*
X127355815Y-69431815D01*
X127276463Y-69528506D01*
X127217498Y-69638820D01*
X127181188Y-69758518D01*
X127168928Y-69883000D01*
X125528958Y-69883000D01*
X125495850Y-69773858D01*
X125416671Y-69625725D01*
X125310115Y-69495885D01*
X125180275Y-69389329D01*
X125032142Y-69310150D01*
X124871408Y-69261392D01*
X124704250Y-69244928D01*
X124266750Y-69244928D01*
X124099592Y-69261392D01*
X123938858Y-69310150D01*
X123790725Y-69389329D01*
X123698000Y-69465426D01*
X123605275Y-69389329D01*
X123457142Y-69310150D01*
X123296408Y-69261392D01*
X123129250Y-69244928D01*
X122691750Y-69244928D01*
X122524592Y-69261392D01*
X122363858Y-69310150D01*
X122215725Y-69389329D01*
X122085885Y-69495885D01*
X121979329Y-69625725D01*
X121900150Y-69773858D01*
X121851392Y-69934592D01*
X121834928Y-70101750D01*
X121834928Y-70614250D01*
X121851392Y-70781408D01*
X121900150Y-70942142D01*
X121979329Y-71090275D01*
X122078759Y-71211432D01*
X122055664Y-71267188D01*
X122021500Y-71438941D01*
X122021500Y-71614059D01*
X122055664Y-71785812D01*
X122101377Y-71896171D01*
X122085885Y-71908885D01*
X121979329Y-72038725D01*
X121900150Y-72186858D01*
X121851392Y-72347592D01*
X121834928Y-72514750D01*
X121834928Y-73027250D01*
X121851392Y-73194408D01*
X121900150Y-73355142D01*
X121979329Y-73503275D01*
X122085885Y-73633115D01*
X122215725Y-73739671D01*
X122337948Y-73805001D01*
X122042434Y-74100516D01*
X122041688Y-74100664D01*
X121879901Y-74167679D01*
X121734296Y-74264969D01*
X121610469Y-74388796D01*
X121513179Y-74534401D01*
X121446164Y-74696188D01*
X121412000Y-74867941D01*
X98065400Y-74867941D01*
X98065400Y-74805072D01*
X99308000Y-74805072D01*
X99432482Y-74792812D01*
X99552180Y-74756502D01*
X99662494Y-74697537D01*
X99759185Y-74618185D01*
X99838537Y-74521494D01*
X99897502Y-74411180D01*
X99933812Y-74291482D01*
X99946072Y-74167000D01*
X99946072Y-70867000D01*
X99933812Y-70742518D01*
X99897502Y-70622820D01*
X99838537Y-70512506D01*
X99759185Y-70415815D01*
X99662494Y-70336463D01*
X99552180Y-70277498D01*
X99432482Y-70241188D01*
X99308000Y-70228928D01*
X95248000Y-70228928D01*
X95123518Y-70241188D01*
X95003820Y-70277498D01*
X94893506Y-70336463D01*
X94796815Y-70415815D01*
X94717463Y-70512506D01*
X94658498Y-70622820D01*
X94622188Y-70742518D01*
X94609928Y-70867000D01*
X94609928Y-74167000D01*
X94622188Y-74291482D01*
X94658498Y-74411180D01*
X94717463Y-74521494D01*
X94796815Y-74618185D01*
X94893506Y-74697537D01*
X95003820Y-74756502D01*
X95123518Y-74792812D01*
X95248000Y-74805072D01*
X96490600Y-74805072D01*
X96490601Y-79463317D01*
X96490600Y-79463327D01*
X96490600Y-79925672D01*
X96490601Y-79925682D01*
X96490600Y-81495472D01*
X96490601Y-81495482D01*
X96490600Y-83509441D01*
X88925400Y-91074642D01*
X88925400Y-81160072D01*
X91313000Y-81160072D01*
X91437482Y-81147812D01*
X91557180Y-81111502D01*
X91667494Y-81052537D01*
X91764185Y-80973185D01*
X91843537Y-80876494D01*
X91902502Y-80766180D01*
X91938812Y-80646482D01*
X91951072Y-80522000D01*
X91951072Y-76712000D01*
X91938812Y-76587518D01*
X91902502Y-76467820D01*
X91843537Y-76357506D01*
X91764185Y-76260815D01*
X91667494Y-76181463D01*
X91557180Y-76122498D01*
X91437482Y-76086188D01*
X91313000Y-76073928D01*
X88925400Y-76073928D01*
X88925400Y-68365441D01*
X97536000Y-68365441D01*
X97536000Y-68540559D01*
X97570164Y-68712312D01*
X97637179Y-68874099D01*
X97734469Y-69019704D01*
X97858296Y-69143531D01*
X98003901Y-69240821D01*
X98165688Y-69307836D01*
X98337441Y-69342000D01*
X98512559Y-69342000D01*
X98684312Y-69307836D01*
X98846099Y-69240821D01*
X98846729Y-69240400D01*
X98967139Y-69240400D01*
X98969053Y-69246709D01*
X99050542Y-69399164D01*
X99160208Y-69532792D01*
X99293836Y-69642458D01*
X99446291Y-69723947D01*
X99611715Y-69774128D01*
X99783750Y-69791072D01*
X100271250Y-69791072D01*
X100443285Y-69774128D01*
X100608709Y-69723947D01*
X100761164Y-69642458D01*
X100894792Y-69532792D01*
X100965000Y-69447244D01*
X101035208Y-69532792D01*
X101168836Y-69642458D01*
X101321291Y-69723947D01*
X101486715Y-69774128D01*
X101658750Y-69791072D01*
X102146250Y-69791072D01*
X102318285Y-69774128D01*
X102483709Y-69723947D01*
X102636164Y-69642458D01*
X102769792Y-69532792D01*
X102879458Y-69399164D01*
X102960947Y-69246709D01*
X102962861Y-69240400D01*
X103101569Y-69240400D01*
X103162885Y-69315115D01*
X103292725Y-69421671D01*
X103440858Y-69500850D01*
X103601592Y-69549608D01*
X103768750Y-69566072D01*
X104206250Y-69566072D01*
X104373408Y-69549608D01*
X104534142Y-69500850D01*
X104682275Y-69421671D01*
X104703930Y-69403900D01*
X104770506Y-69458537D01*
X104880820Y-69517502D01*
X105000518Y-69553812D01*
X105125000Y-69566072D01*
X105276750Y-69563000D01*
X105435500Y-69404250D01*
X105435500Y-68580000D01*
X105689500Y-68580000D01*
X105689500Y-69404250D01*
X105848250Y-69563000D01*
X106000000Y-69566072D01*
X106124482Y-69553812D01*
X106244180Y-69517502D01*
X106354494Y-69458537D01*
X106451185Y-69379185D01*
X106530537Y-69282494D01*
X106589502Y-69172180D01*
X106625812Y-69052482D01*
X106638072Y-68928000D01*
X106635000Y-68738750D01*
X106476250Y-68580000D01*
X105689500Y-68580000D01*
X105435500Y-68580000D01*
X105415500Y-68580000D01*
X105415500Y-68326000D01*
X105435500Y-68326000D01*
X105435500Y-67501750D01*
X105689500Y-67501750D01*
X105689500Y-68326000D01*
X106476250Y-68326000D01*
X106635000Y-68167250D01*
X106638072Y-67978000D01*
X106625812Y-67853518D01*
X106589502Y-67733820D01*
X106530537Y-67623506D01*
X106451185Y-67526815D01*
X106354494Y-67447463D01*
X106244180Y-67388498D01*
X106124482Y-67352188D01*
X106000000Y-67339928D01*
X105848250Y-67343000D01*
X105689500Y-67501750D01*
X105435500Y-67501750D01*
X105276750Y-67343000D01*
X105125000Y-67339928D01*
X105000518Y-67352188D01*
X104880820Y-67388498D01*
X104770506Y-67447463D01*
X104703930Y-67502100D01*
X104682275Y-67484329D01*
X104534142Y-67405150D01*
X104373408Y-67356392D01*
X104206250Y-67339928D01*
X103768750Y-67339928D01*
X103601592Y-67356392D01*
X103440858Y-67405150D01*
X103292725Y-67484329D01*
X103162885Y-67590885D01*
X103101569Y-67665600D01*
X102962861Y-67665600D01*
X102960947Y-67659291D01*
X102879458Y-67506836D01*
X102769792Y-67373208D01*
X102636164Y-67263542D01*
X102483709Y-67182053D01*
X102318285Y-67131872D01*
X102146250Y-67114928D01*
X101658750Y-67114928D01*
X101486715Y-67131872D01*
X101321291Y-67182053D01*
X101168836Y-67263542D01*
X101035208Y-67373208D01*
X100965000Y-67458756D01*
X100894792Y-67373208D01*
X100761164Y-67263542D01*
X100608709Y-67182053D01*
X100443285Y-67131872D01*
X100271250Y-67114928D01*
X99783750Y-67114928D01*
X99611715Y-67131872D01*
X99446291Y-67182053D01*
X99293836Y-67263542D01*
X99160208Y-67373208D01*
X99050542Y-67506836D01*
X98969053Y-67659291D01*
X98967139Y-67665600D01*
X98846729Y-67665600D01*
X98846099Y-67665179D01*
X98684312Y-67598164D01*
X98512559Y-67564000D01*
X98337441Y-67564000D01*
X98165688Y-67598164D01*
X98003901Y-67665179D01*
X97858296Y-67762469D01*
X97734469Y-67886296D01*
X97637179Y-68031901D01*
X97570164Y-68193688D01*
X97536000Y-68365441D01*
X88925400Y-68365441D01*
X88925400Y-67870072D01*
X91018000Y-67870072D01*
X91142482Y-67857812D01*
X91262180Y-67821502D01*
X91372494Y-67762537D01*
X91469185Y-67683185D01*
X91548537Y-67586494D01*
X91607502Y-67476180D01*
X91643812Y-67356482D01*
X91656072Y-67232000D01*
X91656072Y-63422000D01*
X91643812Y-63297518D01*
X91607502Y-63177820D01*
X91548537Y-63067506D01*
X91469185Y-62970815D01*
X91372494Y-62891463D01*
X91262180Y-62832498D01*
X91142482Y-62796188D01*
X91018000Y-62783928D01*
X85258000Y-62783928D01*
X85133518Y-62796188D01*
X85013820Y-62832498D01*
X84903506Y-62891463D01*
X84806815Y-62970815D01*
X84727463Y-63067506D01*
X84668498Y-63177820D01*
X84632188Y-63297518D01*
X84619928Y-63422000D01*
X84619928Y-67232000D01*
X84632188Y-67356482D01*
X84668498Y-67476180D01*
X84727463Y-67586494D01*
X84806815Y-67683185D01*
X84903506Y-67762537D01*
X85013820Y-67821502D01*
X85133518Y-67857812D01*
X85258000Y-67870072D01*
X87350600Y-67870072D01*
X87350601Y-72273318D01*
X87350600Y-72273328D01*
X87350600Y-76073928D01*
X84963000Y-76073928D01*
X84838518Y-76086188D01*
X84718820Y-76122498D01*
X84608506Y-76181463D01*
X84511815Y-76260815D01*
X84432463Y-76357506D01*
X84373498Y-76467820D01*
X84337188Y-76587518D01*
X84324928Y-76712000D01*
X84324928Y-80522000D01*
X84337188Y-80646482D01*
X84373498Y-80766180D01*
X84432463Y-80876494D01*
X84511815Y-80973185D01*
X84608506Y-81052537D01*
X84718820Y-81111502D01*
X84838518Y-81147812D01*
X84963000Y-81160072D01*
X87350601Y-81160072D01*
X87350601Y-85563327D01*
X87350600Y-92002848D01*
X83671562Y-95681888D01*
X83641521Y-95706542D01*
X83581704Y-95779429D01*
X83543124Y-95826439D01*
X83470007Y-95963229D01*
X83424984Y-96111654D01*
X83409781Y-96266011D01*
X81940000Y-96266011D01*
X81940000Y-62118212D01*
X200795000Y-62118212D01*
X200795000Y-62341788D01*
X200838617Y-62561067D01*
X200924176Y-62767624D01*
X201048388Y-62953520D01*
X201206480Y-63111612D01*
X201392376Y-63235824D01*
X201598933Y-63321383D01*
X201818212Y-63365000D01*
X202041788Y-63365000D01*
X202261067Y-63321383D01*
X202467624Y-63235824D01*
X202653520Y-63111612D01*
X202811612Y-62953520D01*
X202935824Y-62767624D01*
X203021383Y-62561067D01*
X203065000Y-62341788D01*
X203065000Y-62118212D01*
X203021383Y-61898933D01*
X202935824Y-61692376D01*
X202811612Y-61506480D01*
X202653520Y-61348388D01*
X202467624Y-61224176D01*
X202261067Y-61138617D01*
X202041788Y-61095000D01*
X201818212Y-61095000D01*
X201598933Y-61138617D01*
X201392376Y-61224176D01*
X201206480Y-61348388D01*
X201048388Y-61506480D01*
X200924176Y-61692376D01*
X200838617Y-61898933D01*
X200795000Y-62118212D01*
X81940000Y-62118212D01*
X81940000Y-58834872D01*
X82220000Y-58834872D01*
X82220000Y-59275128D01*
X82305890Y-59706925D01*
X82474369Y-60113669D01*
X82718962Y-60479729D01*
X83030271Y-60791038D01*
X83396331Y-61035631D01*
X83803075Y-61204110D01*
X84234872Y-61290000D01*
X84675128Y-61290000D01*
X85106925Y-61204110D01*
X85513669Y-61035631D01*
X85879729Y-60791038D01*
X86191038Y-60479729D01*
X86435631Y-60113669D01*
X86604110Y-59706925D01*
X86690000Y-59275128D01*
X86690000Y-58834872D01*
X202870000Y-58834872D01*
X202870000Y-59275128D01*
X202955890Y-59706925D01*
X203124369Y-60113669D01*
X203368962Y-60479729D01*
X203680271Y-60791038D01*
X204046331Y-61035631D01*
X204453075Y-61204110D01*
X204884872Y-61290000D01*
X205325128Y-61290000D01*
X205756925Y-61204110D01*
X206163669Y-61035631D01*
X206529729Y-60791038D01*
X206841038Y-60479729D01*
X207085631Y-60113669D01*
X207254110Y-59706925D01*
X207340000Y-59275128D01*
X207340000Y-58834872D01*
X207254110Y-58403075D01*
X207085631Y-57996331D01*
X206841038Y-57630271D01*
X206529729Y-57318962D01*
X206163669Y-57074369D01*
X205756925Y-56905890D01*
X205325128Y-56820000D01*
X204884872Y-56820000D01*
X204453075Y-56905890D01*
X204046331Y-57074369D01*
X203680271Y-57318962D01*
X203368962Y-57630271D01*
X203124369Y-57996331D01*
X202955890Y-58403075D01*
X202870000Y-58834872D01*
X86690000Y-58834872D01*
X86604110Y-58403075D01*
X86435631Y-57996331D01*
X86191038Y-57630271D01*
X85879729Y-57318962D01*
X85513669Y-57074369D01*
X85106925Y-56905890D01*
X84675128Y-56820000D01*
X84234872Y-56820000D01*
X83803075Y-56905890D01*
X83396331Y-57074369D01*
X83030271Y-57318962D01*
X82718962Y-57630271D01*
X82474369Y-57996331D01*
X82305890Y-58403075D01*
X82220000Y-58834872D01*
X81940000Y-58834872D01*
X81940000Y-58452279D01*
X81978909Y-58055455D01*
X82084780Y-57704792D01*
X82256744Y-57381375D01*
X82488254Y-57097516D01*
X82770486Y-56864035D01*
X83092695Y-56689817D01*
X83442614Y-56581498D01*
X83837443Y-56540000D01*
X205707721Y-56540000D01*
X206104545Y-56578909D01*
G37*
%TD.AperFunction*%
%TD*%
M02*
