M48
; DRILL file {KiCad (5.1.7)-1} date 06/25/21 13:39:55
; FORMAT={-:-/ absolute / inch / decimal}
; #@! TF.CreationDate,2021-06-25T13:39:55-05:00
; #@! TF.GenerationSoftware,Kicad,Pcbnew,(5.1.7)-1
; #@! TF.FileFunction,Plated,1,2,PTH
FMAT,2
INCH
T1C0.0100
T2C0.0315
T3C0.0319
T4C0.0394
%
G90
G05
T1
X3.875Y-2.695
X4.47Y-3.68
X4.7Y-4.745
X4.8Y-3.175
X4.815Y-2.951
X4.839Y-2.816
X5.0Y-4.81
X5.111Y-2.819
X5.125Y-4.825
X5.125Y-4.875
X5.163Y-3.667
X5.164Y-4.516
X5.19Y-4.08
X5.225Y-3.775
X5.23Y-4.625
X5.436Y-3.669
X5.436Y-4.514
T2
X4.7Y-3.8
X4.7Y-4.1
X4.8Y-3.8
X4.8Y-4.1
X4.9Y-3.8
X4.9Y-4.1
X5.0Y-3.8
X5.0Y-4.1
X4.7Y-4.65
X4.7Y-4.95
X4.8Y-4.65
X4.8Y-4.95
X4.9Y-4.65
X4.9Y-4.95
X5.0Y-4.65
X5.0Y-4.95
T3
X3.402Y-4.489
X3.402Y-4.589
X3.402Y-4.689
X3.402Y-4.789
X3.402Y-4.989
X3.402Y-5.089
X3.402Y-5.189
T4
X5.7Y-4.75
X5.7Y-4.85
X4.2Y-4.755
X4.2Y-4.855
X5.7Y-3.05
X5.7Y-3.15
X3.45Y-3.8
X3.45Y-3.9
X3.45Y-4.0
X3.45Y-4.1
X4.2Y-3.9
X4.2Y-4.0
X4.2Y-3.06
X4.2Y-3.16
X5.7Y-3.9
X5.7Y-4.0
T0
M30
